<svg width="100" height="100" viewBox="0 0 100 100" fill="none" xmlns="http://www.w3.org/2000/svg">
<g clip-path="url(#clip0_493_1824)">
<path d="M50 1.5C76.7858 1.5 98.5 23.2142 98.5 50C98.5 76.7858 76.7858 98.5 50 98.5C23.2142 98.5 1.5 76.7858 1.5 50C1.5 23.2142 23.2142 1.5 50 1.5Z" fill="black" stroke="url(#paint0_linear_493_1824)" stroke-width="2"/>
<path d="M99.5 50C99.5 22.6619 77.3381 0.5 50 0.5C22.6619 0.5 0.5 22.6619 0.5 50C0.5 77.3381 22.6619 99.5 50 99.5C77.3381 99.5 99.5 77.3381 99.5 50Z" stroke="url(#paint1_linear_493_1824)"/>
<path d="M78.6651 57.7662L71.9353 38.6841C71.9511 38.6851 71.968 38.6871 71.9829 38.6871C76.6162 38.7664 77.7745 36.2754 78.3773 35.4129C79.2114 34.2209 77.4504 33.0289 76.5239 33.824C75.5974 34.618 73.0945 36.2862 68.2755 34.0612C63.9305 32.0553 56.3129 28.5658 51.8656 27.898V23.3277C51.8656 22.2965 51.0304 21.4619 50.0002 21.4619C48.9696 21.4619 48.1344 22.2965 48.1344 23.3277V27.898C43.6871 28.5658 36.0696 32.0553 31.7245 34.0612C26.9056 36.2862 24.4026 34.618 23.4761 33.824C22.5496 33.029 20.7884 34.2211 21.6227 35.4129C22.2256 36.2754 23.3838 38.7664 28.0171 38.6871C28.0326 38.6871 28.0495 38.6851 28.0643 38.6841L21.3349 57.7662H20C21.3473 62.2223 25.4848 65.4697 30.3822 65.4697C35.279 65.4697 39.4166 62.2223 40.7639 57.7662H39.4296L32.3567 37.7115C36.7141 36.3677 42.8531 34.0721 48.1344 33.7187V36.5581H47.1375V67.9348H45.5902V70.7307C44.5689 70.7307 43.5314 70.7307 42.6753 70.7307C39.9385 70.7307 40.0195 74.5943 40.0195 74.5943C37.7656 74.5943 36.6386 76.3639 36.6386 78.5374H63.3612C63.3612 76.364 62.2344 74.5943 59.981 74.5943C59.981 74.5943 60.0614 70.7307 57.3246 70.7307C56.4685 70.7307 55.4309 70.7307 54.4096 70.7307V67.9348H52.8624V36.5582H51.8655V33.7188C57.1474 34.0721 63.2862 36.3677 67.6436 37.7116L60.5704 57.7664H59.236C60.5832 62.2224 64.7209 65.4698 69.6177 65.4698C74.5149 65.4698 78.6526 62.2224 79.9998 57.7664L78.6651 57.7662ZM36.5519 57.7662H24.2127L30.3822 40.2731L36.5519 57.7662ZM63.4482 57.7662L69.6184 40.2731L75.7875 57.7662H63.4482Z" fill="url(#paint2_linear_493_1824)"/>
</g>
<defs>
<linearGradient id="paint0_linear_493_1824" x1="60.7264" y1="9.63558" x2="36.4671" y2="89.4442" gradientUnits="userSpaceOnUse">
<stop stop-color="#FE6909"/>
<stop offset="1" stop-color="#FCE202"/>
</linearGradient>
<linearGradient id="paint1_linear_493_1824" x1="60.7264" y1="9.63558" x2="36.4671" y2="89.4442" gradientUnits="userSpaceOnUse">
<stop stop-color="#FE6909"/>
<stop offset="1" stop-color="#FCE202"/>
</linearGradient>
<linearGradient id="paint2_linear_493_1824" x1="49.9999" y1="21.4619" x2="49.9999" y2="78.5374" gradientUnits="userSpaceOnUse">
<stop stop-color="#FE6909"/>
<stop offset="1" stop-color="#FCE202"/>
</linearGradient>
<clipPath id="clip0_493_1824">
<rect width="100" height="100" fill="white"/>
</clipPath>
</defs>
</svg>
