<svg width="453" height="405" viewBox="0 0 453 405" fill="none" xmlns="http://www.w3.org/2000/svg">
<path d="M160.453 217.357C158.786 218.461 157.233 219.723 155.821 221.124C156.352 220.56 156.879 219.988 157.39 219.42C159.496 217.054 161.641 213.816 164.837 212.784C165.996 212.412 167.175 212.117 168.365 211.902C168.044 212.334 167.713 212.751 167.374 213.152C165.601 215.215 162.741 215.958 160.453 217.357Z" fill="#FF8810"/>
<path d="M99.439 316.028C107.712 312.553 115.873 308.398 123.946 304.43C128.333 302.275 132.817 300.358 137.539 299.139C141.341 298.168 144.999 298.214 148.575 296.296C152.498 294.189 153.272 290.99 155.794 287.692C158.315 284.393 165.009 282.98 168.874 281.752C171.816 280.814 174.764 279.244 177.746 278.572C177.077 280.045 175.035 280.563 173.647 281.364C170.863 282.971 168.43 284.949 165.875 286.864C163.487 288.663 162.468 290.034 159.714 290.091C156.7 290.151 152.673 291.504 151.879 295.055C151.52 296.649 153.582 298.272 152.966 299.411C152.151 300.968 145.351 300.861 143.801 301.064C137.994 301.827 132.774 302.599 127.234 304.921C120.671 307.66 113.973 310.104 107.453 312.944C103.726 314.571 99.0449 316.255 95.7824 318.695L99.439 316.028Z" fill="#FF8810"/>
<path style="mix-blend-mode:screen" d="M31.8125 291.769C37.8763 307.642 56.3012 284.204 60.4536 278.231C68.7901 266.354 78.0238 255.046 88.0728 244.407C91.2568 241.02 95.3975 237.994 98.4465 234.679C101.783 237.273 110.842 229.996 113.74 228.338C119.936 224.798 127.699 220.489 134.517 218.915C130.195 221.321 125.77 223.735 121.61 226.43C118.608 228.373 115.515 230.474 113.626 233.502C113.007 234.479 102.754 249.855 101.82 250.641C99.0821 252.941 102.538 243.438 89.7679 248.836C84.1589 251.208 85.1492 254.506 84.4189 260.462C87.285 259.857 90.0417 262.377 91.3915 264.517C94.2868 262.845 96.5807 258.896 98.7881 256.408C105.121 249.187 113.105 241.81 121.79 237.268C125.612 235.272 130.919 234.959 134.264 232.167C139.56 227.729 139.191 217.634 142.552 211.903C148.93 201.011 161.05 190.895 172.635 185.551C183.129 180.71 194.845 181.239 205.479 177.058C219.154 171.683 230.834 161.774 244.633 156.18C252.467 153.001 260.657 151.055 268.782 149.095C269.754 151.322 267.124 155.035 266.166 157.373C262.861 165.446 263.065 170.31 267.745 177.18C269.285 179.441 273.574 183.319 272.336 186.259C271.369 188.54 266.897 189.4 265.151 190.628C261.765 192.945 259.887 196.744 256.93 199.139C254.792 200.867 252.624 201.573 249.985 202.719C243.096 205.728 236.734 209.856 231.199 214.909C227.545 218.294 226.237 222.872 222.98 226.311C221.71 227.654 220.053 228.453 218.702 229.653C214.084 233.752 210.762 239.64 205.45 242.912C201.216 245.519 198.888 244.474 194.742 243.04C189.32 241.167 183.639 239.952 177.675 241.243C169.346 243.048 161.704 249.12 155.872 255.033C151.848 259.121 146.596 263.586 143.969 268.621C143.424 269.655 143.44 271.027 142.682 272.325C141.145 274.966 138.345 276.683 136.895 279.394C134.229 284.351 138.888 285.537 139.097 290.409C144.908 288.896 150.613 286.928 156.151 284.527C159.805 282.943 160.428 281.995 161.847 278.666C164.393 272.691 168.381 270.052 174.775 267.427C177.269 266.407 182.71 263.575 185.529 263.691C186.486 263.726 187.325 264.754 188.186 264.74C195.969 264.641 205.54 258.123 213.155 255.654C219.886 253.499 226.802 252.095 233.759 251.471C236.653 251.181 239.472 250.871 242.206 249.661C248.474 246.887 253.205 241.898 259.704 239.148C262.641 237.904 265.863 236.957 268.576 235.276C266.659 237.89 262.904 239.952 260.039 241.528C251.474 246.247 246.125 250.9 240.32 258.809C233.663 267.871 227.765 273.66 216.423 275.231C206.343 276.625 197.488 281.259 188.422 285.743C190.368 282.319 198.502 278.474 189.664 276.777C182.916 275.475 173.672 282.193 168.026 285.274C162.253 288.429 155.201 291.219 152.03 297.271C150.594 300.006 150.979 304.551 148.113 306.51C144.888 308.719 137.625 307.504 134.196 307.41C128.833 307.261 123.463 306.624 118.071 306.859C107.235 307.34 96.9254 312.767 87.9047 318.715C83.3548 321.715 79.9168 324.089 74.4564 324.621C68.0185 325.251 61.5265 322.997 55.0936 324.249C51.4131 324.956 46.3591 327.449 45.3376 331.189C46.0208 321.343 38.3672 311.806 32.8683 304.784L31.8125 291.769Z" fill="url(#paint0_linear_456_2)"/>
<path d="M31.1811 294.4C34.3609 306.94 49.6428 306.891 60.2343 302.545C69.8258 298.614 84.5681 293.258 90.0866 283.934C92.197 280.369 92.8446 276.199 95.0799 272.504C102.726 259.882 118.782 255.002 130.734 247.136C136.931 243.033 143.102 238.42 148.013 232.959C153.586 226.785 158.847 224.603 166.727 221.524C171.507 219.646 175.95 218.231 179.37 214.225C182.899 210.05 214.26 186.93 227.59 181.492C239.109 176.794 248.028 168.762 257.437 160.983C260.914 158.104 263.569 153.048 267.611 151.108C264.704 157.092 262.982 161.368 258.185 166.621C251.158 174.311 244.223 187.808 233.784 191.084C226.592 193.325 158.566 229.061 147.703 237.764C135.724 247.362 124.491 258.133 112.285 267.417C107.804 270.823 97.8701 272.589 96.7434 278.679C104.464 273.743 113.311 270.778 121.273 266.17C135.022 258.233 147.053 249.338 159.162 239.234C171.271 229.129 182.704 217.131 196.083 208.839C202.969 204.575 201.999 200.976 206.042 194.903C208.916 190.582 215.283 186.943 219.157 183.562C226.477 177.141 233.108 170.031 240.733 163.911C251.743 155.077 279.83 141.964 288.538 145.237C295.489 147.861 313.354 144.036 318.85 147.857C313.963 158.286 290.299 172.343 280.088 177.209C274.454 179.894 263.704 185.854 258.218 188.785C251.963 192.145 246.844 192.002 240.257 194.104C229.645 197.485 225.539 205.132 220.026 213.188C222.172 214.185 225.334 214.124 227.876 213.135C222.706 214.775 217.679 218.066 212.4 219.129C202.9 221.043 196.277 221.47 187.235 226.869C175.959 233.599 165.452 241.472 155.034 249.414C148.382 254.489 141.485 259.704 137.087 266.796C135.413 269.495 134.614 271.988 132.33 274.441C127.268 279.848 121.861 284.953 116.146 289.723C106.892 297.334 92.5516 297.67 81.3436 300.423C64.4043 304.585 46.656 316.643 46.6062 335.212C46.8883 320.211 35.7538 311.281 31.1811 294.4Z" fill="url(#paint1_linear_456_2)"/>
<path d="M98.4144 292.696C97.84 292.898 97.2493 293.042 96.6521 293.125C99.5224 289.195 106.344 286.243 110.573 283.408C114.352 280.874 117.65 278.377 121.827 277.362C126.004 276.347 128.297 276.115 131.263 271.836C128.718 267.429 135.825 261.231 138.773 258.138C147.517 248.941 158.684 240.924 169.134 233.673C175.406 229.322 182.308 224.838 189.774 222.932C194.504 221.729 198.264 221.465 202.683 219.307C207.821 216.803 213.761 216.734 218.436 213.793C217.932 213.622 217.082 212.674 216.284 212.499C219.303 209.092 220.802 204.824 224.085 201.48C229.352 196.113 237.283 192.49 244.557 190.925C247.073 190.386 249.402 190.633 251.735 190.084C258.481 188.504 264.973 183.171 270.603 179.421C280.546 172.804 294.176 167.145 302.167 158.137C304.239 155.791 305.925 153.032 304.331 150.261C294.237 153.274 285.77 161.387 275.425 163.905C267.836 165.745 261.436 165.056 254.054 168.966C244.984 173.772 236.087 180.914 229.041 188.285C231.877 187.577 238.514 184.612 240.68 186.396C231.714 191.914 222.85 198.59 215.497 206.023C205.948 215.684 192.32 217.015 182.096 225.559C190.557 218.453 200.13 211.078 206.297 202.194C213.87 191.295 225.277 182.11 236.467 174.242C246.526 167.174 251.996 158.261 263.732 153.602C267.369 152.158 272.632 151.273 275.203 148.476C268.197 151.307 260.582 152.548 253.901 156.091C241.101 162.872 230.77 174.79 219.725 183.939C209.766 192.189 203.516 205.647 191.647 211.418C185.091 214.605 179.683 221.854 173.964 226.547C160.443 237.64 145.511 247.978 133.919 261.045C123.706 272.555 109.642 278.522 98.0461 288.824C93.0829 293.316 87.5985 297.238 81.72 300.497C87.0911 298 92.4339 295.156 98.4144 292.696Z" fill="url(#paint2_linear_456_2)"/>
<path d="M44.2571 323.603C50.2718 317.206 61.1035 316.907 68.9369 312.799C75.5137 309.354 78.7797 303.645 83.812 298.514C91.6442 290.527 99.729 282.819 105.724 273.419C108.327 269.333 108.932 263.812 112.406 260.483C119.104 254.053 134.456 251.543 142.834 248.061C158.466 241.567 173.96 232.873 190.58 229.505C198.863 227.826 205.367 230.586 213.296 227.306C227.658 221.361 245.396 213.498 256.706 202.831C266.906 193.267 271.885 181.466 283.73 173.02C292.145 167.012 300.772 163.349 309.889 159.031C309.93 162.158 303.322 167.29 300.816 169.835C293.792 176.946 283.822 178.402 276.881 184.866C273.046 188.441 273.095 193.353 270.399 197.041C265.504 203.816 255.356 211.67 248.087 216.003C240.818 220.336 232.736 223.123 225.257 227.084C217.779 231.044 210.84 235.633 202.426 237.42C197.595 238.439 193.289 237.885 188.518 237.999C178.519 238.238 169.885 240.881 160.656 245.211C147.014 251.633 134.118 258.375 121.845 267.01C116.739 270.599 110.566 273.291 106.004 277.584C101.195 282.114 100.845 286.453 98.6638 291.913C94.4856 302.412 81.9208 312.37 71.3878 316.876C61.859 320.965 53.8158 319.408 44.2571 323.603Z" fill="url(#paint3_linear_456_2)"/>
<path opacity="0.35" d="M80.5825 303.218C80.2085 295.459 106.075 285.413 112.338 282.196C129.047 273.6 140.892 261.841 154.482 249.227C165.684 238.827 176.916 229.449 191.703 224.902C199.971 222.349 210.289 219.706 217.105 213.954C220.104 211.424 221.813 207.964 224.543 205.254C231.833 198.01 242.962 193.013 253.014 193.579C260.139 193.981 265.44 195.388 272.947 193.879C285.268 191.402 297.607 186.305 309.045 181.003C318.725 176.442 327.838 170.738 336.156 164.033C332.521 161.931 331.198 158.699 328.781 155.384C323.416 148.07 313.233 151.56 304.823 153.927C297.177 156.084 289.598 158.664 281.86 160.474C273.31 162.481 264.163 162.464 255.766 165.348C247.059 168.338 241.627 175.192 234.546 180.561C230.06 183.96 222.775 186.743 219.547 191.122C234.136 191.751 213.719 206.615 209.773 209.959C200.429 217.88 191.924 221.724 181.474 228.025C143.387 250.97 108.34 280.524 80.5825 303.218Z" fill="url(#paint4_linear_456_2)"/>
<path opacity="0.35" d="M114.4 265.807C117.787 258.502 149.978 259.339 158.155 258.818C179.977 257.414 198.207 251.193 218.695 244.865C235.584 239.645 252.007 235.381 269.828 236.963C279.797 237.839 291.974 239.43 301.969 236.786C306.367 235.624 309.856 233.1 314.057 231.666C325.281 227.83 339.46 227.568 349.792 232.017C357.115 235.172 362.024 238.542 370.681 240.082C384.89 242.61 400.395 242.728 415.05 242.305C427.487 241.879 439.883 240.177 451.928 237.24C449.117 233.88 449.295 230.382 448.361 226.379C446.263 217.534 433.816 216.776 423.788 215.674C414.668 214.676 405.412 214.096 396.364 212.743C386.364 211.254 376.72 207.665 366.453 207.045C355.807 206.402 346.736 210.603 336.646 212.791C330.256 214.174 321.213 213.895 315.672 216.674C330.761 222.954 301.972 228.692 296.178 230.236C282.458 233.893 271.609 234.117 257.511 235.848C206.138 242.138 154.751 255.713 114.4 265.807Z" fill="url(#paint5_linear_456_2)"/>
<path opacity="0.35" d="M82.5507 284.463C81.6323 276.087 112.428 254.75 119.838 248.722C139.605 232.623 153.279 214.988 169.02 195.718C181.995 179.831 195.067 165.055 212.744 154.172C222.628 148.074 234.993 141.061 242.922 132.028C246.411 128.054 248.278 123.573 251.43 119.508C259.845 108.647 273.055 98.7248 285.29 95.3434C293.962 92.9479 300.481 92.3833 309.502 87.7364C324.31 80.1083 338.982 69.5948 352.549 59.215C364.026 50.3498 374.745 40.4541 384.441 29.7751C379.903 28.9133 378.103 25.8897 374.972 23.2101C368.022 17.3105 355.87 25.1999 345.803 31.1492C336.651 36.5637 327.606 42.4162 318.322 47.4866C308.064 53.0955 296.961 56.7193 286.941 63.2319C276.551 69.984 270.368 79.6764 262.093 88.3961C256.852 93.9158 248.176 99.8741 244.52 105.971C262.265 100.853 238.373 125.314 233.783 130.559C222.915 142.981 212.822 150.592 200.514 161.676C155.657 202.051 114.885 248.477 82.5507 284.463Z" fill="url(#paint6_linear_456_2)"/>
<path opacity="0.35" d="M43.8387 296.593C46.9156 289.32 76.7193 290.411 84.2842 289.955C104.472 288.725 121.297 282.653 140.211 276.492C155.803 271.411 170.971 267.28 187.478 269.001C196.713 269.955 207.997 271.641 217.228 269.079C221.29 267.952 224.499 265.457 228.377 264.058C238.735 260.314 251.858 260.164 261.457 264.691C268.26 267.901 272.83 271.307 280.855 272.914C294.028 275.553 308.381 275.793 321.942 275.486C333.451 275.159 344.912 273.556 356.038 270.717C353.409 267.338 353.546 263.843 352.649 259.837C350.638 250.983 339.111 250.127 329.82 248.946C321.37 247.878 312.798 247.224 304.413 245.801C295.145 244.234 286.189 240.572 276.681 239.872C266.822 239.145 258.458 243.271 249.136 245.377C243.233 246.708 234.859 246.359 229.753 249.091C243.769 255.486 217.166 260.991 211.816 262.488C199.145 266.034 189.105 266.172 176.069 267.79C128.566 273.668 81.1089 286.826 43.8387 296.593Z" fill="url(#paint7_linear_456_2)"/>
<path d="M52.2745 319.794C53.5077 317.449 57.4741 315.942 59.9396 315.138C65.485 313.338 70.065 311.261 74.78 307.578C77.9993 305.063 81.6908 301.635 85.5639 300.302C87.8471 299.508 92.4696 298.415 94.5972 298.935C93.093 302.492 89.0238 305.681 86.0436 308.116C81.4508 311.933 76.2077 314.934 70.5907 316.959C63.6639 319.383 56.088 320.297 49.3641 323.26C49.333 322.039 51.2966 320.642 52.2745 319.794Z" fill="#FFFF10"/>
<path d="M54.6974 318.852C55.1217 316.827 59.9344 315.697 61.502 315.217C63.4168 314.637 65.3425 314.223 67.2359 313.566C71.4706 312.162 75.5599 310.312 79.4251 308.051C81.0408 307.071 83.3123 305.14 85.2459 305.037C85.2169 306.629 83.1801 308.561 81.9891 309.574C78.8323 312.189 75.4097 314.484 71.7829 316.417C70.9127 316.888 69.9478 317.65 69.1265 317.315C68.0924 316.899 68.1095 316.038 66.6678 315.915C62.9392 315.59 57.2746 316.718 54.6974 318.852Z" fill="white"/>
<path d="M70.3433 303.149C70.9317 300.063 73.2608 298.173 76.0205 296.721C80.3188 294.423 84.6353 292.236 88.8235 289.797C88.77 291.019 87.9359 292.483 87.4134 293.635C86.2634 296.173 84.8991 296.956 82.3159 298.001C76.5947 300.317 71.3182 302.691 66.622 306.684L70.3433 303.149Z" fill="white"/>
<path d="M43.9944 326.849C56.2193 324.432 64.2505 335.316 69.3827 341.594C71.6259 344.342 71.2637 345.733 75.025 347.084C83.7537 350.214 106.222 345.501 116.401 345.248C140.301 344.675 150.096 349.8 174.552 346.948C188.605 345.313 209.341 338.104 218.174 326.073C221.984 320.881 223.072 315.17 226.877 310.117C229.897 306.11 235.985 302.155 240.112 298.422C261.304 279.272 248.222 266.505 227.764 262.723C237.763 265.571 248.545 273.633 248.16 281.116C247.214 299.725 236.056 295.65 220.834 301.046C232.629 301.693 219.31 313.095 214.676 321.656C211 328.435 202.182 335.091 194.366 339.1C183.407 344.718 162.293 348.166 151.528 347.157C145.546 346.599 139.717 343.999 133.467 343.323C121.309 342.047 108.255 344.916 95.8386 344.697C84.5574 344.495 79.2007 341.596 71.8701 335.774C62.0504 327.955 51.3182 323.293 43.9944 326.849Z" fill="url(#paint8_linear_456_2)"/>
<path d="M38.6018 314.084C36.2504 308.034 40.472 299.836 46.9267 292.539C50.6652 288.312 52.2313 287.691 52.2538 283.804C52.2645 280.647 49.5084 278.237 48.9674 275.263C47.9348 269.627 49.576 262.835 52.2336 256.192C59.1862 239.025 74.207 208.82 95.3646 194.111C126.024 172.792 153.219 182.546 166.255 194.494C168.087 196.172 174.047 197.414 174.194 199.965C174.344 202.42 167.694 208.816 165.778 211.818C171.135 200.849 169.018 197.231 161.808 192.241C150.799 184.626 129.482 177.359 105.725 190.335C96.4363 195.403 79.3226 209.253 78.4453 217.111C78.0065 220.95 83.0242 221.718 79.4125 227.253C77.7903 229.765 72.7872 233.226 70.483 235.753C65.7797 240.901 61.8338 246.625 58.7692 252.744C52.0154 266.289 54.1433 276.522 55.5725 287.227C40.8451 297.169 33.0983 318.38 45.7401 321.315L38.6018 314.084Z" fill="url(#paint9_linear_456_2)"/>
<path d="M86.085 321.595C89.2989 319.467 94.935 319.605 98.6623 319.028C101.139 318.648 104.161 319.403 106.705 319.278C112.762 318.978 119.388 316.518 125.334 315.154C131.214 313.796 136.16 312.422 142.214 312.176C150.354 311.845 155.513 311.581 163.694 311.399C168.566 311.291 177.093 308.652 181.892 308.596C177.362 309.919 172.673 310.363 168.059 310.937C162.581 311.617 157.039 312.344 151.552 312.702C145.092 313.141 138.64 314.02 132.244 315.333C128.252 316.163 124.373 317.694 120.415 318.713C116.115 319.82 112.467 319.417 108.096 319.74C100.633 320.274 91.2601 318.403 86.085 321.595Z" fill="url(#paint10_linear_456_2)"/>
<path d="M66.8968 342.757C64.4918 342.57 62.0329 342.945 59.7275 343.851C61.0253 346 64.5254 346.226 66.726 344.409L66.8968 342.757Z" fill="#AEFFFF"/>
<path d="M142.605 335.984C141.264 336.343 139.715 336.34 138.504 337.002C139.686 337.674 141.377 337.092 142.622 336.667L142.605 335.984Z" fill="#AEFFFF"/>
<path d="M38.1047 243.54C37.6626 244.656 37.5697 245.849 37.8378 246.965C38.6997 246.253 39.7805 244.237 38.8201 243.474L38.1047 243.54Z" fill="#AEFFFF"/>
<path d="M55.5782 236.045C55.6678 235.27 56.0192 234.527 56.5781 233.929C56.8482 234.634 56.7842 237.066 55.6684 236.854L55.5782 236.045Z" fill="#AEFFFF"/>
<path d="M50.12 296.917C50.2698 294.783 52.913 292.853 54.4355 291.375C54.769 293.288 52.8644 296.656 50.12 296.917Z" fill="#FF7C00"/>
<path d="M156.479 257.463C154.142 258.004 151.639 260.84 150.083 262.626C152.748 263.057 157.624 261.454 157.643 258.172L156.479 257.463Z" fill="#FF4D00"/>
<path d="M186.694 191.281C188.468 189.585 191.023 188.047 193.154 186.921C193.855 189.856 188.755 193.278 185.887 193.128L186.694 191.281Z" fill="#FF4D00"/>
<path d="M179.852 203.523C179.497 203.903 179.108 204.252 178.689 204.566C179.556 202.906 180.936 201.517 182.626 200.603C183.022 202.338 179.832 205.487 178.21 206.544L179.852 203.523Z" fill="#FF4D00"/>
<defs>
<linearGradient id="paint0_linear_456_2" x1="39.5059" y1="321.088" x2="285.913" y2="178.825" gradientUnits="userSpaceOnUse">
<stop stop-color="#FF2400"/>
<stop offset="0.04" stop-color="#E92100"/>
<stop offset="0.15" stop-color="#B31900"/>
<stop offset="0.26" stop-color="#831300"/>
<stop offset="0.37" stop-color="#5B0D00"/>
<stop offset="0.49" stop-color="#3A0800"/>
<stop offset="0.6" stop-color="#200500"/>
<stop offset="0.73" stop-color="#0E0200"/>
<stop offset="0.85" stop-color="#030000"/>
<stop offset="1"/>
</linearGradient>
<linearGradient id="paint1_linear_456_2" x1="33.6034" y1="312.68" x2="318.93" y2="147.947" gradientUnits="userSpaceOnUse">
<stop stop-color="#FFC700"/>
<stop offset="0.28" stop-color="#FF8104"/>
<stop offset="0.99" stop-color="#FF400E"/>
</linearGradient>
<linearGradient id="paint2_linear_456_2" x1="72.2981" y1="284.336" x2="304.335" y2="150.369" gradientUnits="userSpaceOnUse">
<stop stop-color="#FFC700"/>
<stop offset="1" stop-color="#FF8104"/>
</linearGradient>
<linearGradient id="paint3_linear_456_2" x1="41.1673" y1="318.252" x2="311.645" y2="162.092" gradientUnits="userSpaceOnUse">
<stop stop-color="#FFC700"/>
<stop offset="1" stop-color="#FF8104"/>
</linearGradient>
<linearGradient id="paint4_linear_456_2" x1="74.719" y1="293.063" x2="326.668" y2="147.6" gradientUnits="userSpaceOnUse">
<stop stop-color="#FFC700"/>
<stop offset="0.28" stop-color="#FF8104"/>
<stop offset="0.99" stop-color="#FF400E"/>
</linearGradient>
<linearGradient id="paint5_linear_456_2" x1="113.162" y1="254.146" x2="449.924" y2="218.371" gradientUnits="userSpaceOnUse">
<stop stop-color="#FFC700"/>
<stop offset="0.28" stop-color="#FF8104"/>
<stop offset="0.99" stop-color="#FF400E"/>
</linearGradient>
<linearGradient id="paint6_linear_456_2" x1="74.8257" y1="275.64" x2="371.941" y2="15.4988" gradientUnits="userSpaceOnUse">
<stop stop-color="#FFC700"/>
<stop offset="0.28" stop-color="#FF8104"/>
<stop offset="0.99" stop-color="#FF400E"/>
</linearGradient>
<linearGradient id="paint7_linear_456_2" x1="42.5998" y1="284.932" x2="354.033" y2="251.848" gradientUnits="userSpaceOnUse">
<stop stop-color="#FFC700"/>
<stop offset="0.28" stop-color="#FF8104"/>
<stop offset="0.99" stop-color="#FF400E"/>
</linearGradient>
<linearGradient id="paint8_linear_456_2" x1="66.339" y1="365.551" x2="243.057" y2="263.523" gradientUnits="userSpaceOnUse">
<stop stop-color="#FFC700"/>
<stop offset="1" stop-color="#FF4504"/>
</linearGradient>
<linearGradient id="paint9_linear_456_2" x1="21.9974" y1="285.562" x2="173.39" y2="198.156" gradientUnits="userSpaceOnUse">
<stop stop-color="#FFC700"/>
<stop offset="1" stop-color="#FF4504"/>
</linearGradient>
<linearGradient id="paint10_linear_456_2" x1="95.2429" y1="337.457" x2="172.727" y2="292.722" gradientUnits="userSpaceOnUse">
<stop stop-color="#433DC9"/>
<stop offset="0.99" stop-color="#461C86"/>
</linearGradient>
</defs>
</svg>
