<svg width="20" height="20" viewBox="0 0 20 20" fill="none" xmlns="http://www.w3.org/2000/svg">
<path d="M10.0115 7.66493L9.83475 7.48816L3.0825 0.735903C3.08249 0.735894 3.08248 0.735885 3.08247 0.735876C2.77126 0.424769 2.34922 0.25 1.90917 0.25C1.46914 0.25 1.04712 0.424759 0.735903 0.735849C0.735885 0.735867 0.735867 0.735885 0.735849 0.735903M10.0115 7.66493L0.559099 3.25925C0.201108 2.90115 0 2.41553 0 1.90917C0 1.40282 0.201108 0.917199 0.559099 0.559099L0.735849 0.735903M10.0115 7.66493L10.1883 7.48816L16.939 0.737499C17.2518 0.43609 17.6704 0.269345 18.1048 0.27312C18.54 0.276901 18.9562 0.451438 19.2639 0.759138C19.5716 1.06684 19.7462 1.48308 19.7499 1.91822C19.7537 2.35267 19.587 2.77124 19.2856 3.08408L12.5349 9.83475L12.3581 10.0115L12.5349 10.1883L19.2855 16.9389C19.587 17.2518 19.7537 17.6704 19.7499 18.1048C19.7462 18.54 19.5716 18.9562 19.2639 19.2639C18.9562 19.5716 18.54 19.7462 18.1048 19.7499C17.6704 19.7537 17.2518 19.587 16.9389 19.2855L10.1883 12.5349L10.0115 12.3581L9.83475 12.5349L3.08408 19.2856C2.77124 19.587 2.35267 19.7537 1.91822 19.7499C1.48308 19.7462 1.06684 19.5716 0.759138 19.2639C0.451438 18.9562 0.276901 18.54 0.27312 18.1048C0.269345 17.6704 0.43609 17.2518 0.737499 16.939L7.48816 10.1883L7.66493 10.0115L7.48816 9.83475L0.735903 3.0825M10.0115 7.66493L0.735903 3.0825M0.735849 0.735903C0.424759 1.04712 0.25 1.46914 0.25 1.90917C0.25 2.34922 0.424769 2.77126 0.735876 3.08247M0.735849 0.735903L0.735876 3.08247M0.735903 3.0825C0.735894 3.08249 0.735885 3.08248 0.735876 3.08247M0.735903 3.0825L0.735876 3.08247" fill="#F6A41F" stroke="#FFD604" stroke-width="0.5"/>
</svg>
