<svg width="50" height="50" viewBox="0 0 50 50" fill="none" xmlns="http://www.w3.org/2000/svg">
<path fill-rule="evenodd" clip-rule="evenodd" d="M25 50C38.807 50 50 38.807 50 25C50 11.1929 38.807 0 25 0C11.1929 0 0 11.1929 0 25C0 38.807 11.1929 50 25 50ZM26.875 17.5C26.875 16.4645 26.0355 15.625 25 15.625C23.9645 15.625 23.125 16.4645 23.125 17.5V23.125H17.5C16.4645 23.125 15.625 23.9645 15.625 25C15.625 26.0355 16.4645 26.875 17.5 26.875H23.125V32.5C23.125 33.5355 23.9645 34.375 25 34.375C26.0355 34.375 26.875 33.5355 26.875 32.5V26.875H32.5C33.5355 26.875 34.375 26.0355 34.375 25C34.375 23.9645 33.5355 23.125 32.5 23.125H26.875V17.5Z" fill="white"/>
</svg>
