<svg width="52" height="41" viewBox="0 0 52 41" fill="none" xmlns="http://www.w3.org/2000/svg">
<g clip-path="url(#clip0_274_428)">
<mask id="mask0_274_428" style="mask-type:luminance" maskUnits="userSpaceOnUse" x="0" y="0" width="52" height="41">
<path d="M52 0H0V41H52V0Z" fill="white"/>
</mask>
<g mask="url(#mask0_274_428)">
<path d="M43.8673 3.82057C40.5135 2.26638 36.9416 1.12119 33.1788 0.466797C32.7153 1.28479 32.1699 2.40272 31.8155 3.30251C27.8346 2.70265 23.8809 2.70265 19.9819 3.30251C19.6001 2.40272 19.0548 1.28479 18.5913 0.466797C14.8285 1.12119 11.2566 2.26638 7.9028 3.82057C1.14072 14.0182 -0.686137 23.9706 0.213657 33.7592C4.71263 37.113 9.04799 39.1307 13.3288 40.4668C14.3922 39.0217 15.3193 37.4675 16.1373 35.8588C14.5831 35.2862 13.1107 34.55 11.7201 33.7047C12.1018 33.432 12.4563 33.1321 12.8108 32.8595C21.3451 36.8404 30.5885 36.8404 39.0138 32.8595C39.3683 33.1594 39.7227 33.432 40.1045 33.7047C38.7139 34.55 37.2142 35.2589 35.6873 35.8588C36.5053 37.4675 37.4324 39.0217 38.4958 40.4668C42.7766 39.1307 47.1392 37.113 51.6109 33.7592C52.6743 22.3891 49.7841 12.5458 43.9218 3.82057H43.8673ZM17.2825 27.7606C14.7194 27.7606 12.6199 25.3884 12.6199 22.4709C12.6199 19.5534 14.6649 17.1812 17.2825 17.1812C19.9 17.1812 21.9723 19.5534 21.945 22.4709C21.945 25.3612 19.9 27.7606 17.2825 27.7606ZM34.4876 27.7606C31.9245 27.7606 29.825 25.3884 29.825 22.4709C29.825 19.5534 31.87 17.1812 34.4876 17.1812C37.1052 17.1812 39.1774 19.5534 39.1502 22.4709C39.1502 25.3612 37.1052 27.7606 34.4876 27.7606Z" fill="#FF9211"/>
</g>
</g>
<defs>
<clipPath id="clip0_274_428">
<rect width="52" height="41" fill="white"/>
</clipPath>
</defs>
</svg>
