<svg width="21" height="24" viewBox="0 0 21 24" fill="none" xmlns="http://www.w3.org/2000/svg">
<g clip-path="url(#clip0_274_460)">
<path d="M15.3267 4.43337C16.9655 6.0609 19.3333 9.47459 19.3333 13.8173C19.3333 18.5134 15.2604 22.375 10.1667 22.375C5.07291 22.375 1 18.5134 1 13.8173C1 7.98642 4.39527 3.75657 6.96315 1.65108C6.99555 1.62452 7.01234 1.62497 7.01334 1.625C7.01724 1.62495 7.02661 1.62603 7.03945 1.63538C7.0526 1.64496 7.06501 1.66038 7.07201 1.68036C7.07811 1.6978 7.08281 1.72621 7.07031 1.7692C6.14263 4.95919 6.21053 7.00539 6.81783 8.25687C7.44435 9.54797 8.5934 9.899 9.50905 9.78843C10.9072 9.77523 12.092 8.92032 13.0056 7.89614C13.9352 6.85417 14.6563 5.55859 15.1204 4.50854C15.1436 4.45615 15.1889 4.42206 15.2354 4.41101C15.2768 4.40117 15.3042 4.41101 15.3267 4.43337Z" fill="url(#paint0_linear_274_460)"/>
<path d="M6.96315 1.65108C4.39527 3.75657 1 7.98642 1 13.8173C1 18.5134 5.07291 22.375 10.1667 22.375C15.2604 22.375 19.3333 18.5134 19.3333 13.8173C19.3333 9.47459 16.9655 6.0609 15.3267 4.43337C15.3042 4.41101 15.2768 4.40117 15.2354 4.41101C15.1889 4.42206 15.1436 4.45615 15.1204 4.50854C14.6563 5.55859 13.9352 6.85417 13.0056 7.89614C12.092 8.92032 10.9072 9.77523 9.50905 9.78843C8.5934 9.899 7.44435 9.54797 6.81783 8.25687C6.21053 7.00539 6.14263 4.95919 7.07031 1.7692C7.08281 1.72621 7.07811 1.6978 7.07201 1.68036C7.06501 1.66038 7.0526 1.64496 7.03945 1.63538C7.02661 1.62603 7.01724 1.62495 7.01334 1.625C7.01234 1.62497 6.99555 1.62452 6.96315 1.65108ZM6.96315 1.65108L6.64613 1.26443" stroke="#FF0000"/>
</g>
<defs>
<linearGradient id="paint0_linear_274_460" x1="10.1667" y1="1.125" x2="10.1667" y2="22.875" gradientUnits="userSpaceOnUse">
<stop offset="0.385" stop-color="#FF8A00"/>
<stop offset="0.7" stop-color="#F2B834"/>
<stop offset="1" stop-color="#FFF96F"/>
</linearGradient>
<clipPath id="clip0_274_460">
<rect width="20" height="23" fill="white" transform="translate(0.5 0.5)"/>
</clipPath>
</defs>
</svg>
