<svg width="127" height="27" viewBox="0 0 127 27" fill="none" xmlns="http://www.w3.org/2000/svg">
<path d="M9.8332 8.3332H9.8439M13.5375 4H10.6359C8.83816 4 7.9393 4 7.25266 4.34986C6.64867 4.65761 6.15761 5.14867 5.84986 5.75266C5.5 6.4393 5.5 7.33816 5.5 9.1359V12.0375C5.5 12.8225 5.5 13.2151 5.58869 13.5846C5.66732 13.9121 5.79702 14.2252 5.97302 14.5124C6.17152 14.8363 6.4491 15.1139 7.00427 15.6691L12.0332 20.698C13.3043 21.9691 13.94 22.6048 14.6728 22.8429C15.3176 23.0524 16.012 23.0524 16.6568 22.8429C17.3896 22.6048 18.0253 21.9691 19.2964 20.698L22.198 17.7964C23.4691 16.5253 24.1048 15.8896 24.3429 15.1568C24.5524 14.512 24.5524 13.8176 24.3429 13.1728C24.1048 12.44 23.4691 11.8043 22.198 10.5332L17.1691 5.50427C16.6139 4.9491 16.3363 4.67152 16.0124 4.47302C15.7252 4.29702 15.4121 4.16732 15.0846 4.08869C14.7151 4 14.3225 4 13.5375 4ZM10.3682 8.3332C10.3682 8.62868 10.1287 8.86819 9.8332 8.86819C9.53774 8.86819 9.29821 8.62868 9.29821 8.3332C9.29821 8.03774 9.53774 7.79821 9.8332 7.79821C10.1287 7.79821 10.3682 8.03774 10.3682 8.3332Z" stroke="#F6851B" stroke-width="2" stroke-linecap="round" stroke-linejoin="round"/>
<path d="M35.62 18.4198H45.1C45.38 18.4198 45.52 18.5598 45.52 18.8398V20.0798C45.52 20.3598 45.38 20.4998 45.1 20.4998H33.54C33.26 20.4998 33.12 20.3598 33.12 20.0798V6.91982C33.12 6.63982 33.26 6.49982 33.54 6.49982H35.18C35.4733 6.49982 35.62 6.63982 35.62 6.91982V18.4198ZM47.3755 6.19982C47.3755 5.94649 47.5088 5.81982 47.7755 5.81982H49.2755C49.5421 5.81982 49.6755 5.94649 49.6755 6.19982V7.75982C49.6755 8.01315 49.5421 8.13982 49.2755 8.13982H47.7755C47.5088 8.13982 47.3755 8.01315 47.3755 7.75982V6.19982ZM47.3755 10.3598C47.3755 10.1065 47.5088 9.97982 47.7755 9.97982H49.2755C49.5421 9.97982 49.6755 10.1065 49.6755 10.3598V20.1198C49.6755 20.3731 49.5421 20.4998 49.2755 20.4998H47.7755C47.5088 20.4998 47.3755 20.3731 47.3755 20.1198V10.3598ZM54.5475 13.4398C54.5475 13.7465 54.6275 13.9665 54.7875 14.0998C54.9475 14.2198 55.2008 14.2798 55.5475 14.2798H59.9475C60.4408 14.2798 60.8608 14.3265 61.2075 14.4198C61.5675 14.4998 61.8542 14.6465 62.0675 14.8598C62.2942 15.0598 62.4608 15.3331 62.5675 15.6798C62.6742 16.0131 62.7275 16.4331 62.7275 16.9398V17.8398C62.7275 18.8265 62.5075 19.5198 62.0675 19.9198C61.6408 20.3065 60.9342 20.4998 59.9475 20.4998H54.8275C53.8408 20.4998 53.1275 20.2931 52.6875 19.8798C52.2608 19.4665 52.0475 18.7931 52.0475 17.8598V17.7198C52.0475 17.4798 52.1808 17.3598 52.4475 17.3598H53.8875C54.1542 17.3598 54.2875 17.4798 54.2875 17.7198V17.8198C54.2875 18.1265 54.3675 18.3398 54.5275 18.4598C54.6875 18.5665 54.9342 18.6198 55.2675 18.6198H59.4275C59.7742 18.6198 60.0275 18.5598 60.1875 18.4398C60.3475 18.3065 60.4275 18.0798 60.4275 17.7598V16.9998C60.4275 16.4131 60.0942 16.1198 59.4275 16.1198H55.0075C54.5142 16.1198 54.0942 16.0798 53.7475 15.9998C53.4008 15.9065 53.1142 15.7598 52.8875 15.5598C52.6742 15.3465 52.5142 15.0731 52.4075 14.7398C52.3008 14.3931 52.2475 13.9665 52.2475 13.4598V12.6398C52.2475 11.6531 52.4608 10.9665 52.8875 10.5798C53.3142 10.1798 54.0208 9.97982 55.0075 9.97982H59.7075C60.6675 9.97982 61.3608 10.1865 61.7875 10.5998C62.2275 11.0131 62.4475 11.6865 62.4475 12.6198V12.7598C62.4475 12.9998 62.3208 13.1198 62.0675 13.1198H60.6075C60.3542 13.1198 60.2275 12.9998 60.2275 12.7598V12.6598C60.2275 12.3665 60.1475 12.1598 59.9875 12.0398C59.8275 11.9198 59.5808 11.8598 59.2475 11.8598H55.5475C55.2008 11.8598 54.9475 11.9265 54.7875 12.0598C54.6275 12.1798 54.5475 12.3998 54.5475 12.7198V13.4398ZM68.027 11.8798V17.3598C68.027 17.6265 68.0404 17.8398 68.067 17.9998C68.107 18.1598 68.167 18.2865 68.247 18.3798C68.3404 18.4598 68.4604 18.5198 68.607 18.5598C68.7537 18.5865 68.9404 18.5998 69.167 18.5998H70.667C70.9204 18.5998 71.047 18.7265 71.047 18.9798V20.1198C71.047 20.3731 70.9204 20.4998 70.667 20.4998H68.527C67.527 20.4998 66.807 20.2931 66.367 19.8798C65.9404 19.4665 65.727 18.7798 65.727 17.8198V11.8798H64.527C64.2737 11.8798 64.147 11.7531 64.147 11.4998V10.3598C64.147 10.1065 64.2737 9.97982 64.527 9.97982H65.727V7.67982C65.727 7.42649 65.8537 7.29982 66.107 7.29982H67.627C67.8937 7.29982 68.027 7.42649 68.027 7.67982V9.97982H70.667C70.9204 9.97982 71.047 10.1065 71.047 10.3598V11.4998C71.047 11.7531 70.9204 11.8798 70.667 11.8798H68.027ZM73.3325 6.19982C73.3325 5.94649 73.4658 5.81982 73.7325 5.81982H75.2325C75.4992 5.81982 75.6325 5.94649 75.6325 6.19982V7.75982C75.6325 8.01315 75.4992 8.13982 75.2325 8.13982H73.7325C73.4658 8.13982 73.3325 8.01315 73.3325 7.75982V6.19982ZM73.3325 10.3598C73.3325 10.1065 73.4658 9.97982 73.7325 9.97982H75.2325C75.4992 9.97982 75.6325 10.1065 75.6325 10.3598V20.1198C75.6325 20.3731 75.4992 20.4998 75.2325 20.4998H73.7325C73.4658 20.4998 73.3325 20.3731 73.3325 20.1198V10.3598ZM86.7245 13.2998C86.7245 13.0065 86.7045 12.7665 86.6645 12.5798C86.6245 12.3931 86.5445 12.2531 86.4245 12.1598C86.3045 12.0531 86.1312 11.9798 85.9045 11.9398C85.6912 11.8998 85.4045 11.8798 85.0445 11.8798H83.1445C82.3445 11.8798 81.7779 12.0398 81.4445 12.3598C81.1245 12.6665 80.9645 13.1598 80.9645 13.8398V20.1198C80.9645 20.3731 80.8312 20.4998 80.5645 20.4998H79.0645C78.7979 20.4998 78.6645 20.3731 78.6645 20.1198V10.3598C78.6645 10.1065 78.7979 9.97982 79.0645 9.97982H80.3045C80.5579 9.97982 80.6845 10.1065 80.6845 10.3598V11.7798C81.0712 10.5798 82.0512 9.97982 83.6245 9.97982H86.0445C87.0845 9.97982 87.8379 10.2065 88.3045 10.6598C88.7845 11.1131 89.0245 11.8398 89.0245 12.8398V20.1198C89.0245 20.3731 88.8979 20.4998 88.6445 20.4998H87.1245C86.8579 20.4998 86.7245 20.3731 86.7245 20.1198V13.2998ZM94.6263 20.4998C93.5863 20.4998 92.8263 20.2731 92.3463 19.8198C91.8796 19.3665 91.6463 18.6398 91.6463 17.6398V12.8398C91.6463 11.8398 91.8796 11.1131 92.3463 10.6598C92.8263 10.2065 93.5863 9.97982 94.6263 9.97982H97.2863C98.8063 9.97982 99.7796 10.5465 100.206 11.6798V10.3598C100.206 10.1065 100.34 9.97982 100.606 9.97982H101.866C102.12 9.97982 102.246 10.1065 102.246 10.3598V21.4598C102.246 22.4865 101.973 23.2598 101.426 23.7798C100.88 24.3131 100.073 24.5798 99.0063 24.5798H94.6263C93.6529 24.5798 92.9463 24.3798 92.5063 23.9798C92.0796 23.5931 91.8663 22.9265 91.8663 21.9798V21.8198C91.8663 21.5798 91.9929 21.4598 92.2463 21.4598H93.6863C93.9529 21.4598 94.0863 21.5798 94.0863 21.8198V22.0398C94.0863 22.3198 94.1596 22.5131 94.3063 22.6198C94.4663 22.7398 94.7063 22.7998 95.0263 22.7998H98.1663C98.5263 22.7998 98.8196 22.7731 99.0463 22.7198C99.2863 22.6665 99.4663 22.5798 99.5863 22.4598C99.7196 22.3398 99.8129 22.1798 99.8663 21.9798C99.9196 21.7798 99.9463 21.5265 99.9463 21.2198V19.1198C99.4796 20.0398 98.5529 20.4998 97.1663 20.4998H94.6263ZM95.6263 11.8798C95.2663 11.8798 94.9729 11.8998 94.7463 11.9398C94.5329 11.9798 94.3596 12.0531 94.2263 12.1598C94.1063 12.2531 94.0263 12.3931 93.9863 12.5798C93.9463 12.7665 93.9263 13.0065 93.9263 13.2998V17.1798C93.9263 17.4731 93.9463 17.7131 93.9863 17.8998C94.0263 18.0865 94.1063 18.2331 94.2263 18.3398C94.3596 18.4331 94.5329 18.4998 94.7463 18.5398C94.9729 18.5798 95.2663 18.5998 95.6263 18.5998H97.7663C98.5663 18.5998 99.1263 18.4465 99.4463 18.1398C99.7796 17.8198 99.9463 17.3198 99.9463 16.6398V13.8398C99.9463 13.1598 99.7796 12.6665 99.4463 12.3598C99.1263 12.0398 98.5663 11.8798 97.7663 11.8798H95.6263Z" fill="#F6851B"/>
</svg>
