<svg width="50" height="40" viewBox="0 0 50 40" fill="none" xmlns="http://www.w3.org/2000/svg">
<g clip-path="url(#clip0_274_512)">
<path d="M0 5C0 3.67392 0.526784 2.40215 1.46447 1.46447C2.40215 0.526784 3.67392 0 5 0H27.5C28.8261 0 30.0979 0.526784 31.0355 1.46447C31.9732 2.40215 32.5 3.67392 32.5 5V10C32.5 10.663 32.2366 11.2989 31.7678 11.7678C31.2989 12.2366 30.663 12.5 30 12.5C29.337 12.5 28.7011 12.2366 28.2322 11.7678C27.7634 11.2989 27.5 10.663 27.5 10V5H5V35H27.5V30C27.5 29.337 27.7634 28.7011 28.2322 28.2322C28.7011 27.7634 29.337 27.5 30 27.5C30.663 27.5 31.2989 27.7634 31.7678 28.2322C32.2366 28.7011 32.5 29.337 32.5 30V35C32.5 36.3261 31.9732 37.5979 31.0355 38.5355C30.0979 39.4732 28.8261 40 27.5 40H5C3.67392 40 2.40215 39.4732 1.46447 38.5355C0.526784 37.5979 0 36.3261 0 35V5ZM38.2325 10.7325C38.7013 10.2638 39.3371 10.0005 40 10.0005C40.6629 10.0005 41.2987 10.2638 41.7675 10.7325L49.2675 18.2325C49.7362 18.7013 49.9995 19.3371 49.9995 20C49.9995 20.6629 49.7362 21.2987 49.2675 21.7675L41.7675 29.2675C41.296 29.7229 40.6645 29.9749 40.009 29.9692C39.3535 29.9635 38.7265 29.7006 38.263 29.237C37.7994 28.7735 37.5365 28.1465 37.5308 27.491C37.5251 26.8355 37.7771 26.204 38.2325 25.7325L41.465 22.5H17.5C16.837 22.5 16.2011 22.2366 15.7322 21.7678C15.2634 21.2989 15 20.663 15 20C15 19.337 15.2634 18.7011 15.7322 18.2322C16.2011 17.7634 16.837 17.5 17.5 17.5H41.465L38.2325 14.2675C37.7638 13.7987 37.5005 13.1629 37.5005 12.5C37.5005 11.8371 37.7638 11.2013 38.2325 10.7325Z" fill="#EE1919"/>
</g>
<defs>
<clipPath id="clip0_274_512">
<rect width="50" height="40" fill="white"/>
</clipPath>
</defs>
</svg>
