<svg width="258" height="239" viewBox="0 0 258 239" fill="none" xmlns="http://www.w3.org/2000/svg">
<g clip-path="url(#clip0_274_474)">
<path d="M243.6 1L144.1 74.9L162.5 31.3L243.6 1Z" fill="#E2761B" stroke="#E2761B" stroke-linecap="round" stroke-linejoin="round"/>
<path d="M13.8999 1L112.6 75.6L95.0999 31.3L13.8999 1ZM207.8 172.3L181.3 212.9L238 228.5L254.3 173.2L207.8 172.3ZM3.3999 173.2L19.5999 228.5L76.2999 212.9L49.7999 172.3L3.3999 173.2Z" fill="#E4761B" stroke="#E4761B" stroke-linecap="round" stroke-linejoin="round"/>
<path d="M73.1 103.7L57.3 127.6L113.6 130.1L111.6 69.5999L73.1 103.7ZM184.4 103.7L145.4 68.8999L144.1 130.1L200.3 127.6L184.4 103.7ZM76.3 212.9L110.1 196.4L80.9 173.6L76.3 212.9ZM147.4 196.4L181.3 212.9L176.6 173.6L147.4 196.4Z" fill="#E4761B" stroke="#E4761B" stroke-linecap="round" stroke-linejoin="round"/>
<path d="M181.3 212.9L147.4 196.4L150.1 218.5L149.8 227.8L181.3 212.9ZM76.3 212.9L107.8 227.8L107.6 218.5L110.1 196.4L76.3 212.9Z" fill="#D7C1B3" stroke="#D7C1B3" stroke-linecap="round" stroke-linejoin="round"/>
<path d="M108.3 159L80.1 150.7L100 141.6L108.3 159ZM149.2 159L157.5 141.6L177.5 150.7L149.2 159Z" fill="#233447" stroke="#233447" stroke-linecap="round" stroke-linejoin="round"/>
<path d="M76.3 212.9L81.1 172.3L49.8 173.2L76.3 212.9ZM176.5 172.3L181.3 212.9L207.8 173.2L176.5 172.3ZM200.3 127.6L144.1 130.1L149.3 159L157.6 141.6L177.6 150.7L200.3 127.6ZM80.1 150.7L100.1 141.6L108.3 159L113.6 130.1L57.3 127.6L80.1 150.7Z" fill="#CD6116" stroke="#CD6116" stroke-linecap="round" stroke-linejoin="round"/>
<path d="M57.3 127.6L80.9 173.6L80.1 150.7L57.3 127.6ZM177.6 150.7L176.6 173.6L200.3 127.6L177.6 150.7ZM113.6 130.1L108.3 159L114.9 193.1L116.4 148.2L113.6 130.1ZM144.1 130.1L141.4 148.1L142.6 193.1L149.3 159L144.1 130.1Z" fill="#E4751F" stroke="#E4751F" stroke-linecap="round" stroke-linejoin="round"/>
<path d="M149.3 159L142.6 193.1L147.4 196.4L176.6 173.6L177.6 150.7L149.3 159ZM80.1 150.7L80.9 173.6L110.1 196.4L114.9 193.1L108.3 159L80.1 150.7Z" fill="#F6851B" stroke="#F6851B" stroke-linecap="round" stroke-linejoin="round"/>
<path d="M149.8 227.8L150.1 218.5L147.6 216.3H109.9L107.6 218.5L107.8 227.8L76.3 212.9L87.3 221.9L109.6 237.4H147.9L170.3 221.9L181.3 212.9L149.8 227.8Z" fill="#C0AD9E" stroke="#C0AD9E" stroke-linecap="round" stroke-linejoin="round"/>
<path d="M147.4 196.4L142.6 193.1H114.9L110.1 196.4L107.6 218.5L109.9 216.3H147.6L150.1 218.5L147.4 196.4Z" fill="#161616" stroke="#161616" stroke-linecap="round" stroke-linejoin="round"/>
<path d="M247.8 79.7L256.3 38.9L243.6 1L147.4 72.4L184.4 103.7L236.7 119L248.3 105.5L243.3 101.9L251.3 94.6L245.1 89.8L253.1 83.7L247.8 79.7ZM1.30005 38.9L9.80005 79.7L4.40005 83.7L12.4001 89.8L6.30005 94.6L14.3 101.9L9.30005 105.5L20.8 119L73.1001 103.7L110.1 72.4L13.9001 1L1.30005 38.9Z" fill="#763D16" stroke="#763D16" stroke-linecap="round" stroke-linejoin="round"/>
<path d="M236.7 119L184.4 103.7L200.3 127.6L176.6 173.6L207.8 173.2H254.3L236.7 119ZM73.0999 103.7L20.7999 119L3.3999 173.2H49.7999L80.8999 173.6L57.2999 127.6L73.0999 103.7ZM144.1 130.1L147.4 72.4L162.6 31.3H95.0999L110.1 72.4L113.6 130.1L114.8 148.3L114.9 193.1H142.6L142.8 148.3L144.1 130.1Z" fill="#F6851B" stroke="#F6851B" stroke-linecap="round" stroke-linejoin="round"/>
</g>
<defs>
<clipPath id="clip0_274_474">
<rect width="257" height="238" fill="white" transform="translate(0.5 0.5)"/>
</clipPath>
</defs>
</svg>
