<svg width="127" height="27" viewBox="0 0 127 27" fill="none" xmlns="http://www.w3.org/2000/svg">
<g clip-path="url(#clip0_274_487)">
<path d="M48.7 3H52.25V20.5H48.825V9.15L43.9 17.275H43.5L38.575 9.175V20.5H35.125V3H38.675L43.7 11.275L48.7 3ZM56.9607 6.9C55.8857 6.9 54.9857 6.025 54.9857 4.975C54.9857 3.925 55.8857 3.025 56.9607 3.025C58.0607 3.025 58.9607 3.925 58.9607 4.975C58.9607 6.025 58.0607 6.9 56.9607 6.9ZM58.5857 20.5H55.3607V8H58.5857V20.5ZM68.4875 7.65C69.8625 7.65 70.9875 8.1 71.8625 9.025C72.7625 9.95 73.2125 11.2 73.2125 12.825V20.5H69.9875V13.225C69.9875 11.55 69.0125 10.65 67.5125 10.65C65.8375 10.65 64.7625 11.675 64.7625 13.75V20.5H61.5375V8H64.7625V9.4C65.5375 8.225 66.7875 7.65 68.4875 7.65ZM83.1162 8V11.1H80.2912V16.3C80.2912 17.65 81.2662 17.675 83.1162 17.575V20.5C78.6912 21 77.0662 19.725 77.0662 16.3V11.1H74.8912V8H77.0662V5.475L80.2912 4.5V8H83.1162Z" fill="#F6851B"/>
<path d="M12.9995 0.5C9.87393 13.6583 0.5 14.9717 12.9995 24.1817C25.5 14.9708 16.1251 13.6583 12.9995 0.5ZM5.18744 8.38583C3.62464 12.3325 0.5 14.985 0.5 18.9325C0.5 22.88 6.74929 25.5 11.4377 25.5C2.0628 18.92 5.18744 14.9642 5.18744 8.38583ZM20.8116 8.38583C20.8116 14.965 23.9372 18.9208 14.5623 25.5C19.2498 25.5 25.5 22.88 25.5 18.9325C25.5 14.985 22.3734 12.3325 20.8116 8.38583Z" fill="#F6851B"/>
</g>
<defs>
<clipPath id="clip0_274_487">
<rect width="126" height="26" fill="white" transform="translate(0.5 0.5)"/>
</clipPath>
</defs>
</svg>
