<svg width="27" height="27" viewBox="0 0 27 27" fill="none" xmlns="http://www.w3.org/2000/svg">
<g clip-path="url(#clip0_274_612)">
<path fill-rule="evenodd" clip-rule="evenodd" d="M22.0313 23.9H4.96963C4.05132 23.9 3.3732 22.9939 3.71955 22.1606C5.32659 18.3074 9.10201 16.1 13.4998 16.1C17.8989 16.1 21.6743 18.3074 23.2814 22.1606C23.6277 22.9939 22.9496 23.9 22.0313 23.9ZM8.19167 8.29999C8.19167 5.43218 10.5737 3.09998 13.4998 3.09998C16.4272 3.09998 18.8079 5.43218 18.8079 8.29999C18.8079 11.1678 16.4272 13.5 13.4998 13.5C10.5737 13.5 8.19167 11.1678 8.19167 8.29999ZM26.4424 23.4268C25.4776 19.0601 22.4599 15.8374 18.4881 14.3749C20.5928 12.7148 21.8203 10.0302 21.3691 7.09092C20.8463 3.68101 17.9507 0.95237 14.4553 0.55457C9.63018 0.00466991 5.53759 3.68368 5.53759 8.29999C5.53759 10.757 6.70008 12.9462 8.51281 14.3749C4.53966 15.8374 1.52331 19.0601 0.557231 23.4268C0.206894 25.0141 1.5127 26.5 3.17016 26.5H23.8294C25.4882 26.5 26.794 25.0141 26.4424 23.4268Z" fill="#FF9211"/>
</g>
<defs>
<clipPath id="clip0_274_612">
<rect width="26" height="26" fill="white" transform="translate(0.5 0.5)"/>
</clipPath>
</defs>
</svg>
