<svg width="46" height="50" viewBox="0 0 46 50" fill="none" xmlns="http://www.w3.org/2000/svg">
<g clip-path="url(#clip0_274_529)">
<path d="M19.0326 39.3182C28.5318 39.3182 36.2324 30.8523 36.2324 20.4091C36.2324 9.96589 28.5318 1.5 19.0326 1.5C9.53347 1.5 1.83289 9.96589 1.83289 20.4091C1.83289 30.8523 9.53347 39.3182 19.0326 39.3182Z" stroke="#FF9211" stroke-width="2" stroke-linejoin="round"/>
<path d="M43.2351 49.0754C43.7518 49.6433 44.5896 49.6433 45.1064 49.0754C45.6229 48.5073 45.6229 47.5863 45.1064 47.0181L43.2351 49.0754ZM45.1064 47.0181L32.8999 33.5985C32.3507 32.9947 31.401 32.9947 30.8518 33.5985C30.3714 34.1266 30.3714 34.9333 30.8518 35.4614L43.2351 49.0754L45.1064 47.0181Z" fill="#FF9211"/>
</g>
<defs>
<clipPath id="clip0_274_529">
<rect width="45" height="49" fill="white" transform="translate(0.5 0.5)"/>
</clipPath>
</defs>
</svg>
