<svg width="15" height="15" viewBox="0 0 15 15" fill="none" xmlns="http://www.w3.org/2000/svg">
<path d="M14 2.41667H0.666667C0.438071 2.41667 0.25 2.2286 0.25 2V0.666667C0.25 0.438071 0.438071 0.25 0.666667 0.25H14C14.2286 0.25 14.4167 0.438071 14.4167 0.666667V2C14.4167 2.2286 14.2286 2.41667 14 2.41667Z" fill="#F6A41F" stroke="#FFD604" stroke-width="0.5"/>
<path d="M14 8.41667H0.666667C0.438071 8.41667 0.25 8.2286 0.25 8V6.66667C0.25 6.43807 0.438071 6.25 0.666667 6.25H14C14.2286 6.25 14.4167 6.43807 14.4167 6.66667V8C14.4167 8.2286 14.2286 8.41667 14 8.41667Z" fill="#F6A41F" stroke="#FFD604" stroke-width="0.5"/>
<path d="M14 14.4167H0.666667C0.438071 14.4167 0.25 14.2286 0.25 14V12.6667C0.25 12.4381 0.438071 12.25 0.666667 12.25H14C14.2286 12.25 14.4167 12.4381 14.4167 12.6667V14C14.4167 14.2286 14.2286 14.4167 14 14.4167Z" fill="#F6A41F" stroke="#FFD604" stroke-width="0.5"/>
</svg>
