<svg width="48" height="48" viewBox="0 0 48 48" fill="none" xmlns="http://www.w3.org/2000/svg">
<g clip-path="url(#clip0_274_578)">
<mask id="mask0_274_578" style="mask-type:luminance" maskUnits="userSpaceOnUse" x="0" y="0" width="48" height="48">
<path d="M47.5 0.5H0.5V47.5H47.5V0.5Z" fill="white"/>
</mask>
<g mask="url(#mask0_274_578)">
<mask id="mask1_274_578" style="mask-type:luminance" maskUnits="userSpaceOnUse" x="0" y="0" width="48" height="48">
<path d="M47.5 0.5H0.5V47.5H47.5V0.5Z" fill="white"/>
</mask>
<g mask="url(#mask1_274_578)">
<path d="M18.342 3.32073C17.7698 3.80838 17.4837 4.05222 17.1781 4.25705C16.4776 4.72658 15.6908 5.05245 14.8634 5.2158C14.5025 5.28707 14.1277 5.31697 13.3782 5.37677C11.495 5.52706 10.5533 5.60221 9.76772 5.8797C7.9507 6.52148 6.52148 7.9507 5.8797 9.76772C5.60221 10.5533 5.52708 11.4949 5.3768 13.3782C5.31699 14.1277 5.28707 14.5025 5.2158 14.8634C5.05245 15.6908 4.72658 16.4776 4.25705 17.1781C4.05222 17.4837 3.80836 17.7698 3.32066 18.3421C2.09528 19.7801 1.48254 20.499 1.12327 21.2507C0.292242 22.9895 0.292242 25.0105 1.12327 26.7493C1.48256 27.501 2.09526 28.2199 3.32064 29.6579C3.80824 30.2301 4.05224 30.5163 4.25705 30.8218C4.72658 31.5224 5.05245 32.3091 5.2158 33.1366C5.28707 33.4975 5.31697 33.8724 5.37677 34.6218C5.52706 36.5051 5.60221 37.4467 5.8797 38.2323C6.52148 40.0493 7.9507 41.4786 9.76772 42.1204C10.5533 42.3977 11.4949 42.4729 13.378 42.6233C14.1275 42.683 14.5025 42.7131 14.8634 42.7843C15.6908 42.9476 16.4776 43.2735 17.1781 43.7431C17.4837 43.9477 17.7698 44.1917 18.3421 44.6793C19.7801 45.9048 20.499 46.5175 21.2507 46.8768C22.9895 47.7077 25.0105 47.7077 26.7493 46.8768C27.501 46.5175 28.2199 45.9048 29.6579 44.6793C30.2301 44.1917 30.5163 43.9477 30.8218 43.7431C31.5224 43.2735 32.3091 42.9476 33.1366 42.7843C33.4975 42.7131 33.8724 42.683 34.6218 42.6233C36.5048 42.4729 37.4467 42.3977 38.2323 42.1204C40.0493 41.4786 41.4786 40.0493 42.1204 38.2323C42.3977 37.4467 42.4729 36.5051 42.6233 34.622C42.683 33.8726 42.7131 33.4975 42.7843 33.1366C42.9476 32.3091 43.2735 31.5224 43.7431 30.8218C43.9477 30.5163 44.1917 30.2301 44.6793 29.6579C45.9048 28.2199 46.5175 27.501 46.8768 26.7493C47.7077 25.0105 47.7077 22.9895 46.8768 21.2507C46.5175 20.499 45.9048 19.7801 44.6793 18.3421C44.1917 17.7698 43.9477 17.4837 43.7431 17.1781C43.2735 16.4776 42.9476 15.6908 42.7843 14.8634C42.7131 14.5025 42.683 14.1277 42.6233 13.3782C42.4729 11.4951 42.3977 10.5533 42.1204 9.76772C41.4786 7.9507 40.0493 6.52148 38.2323 5.8797C37.4467 5.60221 36.5051 5.52708 34.6218 5.3768C33.8724 5.31699 33.4975 5.28707 33.1366 5.2158C32.3091 5.05245 31.5224 4.72658 30.8218 4.25705C30.5163 4.05222 30.2301 3.80836 29.6579 3.32064C28.2199 2.09526 27.501 1.48256 26.7493 1.12327C25.0105 0.292242 22.9895 0.292242 21.2507 1.12327C20.499 1.48254 19.78 2.09535 18.342 3.32073Z" fill="#FF9211"/>
<path d="M34.2778 18.9779C35.0247 18.231 35.0247 17.02 34.2778 16.2731C33.5308 15.5262 32.3198 15.5262 31.573 16.2731L20.1748 27.6713L16.4271 23.9232C15.6802 23.1764 14.4692 23.1764 13.7223 23.9232C12.9754 24.6703 12.9754 25.8813 13.7223 26.6281L18.8225 31.7283C19.5694 32.4751 20.7804 32.4751 21.5272 31.7283L34.2778 18.9779Z" fill="white"/>
</g>
</g>
</g>
<defs>
<clipPath id="clip0_274_578">
<rect width="47" height="47" fill="white" transform="translate(0.5 0.5)"/>
</clipPath>
</defs>
</svg>
