<svg width="168" height="168" viewBox="0 0 168 168" fill="none" xmlns="http://www.w3.org/2000/svg">
<path d="M84.0004 1.0459C98.9323 1.0459 112.758 4.77885 125.478 12.2448C138.197 19.7107 148.29 29.8035 155.756 42.5232C163.222 55.2429 166.955 69.0686 166.955 84.0004C166.955 98.9323 163.222 112.758 155.756 125.478C148.29 138.197 138.197 148.29 125.478 155.756C112.758 163.222 98.9323 166.955 84.0004 166.955C69.0686 166.955 55.2429 163.222 42.5232 155.756C29.8035 148.29 19.7107 138.197 12.2448 125.478C4.77885 112.758 1.0459 98.9323 1.0459 84.0004C1.0459 69.0686 4.77885 55.2429 12.2448 42.5232C19.7107 29.8035 29.8035 19.7107 42.5232 12.2448C55.2429 4.77885 69.0686 1.0459 84.0004 1.0459ZM70.7277 37.5459V90.6368H97.2732V37.5459H70.7277ZM70.7277 103.91V130.455H97.2732V103.91H70.7277Z" fill="white"/>
</svg>
