<svg width="108" height="108" viewBox="0 0 108 108" fill="none" xmlns="http://www.w3.org/2000/svg">
<g clip-path="url(#clip0_274_589)">
<path d="M54.4757 0.504885C59.3051 0.779207 63.3248 3.08218 65.7494 7.76334L105.429 87.8652C109.276 95.9622 103.318 106.858 93.5422 107.015H13.6372C4.73941 106.873 -2.56108 96.7696 1.79709 87.7767L42.2175 7.67707C42.9741 6.23909 43.3192 5.82318 43.9718 5.0688C46.5956 2.02693 49.4649 0.398696 54.4757 0.504885ZM53.8231 9.34733C52.3032 9.42255 50.9117 10.2743 50.1529 11.5972C36.189 38.098 22.7274 64.8709 9.66614 91.8296C8.45824 94.5397 10.5311 98.0173 13.5642 98.1634C40.2441 98.5948 66.9352 98.5948 93.6152 98.1634C96.5464 98.0218 98.7498 94.6591 97.5287 91.8584C84.713 64.9041 71.5013 38.1312 57.783 11.626C56.9733 10.1858 55.7853 9.32078 53.8231 9.34733Z" fill="#D92929"/>
<path d="M57.1404 72.6103H49.7338L48.9197 36.2207H57.99L57.1404 72.6103ZM48.6719 83.7381C48.6719 82.3908 49.1077 81.2758 49.9815 80.3887C50.8576 79.5038 52.05 79.0591 53.561 79.0591C55.0742 79.0591 56.2666 79.5038 57.1404 80.3887C58.0143 81.2758 58.4523 82.3908 58.4523 83.7381C58.4523 85.0367 58.0254 86.1229 57.1758 86.9967C56.3241 87.8706 55.1206 88.3086 53.561 88.3086C52.0013 88.3086 50.7979 87.8706 49.9461 86.9967C49.0966 86.1229 48.6719 85.0367 48.6719 83.7381Z" fill="#D92929"/>
</g>
<defs>
<clipPath id="clip0_274_589">
<rect width="107" height="107" fill="white" transform="translate(0.5 0.5)"/>
</clipPath>
</defs>
</svg>
