<svg width="41" height="42" viewBox="0 0 41 42" fill="none" xmlns="http://www.w3.org/2000/svg">
<g clip-path="url(#clip0_274_594)">
<mask id="mask0_274_594" style="mask-type:luminance" maskUnits="userSpaceOnUse" x="0" y="0" width="41" height="42">
<path d="M40.5 0.5H0.5V41.5H40.5V0.5Z" fill="white"/>
</mask>
<g mask="url(#mask0_274_594)">
<path fill-rule="evenodd" clip-rule="evenodd" d="M15.6961 35.2928C16.0784 36.0095 16.4613 36.6552 16.8273 37.2275C12.9388 36.353 9.56458 34.1195 7.22973 31.0519C8.77069 30.1841 10.7443 29.2846 13.117 28.6264C13.7914 31.2712 14.7428 33.5052 15.6961 35.2928ZM18.6373 33.7241C17.8091 32.1715 16.9791 30.2324 16.3811 27.9348C17.6684 27.7437 19.0427 27.6335 20.5002 27.6335C21.9576 27.6335 23.3318 27.7437 24.6189 27.9346C24.0209 30.2324 23.1909 32.1715 22.3627 33.7241C21.6987 34.9692 21.0371 35.9632 20.5 36.6906C19.9629 35.9632 19.3013 34.9692 18.6373 33.7241ZM15.5 20.9668C15.5 22.2648 15.5873 23.4968 15.7413 24.6599C17.2264 24.4321 18.8142 24.3001 20.5002 24.3001C22.186 24.3001 23.7738 24.4319 25.2587 24.6599C25.4127 23.4966 25.5 22.2648 25.5 20.9668C25.5 19.6688 25.4127 18.437 25.2587 17.2737C23.7738 17.5015 22.186 17.6335 20.5002 17.6335C18.8142 17.6335 17.2264 17.5015 15.7413 17.2737C15.5873 18.4368 15.5 19.6688 15.5 20.9668ZM12.4708 16.5864C12.2773 17.9619 12.1667 19.4232 12.1667 20.9668C12.1667 22.5104 12.2773 23.9717 12.4708 25.3472C9.64085 26.107 7.29738 27.1784 5.48498 28.2092C4.42662 26.0192 3.83333 23.5624 3.83333 20.9668C3.83333 18.3712 4.42662 15.9144 5.48496 13.7243C7.29716 14.7551 9.64067 15.8265 12.4708 16.5864ZM16.3811 13.9989C17.6684 14.19 19.0427 14.3001 20.5002 14.3001C21.9576 14.3001 23.3318 14.19 24.6189 13.999C24.0209 11.7014 23.1909 9.7622 22.3627 8.20946C21.6987 6.96444 21.0371 5.97026 20.5 5.24306C19.9629 5.97026 19.3013 6.96444 18.6373 8.20942C17.8091 9.76215 16.9791 11.7013 16.3811 13.9989ZM28.5291 16.5866C28.7227 17.9621 28.8333 19.4235 28.8333 20.9668C28.8333 22.5104 28.7227 23.9715 28.5291 25.347C31.3591 26.107 33.7027 27.1784 35.5151 28.2092C36.5733 26.019 37.1667 23.5621 37.1667 20.9668C37.1667 18.3715 36.5733 15.9145 35.5151 13.7244C33.7029 14.7552 31.3593 15.8266 28.5291 16.5866ZM33.7702 10.8819C32.2291 11.7497 30.2556 12.6491 27.8831 13.3074C27.2087 10.6624 26.2573 8.42833 25.304 6.64084C24.9216 5.92406 24.5387 5.27846 24.1727 4.70613C28.0613 5.58064 31.4356 7.81426 33.7702 10.8819ZM13.117 13.3074C10.7445 12.649 8.77089 11.7496 7.22976 10.8818C9.56458 7.81422 12.9388 5.58064 16.8271 4.70613C16.4613 5.27846 16.0784 5.92404 15.6961 6.6408C14.7428 8.42829 13.7914 10.6624 13.117 13.3074ZM27.8831 28.6261C27.2087 31.2712 26.2573 33.5052 25.304 35.2928C24.9216 36.0095 24.5387 36.6552 24.1727 37.2275C28.0613 36.353 31.4356 34.1192 33.7704 31.0517C32.2293 30.1839 30.2558 29.2846 27.8831 28.6261ZM20.5 40.9668C31.5458 40.9668 40.5 32.0126 40.5 20.9668C40.5 9.92111 31.5458 0.966797 20.5 0.966797C9.45431 0.966797 0.5 9.92111 0.5 20.9668C0.5 32.0126 9.45431 40.9668 20.5 40.9668Z" fill="#FF9211"/>
</g>
</g>
<defs>
<clipPath id="clip0_274_594">
<rect width="40" height="41" fill="white" transform="translate(0.5 0.5)"/>
</clipPath>
</defs>
</svg>
