<svg width="32" height="32" viewBox="0 0 32 32" fill="none" xmlns="http://www.w3.org/2000/svg">
<g clip-path="url(#clip0_274_600)">
<mask id="mask0_274_600" style="mask-type:luminance" maskUnits="userSpaceOnUse" x="0" y="0" width="32" height="32">
<path d="M31.5 0.5H0.5V31.5H31.5V0.5Z" fill="white"/>
</mask>
<g mask="url(#mask0_274_600)">
<mask id="mask1_274_600" style="mask-type:luminance" maskUnits="userSpaceOnUse" x="0" y="0" width="32" height="32">
<path d="M31.5 0.5H0.5V31.5H31.5V0.5Z" fill="white"/>
</mask>
<g mask="url(#mask1_274_600)">
<path d="M26.3787 30.6213C27.5503 31.7929 29.4497 31.7929 30.6213 30.6213C31.7929 29.4497 31.7929 27.5503 30.6213 26.3787L26.3787 30.6213ZM5.62132 1.37868C4.44975 0.207107 2.55025 0.207107 1.37868 1.37868C0.207107 2.55025 0.207107 4.44975 1.37868 5.62132L5.62132 1.37868ZM30.6213 5.62132C31.7929 4.44975 31.7929 2.55025 30.6213 1.37868C29.4497 0.207107 27.5503 0.207107 26.3787 1.37868L30.6213 5.62132ZM1.37868 26.3787C0.207107 27.5503 0.207107 29.4497 1.37868 30.6213C2.55025 31.7929 4.44975 31.7929 5.62132 30.6213L1.37868 26.3787ZM30.6213 26.3787L18.1213 13.8787L13.8787 18.1213L26.3787 30.6213L30.6213 26.3787ZM18.1213 13.8787L5.62132 1.37868L1.37868 5.62132L13.8787 18.1213L18.1213 13.8787ZM18.1213 18.1213L30.6213 5.62132L26.3787 1.37868L13.8787 13.8787L18.1213 18.1213ZM13.8787 13.8787L1.37868 26.3787L5.62132 30.6213L18.1213 18.1213L13.8787 13.8787Z" fill="#FF9211"/>
</g>
</g>
</g>
<defs>
<clipPath id="clip0_274_600">
<rect width="31" height="31" fill="white" transform="translate(0.5 0.5)"/>
</clipPath>
</defs>
</svg>
