<svg width="381" height="144" viewBox="0 0 381 144" fill="none" xmlns="http://www.w3.org/2000/svg">
<path d="M83.3661 72.2C83.3739 69.0315 80.6027 66.2589 77.43 66.2624L68.5523 66.2617C65.7924 66.2624 63.4859 68.1645 62.8233 70.7207L53.5516 70.7207C52.858 68.2183 50.5004 66.2582 47.8396 66.2617L38.9619 66.2611C36.2006 66.2618 33.8955 68.1639 33.2336 70.7208H23.962C23.2662 68.2162 20.9115 66.2618 18.2499 66.2618L9.37283 66.2618C7.78706 66.2611 6.29576 66.8783 5.17287 68.0012C4.05138 69.1227 3.43338 70.6147 3.43479 72.2C3.43272 73.7846 4.05072 75.2752 5.17361 76.3981C6.2965 77.521 7.78706 78.139 9.37167 78.1369L18.2494 78.1376C21.0107 78.1368 23.3158 76.2347 23.9776 73.6778L33.2309 73.6778C33.4918 74.6953 33.9995 75.6358 34.7625 76.3988C35.8832 77.5196 37.3746 78.1369 38.9613 78.1369L47.8369 78.1355C49.4229 78.1361 50.9142 77.5189 52.0357 76.3974C52.798 75.6351 53.3057 74.6947 53.5673 73.6779L62.8206 73.6779C63.0822 74.6947 63.5899 75.6351 64.3529 76.3982C65.4736 77.5189 66.9643 78.137 68.551 78.137L77.4266 78.1356C79.0146 78.1382 80.5059 77.521 81.6274 76.3995C82.7503 75.2766 83.3683 73.7845 83.3661 72.2ZM18.2501 75.1387L9.37233 75.138C7.80471 75.1402 6.4329 73.7684 6.43505 72.2008C6.43364 71.4145 6.74049 70.6762 7.29419 70.1225C7.84929 69.5674 8.58678 69.2613 9.37308 69.2612L18.2487 69.2598C19.035 69.2612 19.7733 69.5668 20.3283 70.1218C20.5022 70.2957 20.6055 70.5135 20.7278 70.7193L19.7279 70.7193C18.9106 70.7193 18.2487 71.3811 18.2487 72.1986C18.2486 73.0161 18.9105 73.6778 19.7279 73.6779L20.7293 73.6779C20.2166 74.5356 19.3193 75.1387 18.2501 75.1387ZM47.839 75.1365L38.9633 75.138C37.9324 75.1365 37.0358 74.5228 36.509 73.6791L37.4833 73.6791C38.3007 73.6791 38.9625 73.0173 38.9626 72.1998C38.9626 71.3825 38.3008 70.7206 37.4833 70.7206L36.482 70.7206C36.9961 69.8642 37.8927 69.2603 38.9619 69.2604L47.8396 69.2611C48.6237 69.2603 49.3613 69.5665 49.9164 70.1216C50.0911 70.2963 50.1943 70.5141 50.318 70.7198H49.3195C48.5022 70.7198 47.8403 71.3816 47.8402 72.1991C47.8402 73.0165 48.5021 73.6783 49.3195 73.6784L50.3187 73.6791C50.1942 73.8841 50.0911 74.1019 49.9164 74.2766C49.3621 74.8312 48.6246 75.1373 47.839 75.1365ZM77.4286 75.138L68.5529 75.1395C67.5227 75.1374 66.624 74.5242 66.0971 73.6793L67.0729 73.6793C67.8903 73.6793 68.5521 73.0175 68.5522 72.2C68.5523 71.3826 67.8904 70.7208 67.0729 70.7207L66.0716 70.7207C66.5857 69.8644 67.4823 69.262 68.5514 69.262L77.4291 69.2626C78.2132 69.2619 78.9515 69.5674 79.5066 70.1225C80.0617 70.6776 80.3671 71.4158 80.3665 72.2C80.368 72.9849 80.0617 73.7224 79.5059 74.2782C78.9524 74.8319 78.2141 75.1387 77.4286 75.138Z" fill="#585858"/>
<path d="M142.392 71.6004C142.399 68.4318 139.628 65.6593 136.455 65.6628L127.578 65.6621C124.818 65.6628 122.511 67.5649 121.849 70.1211L112.577 70.1211C111.883 67.6187 109.526 65.6585 106.865 65.6621L97.9872 65.6615C95.226 65.6622 92.9209 67.5643 92.259 70.1212H82.9874C82.2915 67.6166 79.9369 65.6622 77.2753 65.6622L68.3982 65.6622C66.8125 65.6615 65.3211 66.2787 64.1983 67.4016C63.0768 68.5231 62.4588 70.0151 62.4602 71.6004C62.4581 73.185 63.0761 74.6756 64.199 75.7985C65.3219 76.9214 66.8125 77.5394 68.3971 77.5373L77.2748 77.5379C80.0361 77.5372 82.3412 75.6351 83.003 73.0782L92.2563 73.0782C92.5172 74.0957 93.0248 75.0362 93.7879 75.7992C94.9086 76.9199 96.4 77.5373 97.9867 77.5373L106.862 77.5359C108.448 77.5365 109.94 76.9193 111.061 75.7978C111.823 75.0355 112.331 74.0951 112.593 73.0783L121.846 73.0783C122.108 74.0951 122.615 75.0355 123.378 75.7985C124.499 76.9193 125.99 77.5374 127.576 77.5374L136.452 77.536C138.04 77.5386 139.531 76.9214 140.653 75.7999C141.776 74.677 142.394 73.1849 142.392 71.6004ZM77.2755 74.5391L68.3977 74.5384C66.8301 74.5406 65.4583 73.1688 65.4604 71.6011C65.459 70.8149 65.7659 70.0766 66.3196 69.5229C66.8747 68.9678 67.6122 68.6617 68.3985 68.6616L77.2741 68.6602C78.0604 68.6616 78.7987 68.9671 79.3537 69.5222C79.5276 69.6961 79.6309 69.9139 79.7532 70.1197L78.7533 70.1197C77.936 70.1197 77.2741 70.7815 77.274 71.599C77.274 72.4164 77.9359 73.0782 78.7533 73.0783L79.7547 73.0783C79.242 73.936 78.3447 74.5391 77.2755 74.5391ZM106.864 74.5369L97.9887 74.5383C96.9578 74.5369 96.0611 73.9232 95.5344 73.0795L96.5087 73.0795C97.3261 73.0795 97.9879 72.4177 97.988 71.6002C97.988 70.7829 97.3262 70.121 96.5087 70.1209L95.5074 70.1209C96.0215 69.2646 96.918 68.6607 97.9872 68.6608L106.865 68.6615C107.649 68.6607 108.387 68.9669 108.942 69.522C109.116 69.6967 109.22 69.9144 109.343 70.1202H108.345C107.528 70.1202 106.866 70.782 106.866 71.5995C106.866 72.4169 107.527 73.0787 108.345 73.0788L109.344 73.0794C109.22 73.2844 109.116 73.5023 108.942 73.677C108.388 74.2316 107.65 74.5377 106.864 74.5369ZM136.454 74.5384L127.578 74.5398C126.548 74.5378 125.649 73.9246 125.122 73.0797L126.098 73.0797C126.916 73.0797 127.578 72.4179 127.578 71.6004C127.578 70.7829 126.916 70.1212 126.098 70.1211L125.097 70.1211C125.611 69.2648 126.508 68.6624 127.577 68.6624L136.454 68.663C137.239 68.6623 137.977 68.9678 138.532 69.5229C139.087 70.078 139.393 70.8162 139.392 71.6004C139.393 72.3853 139.087 73.1228 138.531 73.6786C137.978 74.2322 137.24 74.5391 136.454 74.5384Z" fill="#585858"/>
<path d="M201.392 72.2C201.399 69.0315 198.628 66.2589 195.455 66.2624L186.578 66.2617C183.818 66.2624 181.511 68.1645 180.849 70.7207L171.577 70.7207C170.883 68.2183 168.526 66.2582 165.865 66.2617L156.987 66.2611C154.226 66.2618 151.921 68.1639 151.259 70.7208H141.987C141.292 68.2162 138.937 66.2618 136.275 66.2618L127.398 66.2618C125.812 66.2611 124.321 66.8783 123.198 68.0012C122.077 69.1227 121.459 70.6147 121.46 72.2C121.458 73.7846 122.076 75.2752 123.199 76.3981C124.322 77.521 125.812 78.139 127.397 78.1369L136.275 78.1376C139.036 78.1368 141.341 76.2347 142.003 73.6778L151.256 73.6778C151.517 74.6953 152.025 75.6358 152.788 76.3988C153.909 77.5196 155.4 78.1369 156.987 78.1369L165.862 78.1355C167.448 78.1361 168.94 77.5189 170.061 76.3974C170.823 75.6351 171.331 74.6947 171.593 73.6779L180.846 73.6779C181.108 74.6947 181.615 75.6351 182.378 76.3982C183.499 77.5189 184.99 78.137 186.576 78.137L195.452 78.1356C197.04 78.1382 198.531 77.521 199.653 76.3995C200.776 75.2766 201.394 73.7845 201.392 72.2ZM136.275 75.1387L127.398 75.138C125.83 75.1402 124.458 73.7684 124.46 72.2008C124.459 71.4145 124.766 70.6762 125.32 70.1225C125.875 69.5674 126.612 69.2613 127.398 69.2612L136.274 69.2598C137.06 69.2612 137.799 69.5668 138.354 70.1218C138.528 70.2957 138.631 70.5135 138.753 70.7193L137.753 70.7193C136.936 70.7193 136.274 71.3811 136.274 72.1986C136.274 73.0161 136.936 73.6778 137.753 73.6779L138.755 73.6779C138.242 74.5356 137.345 75.1387 136.275 75.1387ZM165.864 75.1365L156.989 75.138C155.958 75.1365 155.061 74.5228 154.534 73.6791L155.509 73.6791C156.326 73.6791 156.988 73.0173 156.988 72.1998C156.988 71.3825 156.326 70.7206 155.509 70.7206L154.507 70.7206C155.021 69.8642 155.918 69.2603 156.987 69.2604L165.865 69.2611C166.649 69.2603 167.387 69.5665 167.942 70.1216C168.116 70.2963 168.22 70.5141 168.343 70.7198H167.345C166.528 70.7198 165.866 71.3816 165.866 72.1991C165.866 73.0165 166.527 73.6783 167.345 73.6784L168.344 73.6791C168.22 73.8841 168.116 74.1019 167.942 74.2766C167.388 74.8312 166.65 75.1373 165.864 75.1365ZM195.454 75.138L186.578 75.1395C185.548 75.1374 184.649 74.5242 184.122 73.6793L185.098 73.6793C185.916 73.6793 186.578 73.0175 186.578 72.2C186.578 71.3826 185.916 70.7208 185.098 70.7207L184.097 70.7207C184.611 69.8644 185.508 69.262 186.577 69.262L195.454 69.2626C196.239 69.2619 196.977 69.5674 197.532 70.1225C198.087 70.6776 198.393 71.4158 198.392 72.2C198.393 72.9849 198.087 73.7224 197.531 74.2782C196.978 74.8319 196.24 75.1387 195.454 75.138Z" fill="#585858"/>
<path d="M260.417 71.6004C260.425 68.4318 257.653 65.6593 254.481 65.6628L245.603 65.6621C242.843 65.6628 240.537 67.5649 239.874 70.1211L230.602 70.1211C229.909 67.6187 227.551 65.6585 224.89 65.6621L216.013 65.6615C213.251 65.6622 210.946 67.5643 210.284 70.1212H201.013C200.317 67.6166 197.962 65.6622 195.301 65.6622L186.424 65.6622C184.838 65.6615 183.347 66.2787 182.224 67.4016C181.102 68.5231 180.484 70.0151 180.486 71.6004C180.484 73.185 181.102 74.6756 182.224 75.7985C183.347 76.9214 184.838 77.5394 186.422 77.5373L195.3 77.5379C198.061 77.5372 200.367 75.6351 201.028 73.0782L210.282 73.0782C210.543 74.0957 211.05 75.0362 211.813 75.7992C212.934 76.9199 214.425 77.5373 216.012 77.5373L224.888 77.5359C226.474 77.5365 227.965 76.9193 229.087 75.7978C229.849 75.0355 230.356 74.0951 230.618 73.0783L239.871 73.0783C240.133 74.0951 240.641 75.0355 241.404 75.7985C242.524 76.9193 244.015 77.5374 245.602 77.5374L254.477 77.536C256.065 77.5386 257.557 76.9214 258.678 75.7999C259.801 74.677 260.419 73.1849 260.417 71.6004ZM195.301 74.5391L186.423 74.5384C184.855 74.5406 183.484 73.1688 183.486 71.6011C183.484 70.8149 183.791 70.0766 184.345 69.5229C184.9 68.9678 185.638 68.6617 186.424 68.6616L195.3 68.6602C196.086 68.6616 196.824 68.9671 197.379 69.5222C197.553 69.6961 197.656 69.9139 197.779 70.1197L196.779 70.1197C195.961 70.1197 195.3 70.7815 195.299 71.599C195.299 72.4164 195.961 73.0782 196.779 73.0783L197.78 73.0783C197.267 73.936 196.37 74.5391 195.301 74.5391ZM224.89 74.5369L216.014 74.5383C214.983 74.5369 214.087 73.9232 213.56 73.0795L214.534 73.0795C215.351 73.0795 216.013 72.4177 216.013 71.6002C216.013 70.7829 215.352 70.121 214.534 70.1209L213.533 70.1209C214.047 69.2646 214.943 68.6607 216.013 68.6608L224.89 68.6615C225.675 68.6607 226.412 68.9669 226.967 69.522C227.142 69.6967 227.245 69.9144 227.369 70.1202H226.37C225.553 70.1202 224.891 70.782 224.891 71.5995C224.891 72.4169 225.553 73.0787 226.37 73.0788L227.369 73.0794C227.245 73.2844 227.142 73.5023 226.967 73.677C226.413 74.2316 225.675 74.5377 224.89 74.5369ZM254.479 74.5384L245.604 74.5398C244.573 74.5378 243.675 73.9246 243.148 73.0797L244.124 73.0797C244.941 73.0797 245.603 72.4179 245.603 71.6004C245.603 70.7829 244.941 70.1212 244.124 70.1211L243.122 70.1211C243.636 69.2648 244.533 68.6624 245.602 68.6624L254.48 68.663C255.264 68.6623 256.002 68.9678 256.557 69.5229C257.112 70.078 257.418 70.8162 257.417 71.6004C257.419 72.3853 257.112 73.1228 256.557 73.6786C256.003 74.2322 255.265 74.5391 254.479 74.5384Z" fill="#585858"/>
<path d="M319.392 72.2C319.399 69.0315 316.628 66.2589 313.455 66.2624L304.578 66.2617C301.818 66.2624 299.511 68.1645 298.849 70.7207L289.577 70.7207C288.883 68.2183 286.526 66.2582 283.865 66.2617L274.987 66.2611C272.226 66.2618 269.921 68.1639 269.259 70.7208H259.987C259.292 68.2162 256.937 66.2618 254.275 66.2618L245.398 66.2618C243.812 66.2611 242.321 66.8783 241.198 68.0012C240.077 69.1227 239.459 70.6147 239.46 72.2C239.458 73.7846 240.076 75.2752 241.199 76.3981C242.322 77.521 243.812 78.139 245.397 78.1369L254.275 78.1376C257.036 78.1368 259.341 76.2347 260.003 73.6778L269.256 73.6778C269.517 74.6953 270.025 75.6358 270.788 76.3988C271.909 77.5196 273.4 78.1369 274.987 78.1369L283.862 78.1355C285.448 78.1361 286.94 77.5189 288.061 76.3974C288.823 75.6351 289.331 74.6947 289.593 73.6779L298.846 73.6779C299.108 74.6947 299.615 75.6351 300.378 76.3982C301.499 77.5189 302.99 78.137 304.576 78.137L313.452 78.1356C315.04 78.1382 316.531 77.521 317.653 76.3995C318.776 75.2766 319.394 73.7845 319.392 72.2ZM254.275 75.1387L245.398 75.138C243.83 75.1402 242.458 73.7684 242.46 72.2008C242.459 71.4145 242.766 70.6762 243.32 70.1225C243.875 69.5674 244.612 69.2613 245.398 69.2612L254.274 69.2598C255.06 69.2612 255.799 69.5668 256.354 70.1218C256.528 70.2957 256.631 70.5135 256.753 70.7193L255.753 70.7193C254.936 70.7193 254.274 71.3811 254.274 72.1986C254.274 73.0161 254.936 73.6778 255.753 73.6779L256.755 73.6779C256.242 74.5356 255.345 75.1387 254.275 75.1387ZM283.864 75.1365L274.989 75.138C273.958 75.1365 273.061 74.5228 272.534 73.6791L273.509 73.6791C274.326 73.6791 274.988 73.0173 274.988 72.1998C274.988 71.3825 274.326 70.7206 273.509 70.7206L272.507 70.7206C273.021 69.8642 273.918 69.2603 274.987 69.2604L283.865 69.2611C284.649 69.2603 285.387 69.5665 285.942 70.1216C286.116 70.2963 286.22 70.5141 286.343 70.7198H285.345C284.528 70.7198 283.866 71.3816 283.866 72.1991C283.866 73.0165 284.527 73.6783 285.345 73.6784L286.344 73.6791C286.22 73.8841 286.116 74.1019 285.942 74.2766C285.388 74.8312 284.65 75.1373 283.864 75.1365ZM313.454 75.138L304.578 75.1395C303.548 75.1374 302.649 74.5242 302.122 73.6793L303.098 73.6793C303.916 73.6793 304.578 73.0175 304.578 72.2C304.578 71.3826 303.916 70.7208 303.098 70.7207L302.097 70.7207C302.611 69.8644 303.508 69.262 304.577 69.262L313.454 69.2626C314.239 69.2619 314.977 69.5674 315.532 70.1225C316.087 70.6776 316.393 71.4158 316.392 72.2C316.393 72.9849 316.087 73.7224 315.531 74.2782C314.978 74.8319 314.24 75.1387 313.454 75.138Z" fill="#585858"/>
<path d="M378.417 71.6004C378.425 68.4318 375.653 65.6593 372.481 65.6628L363.603 65.6621C360.843 65.6628 358.537 67.5649 357.874 70.1211L348.602 70.1211C347.909 67.6187 345.551 65.6585 342.89 65.6621L334.013 65.6615C331.251 65.6622 328.946 67.5643 328.284 70.1212H319.013C318.317 67.6166 315.962 65.6622 313.301 65.6622L304.424 65.6622C302.838 65.6615 301.347 66.2787 300.224 67.4016C299.102 68.5231 298.484 70.0151 298.486 71.6004C298.484 73.185 299.102 74.6756 300.224 75.7985C301.347 76.9214 302.838 77.5394 304.422 77.5373L313.3 77.5379C316.061 77.5372 318.367 75.6351 319.028 73.0782L328.282 73.0782C328.543 74.0957 329.05 75.0362 329.813 75.7992C330.934 76.9199 332.425 77.5373 334.012 77.5373L342.888 77.5359C344.474 77.5365 345.965 76.9193 347.087 75.7978C347.849 75.0355 348.356 74.0951 348.618 73.0783L357.871 73.0783C358.133 74.0951 358.641 75.0355 359.404 75.7985C360.524 76.9193 362.015 77.5374 363.602 77.5374L372.477 77.536C374.065 77.5386 375.557 76.9214 376.678 75.7999C377.801 74.677 378.419 73.1849 378.417 71.6004ZM313.301 74.5391L304.423 74.5384C302.855 74.5406 301.484 73.1688 301.486 71.6011C301.484 70.8149 301.791 70.0766 302.345 69.5229C302.9 68.9678 303.638 68.6617 304.424 68.6616L313.3 68.6602C314.086 68.6616 314.824 68.9671 315.379 69.5222C315.553 69.6961 315.656 69.9139 315.779 70.1197L314.779 70.1197C313.961 70.1197 313.3 70.7815 313.299 71.599C313.299 72.4164 313.961 73.0782 314.779 73.0783L315.78 73.0783C315.267 73.936 314.37 74.5391 313.301 74.5391ZM342.89 74.5369L334.014 74.5383C332.983 74.5369 332.087 73.9232 331.56 73.0795L332.534 73.0795C333.351 73.0795 334.013 72.4177 334.013 71.6002C334.013 70.7829 333.352 70.121 332.534 70.1209L331.533 70.1209C332.047 69.2646 332.943 68.6607 334.013 68.6608L342.89 68.6615C343.675 68.6607 344.412 68.9669 344.967 69.522C345.142 69.6967 345.245 69.9144 345.369 70.1202H344.37C343.553 70.1202 342.891 70.782 342.891 71.5995C342.891 72.4169 343.553 73.0787 344.37 73.0788L345.369 73.0794C345.245 73.2844 345.142 73.5023 344.967 73.677C344.413 74.2316 343.675 74.5377 342.89 74.5369ZM372.479 74.5384L363.604 74.5398C362.573 74.5378 361.675 73.9246 361.148 73.0797L362.124 73.0797C362.941 73.0797 363.603 72.4179 363.603 71.6004C363.603 70.7829 362.941 70.1212 362.124 70.1211L361.122 70.1211C361.636 69.2648 362.533 68.6624 363.602 68.6624L372.48 68.663C373.264 68.6623 374.002 68.9678 374.557 69.5229C375.112 70.078 375.418 70.8162 375.417 71.6004C375.419 72.3853 375.112 73.1228 374.557 73.6786C374.003 74.2322 373.265 74.5391 372.479 74.5384Z" fill="#585858"/>
</svg>
