<svg width="598" height="698" viewBox="0 0 598 698" fill="none" xmlns="http://www.w3.org/2000/svg">
<g clip-path="url(#clip0_274_418)">
<mask id="mask0_274_418" style="mask-type:luminance" maskUnits="userSpaceOnUse" x="0" y="0" width="598" height="698">
<path d="M598 0H0V698H598V0Z" fill="white"/>
</mask>
<g mask="url(#mask0_274_418)">
<path fill-rule="evenodd" clip-rule="evenodd" d="M355.713 9.72619C368.687 22.6947 368.687 43.7204 355.713 56.689L312.466 99.9202C471.348 106.958 598 237.94 598 398.491C598 563.552 464.134 697.359 299 697.359C133.867 697.359 0 563.552 0 398.491C0 380.151 14.8743 365.283 33.2222 365.283C51.5702 365.283 66.4444 380.151 66.4444 398.491C66.4444 526.871 170.563 630.943 299 630.943C427.437 630.943 531.556 526.871 531.556 398.491C531.556 274.872 435.018 173.791 313.186 166.463L355.713 208.971C368.687 221.941 368.687 242.966 355.713 255.935C342.74 268.903 321.704 268.903 308.731 255.935L209.063 156.312C202.834 150.084 199.333 141.638 199.333 132.83C199.333 124.023 202.834 115.577 209.063 109.349L308.731 9.72619C321.704 -3.24206 342.74 -3.24206 355.713 9.72619Z" fill="#FF9211"/>
</g>
</g>
<defs>
<clipPath id="clip0_274_418">
<rect width="598" height="698" fill="white"/>
</clipPath>
</defs>
</svg>
