<svg width="1000" height="1000" viewBox="0 0 1000 1000" fill="none" xmlns="http://www.w3.org/2000/svg">
<rect x="4" y="4" width="992" height="992" fill="black" stroke="#FF9211" stroke-width="8"/>
<path d="M246.728 554.909V664H226.806L179.345 595.339H178.546V664H155.482V554.909H175.723L222.811 623.517H223.77V554.909H246.728ZM366.033 609.455C366.033 621.351 363.778 631.472 359.268 639.817C354.794 648.162 348.686 654.536 340.944 658.94C333.238 663.308 324.573 665.491 314.95 665.491C305.255 665.491 296.555 663.29 288.849 658.886C281.143 654.483 275.053 648.109 270.578 639.763C266.104 631.418 263.867 621.315 263.867 609.455C263.867 597.558 266.104 587.438 270.578 579.092C275.053 570.747 281.143 564.391 288.849 560.023C296.555 555.619 305.255 553.418 314.95 553.418C324.573 553.418 333.238 555.619 340.944 560.023C348.686 564.391 354.794 570.747 359.268 579.092C363.778 587.438 366.033 597.558 366.033 609.455ZM342.649 609.455C342.649 601.749 341.494 595.25 339.186 589.959C336.914 584.668 333.7 580.655 329.545 577.92C325.39 575.186 320.525 573.819 314.95 573.819C309.374 573.819 304.509 575.186 300.355 577.92C296.2 580.655 292.968 584.668 290.66 589.959C288.387 595.25 287.251 601.749 287.251 609.455C287.251 617.161 288.387 623.659 290.66 628.95C292.968 634.241 296.2 638.254 300.355 640.989C304.509 643.723 309.374 645.09 314.95 645.09C320.525 645.09 325.39 643.723 329.545 640.989C333.7 638.254 336.914 634.241 339.186 628.95C341.494 623.659 342.649 617.161 342.649 609.455ZM440.9 554.909V664H417.835V554.909H440.9ZM459.876 554.909H488.321L518.363 628.205H519.642L549.684 554.909H578.129V664H555.757V592.995H554.851L526.62 663.467H511.385L483.154 592.729H482.248V664H459.876V554.909ZM615.935 664H591.219L628.879 554.909H658.602L696.209 664H671.493L644.167 579.838H643.314L615.935 664ZM614.39 621.12H672.771V639.124H614.39V621.12ZM776.549 590.172C775.803 587.58 774.755 585.289 773.406 583.3C772.056 581.276 770.405 579.572 768.452 578.187C766.534 576.766 764.333 575.683 761.847 574.938C759.397 574.192 756.68 573.819 753.697 573.819C748.122 573.819 743.221 575.204 738.995 577.974C734.805 580.744 731.538 584.774 729.194 590.065C726.85 595.321 725.679 601.749 725.679 609.348C725.679 616.947 726.833 623.411 729.141 628.737C731.449 634.064 734.716 638.13 738.942 640.935C743.168 643.705 748.157 645.09 753.91 645.09C759.13 645.09 763.587 644.167 767.28 642.32C771.009 640.438 773.85 637.793 775.803 634.384C777.792 630.974 778.786 626.944 778.786 622.292L783.473 622.984H755.348V605.619H800.998V619.362C800.998 628.95 798.974 637.189 794.926 644.078C790.877 650.932 785.302 656.223 778.2 659.952C771.098 663.645 762.966 665.491 753.804 665.491C743.576 665.491 734.592 663.237 726.85 658.727C719.109 654.181 713.072 647.736 708.74 639.391C704.443 631.01 702.294 621.067 702.294 609.561C702.294 600.719 703.573 592.835 706.13 585.911C708.722 578.95 712.344 573.055 716.996 568.226C721.648 563.396 727.064 559.721 733.243 557.2C739.422 554.678 746.115 553.418 753.324 553.418C759.503 553.418 765.256 554.323 770.583 556.134C775.909 557.91 780.632 560.431 784.752 563.698C788.907 566.965 792.298 570.854 794.926 575.364C797.554 579.838 799.24 584.774 799.986 590.172H776.549ZM818.323 664V554.909H891.832V573.925H841.388V599.92H888.05V618.936H841.388V644.984H892.045V664H818.323Z" fill="#FF9211"/>
<path d="M118.776 766.975V760.636H148.641V766.975H137.508V797H129.908V766.975H118.776ZM160.981 781.233V797H153.417V760.636H160.768V774.539H161.087C161.703 772.929 162.697 771.669 164.07 770.757C165.443 769.834 167.166 769.372 169.237 769.372C171.131 769.372 172.782 769.786 174.191 770.615C175.612 771.432 176.712 772.61 177.494 774.148C178.287 775.675 178.677 777.504 178.665 779.635V797H171.102V780.984C171.113 779.304 170.687 777.996 169.823 777.06C168.971 776.125 167.775 775.658 166.237 775.658C165.207 775.658 164.295 775.877 163.502 776.315C162.721 776.753 162.105 777.392 161.656 778.232C161.218 779.061 160.993 780.061 160.981 781.233ZM184.618 797V769.727H192.182V797H184.618ZM188.418 766.212C187.293 766.212 186.329 765.839 185.524 765.093C184.731 764.335 184.334 763.43 184.334 762.376C184.334 761.335 184.731 760.441 185.524 759.695C186.329 758.938 187.293 758.559 188.418 758.559C189.542 758.559 190.501 758.938 191.294 759.695C192.099 760.441 192.502 761.335 192.502 762.376C192.502 763.43 192.099 764.335 191.294 765.093C190.501 765.839 189.542 766.212 188.418 766.212ZM220.933 777.504L214.008 777.93C213.89 777.339 213.635 776.806 213.245 776.332C212.854 775.847 212.339 775.462 211.7 775.178C211.073 774.882 210.321 774.734 209.445 774.734C208.273 774.734 207.285 774.983 206.48 775.48C205.675 775.965 205.272 776.616 205.272 777.433C205.272 778.084 205.533 778.635 206.054 779.085C206.574 779.534 207.468 779.895 208.735 780.168L213.671 781.162C216.322 781.706 218.299 782.582 219.601 783.79C220.903 784.997 221.554 786.583 221.554 788.548C221.554 790.336 221.028 791.904 219.974 793.254C218.932 794.603 217.5 795.656 215.677 796.414C213.866 797.16 211.777 797.533 209.409 797.533C205.799 797.533 202.923 796.781 200.78 795.278C198.65 793.763 197.401 791.703 197.034 789.099L204.473 788.708C204.698 789.809 205.243 790.649 206.107 791.229C206.971 791.798 208.078 792.082 209.427 792.082C210.753 792.082 211.818 791.827 212.623 791.318C213.44 790.797 213.854 790.129 213.866 789.312C213.854 788.625 213.564 788.063 212.996 787.625C212.428 787.175 211.552 786.832 210.368 786.595L205.645 785.654C202.982 785.121 200.999 784.198 199.697 782.884C198.407 781.57 197.762 779.895 197.762 777.859C197.762 776.107 198.235 774.598 199.182 773.332C200.141 772.065 201.484 771.089 203.213 770.402C204.953 769.715 206.989 769.372 209.321 769.372C212.765 769.372 215.476 770.1 217.453 771.556C219.441 773.012 220.601 774.995 220.933 777.504ZM268.447 760.636V797H261.806L245.986 774.113H245.72V797H238.032V760.636H244.779L260.475 783.506H260.794V760.636H268.447ZM274.799 797V760.636H298.876V766.975H282.487V775.64H297.278V781.979H282.487V797H274.799ZM302.662 766.975V760.636H332.527V766.975H321.395V797H313.795V766.975H302.662ZM358.926 797.444C356.854 797.444 354.978 796.911 353.297 795.846C351.628 794.769 350.302 793.188 349.32 791.105C348.349 789.01 347.864 786.441 347.864 783.399C347.864 780.274 348.367 777.676 349.373 775.604C350.379 773.521 351.717 771.964 353.386 770.935C355.067 769.893 356.907 769.372 358.908 769.372C360.435 769.372 361.707 769.633 362.725 770.153C363.755 770.662 364.584 771.302 365.211 772.071C365.85 772.829 366.336 773.574 366.667 774.308H366.898V760.636H374.444V797H366.987V792.632H366.667C366.312 793.39 365.809 794.141 365.158 794.887C364.519 795.621 363.684 796.231 362.654 796.716C361.636 797.201 360.393 797.444 358.926 797.444ZM361.323 791.425C362.542 791.425 363.572 791.093 364.412 790.43C365.264 789.756 365.915 788.815 366.365 787.607C366.827 786.4 367.058 784.985 367.058 783.364C367.058 781.742 366.833 780.333 366.383 779.138C365.933 777.942 365.282 777.019 364.43 776.368C363.578 775.717 362.542 775.391 361.323 775.391C360.08 775.391 359.032 775.729 358.18 776.403C357.328 777.078 356.682 778.013 356.244 779.209C355.807 780.404 355.588 781.789 355.588 783.364C355.588 784.95 355.807 786.353 356.244 787.572C356.694 788.779 357.339 789.726 358.18 790.413C359.032 791.087 360.08 791.425 361.323 791.425ZM392.985 797.533C390.227 797.533 387.842 796.947 385.83 795.775C383.829 794.591 382.285 792.946 381.196 790.839C380.107 788.72 379.562 786.264 379.562 783.47C379.562 780.653 380.107 778.191 381.196 776.084C382.285 773.965 383.829 772.32 385.83 771.148C387.842 769.964 390.227 769.372 392.985 769.372C395.743 769.372 398.123 769.964 400.123 771.148C402.136 772.32 403.686 773.965 404.775 776.084C405.864 778.191 406.409 780.653 406.409 783.47C406.409 786.264 405.864 788.72 404.775 790.839C403.686 792.946 402.136 794.591 400.123 795.775C398.123 796.947 395.743 797.533 392.985 797.533ZM393.021 791.673C394.276 791.673 395.323 791.318 396.164 790.608C397.004 789.886 397.637 788.903 398.064 787.661C398.502 786.418 398.721 785.003 398.721 783.417C398.721 781.831 398.502 780.416 398.064 779.173C397.637 777.93 397.004 776.948 396.164 776.226C395.323 775.504 394.276 775.143 393.021 775.143C391.754 775.143 390.689 775.504 389.825 776.226C388.973 776.948 388.328 777.93 387.89 779.173C387.463 780.416 387.25 781.831 387.25 783.417C387.25 785.003 387.463 786.418 387.89 787.661C388.328 788.903 388.973 789.886 389.825 790.608C390.689 791.318 391.754 791.673 393.021 791.673ZM423.756 797.533C420.951 797.533 418.536 796.964 416.512 795.828C414.499 794.68 412.949 793.058 411.86 790.963C410.771 788.856 410.226 786.364 410.226 783.488C410.226 780.683 410.771 778.22 411.86 776.102C412.949 773.983 414.482 772.331 416.458 771.148C418.447 769.964 420.779 769.372 423.454 769.372C425.253 769.372 426.928 769.662 428.479 770.242C430.042 770.81 431.403 771.669 432.563 772.817C433.735 773.965 434.646 775.409 435.297 777.149C435.948 778.877 436.274 780.902 436.274 783.222V785.299H413.245V780.612H429.154C429.154 779.522 428.917 778.558 428.444 777.717C427.97 776.877 427.313 776.22 426.473 775.746C425.644 775.261 424.679 775.018 423.578 775.018C422.43 775.018 421.412 775.285 420.525 775.817C419.649 776.338 418.962 777.043 418.465 777.93C417.968 778.806 417.713 779.783 417.701 780.86V785.317C417.701 786.666 417.95 787.832 418.447 788.815C418.956 789.797 419.672 790.555 420.596 791.087C421.519 791.62 422.614 791.886 423.88 791.886C424.721 791.886 425.49 791.768 426.189 791.531C426.887 791.295 427.485 790.939 427.982 790.466C428.479 789.992 428.858 789.412 429.118 788.726L436.114 789.188C435.759 790.868 435.031 792.336 433.93 793.591C432.841 794.834 431.432 795.804 429.704 796.503C427.988 797.189 426.005 797.533 423.756 797.533ZM463.902 777.504L456.977 777.93C456.859 777.339 456.604 776.806 456.213 776.332C455.823 775.847 455.308 775.462 454.669 775.178C454.041 774.882 453.29 774.734 452.414 774.734C451.242 774.734 450.253 774.983 449.449 775.48C448.644 775.965 448.241 776.616 448.241 777.433C448.241 778.084 448.502 778.635 449.022 779.085C449.543 779.534 450.437 779.895 451.703 780.168L456.64 781.162C459.291 781.706 461.268 782.582 462.57 783.79C463.872 784.997 464.523 786.583 464.523 788.548C464.523 790.336 463.996 791.904 462.943 793.254C461.901 794.603 460.469 795.656 458.646 796.414C456.835 797.16 454.746 797.533 452.378 797.533C448.768 797.533 445.891 796.781 443.749 795.278C441.618 793.763 440.369 791.703 440.002 789.099L447.442 788.708C447.667 789.809 448.212 790.649 449.076 791.229C449.94 791.798 451.047 792.082 452.396 792.082C453.722 792.082 454.787 791.827 455.592 791.318C456.409 790.797 456.823 790.129 456.835 789.312C456.823 788.625 456.533 788.063 455.965 787.625C455.397 787.175 454.521 786.832 453.337 786.595L448.614 785.654C445.951 785.121 443.968 784.198 442.666 782.884C441.376 781.57 440.73 779.895 440.73 777.859C440.73 776.107 441.204 774.598 442.151 773.332C443.11 772.065 444.453 771.089 446.181 770.402C447.922 769.715 449.958 769.372 452.289 769.372C455.734 769.372 458.445 770.1 460.422 771.556C462.41 773.012 463.57 774.995 463.902 777.504ZM488.422 781.233V797H480.858V769.727H488.067V774.539H488.387C488.99 772.953 490.002 771.698 491.423 770.775C492.843 769.84 494.566 769.372 496.59 769.372C498.484 769.372 500.135 769.786 501.544 770.615C502.952 771.444 504.047 772.627 504.828 774.166C505.61 775.693 506 777.516 506 779.635V797H498.436V780.984C498.448 779.315 498.022 778.013 497.158 777.078C496.294 776.131 495.104 775.658 493.589 775.658C492.571 775.658 491.672 775.877 490.89 776.315C490.121 776.753 489.517 777.392 489.079 778.232C488.653 779.061 488.434 780.061 488.422 781.233ZM524.284 797.533C521.526 797.533 519.141 796.947 517.129 795.775C515.128 794.591 513.584 792.946 512.494 790.839C511.405 788.72 510.861 786.264 510.861 783.47C510.861 780.653 511.405 778.191 512.494 776.084C513.584 773.965 515.128 772.32 517.129 771.148C519.141 769.964 521.526 769.372 524.284 769.372C527.042 769.372 529.422 769.964 531.422 771.148C533.434 772.32 534.985 773.965 536.074 776.084C537.163 778.191 537.708 780.653 537.708 783.47C537.708 786.264 537.163 788.72 536.074 790.839C534.985 792.946 533.434 794.591 531.422 795.775C529.422 796.947 527.042 797.533 524.284 797.533ZM524.32 791.673C525.575 791.673 526.622 791.318 527.463 790.608C528.303 789.886 528.936 788.903 529.362 787.661C529.8 786.418 530.019 785.003 530.019 783.417C530.019 781.831 529.8 780.416 529.362 779.173C528.936 777.93 528.303 776.948 527.463 776.226C526.622 775.504 525.575 775.143 524.32 775.143C523.053 775.143 521.988 775.504 521.124 776.226C520.271 776.948 519.626 777.93 519.188 779.173C518.762 780.416 518.549 781.831 518.549 783.417C518.549 785.003 518.762 786.418 519.188 787.661C519.626 788.903 520.271 789.886 521.124 790.608C521.988 791.318 523.053 791.673 524.32 791.673ZM557.132 769.727V775.409H540.708V769.727H557.132ZM544.437 763.193H552.001V788.619C552.001 789.318 552.107 789.862 552.32 790.253C552.534 790.632 552.829 790.898 553.208 791.052C553.599 791.206 554.049 791.283 554.558 791.283C554.913 791.283 555.268 791.253 555.623 791.194C555.978 791.123 556.25 791.07 556.44 791.034L557.629 796.663C557.251 796.781 556.718 796.917 556.031 797.071C555.345 797.237 554.51 797.337 553.528 797.373C551.705 797.444 550.107 797.201 548.734 796.645C547.373 796.089 546.313 795.224 545.556 794.053C544.798 792.881 544.425 791.401 544.437 789.614V763.193ZM581.196 781.233V797H573.632V760.636H580.983V774.539H581.302C581.918 772.929 582.912 771.669 584.285 770.757C585.658 769.834 587.381 769.372 589.452 769.372C591.346 769.372 592.997 769.786 594.406 770.615C595.826 771.432 596.927 772.61 597.708 774.148C598.502 775.675 598.892 777.504 598.88 779.635V797H591.316V780.984C591.328 779.304 590.902 777.996 590.038 777.06C589.186 776.125 587.99 775.658 586.451 775.658C585.422 775.658 584.51 775.877 583.717 776.315C582.936 776.753 582.32 777.392 581.87 778.232C581.432 779.061 581.208 780.061 581.196 781.233ZM612.61 797.515C610.87 797.515 609.319 797.213 607.958 796.609C606.597 795.994 605.519 795.088 604.726 793.893C603.945 792.685 603.555 791.182 603.555 789.383C603.555 787.868 603.833 786.595 604.389 785.565C604.945 784.536 605.703 783.707 606.662 783.08C607.621 782.452 608.71 781.979 609.929 781.659C611.16 781.339 612.45 781.115 613.8 780.984C615.386 780.819 616.664 780.665 617.635 780.523C618.605 780.369 619.31 780.144 619.748 779.848C620.186 779.552 620.405 779.114 620.405 778.534V778.428C620.405 777.303 620.05 776.433 619.339 775.817C618.641 775.202 617.647 774.894 616.356 774.894C614.995 774.894 613.912 775.196 613.107 775.8C612.302 776.392 611.769 777.137 611.509 778.037L604.513 777.469C604.868 775.812 605.567 774.379 606.608 773.172C607.65 771.953 608.994 771.018 610.639 770.366C612.296 769.704 614.214 769.372 616.392 769.372C617.907 769.372 619.357 769.55 620.742 769.905C622.139 770.26 623.376 770.81 624.453 771.556C625.542 772.302 626.4 773.261 627.028 774.433C627.655 775.593 627.969 776.983 627.969 778.605V797H620.795V793.218H620.582C620.144 794.07 619.558 794.822 618.824 795.473C618.09 796.112 617.209 796.615 616.179 796.982C615.149 797.337 613.959 797.515 612.61 797.515ZM614.776 792.295C615.889 792.295 616.871 792.076 617.724 791.638C618.576 791.188 619.245 790.584 619.73 789.827C620.215 789.069 620.458 788.211 620.458 787.252V784.358C620.221 784.512 619.896 784.654 619.481 784.784C619.079 784.902 618.623 785.015 618.114 785.121C617.605 785.216 617.096 785.305 616.587 785.388C616.078 785.459 615.617 785.524 615.202 785.583C614.314 785.713 613.539 785.92 612.876 786.205C612.213 786.489 611.698 786.873 611.331 787.359C610.965 787.832 610.781 788.424 610.781 789.134C610.781 790.164 611.154 790.951 611.9 791.496C612.657 792.028 613.616 792.295 614.776 792.295ZM658.286 769.727L648.752 797H640.229L630.694 769.727H638.684L644.348 789.241H644.632L650.279 769.727H658.286ZM673.707 797.533C670.902 797.533 668.487 796.964 666.463 795.828C664.451 794.68 662.9 793.058 661.811 790.963C660.722 788.856 660.177 786.364 660.177 783.488C660.177 780.683 660.722 778.22 661.811 776.102C662.9 773.983 664.433 772.331 666.41 771.148C668.398 769.964 670.73 769.372 673.405 769.372C675.205 769.372 676.88 769.662 678.43 770.242C679.993 770.81 681.354 771.669 682.514 772.817C683.686 773.965 684.597 775.409 685.248 777.149C685.899 778.877 686.225 780.902 686.225 783.222V785.299H663.196V780.612H679.105C679.105 779.522 678.868 778.558 678.395 777.717C677.921 776.877 677.264 776.22 676.424 775.746C675.595 775.261 674.631 775.018 673.53 775.018C672.381 775.018 671.363 775.285 670.476 775.817C669.6 776.338 668.913 777.043 668.416 777.93C667.919 778.806 667.664 779.783 667.653 780.86V785.317C667.653 786.666 667.901 787.832 668.398 788.815C668.907 789.797 669.623 790.555 670.547 791.087C671.47 791.62 672.565 791.886 673.831 791.886C674.672 791.886 675.441 791.768 676.14 791.531C676.838 791.295 677.436 790.939 677.933 790.466C678.43 789.992 678.809 789.412 679.069 788.726L686.065 789.188C685.71 790.868 684.982 792.336 683.881 793.591C682.792 794.834 681.384 795.804 679.655 796.503C677.939 797.189 675.956 797.533 673.707 797.533ZM710.51 797.515C708.77 797.515 707.22 797.213 705.858 796.609C704.497 795.994 703.42 795.088 702.627 793.893C701.846 792.685 701.455 791.182 701.455 789.383C701.455 787.868 701.733 786.595 702.289 785.565C702.846 784.536 703.603 783.707 704.562 783.08C705.521 782.452 706.61 781.979 707.829 781.659C709.06 781.339 710.35 781.115 711.7 780.984C713.286 780.819 714.565 780.665 715.535 780.523C716.506 780.369 717.21 780.144 717.648 779.848C718.086 779.552 718.305 779.114 718.305 778.534V778.428C718.305 777.303 717.95 776.433 717.24 775.817C716.541 775.202 715.547 774.894 714.257 774.894C712.895 774.894 711.812 775.196 711.007 775.8C710.203 776.392 709.67 777.137 709.409 778.037L702.414 777.469C702.769 775.812 703.467 774.379 704.509 773.172C705.551 771.953 706.894 771.018 708.539 770.366C710.197 769.704 712.114 769.372 714.292 769.372C715.807 769.372 717.257 769.55 718.642 769.905C720.039 770.26 721.276 770.81 722.353 771.556C723.442 772.302 724.301 773.261 724.928 774.433C725.555 775.593 725.869 776.983 725.869 778.605V797H718.696V793.218H718.483C718.045 794.07 717.459 794.822 716.725 795.473C715.991 796.112 715.109 796.615 714.079 796.982C713.049 797.337 711.86 797.515 710.51 797.515ZM712.676 792.295C713.789 792.295 714.772 792.076 715.624 791.638C716.476 791.188 717.145 790.584 717.63 789.827C718.116 789.069 718.358 788.211 718.358 787.252V784.358C718.122 784.512 717.796 784.654 717.382 784.784C716.979 784.902 716.524 785.015 716.015 785.121C715.506 785.216 714.997 785.305 714.488 785.388C713.979 785.459 713.517 785.524 713.103 785.583C712.215 785.713 711.44 785.92 710.777 786.205C710.114 786.489 709.599 786.873 709.232 787.359C708.865 787.832 708.681 788.424 708.681 789.134C708.681 790.164 709.054 790.951 709.8 791.496C710.558 792.028 711.516 792.295 712.676 792.295ZM739.301 781.233V797H731.737V769.727H738.946V774.539H739.266C739.869 772.953 740.881 771.698 742.302 770.775C743.722 769.84 745.445 769.372 747.469 769.372C749.363 769.372 751.014 769.786 752.423 770.615C753.831 771.444 754.926 772.627 755.707 774.166C756.489 775.693 756.879 777.516 756.879 779.635V797H749.315V780.984C749.327 779.315 748.901 778.013 748.037 777.078C747.173 776.131 745.983 775.658 744.468 775.658C743.45 775.658 742.55 775.877 741.769 776.315C741 776.753 740.396 777.392 739.958 778.232C739.532 779.061 739.313 780.061 739.301 781.233ZM774.413 797V769.727H781.977V797H774.413ZM778.213 766.212C777.088 766.212 776.123 765.839 775.319 765.093C774.525 764.335 774.129 763.43 774.129 762.376C774.129 761.335 774.525 760.441 775.319 759.695C776.123 758.938 777.088 758.559 778.213 758.559C779.337 758.559 780.296 758.938 781.089 759.695C781.894 760.441 782.297 761.335 782.297 762.376C782.297 763.43 781.894 764.335 781.089 765.093C780.296 765.839 779.337 766.212 778.213 766.212ZM788.036 797V769.727H795.245V774.539H795.564C796.133 772.941 797.08 771.68 798.405 770.757C799.731 769.834 801.317 769.372 803.164 769.372C805.034 769.372 806.626 769.84 807.94 770.775C809.254 771.698 810.13 772.953 810.568 774.539H810.852C811.408 772.977 812.415 771.728 813.871 770.793C815.338 769.846 817.073 769.372 819.073 769.372C821.618 769.372 823.684 770.183 825.27 771.805C826.868 773.415 827.667 775.699 827.667 778.658V797H820.121V780.15C820.121 778.635 819.718 777.498 818.913 776.741C818.108 775.983 817.102 775.604 815.895 775.604C814.522 775.604 813.45 776.042 812.681 776.918C811.912 777.782 811.527 778.925 811.527 780.345V797H804.194V779.99C804.194 778.652 803.809 777.587 803.04 776.794C802.282 776.001 801.282 775.604 800.039 775.604C799.198 775.604 798.441 775.817 797.766 776.244C797.103 776.658 796.577 777.244 796.186 778.001C795.795 778.747 795.6 779.623 795.6 780.629V797H788.036ZM841.419 797.515C839.678 797.515 838.128 797.213 836.767 796.609C835.405 795.994 834.328 795.088 833.535 793.893C832.754 792.685 832.363 791.182 832.363 789.383C832.363 787.868 832.641 786.595 833.198 785.565C833.754 784.536 834.512 783.707 835.47 783.08C836.429 782.452 837.518 781.979 838.737 781.659C839.968 781.339 841.259 781.115 842.608 780.984C844.194 780.819 845.473 780.665 846.443 780.523C847.414 780.369 848.118 780.144 848.556 779.848C848.994 779.552 849.213 779.114 849.213 778.534V778.428C849.213 777.303 848.858 776.433 848.148 775.817C847.45 775.202 846.455 774.894 845.165 774.894C843.804 774.894 842.721 775.196 841.916 775.8C841.111 776.392 840.578 777.137 840.318 778.037L833.322 777.469C833.677 775.812 834.375 774.379 835.417 773.172C836.459 771.953 837.802 771.018 839.448 770.366C841.105 769.704 843.022 769.372 845.2 769.372C846.716 769.372 848.166 769.55 849.551 769.905C850.947 770.26 852.184 770.81 853.262 771.556C854.351 772.302 855.209 773.261 855.836 774.433C856.463 775.593 856.777 776.983 856.777 778.605V797H849.604V793.218H849.391C848.953 794.07 848.367 794.822 847.633 795.473C846.899 796.112 846.017 796.615 844.987 796.982C843.958 797.337 842.768 797.515 841.419 797.515ZM843.585 792.295C844.697 792.295 845.68 792.076 846.532 791.638C847.384 791.188 848.053 790.584 848.539 789.827C849.024 789.069 849.267 788.211 849.267 787.252V784.358C849.03 784.512 848.704 784.654 848.29 784.784C847.887 784.902 847.432 785.015 846.923 785.121C846.414 785.216 845.905 785.305 845.396 785.388C844.887 785.459 844.425 785.524 844.011 785.583C843.123 785.713 842.348 785.92 841.685 786.205C841.022 786.489 840.507 786.873 840.14 787.359C839.773 787.832 839.59 788.424 839.59 789.134C839.59 790.164 839.963 790.951 840.708 791.496C841.466 792.028 842.425 792.295 843.585 792.295ZM874.932 807.795C872.482 807.795 870.381 807.458 868.629 806.783C866.889 806.121 865.504 805.215 864.474 804.067C863.444 802.919 862.776 801.628 862.468 800.196L869.464 799.255C869.677 799.799 870.014 800.308 870.476 800.782C870.937 801.255 871.547 801.634 872.305 801.918C873.074 802.214 874.009 802.362 875.11 802.362C876.755 802.362 878.111 801.96 879.176 801.155C880.253 800.362 880.792 799.03 880.792 797.16V792.17H880.472C880.141 792.928 879.644 793.644 878.981 794.319C878.318 794.994 877.465 795.544 876.424 795.97C875.382 796.396 874.139 796.609 872.695 796.609C870.647 796.609 868.783 796.136 867.102 795.189C865.433 794.23 864.101 792.768 863.107 790.803C862.125 788.826 861.633 786.329 861.633 783.31C861.633 780.221 862.136 777.64 863.143 775.569C864.149 773.497 865.486 771.947 867.155 770.917C868.836 769.887 870.677 769.372 872.677 769.372C874.204 769.372 875.483 769.633 876.513 770.153C877.542 770.662 878.371 771.302 878.998 772.071C879.638 772.829 880.129 773.574 880.472 774.308H880.756V769.727H888.267V797.266C888.267 799.586 887.699 801.528 886.562 803.09C885.426 804.653 883.852 805.825 881.839 806.606C879.839 807.399 877.537 807.795 874.932 807.795ZM875.092 790.928C876.311 790.928 877.341 790.626 878.182 790.022C879.034 789.406 879.685 788.531 880.135 787.394C880.596 786.246 880.827 784.873 880.827 783.275C880.827 781.677 880.602 780.292 880.153 779.12C879.703 777.936 879.052 777.019 878.199 776.368C877.347 775.717 876.311 775.391 875.092 775.391C873.849 775.391 872.802 775.729 871.949 776.403C871.097 777.066 870.452 777.99 870.014 779.173C869.576 780.357 869.357 781.724 869.357 783.275C869.357 784.849 869.576 786.21 870.014 787.359C870.464 788.495 871.109 789.377 871.949 790.004C872.802 790.62 873.849 790.928 875.092 790.928ZM906.715 797.533C903.91 797.533 901.495 796.964 899.471 795.828C897.458 794.68 895.908 793.058 894.819 790.963C893.73 788.856 893.185 786.364 893.185 783.488C893.185 780.683 893.73 778.22 894.819 776.102C895.908 773.983 897.441 772.331 899.417 771.148C901.406 769.964 903.738 769.372 906.413 769.372C908.212 769.372 909.887 769.662 911.438 770.242C913.001 770.81 914.362 771.669 915.522 772.817C916.694 773.965 917.605 775.409 918.256 777.149C918.907 778.877 919.233 780.902 919.233 783.222V785.299H896.204V780.612H912.113C912.113 779.522 911.876 778.558 911.403 777.717C910.929 776.877 910.272 776.22 909.432 775.746C908.603 775.261 907.638 775.018 906.537 775.018C905.389 775.018 904.371 775.285 903.483 775.817C902.608 776.338 901.921 777.043 901.424 777.93C900.927 778.806 900.672 779.783 900.66 780.86V785.317C900.66 786.666 900.909 787.832 901.406 788.815C901.915 789.797 902.631 790.555 903.555 791.087C904.478 791.62 905.573 791.886 906.839 791.886C907.68 791.886 908.449 791.768 909.148 791.531C909.846 791.295 910.444 790.939 910.941 790.466C911.438 789.992 911.817 789.412 912.077 788.726L919.073 789.188C918.718 790.868 917.99 792.336 916.889 793.591C915.8 794.834 914.391 795.804 912.663 796.503C910.947 797.189 908.964 797.533 906.715 797.533Z" fill="#FF9211"/>
<path d="M549.179 366.378C552.752 352.126 557.172 337.372 550.248 323.217C548.146 318.902 544.368 315.856 541.467 312.008C537.437 306.69 534.775 300.627 531.785 294.835C528.422 288.293 526.026 287.355 519.073 284.918C515.351 283.659 516.159 282.605 513.565 279.817C510.593 276.628 505.084 275.353 500.543 275.065C494.864 274.687 488.511 277.5 482.926 276.464C476.038 275.155 475.463 267.566 473.671 262.608C471.879 257.65 470.104 254.624 464.423 252.807C462.18 252.087 459.741 252.324 458.465 250.409C455.724 246.228 462.023 235.545 462.491 231.007C463.101 225.02 461.297 219.342 461.319 213.43C461.337 206.234 466.332 199.836 466.444 192.786C465.53 204.497 465.503 216.26 466.365 227.974C466.76 233.33 468.809 235.677 471.351 240.239C473.685 244.366 474.223 247.481 479.074 250.137C486.672 254.335 496.261 255.423 504.541 258.169C511.282 260.411 514.603 262.743 516.613 268.364C518.474 273.55 521.449 278.035 528.268 279.859C535.853 281.862 541.314 277.067 546.765 281.987C551.648 286.407 558.197 293.923 559.444 299.999C561.348 309.265 559.802 320.55 559.939 329.992C560.082 336.392 559.44 342.786 558.03 349.031C556.33 356.357 552.589 361.622 549.179 366.378Z" fill="url(#paint0_linear_286_129)"/>
<path d="M404.89 362.276C411.299 372.573 430.407 369.41 439.214 376.015C442.07 378.171 440.608 378.831 445.167 378.796C452.916 378.715 457.931 371.802 465.744 373.749C472.16 375.326 478.571 380.202 484.358 382.848C491.05 385.917 498.876 387.804 505.285 391.252C512.944 395.368 514.985 402.788 514.152 409.911C513.045 419.249 509.423 429.026 505.519 437.708C511.386 430.773 515.477 422.418 521.467 415.317C525.133 411.033 530.429 407.579 533.924 403.521C537.931 398.883 538.262 388.609 539.283 383.216C540.018 379.258 540.616 374.842 538.974 371.002C534.484 370.499 530.244 370.863 526.472 368.237C518.713 362.896 516.685 353.125 509.522 347.242C504.348 343.01 500.654 344.511 494.11 344.995C490.688 345.24 489.846 343.86 486.455 343.674C484.964 349.959 493.867 353.506 494.831 359.255C489.312 360.906 482.824 360.072 477.639 362.58C476.539 363.114 476.142 364.715 474.974 365.032C471.288 366.017 463.517 364.443 460.132 363.873C439.797 360.42 426.417 350.313 425.598 332.369C425.243 324.543 428.037 317.008 427.944 309.294C419.721 307.437 408.729 322.182 405.54 326.653C396.605 339.429 400.022 352.376 404.89 362.276Z" fill="url(#paint1_linear_286_129)"/>
<path opacity="0.67" d="M440.397 429.123C437.728 433.279 435.153 439.834 436.676 444.404C439.171 451.94 440.433 449.513 449.999 452.064C465.931 456.335 472.903 472.733 491.676 466.494C520.204 457.004 534.156 424.363 544.231 404.685C553.132 387.172 547.374 370.649 547.787 352.161C548.351 327.223 556.317 303.71 552.11 278.612C549.35 262.065 541.932 239.747 530.581 224.97C511.249 199.908 487.771 226.018 474.931 240.746C455.777 262.678 433.48 283.121 419.17 307.337C408.916 324.697 400.187 347.191 420.693 362.533C428.457 368.341 436.913 370.55 441.726 378.615C446.401 386.341 444.551 394.839 446.137 402.96C453.108 438.332 503.221 404.118 513.549 387.455C514.447 388.249 516.451 388.952 517.327 389.698C525.983 378.561 535.06 346.982 510.753 340.695C497.721 337.334 493.324 347.614 484.606 355.068C474.119 341.792 499.572 318.929 507.633 307.567C532.422 324.296 540.47 340.135 534.527 364.724C531.022 379.241 525.958 393.769 521.592 408.152C519.25 415.863 516.84 425.647 507.723 430.276C503.201 432.603 495.231 433.736 490.102 435.741C478.806 440.144 470.345 442 457.58 438.451C434.593 432.089 436.378 414.067 428.294 400.494C433.709 412.202 433.684 425.107 440.397 429.123Z" fill="url(#paint2_linear_286_129)"/>
<path opacity="0.91" d="M444.298 435.712C444.852 441.634 455.695 445.356 461.194 448.802C464.958 451.153 469.159 457.024 473.128 458.587C478.813 460.884 478.828 458.413 485.026 457.048C490.767 455.784 496.236 456.603 502.077 457.319C526.387 425.67 544.563 391.344 543.639 353.633C543.267 338.527 538.226 324.391 539.052 309.388C539.572 300.029 549.708 242.584 523.309 243.388C516.457 243.591 514.818 249.346 510.066 251.789C505.314 254.232 499.605 254.19 494.07 256.105C461.713 267.321 446.036 296.804 444.581 321.98C443.906 333.507 439.318 351.317 447.088 362.007C452.041 368.814 463.363 370.373 467.532 377.42C470.931 383.183 466.568 390.598 471.409 396.12C478.265 403.941 486.023 395.764 493.629 391.147C499.632 387.445 505.892 384.177 512.362 381.37C513.787 380.757 517.054 381.229 518.279 380.397C525.904 375.252 526.725 362.12 521.524 355.801C508.581 340.004 480.425 353.265 474.293 366.337C477.968 368.278 490.374 373.321 491.04 376.642C491.641 379.59 482.799 388.097 480.544 390.388C476.396 386.472 471.741 382.008 469.636 377.129C467.958 373.253 468.811 369.38 466.318 365.551C464.245 362.388 460.532 360.565 457.938 357.754C446.584 345.424 456.03 326.828 464.885 315.286C471.067 315.708 478.659 317.208 483.418 314.381C488.637 311.25 489.101 303.893 489.58 299.451C490.536 290.603 489.645 280.981 496.807 273.287C504.593 264.907 511.312 266.237 517.924 273.539C523.677 279.855 523.07 286.382 524.168 293.511C525.147 299.86 528.253 304.371 531.363 310.177C539.514 325.575 539.993 341.498 538.648 357.5C537.536 368.419 535.483 379.221 532.51 389.786C529.267 402.16 527.843 414.815 521.061 426.485C509.865 445.713 483.59 460.672 457.961 444.673L444.298 435.712Z" fill="url(#paint3_linear_286_129)"/>
<path d="M456.902 362.377C465.218 367.426 467.906 375.589 470.886 382.832C471.879 385.247 472.77 394.1 475.911 395.709C481.942 398.804 503.546 392.55 509.462 389.334C520.992 383.088 528.447 356.209 529.345 345.716C530.237 335.644 525.234 311.553 508.538 309.297C506.791 309.065 490.02 313.8 488.452 314.399C466.463 322.961 467.273 340.689 473.635 355.458C476.839 362.933 472.402 372.698 477.302 379.108C480.941 376.539 493.303 365.413 497.284 370.766C499.35 373.545 493.519 386.526 490.091 388.642C474.921 398.332 467.445 371.432 456.902 362.377Z" fill="#FFC079"/>
<path d="M522.907 345.663C529.473 335.501 514.042 317.817 498.66 319.744C486.078 321.307 481.859 331.687 479.297 339.694C477.82 344.324 474.08 351.784 480.063 354.902C483.477 356.671 490.314 360.402 494.09 361.313C498.379 362.365 499.474 359.876 501.593 357.115C505.757 351.676 501.027 348.89 493.6 347.585C494.862 343.635 502.092 333.963 508.578 334.138C516.538 334.348 517.807 340.569 517.68 344.789C517.457 352.053 519.518 359.714 515.799 366.588C513.933 370.024 507.464 374.095 508.424 377.852C517.434 369.36 523.83 357.792 522.907 345.663Z" fill="white"/>
<path d="M539.198 230.653C541.506 217.496 558.766 184.979 533.971 182.211C528.355 181.594 522.954 185.634 517.723 184.975C511.067 184.162 505.403 174.585 500.7 170.109C496.754 166.352 493.795 163.127 488.561 161.113C485.415 159.863 482.271 159.933 479.694 157.59C475.047 153.366 475.295 145.322 474.653 139.663C473.495 129.255 471.574 118.946 468.906 108.82C465.625 96.4019 465.952 84.8691 467.604 72.2659C468.177 67.8973 468.79 62.5099 467.426 58.5423C466.333 77.499 467.114 101.595 477.686 117.882C482.509 125.311 488.767 125.494 497.054 127.785C506.748 130.655 516.774 132.25 526.879 132.528C537.585 132.806 539.841 137.28 546.239 143.786C547.962 145.552 550.211 145.864 552.042 147.656C557.723 153.215 558.188 163.969 558.947 171.273C559.914 180.62 561.639 189.067 558.998 198.308C555.433 210.545 548.148 219.197 539.198 230.653Z" fill="url(#paint4_linear_286_129)"/>
<path d="M548.12 198.234C550.873 187.244 536.284 188.283 528.201 188.994C518.448 189.859 512.64 187.008 506.821 180.379C499.519 171.952 493.287 161.814 487.399 152.677C484.882 148.763 481.795 143.773 486.668 140.564C491.771 137.179 504.293 136.358 510.328 136.994C526.469 138.677 536.07 146.602 542.229 158.285C545.222 164.062 547.494 170.184 548.992 176.515C550.829 183.957 548.563 189.174 548.12 198.234Z" fill="url(#paint5_linear_286_129)"/>
<path d="M459.604 248.867C457.913 242.843 461.973 234.884 464.29 229.416C467.68 221.422 471.921 214.892 477.037 207.693C478.534 205.594 480.607 202.629 476.019 202.328C479.441 193.783 487.743 183.792 495.117 177.156C504.522 168.694 516.49 163.523 527.967 159.843C520.422 159.844 511.561 162.725 504.347 164.59C493.593 167.369 488.066 173.243 478.87 177.63C475.425 179.279 474.048 179.113 471.345 181.661C467.519 185.255 464.792 189.861 463.482 194.945C459.014 211.209 460.291 228.237 459.604 248.867Z" fill="url(#paint6_linear_286_129)"/>
<path d="M458.454 249.606C457.446 248.895 457.62 246.99 457.648 245.995C457.686 244.463 457.961 242.947 458.463 241.499C458.999 240.158 459.654 238.868 460.419 237.644C461.367 235.765 462.026 233.753 462.373 231.678C463.744 225.403 465.688 219.329 469.853 213.806C472.302 210.655 475.337 206.853 479.254 204.864C476.974 208.607 474.887 212.465 473.002 216.423C471.548 219.59 470.835 222.937 469.43 226.117C467.977 229.017 466.174 231.727 464.06 234.187C462.508 236.004 461.383 238.145 460.767 240.454C460.151 242.762 460.061 245.18 460.502 247.528C460.718 249.07 461.059 250.591 461.521 252.078C459.456 252.249 457.872 250.041 458.454 249.606Z" fill="url(#paint7_linear_286_129)"/>
<path d="M476.213 202.118C475.278 201.336 477.069 198.81 477.416 198.083C478.472 195.821 479.467 193.546 480.594 191.321C482.589 187.311 484.893 182.718 488.92 179.82C494.077 176.1 498.44 171.731 504.082 168.415C509.725 165.203 515.738 162.689 521.987 160.927C523.53 160.484 526.257 159.459 528.003 159.763C526.167 161.329 522.798 161.983 520.387 162.773C516.765 164.094 513.274 165.749 509.958 167.716C507.737 168.768 505.601 169.989 503.567 171.369C501.26 173.167 498.882 174.893 496.621 176.776C491.297 180.917 486.726 185.945 483.108 191.637C480.941 195.177 477.997 198.5 476.213 202.118Z" fill="url(#paint8_linear_286_129)"/>
<path d="M477.961 307.414C479.446 305.303 482.605 304.993 485.204 304.471C489.464 303.687 493.679 302.681 497.833 301.457C502.896 299.888 507.577 297.283 511.58 293.808C509.973 296.769 505.097 299.498 501.986 301.259C498.721 303.205 495.239 304.76 491.61 305.892C488.513 306.838 481.533 309.042 477.961 307.414Z" fill="url(#paint9_linear_286_129)"/>
<path style="mix-blend-mode:screen" d="M628.387 357.547C639.635 266.462 590.868 185.475 519.463 176.657C448.058 167.84 381.055 234.53 369.807 325.615C358.56 416.7 407.326 497.687 478.731 506.505C550.136 515.322 617.139 448.631 628.387 357.547Z" fill="url(#paint10_radial_286_129)"/>
<path style="mix-blend-mode:screen" d="M603.143 235.81C611.775 144.48 575.289 66.332 521.649 61.2618C468.009 56.1917 417.527 126.119 408.895 217.449C400.262 308.779 436.748 386.927 490.388 391.997C544.028 397.067 594.51 327.14 603.143 235.81Z" fill="url(#paint11_radial_286_129)"/>
<path style="mix-blend-mode:color-dodge" d="M578.235 351.355C585.12 295.601 555.271 246.028 511.566 240.631C467.861 235.234 426.849 276.056 419.964 331.81C413.079 387.564 442.928 437.137 486.633 442.534C530.339 447.931 571.35 407.109 578.235 351.355Z" fill="url(#paint12_radial_286_129)"/>
<path d="M414.615 432.592C422.998 427.376 430.767 417.713 441.39 417.186C438.465 425.379 449.323 424.388 455.567 424.715C462.302 425.074 477.258 430.373 483.127 426.352C488.995 422.331 485.167 416.429 492.175 413.159C499.691 409.68 510.917 410.446 518.022 405.605C526.509 399.839 531.075 387.258 536.204 379.184C544.68 365.849 555.721 350.277 557.908 334.924C559.703 322.359 560.307 308.479 558.565 297.31C562.082 307.716 562.702 317.765 561.246 329.399C559.901 340.909 559.99 352.542 561.512 364.03C563.178 378.449 564.888 382.542 553.587 392.509C537.872 406.352 522.864 423.205 513.442 440.986C509.251 448.871 508.195 451.157 498.76 453.946C467.382 463.175 443.894 450.604 414.615 432.592Z" fill="url(#paint13_linear_286_129)"/>
<path d="M414.725 433.111C421.852 426.148 435.043 426.309 444.548 424.445C446.891 427.949 455.434 428.492 459.824 429.209C462.568 429.598 465.331 429.842 468.1 429.94C471.839 430.144 479.267 431.413 482.718 430.101C484.118 429.571 488.785 425.663 489.728 423.699C490.224 422.688 489.299 420.478 489.618 419.272C490.397 416.334 492.17 415.714 495.433 414.915C500.549 413.724 506.021 415.023 510.872 413.96C512.797 413.535 512.937 413.034 514.562 411.944C518.623 409.238 523.368 407.226 527.37 404.483C529.71 402.877 532.067 400.96 532.526 398.484C532.932 396.356 531.876 394.12 532.38 391.826C533.668 386.257 536.879 380.431 539.933 375.394C542.988 370.357 546.841 365.597 549.965 360.741C556.027 351.326 557.777 342.347 558.613 331.973C558.273 353.401 537.649 368.186 529.977 387.542C527.154 394.621 522.548 402.212 514.448 406.257C503.568 411.673 488.431 409.442 480.661 419.154C486.958 416.855 486.395 421.332 482.756 424.656C479.118 427.981 473.155 425.043 468.366 424.536C460.69 423.742 451.904 424.946 444.728 422.157C436.61 419.006 447.787 416.809 451.177 414.08C437.731 408.073 420.419 424.278 414.725 433.111Z" fill="url(#paint14_linear_286_129)"/>
<path d="M407.218 318.08C422.766 304.978 450.243 303.531 471.009 304.017C478.743 304.14 484.407 304.661 489.38 299.691C499.032 290.069 505.213 279.205 521.391 275.516C537.329 271.871 552.599 260.42 559.928 247.487C564.752 239.012 565.67 224.262 565.454 215.192C565.379 212.384 563.726 208.472 563.21 205.489C561.851 197.396 563.165 189.453 563.725 181.33C564.178 174.728 564.81 167.398 560.602 162.018C555.664 155.715 549.777 148.857 545.091 142.582C549.481 150.831 548.914 162.372 552.118 171.335C553.887 176.28 556.025 178.305 555.405 183.38C554.358 191.927 548.499 200.638 544.751 208.518C542.084 214.101 540.608 223.241 535.272 227.642C532.939 229.572 530.998 229.469 527.584 230.662C520.227 233.256 516.704 236.09 512.303 241.346C501.182 254.362 483.299 261.13 471.597 273.754C465.374 280.456 462.351 287.292 453.9 291.548C439.982 298.643 423.341 302.013 407.218 318.08Z" fill="url(#paint15_linear_286_129)"/>
<path d="M470.965 276.642C472.399 268.677 485.016 263.457 492.013 259.382C502.907 253.078 510.251 243.804 520.388 236.852C530.525 229.901 540.943 226.384 545.071 214.948C548.106 206.6 553.56 199.215 556.857 190.992C559.555 184.258 559.976 175.845 559.788 168.802C559.521 159.202 555.088 148.338 546.511 141.641C542.198 138.286 537.424 134.588 532.15 132.837C538.802 139.911 543.59 145.828 545.355 154.78C546.686 161.553 546.56 169.515 550.408 175.657C552.081 178.322 552.918 180.015 552.685 183.357C552.342 189.121 549.211 194.408 546.61 199.608C543.723 205.391 542.641 211.623 540.185 217.497C538.58 221.559 535.729 225.007 532.041 227.346C526.571 230.414 520.774 231.437 516.004 235.751C507.778 243.201 500.177 250.552 491.229 257.39C486.373 261.055 480.454 264.487 476.653 268.913C474.527 271.386 473.439 274.943 470.965 276.642Z" fill="url(#paint16_linear_286_129)"/>
<path d="M410.808 367.011C399.909 362.256 402.27 340.489 406.246 333.272C411.815 323.202 427.818 310.934 441.964 310.559C441.743 313.938 444.117 313.232 445.485 315.413C448.177 319.641 444.842 323.426 444.485 327.834C454.249 326.214 463.067 321.557 473.164 320.134C478.91 319.326 483.951 320.581 488.332 318.108C492.992 315.447 496.422 310.189 500.267 306.736C504.72 302.752 509.434 298.893 512.724 294.148C514.725 291.241 516.718 288.131 518.539 285.209C510.603 297.077 495.669 307.01 478.671 307.148C479.805 302.956 482.991 298.713 484.337 294.753C477.086 293.666 467.927 295.692 461.386 298.214C454.145 301.026 452.655 301.254 445.042 301.769C432.195 302.644 417.76 305.294 410.611 314.415C405.605 320.776 403.217 326.867 395.951 331.274C390.296 334.686 393.238 338.247 394.438 344.227C395.462 349.256 396.018 354.279 399.776 358.512C401.909 360.945 404.979 361.689 407.192 363.595C408.79 364.94 409.971 365.307 410.808 367.011Z" fill="url(#paint17_linear_286_129)"/>
<path d="M414.11 310.824C417.863 307.142 425.005 304.521 430.422 303.264C437.453 301.6 444.743 300.241 451.899 298.999C460.125 297.578 468.317 296.025 476.476 294.34C478.702 293.883 483.384 292.842 485.022 294.703C480.159 293.523 472.882 295.566 468.199 296.655C462.71 297.923 458.153 300.921 452.702 302.034C445.121 303.593 437.248 303.948 429.567 305.013C424.975 305.648 416.321 306.83 414.11 310.824Z" fill="url(#paint18_linear_286_129)"/>
<path d="M511.521 297.367C514.975 287.551 535.157 280.951 544.971 277.761C553.41 275.016 552.59 267.771 557.58 261.662C561.372 257.02 565.836 253.865 568.821 248.647C572.706 241.92 575.313 236.337 571.287 230.048C569.661 227.491 567.542 216.663 564.103 217.208C569.6 224.492 569.301 235.042 566.022 242.87C564.077 247.528 560.236 251.485 557.587 255.929C555.552 259.607 553.218 263.112 550.608 266.408C548.262 269.178 545.563 272.961 541.948 274.775C537.813 276.844 533.236 275.836 528.808 276.689C516.31 279.009 508.546 285.278 503.015 295.229C505.885 293.524 509.981 290.89 513.437 290.765C513.456 293.106 512.79 295.401 511.521 297.367Z" fill="url(#paint19_linear_286_129)"/>
<g style="mix-blend-mode:soft-light" opacity="0.5">
<path d="M468.35 288.048C469.424 274.788 481.417 267.303 494.845 261.531C498.987 259.75 512.804 251.466 514.905 258.875C516.234 263.538 512.149 270.046 509.627 274.011C506.368 279.141 501.405 284.22 497.396 289.001C495.623 291.096 491.656 296.202 487.871 295.914C486.373 295.795 485.204 294.673 484.002 294.09C481.909 293.011 479.634 292.328 477.293 292.076C474.636 291.734 465.198 292.4 468.35 288.048Z" fill="#D6C39F"/>
</g>
<g style="mix-blend-mode:soft-light" opacity="0.5">
<path d="M517.517 270.419C520.8 268.385 521.347 263.392 521.516 260.312C521.779 255.075 520.044 250.25 522.176 245.151C524.806 238.908 532.021 233.937 537.527 229.395C541.428 226.158 545.139 222.799 549.135 219.648C550.945 218.214 555.072 213.614 557.859 213.358C562.267 212.948 562.525 221.636 562.487 224.034C562.35 232.643 558.097 240.672 553.706 248.29C546.516 260.769 535.925 270.58 517.517 270.419Z" fill="#D6C39F"/>
</g>
<g style="mix-blend-mode:soft-light" opacity="0.5">
<path d="M462.654 221.452C465.121 217.138 469.526 213.873 471.933 209.606C474.166 205.671 474.302 200.876 475.736 196.701C477.638 190.998 480.568 185.691 484.38 181.043C486.313 178.674 489.347 176.432 490.742 173.947C482.789 174.025 470.076 181.535 466.793 187.372C463.19 193.731 462.792 200.657 461.844 207.503C461.291 212.124 460.722 216.984 462.654 221.452Z" fill="#D6C39F"/>
</g>
<g style="mix-blend-mode:soft-light" opacity="0.5">
<path d="M441.376 445.816C437.681 445.134 437.587 441.978 439.481 439.789C443.526 435.056 452.886 434.005 459.212 432.906C468.069 431.186 477.165 431.083 486.059 432.601C492.325 433.792 497.703 435.712 500.211 440.897C509.828 460.684 450.343 457.388 441.376 445.816Z" fill="#D6C39F"/>
</g>
<g style="mix-blend-mode:soft-light" opacity="0.5">
<path d="M505.392 437.349C503.551 438.459 502.926 435.523 502.64 434.654C501.43 431.148 501.637 427.308 503.217 423.953C504.99 420.311 508.942 417.675 512.944 415.652C515.798 414.174 521.69 410.993 525.383 411.82C530.893 412.987 524.012 422.592 522.783 424.504C518.448 430.84 512.252 437.326 505.392 437.349Z" fill="#D6C39F"/>
</g>
<g style="mix-blend-mode:soft-light" opacity="0.5">
<path d="M442.876 309.146C446.475 309.084 450.823 310.952 451.191 314.196C451.349 315.566 448.891 318.561 450.016 319.455C451.142 320.348 456.024 318.806 456.95 318.641C461.305 317.787 465.648 316.98 470.06 316.319C471.262 316.146 478.376 316.055 479.289 315.158C480.203 314.261 479.775 314.818 479.42 313.733C478.357 310.406 471.439 310.284 471.137 306.657C471.011 304.784 475.467 302.072 474.078 300.419C471.913 297.818 462.348 301.948 460.322 302.671C454.29 304.854 447.953 306.66 442.876 309.146Z" fill="#D6C39F"/>
</g>
<path style="mix-blend-mode:screen" d="M584.856 410.424C586.126 381.575 541.363 356.173 484.876 353.688C428.389 351.202 381.568 372.574 380.299 401.423C379.029 430.272 423.792 455.673 480.279 458.159C536.766 460.645 583.587 439.273 584.856 410.424Z" fill="url(#paint20_radial_286_129)"/>
<path d="M528.415 193.593C527.196 186.497 526.726 178.322 528.684 171.337C529.472 168.543 528.803 163.879 531.033 161.635C533.312 172.226 532.958 184.694 528.415 193.593Z" fill="#FFC293"/>
<path d="M533.166 123.924C531.198 126.291 531.54 132.689 533.697 135.086C538.364 133.457 535.673 126.974 534.989 123.953L533.166 123.924Z" fill="#FFC293"/>
<path d="M506.057 221.613C505.322 223.388 505.999 225.318 506.787 227.034C509.208 225.621 510.577 221.745 507.904 220.131L506.057 221.613Z" fill="#FFC293"/>
<path d="M533.023 317.442C528.866 314.078 527.695 287.373 535.653 290.006C540.485 291.594 540.104 314.124 533.023 317.442Z" fill="#FFC293"/>
<path d="M508.074 78.9433C507.092 81.8302 506.641 86.1168 509.376 88.2951C513.021 85.3905 513.001 81.3243 510.041 78.171L508.074 78.9433Z" fill="#FFC293"/>
<path d="M70 709.5H950.5" stroke="#FF9211"/>
<defs>
<linearGradient id="paint0_linear_286_129" x1="506.751" y1="370.714" x2="517.826" y2="202.725" gradientUnits="userSpaceOnUse">
<stop stop-color="#FF8000"/>
<stop offset="1" stop-color="#FFBE56"/>
</linearGradient>
<linearGradient id="paint1_linear_286_129" x1="467.932" y1="442.292" x2="476.059" y2="319.018" gradientUnits="userSpaceOnUse">
<stop stop-color="#FF7700"/>
<stop offset="1" stop-color="#FF9756"/>
</linearGradient>
<linearGradient id="paint2_linear_286_129" x1="451.257" y1="466.621" x2="499.054" y2="214.885" gradientUnits="userSpaceOnUse">
<stop offset="0.01" stop-color="#FF9C2B"/>
<stop offset="1" stop-color="#FFBF00"/>
</linearGradient>
<linearGradient id="paint3_linear_286_129" x1="472.972" y1="462.566" x2="505.161" y2="244.338" gradientUnits="userSpaceOnUse">
<stop stop-color="#FFCE72"/>
<stop offset="0.98" stop-color="#FFAE00"/>
</linearGradient>
<linearGradient id="paint4_linear_286_129" x1="509.091" y1="235.589" x2="520.113" y2="68.4149" gradientUnits="userSpaceOnUse">
<stop stop-color="#FF6200"/>
<stop offset="1" stop-color="#FFD856"/>
</linearGradient>
<linearGradient id="paint5_linear_286_129" x1="517.067" y1="203.122" x2="520.942" y2="144.354" gradientUnits="userSpaceOnUse">
<stop stop-color="#FFAE00"/>
<stop offset="0.99" stop-color="#FFBE56"/>
</linearGradient>
<linearGradient id="paint6_linear_286_129" x1="492.33" y1="257.612" x2="498.456" y2="164.698" gradientUnits="userSpaceOnUse">
<stop offset="0.01" stop-color="#8B632C"/>
<stop offset="1" stop-color="#593D0A"/>
</linearGradient>
<linearGradient id="paint7_linear_286_129" x1="469.083" y1="259.27" x2="472.257" y2="211.117" gradientUnits="userSpaceOnUse">
<stop stop-color="#FF8000"/>
<stop offset="1" stop-color="#FFBE56"/>
</linearGradient>
<linearGradient id="paint8_linear_286_129" x1="502.778" y1="210.472" x2="505.771" y2="165.075" gradientUnits="userSpaceOnUse">
<stop stop-color="#FF8800"/>
<stop offset="1" stop-color="#FFDD56"/>
</linearGradient>
<linearGradient id="paint9_linear_286_129" x1="496.918" y1="315.809" x2="497.972" y2="299.814" gradientUnits="userSpaceOnUse">
<stop stop-color="#FFA600"/>
<stop offset="1" stop-color="#FFAB56"/>
</linearGradient>
<radialGradient id="paint10_radial_286_129" cx="0" cy="0" r="1" gradientUnits="userSpaceOnUse" gradientTransform="translate(493.422 336.316) rotate(2.84201) scale(129.927 166.506)">
<stop stop-color="#FF7700"/>
<stop offset="0.16" stop-color="#CA5E00"/>
<stop offset="0.39" stop-color="#834200"/>
<stop offset="0.6" stop-color="#4B2E00"/>
<stop offset="0.78" stop-color="#221200"/>
<stop offset="0.92" stop-color="#090600"/>
<stop offset="1"/>
</radialGradient>
<radialGradient id="paint11_radial_286_129" cx="0" cy="0" r="1" gradientUnits="userSpaceOnUse" gradientTransform="translate(505.026 232.773) rotate(3.30442) scale(97.5559 166.423)">
<stop stop-color="#FF8800"/>
<stop offset="0.16" stop-color="#CA8300"/>
<stop offset="0.39" stop-color="#836900"/>
<stop offset="0.6" stop-color="#4B1E00"/>
<stop offset="0.78" stop-color="#221300"/>
<stop offset="0.92" stop-color="#090500"/>
<stop offset="1"/>
</radialGradient>
<radialGradient id="paint12_radial_286_129" cx="0" cy="0" r="1" gradientUnits="userSpaceOnUse" gradientTransform="translate(493.412 336.316) rotate(2.84201) scale(79.5315 101.923)">
<stop stop-color="#FF9D00"/>
<stop offset="0.16" stop-color="#CA7D00"/>
<stop offset="0.39" stop-color="#835100"/>
<stop offset="0.6" stop-color="#4B3100"/>
<stop offset="0.78" stop-color="#221800"/>
<stop offset="0.92" stop-color="#090600"/>
<stop offset="1"/>
</radialGradient>
<linearGradient id="paint13_linear_286_129" x1="487.214" y1="460.481" x2="503.219" y2="293.77" gradientUnits="userSpaceOnUse">
<stop offset="0.01" stop-color="#8B582C"/>
<stop offset="1" stop-color="#593B0A"/>
</linearGradient>
<linearGradient id="paint14_linear_286_129" x1="486.021" y1="444.399" x2="493.247" y2="334.795" gradientUnits="userSpaceOnUse">
<stop stop-color="#FF8800"/>
<stop offset="1" stop-color="#FFCF56"/>
</linearGradient>
<linearGradient id="paint15_linear_286_129" x1="485.473" y1="329.662" x2="497.561" y2="146.313" gradientUnits="userSpaceOnUse">
<stop offset="0.01" stop-color="#8B6D2C"/>
<stop offset="1" stop-color="#59430A"/>
</linearGradient>
<linearGradient id="paint16_linear_286_129" x1="514.346" y1="286.172" x2="524.044" y2="139.079" gradientUnits="userSpaceOnUse">
<stop stop-color="#FF8800"/>
<stop offset="1" stop-color="#FFC956"/>
</linearGradient>
<linearGradient id="paint17_linear_286_129" x1="454.416" y1="376.384" x2="460.223" y2="288.299" gradientUnits="userSpaceOnUse">
<stop offset="0.01" stop-color="#8B622C"/>
<stop offset="1" stop-color="#59380A"/>
</linearGradient>
<linearGradient id="paint18_linear_286_129" x1="451.544" y1="319.735" x2="452.946" y2="298.468" gradientUnits="userSpaceOnUse">
<stop stop-color="#FF8000"/>
<stop offset="1" stop-color="#FFCF56"/>
</linearGradient>
<linearGradient id="paint19_linear_286_129" x1="538.629" y1="306.043" x2="544.111" y2="222.893" gradientUnits="userSpaceOnUse">
<stop offset="0.01" stop-color="#8B582C"/>
<stop offset="1" stop-color="#59450A"/>
</linearGradient>
<radialGradient id="paint20_radial_286_129" cx="0" cy="0" r="1" gradientUnits="userSpaceOnUse" gradientTransform="translate(485.675 402.077) rotate(2.92602) scale(102.607 52.4078)">
<stop stop-color="#FFA600"/>
<stop offset="0.16" stop-color="#CA9100"/>
<stop offset="0.39" stop-color="#835A00"/>
<stop offset="0.6" stop-color="#4B4100"/>
<stop offset="0.78" stop-color="#221800"/>
<stop offset="0.92" stop-color="#090600"/>
<stop offset="1"/>
</radialGradient>
</defs>
</svg>
