<svg width="54" height="55" viewBox="0 0 54 55" fill="none" xmlns="http://www.w3.org/2000/svg">
<g clip-path="url(#clip0_274_657)">
<path d="M45.3241 41.5894H37.0178L36.9391 41.4469C36.9691 36.3675 38.9435 31.1719 42.6935 27.0731C45.4966 24.0112 47.6116 19.98 48.6972 15.9769L43.8728 13.0594L48.3503 12.2512L43.2766 9.2325L49.376 8.1975C48.7647 3.61875 46.001 0.22875 40.3235 0.22875C34.7828 1.305 18.9972 1.63312 10.8316 0.575625C9.79658 0.238125 8.75408 0.04125 7.73595 0.00562504C7.72845 0.00375004 7.72095 0.001875 7.71345 0C7.7172 0.001875 7.72283 0.00375004 7.72658 0.00562504C5.07158 -0.0825 2.59283 0.945 0.888451 3.53437C-1.47967 7.1325 1.0422 13.3088 6.5997 13.3088C6.91283 13.3088 7.1997 13.2919 7.4622 13.26V13.3031H14.4035C13.3535 17.535 10.7491 22.2412 7.73408 26.9831C7.48095 27.3806 7.23533 27.7875 6.9972 28.2L11.0791 32.3812L4.49595 33.4837C0.667201 43.5412 1.28783 54.7856 10.1453 54.7856L11.0622 54.7913V54.8044H21.0916V54.7856H47.5235C55.4922 54.7856 56.5853 41.5875 45.3278 41.5875L45.3241 41.5894ZM21.776 47.9362C21.776 47.8819 21.7741 47.8256 21.7722 47.7694C21.7741 47.8256 21.776 47.88 21.776 47.9362ZM9.13658 12.63C10.7791 11.2312 9.06908 7.92562 7.1022 5.175H13.8841C15.0185 7.36312 15.1347 9.88875 14.5553 12.63H9.13658ZM14.3641 43.2319C17.3978 42.2231 20.8366 44.1506 21.5191 47.1581C21.6353 47.6719 21.7103 48.1575 21.7478 48.6169C21.7516 48.5681 21.7553 48.5194 21.7572 48.4706C21.6822 49.5562 21.3597 50.46 20.8422 51.2062H20.7822C20.7241 51.2887 20.6641 51.3694 20.6022 51.4462L20.696 51.405C19.8278 52.5394 18.4966 53.2969 16.9122 53.7862H15.266L15.3466 53.7506C13.6122 53.7506 11.6191 53.5875 11.6191 53.5875C14.1935 53.5462 15.3016 52.4569 15.7253 51.2081C13.8916 51.8737 11.9378 50.6756 11.3228 48.9075C10.4922 46.5206 12.056 43.9987 14.3641 43.2319ZM20.7053 51.3956C20.7522 51.3337 20.7972 51.2719 20.8422 51.21C20.7991 51.2738 20.7522 51.3356 20.7053 51.3956Z" fill="url(#paint0_linear_274_657)"/>
</g>
<defs>
<linearGradient id="paint0_linear_274_657" x1="26.8207" y1="0" x2="26.8207" y2="54.8044" gradientUnits="userSpaceOnUse">
<stop stop-color="#FF9211"/>
<stop offset="1" stop-color="#7E5316"/>
</linearGradient>
<clipPath id="clip0_274_657">
<rect width="54" height="55" fill="white"/>
</clipPath>
</defs>
</svg>
