<svg width="200" height="268" viewBox="0 0 200 268" fill="none" xmlns="http://www.w3.org/2000/svg">
<g clip-path="url(#clip0_267_89)">
<mask id="mask0_267_89" style="mask-type:luminance" maskUnits="userSpaceOnUse" x="0" y="0" width="200" height="268">
<path d="M200 0H0V268H200V0Z" fill="white"/>
</mask>
<g mask="url(#mask0_267_89)">
<path d="M191.608 1.39648H8.39144C4.52931 1.39648 1.39844 4.52116 1.39844 8.37564V259.626C1.39844 263.48 4.52931 266.605 8.39144 266.605H191.608C195.47 266.605 198.601 263.48 198.601 259.626V8.37564C198.601 4.52116 195.47 1.39648 191.608 1.39648Z" fill="#1F1D19"/>
<path fill-rule="evenodd" clip-rule="evenodd" d="M198.601 8.37564C198.601 4.52116 195.47 1.39648 191.608 1.39648H8.39144C4.52931 1.39648 1.39844 4.52116 1.39844 8.37564V259.626C1.39844 263.48 4.52932 266.605 8.39144 266.605H191.608C195.47 266.605 198.601 263.48 198.601 259.626V8.37564ZM186.014 25.4436C186.014 21.5891 182.883 18.4644 179.021 18.4644H20.9789C17.1168 18.4644 13.9859 21.5891 13.9859 25.4436V242.558C13.9859 246.412 17.1168 249.537 20.9789 249.537H179.021C182.883 249.537 186.014 246.412 186.014 242.558V25.4436Z" fill="url(#paint0_linear_267_89)"/>
<mask id="mask1_267_89" style="mask-type:luminance" maskUnits="userSpaceOnUse" x="0" y="0" width="200" height="268">
<path d="M200 0H0V268H200V0Z" fill="white"/>
<path fill-rule="evenodd" clip-rule="evenodd" d="M198.601 8.37564C198.601 4.52115 195.47 1.39648 191.608 1.39648H8.39144C4.52931 1.39648 1.39844 4.52116 1.39844 8.37564V259.625C1.39844 263.48 4.52932 266.604 8.39144 266.604H191.608C195.47 266.604 198.601 263.48 198.601 259.625V8.37564ZM186.014 25.4436C186.014 21.589 182.883 18.4644 179.021 18.4644H20.9789C17.1168 18.4644 13.9859 21.589 13.9859 25.4436V242.558C13.9859 246.412 17.1168 249.537 20.9789 249.537H179.021C182.883 249.537 186.014 246.412 186.014 242.558V25.4436Z" fill="black"/>
</mask>
<g mask="url(#mask1_267_89)">
<path d="M8.39352 2.44336H191.61V0.349609H8.39352V2.44336ZM2.44946 259.625V8.37565H0.351562V259.625H2.44946ZM191.61 265.557H8.39352V267.651H191.61V265.557ZM197.554 8.37565V259.625H199.652V8.37565H197.554ZM20.9809 19.5113H179.023V17.4175H20.9809V19.5113ZM15.0369 242.558V25.4436H12.939V242.558H15.0369ZM179.023 248.49H20.9809V250.584H179.023V248.49ZM184.967 25.4436V242.558H187.065V25.4436H184.967ZM179.023 250.584C183.464 250.584 187.065 246.99 187.065 242.558H184.967C184.967 245.834 182.305 248.49 179.023 248.49V250.584ZM12.939 242.558C12.939 246.99 16.5395 250.584 20.9809 250.584V248.49C17.6981 248.49 15.0369 245.834 15.0369 242.558H12.939ZM179.023 19.5113C182.305 19.5113 184.967 22.1673 184.967 25.4436H187.065C187.065 21.0109 183.464 17.4175 179.023 17.4175V19.5113ZM20.9809 17.4175C16.5395 17.4175 12.939 21.0109 12.939 25.4436H15.0369C15.0369 22.1673 17.6981 19.5113 20.9809 19.5113V17.4175ZM191.61 267.651C196.052 267.651 199.652 264.058 199.652 259.625H197.554C197.554 262.901 194.893 265.557 191.61 265.557V267.651ZM0.351562 259.625C0.351562 264.058 3.95207 267.651 8.39352 267.651V265.557C5.11071 265.557 2.44946 262.901 2.44946 259.625H0.351562ZM191.61 2.44336C194.893 2.44336 197.554 5.09934 197.554 8.37565H199.652C199.652 3.94299 196.052 0.349609 191.61 0.349609V2.44336ZM8.39352 0.349609C3.95207 0.349609 0.351562 3.943 0.351562 8.37565H2.44946C2.44946 5.09935 5.11071 2.44336 8.39352 2.44336V0.349609Z" fill="#D0D0D0"/>
</g>
<path d="M1.39844 8.37564C1.39844 4.52116 4.52931 1.39648 8.39144 1.39648H191.608C195.47 1.39648 198.601 4.52116 198.601 8.37564V19.5423H1.39844V8.37564Z" fill="url(#paint1_linear_267_89)"/>
<path d="M1.39844 259.624C1.39844 263.478 4.52931 266.603 8.39144 266.603H191.608C195.47 266.603 198.601 263.478 198.601 259.624V248.457H1.39844V259.624Z" fill="url(#paint2_linear_267_89)"/>
<path fill-rule="evenodd" clip-rule="evenodd" d="M167.363 247.475C165.066 251.915 162.17 251.485 158.04 253.693C152.24 251.3 151.914 252.708 146.852 248.476V247.475H167.363Z" fill="#D0D0D0"/>
<path fill-rule="evenodd" clip-rule="evenodd" d="M167.363 247.475C165.066 251.915 162.17 251.485 158.04 253.693C152.24 251.3 151.914 252.708 146.852 248.476V247.475H167.363Z" fill="#1F1D19"/>
<path d="M158.04 253.694C151.277 251.298 153.531 253.199 151.747 252.315C147.142 248.903 149.512 251.208 146.852 248.477C151.914 252.709 152.24 251.3 158.04 253.694Z" fill="#D0D0D0"/>
<path fill-rule="evenodd" clip-rule="evenodd" d="M15.3853 54.1602L9.57422 56.6715L15.0357 59.4488L15.3853 59.5999V54.1602Z" fill="#D0D0D0"/>
<path fill-rule="evenodd" clip-rule="evenodd" d="M15.3853 54.1602L9.57422 56.6715L15.0357 59.4488L15.3853 59.5999V54.1602Z" fill="#1F1D19"/>
<path d="M9.57243 56.6719L9.08984 56.8805C10.7178 58.3181 12.359 58.7757 15.0339 59.4492L9.57243 56.6719Z" fill="#D0D0D0"/>
<path fill-rule="evenodd" clip-rule="evenodd" d="M15.384 105.387L4.89453 104.34L15.0344 110.676L15.384 110.826V105.387Z" fill="#D0D0D0"/>
<path fill-rule="evenodd" clip-rule="evenodd" d="M15.384 105.387L4.89453 104.34L15.0344 110.676L15.384 110.826V105.387Z" fill="#1F1D19"/>
<path d="M4.89453 104.34C6.61329 105.889 6.99957 107.413 8.74069 108.527C10.3687 109.965 12.3595 110.002 15.0344 110.676L4.89453 104.34Z" fill="#D0D0D0"/>
<path fill-rule="evenodd" clip-rule="evenodd" d="M184.617 95.2083L197.904 97.0103L185.06 86.104L184.617 85.8438V95.2083Z" fill="#D0D0D0"/>
<path fill-rule="evenodd" clip-rule="evenodd" d="M184.617 95.2083L197.904 97.0103L185.06 86.104L184.617 85.8438V95.2083Z" fill="#1F1D19"/>
<path d="M197.903 97.0098C195.726 94.3424 195.236 91.7182 193.031 89.8011C190.968 87.3263 188.447 87.2627 185.059 86.1035L197.903 97.0098Z" fill="#D0D0D0"/>
<path fill-rule="evenodd" clip-rule="evenodd" d="M184.617 178.26L191.61 180.062L184.85 169.156L184.617 168.896V178.26Z" fill="#D0D0D0"/>
<path fill-rule="evenodd" clip-rule="evenodd" d="M184.617 178.26L191.61 180.062L184.85 169.156L184.617 168.896V178.26Z" fill="#1F1D19"/>
<path d="M191.608 180.063C190.462 177.395 190.204 174.771 189.043 172.854C187.958 170.379 186.631 170.315 184.848 169.156L191.608 180.063Z" fill="#D0D0D0"/>
<path fill-rule="evenodd" clip-rule="evenodd" d="M15.3842 235.782L3.49609 239.386L14.9879 217.573L15.3842 217.053V235.782Z" fill="#D0D0D0"/>
<path fill-rule="evenodd" clip-rule="evenodd" d="M15.3842 235.782L3.49609 239.386L14.9879 217.573L15.3842 217.053V235.782Z" fill="#1F1D19"/>
<path d="M3.49609 239.386C5.44402 234.051 5.88183 228.802 7.85504 224.968C9.70015 220.018 11.9564 219.891 14.9879 217.572L3.49609 239.386Z" fill="#D0D0D0"/>
<path fill-rule="evenodd" clip-rule="evenodd" d="M117.57 20.5613L133.236 20.5821C131.756 15.4403 130.028 13.1536 122.74 11.8652C121.222 12.019 120.478 12.4715 119.235 13.6107C117.276 16.7261 117.953 15.8715 117.57 20.5613Z" fill="#D0D0D0"/>
<path fill-rule="evenodd" clip-rule="evenodd" d="M117.57 20.5613L133.236 20.5821C131.756 15.4403 130.028 13.1536 122.74 11.8652C121.222 12.019 120.478 12.4715 119.235 13.6107C117.276 16.7261 117.953 15.8715 117.57 20.5613Z" fill="#1F1D19"/>
<path d="M133.235 20.5801C133.16 19.3394 132.845 15.6437 127.973 12.9106C124.247 11.5849 122.752 11.8299 122.738 11.8632C130.027 13.1516 131.754 15.4383 133.235 20.5801Z" fill="#D0D0D0"/>
</g>
</g>
<defs>
<linearGradient id="paint0_linear_267_89" x1="1.39844" y1="105.773" x2="198.597" y2="108.38" gradientUnits="userSpaceOnUse">
<stop stop-color="#696969"/>
<stop offset="0.0409998" stop-color="#A6A6A6"/>
<stop offset="0.96" stop-color="#A7A7A7"/>
<stop offset="1" stop-color="#686868"/>
</linearGradient>
<linearGradient id="paint1_linear_267_89" x1="99.9998" y1="1.39648" x2="99.9998" y2="19.5423" gradientUnits="userSpaceOnUse">
<stop stop-color="#6E6E6E"/>
<stop offset="0.99" stop-color="#A5A5A5" stop-opacity="0"/>
</linearGradient>
<linearGradient id="paint2_linear_267_89" x1="99.9998" y1="266.603" x2="99.9998" y2="248.457" gradientUnits="userSpaceOnUse">
<stop stop-color="#6C6C6C"/>
<stop offset="0.99" stop-color="#A6A6A6" stop-opacity="0"/>
</linearGradient>
<clipPath id="clip0_267_89">
<rect width="200" height="268" fill="white"/>
</clipPath>
</defs>
</svg>
