<svg width="53" height="944" viewBox="0 0 53 944" fill="none" xmlns="http://www.w3.org/2000/svg">
<path d="M39.6592 87.7321C39.6592 95.0007 33.7636 100.892 26.4994 100.892C19.2352 100.892 13.3395 95.0007 13.3395 87.7321V70.1856C13.3395 62.917 19.2352 57.0257 26.4994 57.0257C33.7636 57.0257 39.6592 62.917 39.6592 70.1856V87.7321ZM26.4994 43.8659C11.9665 43.8659 0.179688 55.6483 0.179688 70.1856V87.7321C0.179688 102.269 11.9665 114.052 26.4994 114.052C41.0366 114.052 52.8191 102.269 52.8191 87.7321V70.1856C52.8191 55.6483 41.0366 43.8659 26.4994 43.8659Z" fill="#C6D5DB"/>
<mask id="mask0_1660_489" style="mask-type:luminance" maskUnits="userSpaceOnUse" x="0" y="43" width="53" height="72">
<path d="M0.179688 70.1856V87.7321C0.179688 102.269 11.9621 114.052 26.4994 114.052C41.0366 114.052 52.8191 102.269 52.8191 87.7321V70.1856C52.8191 55.6483 41.0366 43.8659 26.4994 43.8659C11.9621 43.8659 0.179688 55.6483 0.179688 70.1856ZM13.3395 87.7321V70.1856C13.3395 62.917 19.2352 57.0257 26.4994 57.0257C33.7636 57.0257 39.6592 62.917 39.6592 70.1856V87.7321C39.6592 95.0051 33.7636 100.892 26.4994 100.892C19.2352 100.892 13.3395 95.0051 13.3395 87.7321Z" fill="white"/>
</mask>
<g mask="url(#mask0_1660_489)">
<path d="M26.4992 118.438H-8.59375V43.866H26.4992V118.438Z" fill="#E1E8ED"/>
<path d="M44.0462 89.9252C44.0462 98.4045 37.1723 105.278 28.693 105.278C20.2137 105.278 13.3398 98.4045 13.3398 89.9252V67.9921C13.3398 59.5127 20.2137 52.6389 28.693 52.6389C37.1723 52.6389 44.0462 59.5127 44.0462 67.9921V89.9252Z" fill="#E1E8ED"/>
<path d="M35.2728 89.9252C35.2728 98.4045 29.3772 105.278 22.113 105.278C14.8487 105.278 8.95312 98.4045 8.95312 89.9252V67.9921C8.95312 59.5127 14.8487 52.6389 22.113 52.6389C29.3772 52.6389 35.2728 59.5127 35.2728 67.9921V89.9252Z" fill="#C6D5DB"/>
<path d="M39.6599 70.1855H26.5V48.2525H39.6599V70.1855Z" fill="#C6D5DB"/>
<path d="M39.6599 70.1855H26.5V48.2525H39.6599V70.1855Z" fill="#C6D5DB"/>
</g>
<path d="M39.6592 -0.000164032V8.77307C39.6592 16.0417 33.7636 21.9329 26.4994 21.9329C19.2352 21.9329 13.3395 16.0417 13.3395 8.77307V-0.000164032H0.179688V8.77307C0.179688 23.3059 11.9665 35.0928 26.4994 35.0928C41.0366 35.0928 52.8191 23.3059 52.8191 8.77307V-0.000164032H39.6592Z" fill="#C6D5DB"/>
<mask id="mask1_1660_489" style="mask-type:luminance" maskUnits="userSpaceOnUse" x="0" y="0" width="53" height="36">
<path d="M39.6592 -0.000164032V8.77307C39.6592 16.0461 33.7636 21.9329 26.4994 21.9329C19.2352 21.9329 13.3395 16.0461 13.3395 8.77307V-0.000164032H0.179688V8.77307C0.179688 23.3103 11.9621 35.0928 26.4994 35.0928C41.0366 35.0928 52.8191 23.3103 52.8191 8.77307V-0.000164032H39.6592Z" fill="white"/>
</mask>
<g mask="url(#mask1_1660_489)">
<path d="M26.4999 39.4795H-4.39062V-4.38667H26.4999V39.4795Z" fill="#E1E8ED"/>
<path d="M35.2728 10.9662C35.2728 19.4455 29.3772 26.3193 22.113 26.3193C14.8487 26.3193 8.95312 19.4455 8.95312 10.9662V-10.9669C8.95312 -19.4462 14.8487 -26.3201 22.113 -26.3201C29.3772 -26.3201 35.2728 -19.4462 35.2728 -10.9669V10.9662Z" fill="#C6D5DB"/>
<path d="M28.6933 -26.3201C27.9432 -26.3201 27.2238 -26.2016 26.5 -26.1007V26.1C27.2238 26.2053 27.9432 26.3193 28.6933 26.3193C37.1726 26.3193 44.0465 19.4455 44.0465 10.9662V-10.9669C44.0465 -19.4462 37.1726 -26.3201 28.6933 -26.3201Z" fill="#E1E8ED"/>
</g>
<path d="M39.6592 157.918V149.145C39.6592 141.876 33.7636 135.985 26.4994 135.985C19.2352 135.985 13.3395 141.876 13.3395 149.145V157.918H0.179688V149.145C0.179688 134.612 11.9665 122.825 26.4994 122.825C41.0366 122.825 52.8191 134.612 52.8191 149.145V157.918H39.6592Z" fill="#C6D5DB"/>
<mask id="mask2_1660_489" style="mask-type:luminance" maskUnits="userSpaceOnUse" x="0" y="122" width="53" height="36">
<path d="M0.179688 149.145V157.918H13.3395V149.145C13.3395 141.872 19.2352 135.985 26.4994 135.985C33.7636 135.985 39.6592 141.872 39.6592 149.145V157.918H52.8191V149.145C52.8191 134.607 41.0366 122.825 26.4994 122.825C11.9621 122.825 0.179688 134.607 0.179688 149.145Z" fill="white"/>
</mask>
<g mask="url(#mask2_1660_489)">
<path d="M26.4999 118.439H-4.39062V162.305H26.4999V118.439Z" fill="#E1E8ED"/>
<path d="M35.2728 146.951C35.2728 138.472 29.3772 131.598 22.113 131.598C14.8487 131.598 8.95312 138.472 8.95312 146.951V168.884C8.95312 177.368 14.8487 184.237 22.113 184.237C29.3772 184.237 35.2728 177.368 35.2728 168.884V146.951Z" fill="#C6D5DB"/>
<path d="M28.6933 184.237C27.9432 184.237 27.2238 184.119 26.5 184.014V131.822C27.2238 131.712 27.9432 131.598 28.6933 131.598C37.1726 131.598 44.0465 138.472 44.0465 146.951V168.884C44.0465 177.368 37.1726 184.237 28.6933 184.237Z" fill="#E1E8ED"/>
</g>
<path d="M35.273 144.758C35.273 149.601 31.347 153.531 26.4998 153.531C21.657 153.531 17.7266 149.601 17.7266 144.758V92.1186C17.7266 87.2714 21.657 83.3454 26.4998 83.3454C31.347 83.3454 35.273 87.2714 35.273 92.1186V144.758Z" fill="#C6D5DB"/>
<mask id="mask3_1660_489" style="mask-type:luminance" maskUnits="userSpaceOnUse" x="17" y="83" width="19" height="71">
<path d="M17.7266 92.1186V144.758C17.7266 149.605 21.657 153.531 26.4998 153.531C31.3426 153.531 35.273 149.605 35.273 144.758V92.1186C35.273 87.2714 31.3426 83.3454 26.4998 83.3454C21.657 83.3454 17.7266 87.2714 17.7266 92.1186Z" fill="white"/>
</mask>
<g mask="url(#mask3_1660_489)">
<path d="M12.793 157.918H26.5011V74.5722H12.793V157.918Z" fill="#EDF1F4"/>
</g>
<path d="M35.273 65.799C35.273 70.6419 31.347 74.5723 26.4998 74.5723C21.657 74.5723 17.7266 70.6419 17.7266 65.799V13.1596C17.7266 8.31242 21.657 4.38639 26.4998 4.38639C31.347 4.38639 35.273 8.31242 35.273 13.1596V65.799Z" fill="#C6D5DB"/>
<mask id="mask4_1660_489" style="mask-type:luminance" maskUnits="userSpaceOnUse" x="17" y="4" width="19" height="71">
<path d="M17.7266 13.1596V65.799C17.7266 70.6462 21.657 74.5723 26.4998 74.5723C31.3426 74.5723 35.273 70.6462 35.273 65.799V13.1596C35.273 8.31242 31.3426 4.38639 26.4998 4.38639C21.657 4.38639 17.7266 8.31242 17.7266 13.1596Z" fill="white"/>
</mask>
<g mask="url(#mask4_1660_489)">
<path d="M12.793 78.959H26.5011V-4.38674H12.793V78.959Z" fill="#EDF1F4"/>
</g>
<path d="M39.6592 245.65C39.6592 252.919 33.7636 258.81 26.4994 258.81C19.2352 258.81 13.3395 252.919 13.3395 245.65V228.104C13.3395 220.835 19.2352 214.944 26.4994 214.944C33.7636 214.944 39.6592 220.835 39.6592 228.104V245.65ZM26.4994 201.784C11.9665 201.784 0.179688 213.566 0.179688 228.104V245.65C0.179688 260.187 11.9665 271.97 26.4994 271.97C41.0366 271.97 52.8191 260.187 52.8191 245.65V228.104C52.8191 213.566 41.0366 201.784 26.4994 201.784Z" fill="#C6D5DB"/>
<mask id="mask5_1660_489" style="mask-type:luminance" maskUnits="userSpaceOnUse" x="0" y="201" width="53" height="71">
<path d="M0.179688 228.104V245.65C0.179688 260.187 11.9621 271.97 26.4994 271.97C41.0366 271.97 52.8191 260.187 52.8191 245.65V228.104C52.8191 213.566 41.0366 201.784 26.4994 201.784C11.9621 201.784 0.179688 213.566 0.179688 228.104ZM13.3395 245.65V228.104C13.3395 220.835 19.2352 214.944 26.4994 214.944C33.7636 214.944 39.6592 220.835 39.6592 228.104V245.65C39.6592 252.923 33.7636 258.81 26.4994 258.81C19.2352 258.81 13.3395 252.923 13.3395 245.65Z" fill="white"/>
</mask>
<g mask="url(#mask5_1660_489)">
<path d="M26.4992 276.356H-8.59375V201.784H26.4992V276.356Z" fill="#E1E8ED"/>
<path d="M44.0462 247.843C44.0462 256.322 37.1723 263.196 28.693 263.196C20.2137 263.196 13.3398 256.322 13.3398 247.843V225.91C13.3398 217.431 20.2137 210.557 28.693 210.557C37.1723 210.557 44.0462 217.431 44.0462 225.91V247.843Z" fill="#E1E8ED"/>
<path d="M35.2728 247.843C35.2728 256.322 29.3772 263.196 22.113 263.196C14.8487 263.196 8.95312 256.322 8.95312 247.843V225.91C8.95312 217.431 14.8487 210.557 22.113 210.557C29.3772 210.557 35.2728 217.431 35.2728 225.91V247.843Z" fill="#C6D5DB"/>
<path d="M39.6599 228.104H26.5V206.17H39.6599V228.104Z" fill="#C6D5DB"/>
<path d="M39.6599 228.104H26.5V206.17H39.6599V228.104Z" fill="#C6D5DB"/>
</g>
<path d="M39.6592 157.918V166.691C39.6592 173.96 33.7636 179.851 26.4994 179.851C19.2352 179.851 13.3395 173.96 13.3395 166.691V157.918H0.179688V166.691C0.179688 181.224 11.9665 193.011 26.4994 193.011C41.0366 193.011 52.8191 181.224 52.8191 166.691V157.918H39.6592Z" fill="#C6D5DB"/>
<mask id="mask6_1660_489" style="mask-type:luminance" maskUnits="userSpaceOnUse" x="0" y="157" width="53" height="37">
<path d="M39.6592 157.918V166.691C39.6592 173.964 33.7636 179.851 26.4994 179.851C19.2352 179.851 13.3395 173.964 13.3395 166.691V157.918H0.179688V166.691C0.179688 181.228 11.9621 193.011 26.4994 193.011C41.0366 193.011 52.8191 181.228 52.8191 166.691V157.918H39.6592Z" fill="white"/>
</mask>
<g mask="url(#mask6_1660_489)">
<path d="M26.4999 197.397H-4.39062V153.531H26.4999V197.397Z" fill="#E1E8ED"/>
<path d="M35.2728 168.884C35.2728 177.363 29.3772 184.237 22.113 184.237C14.8487 184.237 8.95312 177.363 8.95312 168.884V146.951C8.95312 138.472 14.8487 131.598 22.113 131.598C29.3772 131.598 35.2728 138.472 35.2728 146.951V168.884Z" fill="#C6D5DB"/>
<path d="M28.6933 131.598C27.9432 131.598 27.2238 131.716 26.5 131.817V184.018C27.2238 184.123 27.9432 184.237 28.6933 184.237C37.1726 184.237 44.0465 177.363 44.0465 168.884V146.951C44.0465 138.472 37.1726 131.598 28.6933 131.598Z" fill="#E1E8ED"/>
</g>
<path d="M39.6592 315.836V307.063C39.6592 299.794 33.7636 293.903 26.4994 293.903C19.2352 293.903 13.3395 299.794 13.3395 307.063V315.836H0.179688V307.063C0.179688 292.53 11.9665 280.743 26.4994 280.743C41.0366 280.743 52.8191 292.53 52.8191 307.063V315.836H39.6592Z" fill="#C6D5DB"/>
<mask id="mask7_1660_489" style="mask-type:luminance" maskUnits="userSpaceOnUse" x="0" y="280" width="53" height="36">
<path d="M0.179688 307.063V315.836H13.3395V307.063C13.3395 299.79 19.2352 293.903 26.4994 293.903C33.7636 293.903 39.6592 299.79 39.6592 307.063V315.836H52.8191V307.063C52.8191 292.525 41.0366 280.743 26.4994 280.743C11.9621 280.743 0.179688 292.525 0.179688 307.063Z" fill="white"/>
</mask>
<g mask="url(#mask7_1660_489)">
<path d="M26.4999 276.356H-4.39062V320.223H26.4999V276.356Z" fill="#E1E8ED"/>
<path d="M35.2728 304.869C35.2728 296.39 29.3772 289.516 22.113 289.516C14.8487 289.516 8.95312 296.39 8.95312 304.869V326.802C8.95312 335.286 14.8487 342.155 22.113 342.155C29.3772 342.155 35.2728 335.286 35.2728 326.802V304.869Z" fill="#C6D5DB"/>
<path d="M28.6933 342.155C27.9432 342.155 27.2238 342.037 26.5 341.932V289.74C27.2238 289.63 27.9432 289.516 28.6933 289.516C37.1726 289.516 44.0465 296.39 44.0465 304.869V326.802C44.0465 335.286 37.1726 342.155 28.6933 342.155Z" fill="#E1E8ED"/>
</g>
<path d="M35.273 302.676C35.273 307.519 31.347 311.449 26.4998 311.449C21.657 311.449 17.7266 307.519 17.7266 302.676V250.037C17.7266 245.189 21.657 241.263 26.4998 241.263C31.347 241.263 35.273 245.189 35.273 250.037V302.676Z" fill="#C6D5DB"/>
<mask id="mask8_1660_489" style="mask-type:luminance" maskUnits="userSpaceOnUse" x="17" y="241" width="19" height="71">
<path d="M17.7266 250.037V302.676C17.7266 307.523 21.657 311.449 26.4998 311.449C31.3426 311.449 35.273 307.523 35.273 302.676V250.037C35.273 245.189 31.3426 241.263 26.4998 241.263C21.657 241.263 17.7266 245.189 17.7266 250.037Z" fill="white"/>
</mask>
<g mask="url(#mask8_1660_489)">
<path d="M12.793 315.836H26.5011V232.49H12.793V315.836Z" fill="#EDF1F4"/>
</g>
<path d="M35.273 223.717C35.273 228.56 31.347 232.49 26.4998 232.49C21.657 232.49 17.7266 228.56 17.7266 223.717V171.078C17.7266 166.23 21.657 162.304 26.4998 162.304C31.347 162.304 35.273 166.23 35.273 171.078V223.717Z" fill="#C6D5DB"/>
<mask id="mask9_1660_489" style="mask-type:luminance" maskUnits="userSpaceOnUse" x="17" y="162" width="19" height="71">
<path d="M17.7266 171.078V223.717C17.7266 228.564 21.657 232.49 26.4998 232.49C31.3426 232.49 35.273 228.564 35.273 223.717V171.078C35.273 166.23 31.3426 162.304 26.4998 162.304C21.657 162.304 17.7266 166.23 17.7266 171.078Z" fill="white"/>
</mask>
<g mask="url(#mask9_1660_489)">
<path d="M12.793 236.877H26.5011V153.531H12.793V236.877Z" fill="#EDF1F4"/>
</g>
<path d="M39.6592 400.059C39.6592 407.328 33.7636 413.219 26.4994 413.219C19.2352 413.219 13.3395 407.328 13.3395 400.059V382.513C13.3395 375.244 19.2352 369.353 26.4994 369.353C33.7636 369.353 39.6592 375.244 39.6592 382.513V400.059ZM26.4994 356.193C11.9665 356.193 0.179688 367.975 0.179688 382.513V400.059C0.179688 414.596 11.9665 426.379 26.4994 426.379C41.0366 426.379 52.8191 414.596 52.8191 400.059V382.513C52.8191 367.975 41.0366 356.193 26.4994 356.193Z" fill="#C6D5DB"/>
<mask id="mask10_1660_489" style="mask-type:luminance" maskUnits="userSpaceOnUse" x="0" y="356" width="53" height="71">
<path d="M0.179688 382.513V400.059C0.179688 414.596 11.9621 426.379 26.4994 426.379C41.0366 426.379 52.8191 414.596 52.8191 400.059V382.513C52.8191 367.975 41.0366 356.193 26.4994 356.193C11.9621 356.193 0.179688 367.975 0.179688 382.513ZM13.3395 400.059V382.513C13.3395 375.244 19.2352 369.353 26.4994 369.353C33.7636 369.353 39.6592 375.244 39.6592 382.513V400.059C39.6592 407.332 33.7636 413.219 26.4994 413.219C19.2352 413.219 13.3395 407.332 13.3395 400.059Z" fill="white"/>
</mask>
<g mask="url(#mask10_1660_489)">
<path d="M26.4992 430.766H-8.59375V356.193H26.4992V430.766Z" fill="#E1E8ED"/>
<path d="M44.0462 402.252C44.0462 410.732 37.1723 417.605 28.693 417.605C20.2137 417.605 13.3398 410.732 13.3398 402.252V380.319C13.3398 371.84 20.2137 364.966 28.693 364.966C37.1723 364.966 44.0462 371.84 44.0462 380.319V402.252Z" fill="#E1E8ED"/>
<path d="M35.2728 402.252C35.2728 410.732 29.3772 417.605 22.113 417.605C14.8487 417.605 8.95312 410.732 8.95312 402.252V380.319C8.95312 371.84 14.8487 364.966 22.113 364.966C29.3772 364.966 35.2728 371.84 35.2728 380.319V402.252Z" fill="#C6D5DB"/>
<path d="M39.6599 382.513H26.5V360.58H39.6599V382.513Z" fill="#C6D5DB"/>
<path d="M39.6599 382.513H26.5V360.58H39.6599V382.513Z" fill="#C6D5DB"/>
</g>
<path d="M39.6592 312.327V321.1C39.6592 328.369 33.7636 334.26 26.4994 334.26C19.2352 334.26 13.3395 328.369 13.3395 321.1V312.327H0.179688V321.1C0.179688 335.633 11.9665 347.42 26.4994 347.42C41.0366 347.42 52.8191 335.633 52.8191 321.1V312.327H39.6592Z" fill="#C6D5DB"/>
<mask id="mask11_1660_489" style="mask-type:luminance" maskUnits="userSpaceOnUse" x="0" y="312" width="53" height="36">
<path d="M39.6592 312.327V321.1C39.6592 328.373 33.7636 334.26 26.4994 334.26C19.2352 334.26 13.3395 328.373 13.3395 321.1V312.327H0.179688V321.1C0.179688 335.637 11.9621 347.42 26.4994 347.42C41.0366 347.42 52.8191 335.637 52.8191 321.1V312.327H39.6592Z" fill="white"/>
</mask>
<g mask="url(#mask11_1660_489)">
<path d="M26.4999 351.807H-4.39062V307.94H26.4999V351.807Z" fill="#E1E8ED"/>
<path d="M35.2728 323.293C35.2728 331.773 29.3772 338.646 22.113 338.646C14.8487 338.646 8.95312 331.773 8.95312 323.293V301.36C8.95312 292.881 14.8487 286.007 22.113 286.007C29.3772 286.007 35.2728 292.881 35.2728 301.36V323.293Z" fill="#C6D5DB"/>
<path d="M28.6933 286.007C27.9432 286.007 27.2238 286.126 26.5 286.226V338.427C27.2238 338.532 27.9432 338.646 28.6933 338.646C37.1726 338.646 44.0465 331.773 44.0465 323.293V301.36C44.0465 292.881 37.1726 286.007 28.6933 286.007Z" fill="#E1E8ED"/>
</g>
<path d="M39.6592 470.245V461.472C39.6592 454.203 33.7636 448.312 26.4994 448.312C19.2352 448.312 13.3395 454.203 13.3395 461.472V470.245H0.179688V461.472C0.179688 446.939 11.9665 435.152 26.4994 435.152C41.0366 435.152 52.8191 446.939 52.8191 461.472V470.245H39.6592Z" fill="#C6D5DB"/>
<mask id="mask12_1660_489" style="mask-type:luminance" maskUnits="userSpaceOnUse" x="0" y="435" width="53" height="36">
<path d="M0.179688 461.472V470.245H13.3395V461.472C13.3395 454.199 19.2352 448.312 26.4994 448.312C33.7636 448.312 39.6592 454.199 39.6592 461.472V470.245H52.8191V461.472C52.8191 446.935 41.0366 435.152 26.4994 435.152C11.9621 435.152 0.179688 446.935 0.179688 461.472Z" fill="white"/>
</mask>
<g mask="url(#mask12_1660_489)">
<path d="M26.4999 430.766H-4.39062V474.632H26.4999V430.766Z" fill="#E1E8ED"/>
<path d="M35.2728 459.278C35.2728 450.799 29.3772 443.925 22.113 443.925C14.8487 443.925 8.95312 450.799 8.95312 459.278V481.211C8.95312 489.695 14.8487 496.564 22.113 496.564C29.3772 496.564 35.2728 489.695 35.2728 481.211V459.278Z" fill="#C6D5DB"/>
<path d="M28.6933 496.564C27.9432 496.564 27.2238 496.446 26.5 496.341V444.149C27.2238 444.039 27.9432 443.925 28.6933 443.925C37.1726 443.925 44.0465 450.799 44.0465 459.278V481.211C44.0465 489.695 37.1726 496.564 28.6933 496.564Z" fill="#E1E8ED"/>
</g>
<path d="M35.273 457.085C35.273 461.928 31.347 465.858 26.4998 465.858C21.657 465.858 17.7266 461.928 17.7266 457.085V404.446C17.7266 399.599 21.657 395.673 26.4998 395.673C31.347 395.673 35.273 399.599 35.273 404.446V457.085Z" fill="#C6D5DB"/>
<mask id="mask13_1660_489" style="mask-type:luminance" maskUnits="userSpaceOnUse" x="17" y="395" width="19" height="71">
<path d="M17.7266 404.446V457.085C17.7266 461.932 21.657 465.858 26.4998 465.858C31.3426 465.858 35.273 461.932 35.273 457.085V404.446C35.273 399.599 31.3426 395.673 26.4998 395.673C21.657 395.673 17.7266 399.599 17.7266 404.446Z" fill="white"/>
</mask>
<g mask="url(#mask13_1660_489)">
<path d="M12.793 470.245H26.5011V386.899H12.793V470.245Z" fill="#EDF1F4"/>
</g>
<path d="M35.273 378.126C35.273 382.969 31.347 386.899 26.4998 386.899C21.657 386.899 17.7266 382.969 17.7266 378.126V325.487C17.7266 320.64 21.657 316.714 26.4998 316.714C31.347 316.714 35.273 320.64 35.273 325.487V378.126Z" fill="#C6D5DB"/>
<mask id="mask14_1660_489" style="mask-type:luminance" maskUnits="userSpaceOnUse" x="17" y="316" width="19" height="71">
<path d="M17.7266 325.487V378.126C17.7266 382.973 21.657 386.899 26.4998 386.899C31.3426 386.899 35.273 382.973 35.273 378.126V325.487C35.273 320.64 31.3426 316.714 26.4998 316.714C21.657 316.714 17.7266 320.64 17.7266 325.487Z" fill="white"/>
</mask>
<g mask="url(#mask14_1660_489)">
<path d="M12.793 391.286H26.5011V307.94H12.793V391.286Z" fill="#EDF1F4"/>
</g>
<path d="M39.6592 557.977C39.6592 565.246 33.7636 571.137 26.4994 571.137C19.2352 571.137 13.3395 565.246 13.3395 557.977V540.431C13.3395 533.162 19.2352 527.271 26.4994 527.271C33.7636 527.271 39.6592 533.162 39.6592 540.431V557.977ZM26.4994 514.111C11.9665 514.111 0.179688 525.893 0.179688 540.431V557.977C0.179688 572.514 11.9665 584.297 26.4994 584.297C41.0366 584.297 52.8191 572.514 52.8191 557.977V540.431C52.8191 525.893 41.0366 514.111 26.4994 514.111Z" fill="#C6D5DB"/>
<mask id="mask15_1660_489" style="mask-type:luminance" maskUnits="userSpaceOnUse" x="0" y="514" width="53" height="71">
<path d="M0.179688 540.431V557.977C0.179688 572.514 11.9621 584.297 26.4994 584.297C41.0366 584.297 52.8191 572.514 52.8191 557.977V540.431C52.8191 525.893 41.0366 514.111 26.4994 514.111C11.9621 514.111 0.179688 525.893 0.179688 540.431ZM13.3395 557.977V540.431C13.3395 533.162 19.2352 527.271 26.4994 527.271C33.7636 527.271 39.6592 533.162 39.6592 540.431V557.977C39.6592 565.25 33.7636 571.137 26.4994 571.137C19.2352 571.137 13.3395 565.25 13.3395 557.977Z" fill="white"/>
</mask>
<g mask="url(#mask15_1660_489)">
<path d="M26.4992 588.684H-8.59375V514.111H26.4992V588.684Z" fill="#E1E8ED"/>
<path d="M44.0462 560.17C44.0462 568.65 37.1723 575.523 28.693 575.523C20.2137 575.523 13.3398 568.65 13.3398 560.17V538.237C13.3398 529.758 20.2137 522.884 28.693 522.884C37.1723 522.884 44.0462 529.758 44.0462 538.237V560.17Z" fill="#E1E8ED"/>
<path d="M35.2728 560.17C35.2728 568.65 29.3772 575.523 22.113 575.523C14.8487 575.523 8.95312 568.65 8.95312 560.17V538.237C8.95312 529.758 14.8487 522.884 22.113 522.884C29.3772 522.884 35.2728 529.758 35.2728 538.237V560.17Z" fill="#C6D5DB"/>
<path d="M39.6599 540.431H26.5V518.498H39.6599V540.431Z" fill="#C6D5DB"/>
<path d="M39.6599 540.431H26.5V518.498H39.6599V540.431Z" fill="#C6D5DB"/>
</g>
<path d="M39.6592 470.245V479.018C39.6592 486.287 33.7636 492.178 26.4994 492.178C19.2352 492.178 13.3395 486.287 13.3395 479.018V470.245H0.179688V479.018C0.179688 493.551 11.9665 505.338 26.4994 505.338C41.0366 505.338 52.8191 493.551 52.8191 479.018V470.245H39.6592Z" fill="#C6D5DB"/>
<mask id="mask16_1660_489" style="mask-type:luminance" maskUnits="userSpaceOnUse" x="0" y="470" width="53" height="36">
<path d="M39.6592 470.245V479.018C39.6592 486.291 33.7636 492.178 26.4994 492.178C19.2352 492.178 13.3395 486.291 13.3395 479.018V470.245H0.179688V479.018C0.179688 493.555 11.9621 505.338 26.4994 505.338C41.0366 505.338 52.8191 493.555 52.8191 479.018V470.245H39.6592Z" fill="white"/>
</mask>
<g mask="url(#mask16_1660_489)">
<path d="M26.4999 509.725H-4.39062V465.858H26.4999V509.725Z" fill="#E1E8ED"/>
<path d="M35.2728 481.211C35.2728 489.691 29.3772 496.564 22.113 496.564C14.8487 496.564 8.95312 489.691 8.95312 481.211V459.278C8.95312 450.799 14.8487 443.925 22.113 443.925C29.3772 443.925 35.2728 450.799 35.2728 459.278V481.211Z" fill="#C6D5DB"/>
<path d="M28.6933 443.925C27.9432 443.925 27.2238 444.043 26.5 444.144V496.345C27.2238 496.45 27.9432 496.564 28.6933 496.564C37.1726 496.564 44.0465 489.691 44.0465 481.211V459.278C44.0465 450.799 37.1726 443.925 28.6933 443.925Z" fill="#E1E8ED"/>
</g>
<path d="M39.6592 628.163V619.39C39.6592 612.121 33.7636 606.23 26.4994 606.23C19.2352 606.23 13.3395 612.121 13.3395 619.39V628.163H0.179688V619.39C0.179688 604.857 11.9665 593.07 26.4994 593.07C41.0366 593.07 52.8191 604.857 52.8191 619.39V628.163H39.6592Z" fill="#C6D5DB"/>
<mask id="mask17_1660_489" style="mask-type:luminance" maskUnits="userSpaceOnUse" x="0" y="593" width="53" height="36">
<path d="M0.179688 619.39V628.163H13.3395V619.39C13.3395 612.117 19.2352 606.23 26.4994 606.23C33.7636 606.23 39.6592 612.117 39.6592 619.39V628.163H52.8191V619.39C52.8191 604.853 41.0366 593.07 26.4994 593.07C11.9621 593.07 0.179688 604.853 0.179688 619.39Z" fill="white"/>
</mask>
<g mask="url(#mask17_1660_489)">
<path d="M26.4999 588.684H-4.39062V632.55H26.4999V588.684Z" fill="#E1E8ED"/>
<path d="M35.2728 617.196C35.2728 608.717 29.3772 601.843 22.113 601.843C14.8487 601.843 8.95312 608.717 8.95312 617.196V639.129C8.95312 647.613 14.8487 654.482 22.113 654.482C29.3772 654.482 35.2728 647.613 35.2728 639.129V617.196Z" fill="#C6D5DB"/>
<path d="M28.6933 654.482C27.9432 654.482 27.2238 654.364 26.5 654.259V602.067C27.2238 601.957 27.9432 601.843 28.6933 601.843C37.1726 601.843 44.0465 608.717 44.0465 617.196V639.129C44.0465 647.613 37.1726 654.482 28.6933 654.482Z" fill="#E1E8ED"/>
</g>
<path d="M35.273 615.003C35.273 619.846 31.347 623.776 26.4998 623.776C21.657 623.776 17.7266 619.846 17.7266 615.003V562.364C17.7266 557.517 21.657 553.59 26.4998 553.59C31.347 553.59 35.273 557.517 35.273 562.364V615.003Z" fill="#C6D5DB"/>
<mask id="mask18_1660_489" style="mask-type:luminance" maskUnits="userSpaceOnUse" x="17" y="553" width="19" height="71">
<path d="M17.7266 562.364V615.003C17.7266 619.85 21.657 623.776 26.4998 623.776C31.3426 623.776 35.273 619.85 35.273 615.003V562.364C35.273 557.517 31.3426 553.59 26.4998 553.59C21.657 553.59 17.7266 557.517 17.7266 562.364Z" fill="white"/>
</mask>
<g mask="url(#mask18_1660_489)">
<path d="M12.793 628.163H26.5011V544.817H12.793V628.163Z" fill="#EDF1F4"/>
</g>
<path d="M35.273 536.044C35.273 540.887 31.347 544.817 26.4998 544.817C21.657 544.817 17.7266 540.887 17.7266 536.044V483.405C17.7266 478.558 21.657 474.632 26.4998 474.632C31.347 474.632 35.273 478.558 35.273 483.405V536.044Z" fill="#C6D5DB"/>
<mask id="mask19_1660_489" style="mask-type:luminance" maskUnits="userSpaceOnUse" x="17" y="474" width="19" height="71">
<path d="M17.7266 483.405V536.044C17.7266 540.891 21.657 544.817 26.4998 544.817C31.3426 544.817 35.273 540.891 35.273 536.044V483.405C35.273 478.558 31.3426 474.632 26.4998 474.632C21.657 474.632 17.7266 478.558 17.7266 483.405Z" fill="white"/>
</mask>
<g mask="url(#mask19_1660_489)">
<path d="M12.793 549.204H26.5011V465.858H12.793V549.204Z" fill="#EDF1F4"/>
</g>
<path d="M39.6592 715.896C39.6592 723.165 33.7636 729.056 26.4994 729.056C19.2352 729.056 13.3395 723.165 13.3395 715.896V698.35C13.3395 691.081 19.2352 685.19 26.4994 685.19C33.7636 685.19 39.6592 691.081 39.6592 698.35V715.896ZM26.4994 672.03C11.9665 672.03 0.179688 683.812 0.179688 698.35V715.896C0.179688 730.433 11.9665 742.216 26.4994 742.216C41.0366 742.216 52.8191 730.433 52.8191 715.896V698.35C52.8191 683.812 41.0366 672.03 26.4994 672.03Z" fill="#C6D5DB"/>
<mask id="mask20_1660_489" style="mask-type:luminance" maskUnits="userSpaceOnUse" x="0" y="672" width="53" height="71">
<path d="M0.179688 698.35V715.896C0.179688 730.433 11.9621 742.216 26.4994 742.216C41.0366 742.216 52.8191 730.433 52.8191 715.896V698.35C52.8191 683.812 41.0366 672.03 26.4994 672.03C11.9621 672.03 0.179688 683.812 0.179688 698.35ZM13.3395 715.896V698.35C13.3395 691.081 19.2352 685.19 26.4994 685.19C33.7636 685.19 39.6592 691.081 39.6592 698.35V715.896C39.6592 723.169 33.7636 729.056 26.4994 729.056C19.2352 729.056 13.3395 723.169 13.3395 715.896Z" fill="white"/>
</mask>
<g mask="url(#mask20_1660_489)">
<path d="M26.4992 746.603H-8.59375V672.03H26.4992V746.603Z" fill="#E1E8ED"/>
<path d="M44.0462 718.089C44.0462 726.569 37.1723 733.442 28.693 733.442C20.2137 733.442 13.3398 726.569 13.3398 718.089V696.156C13.3398 687.677 20.2137 680.803 28.693 680.803C37.1723 680.803 44.0462 687.677 44.0462 696.156V718.089Z" fill="#E1E8ED"/>
<path d="M35.2728 718.089C35.2728 726.569 29.3772 733.442 22.113 733.442C14.8487 733.442 8.95312 726.569 8.95312 718.089V696.156C8.95312 687.677 14.8487 680.803 22.113 680.803C29.3772 680.803 35.2728 687.677 35.2728 696.156V718.089Z" fill="#C6D5DB"/>
<path d="M39.6599 698.35H26.5V676.417H39.6599V698.35Z" fill="#C6D5DB"/>
<path d="M39.6599 698.35H26.5V676.417H39.6599V698.35Z" fill="#C6D5DB"/>
</g>
<path d="M39.6592 628.164V636.937C39.6592 644.206 33.7636 650.097 26.4994 650.097C19.2352 650.097 13.3395 644.206 13.3395 636.937V628.164H0.179688V636.937C0.179688 651.47 11.9665 663.257 26.4994 663.257C41.0366 663.257 52.8191 651.47 52.8191 636.937V628.164H39.6592Z" fill="#C6D5DB"/>
<mask id="mask21_1660_489" style="mask-type:luminance" maskUnits="userSpaceOnUse" x="0" y="628" width="53" height="36">
<path d="M39.6592 628.164V636.937C39.6592 644.21 33.7636 650.097 26.4994 650.097C19.2352 650.097 13.3395 644.21 13.3395 636.937V628.164H0.179688V636.937C0.179688 651.474 11.9621 663.257 26.4994 663.257C41.0366 663.257 52.8191 651.474 52.8191 636.937V628.164H39.6592Z" fill="white"/>
</mask>
<g mask="url(#mask21_1660_489)">
<path d="M26.4999 667.644H-4.39062V623.777H26.4999V667.644Z" fill="#E1E8ED"/>
<path d="M35.2728 639.13C35.2728 647.61 29.3772 654.483 22.113 654.483C14.8487 654.483 8.95312 647.61 8.95312 639.13V617.197C8.95312 608.718 14.8487 601.844 22.113 601.844C29.3772 601.844 35.2728 608.718 35.2728 617.197V639.13Z" fill="#C6D5DB"/>
<path d="M28.6933 601.844C27.9432 601.844 27.2238 601.962 26.5 602.063V654.264C27.2238 654.369 27.9432 654.483 28.6933 654.483C37.1726 654.483 44.0465 647.61 44.0465 639.13V617.197C44.0465 608.718 37.1726 601.844 28.6933 601.844Z" fill="#E1E8ED"/>
</g>
<path d="M39.6592 786.082V777.309C39.6592 770.04 33.7636 764.149 26.4994 764.149C19.2352 764.149 13.3395 770.04 13.3395 777.309V786.082H0.179688V777.309C0.179688 762.776 11.9665 750.989 26.4994 750.989C41.0366 750.989 52.8191 762.776 52.8191 777.309V786.082H39.6592Z" fill="#C6D5DB"/>
<mask id="mask22_1660_489" style="mask-type:luminance" maskUnits="userSpaceOnUse" x="0" y="750" width="53" height="37">
<path d="M0.179688 777.309V786.082H13.3395V777.309C13.3395 770.036 19.2352 764.149 26.4994 764.149C33.7636 764.149 39.6592 770.036 39.6592 777.309V786.082H52.8191V777.309C52.8191 762.772 41.0366 750.989 26.4994 750.989C11.9621 750.989 0.179688 762.772 0.179688 777.309Z" fill="white"/>
</mask>
<g mask="url(#mask22_1660_489)">
<path d="M26.4999 746.603H-4.39062V790.469H26.4999V746.603Z" fill="#E1E8ED"/>
<path d="M35.2728 775.115C35.2728 766.636 29.3772 759.762 22.113 759.762C14.8487 759.762 8.95312 766.636 8.95312 775.115V797.048C8.95312 805.532 14.8487 812.401 22.113 812.401C29.3772 812.401 35.2728 805.532 35.2728 797.048V775.115Z" fill="#C6D5DB"/>
<path d="M28.6933 812.401C27.9432 812.401 27.2238 812.283 26.5 812.178V759.986C27.2238 759.876 27.9432 759.762 28.6933 759.762C37.1726 759.762 44.0465 766.636 44.0465 775.115V797.048C44.0465 805.532 37.1726 812.401 28.6933 812.401Z" fill="#E1E8ED"/>
</g>
<path d="M35.273 772.922C35.273 777.765 31.347 781.695 26.4998 781.695C21.657 781.695 17.7266 777.765 17.7266 772.922V720.283C17.7266 715.435 21.657 711.509 26.4998 711.509C31.347 711.509 35.273 715.435 35.273 720.283V772.922Z" fill="#C6D5DB"/>
<mask id="mask23_1660_489" style="mask-type:luminance" maskUnits="userSpaceOnUse" x="17" y="711" width="19" height="71">
<path d="M17.7266 720.283V772.922C17.7266 777.769 21.657 781.695 26.4998 781.695C31.3426 781.695 35.273 777.769 35.273 772.922V720.283C35.273 715.435 31.3426 711.509 26.4998 711.509C21.657 711.509 17.7266 715.435 17.7266 720.283Z" fill="white"/>
</mask>
<g mask="url(#mask23_1660_489)">
<path d="M12.793 786.082H26.5011V702.736H12.793V786.082Z" fill="#EDF1F4"/>
</g>
<path d="M35.273 693.963C35.273 698.806 31.347 702.736 26.4998 702.736C21.657 702.736 17.7266 698.806 17.7266 693.963V641.324C17.7266 636.476 21.657 632.55 26.4998 632.55C31.347 632.55 35.273 636.476 35.273 641.324V693.963Z" fill="#C6D5DB"/>
<mask id="mask24_1660_489" style="mask-type:luminance" maskUnits="userSpaceOnUse" x="17" y="632" width="19" height="71">
<path d="M17.7266 641.324V693.963C17.7266 698.81 21.657 702.736 26.4998 702.736C31.3426 702.736 35.273 698.81 35.273 693.963V641.324C35.273 636.476 31.3426 632.55 26.4998 632.55C21.657 632.55 17.7266 636.476 17.7266 641.324Z" fill="white"/>
</mask>
<g mask="url(#mask24_1660_489)">
<path d="M12.793 707.123H26.5011V623.777H12.793V707.123Z" fill="#EDF1F4"/>
</g>
<path d="M39.6592 873.814C39.6592 881.083 33.7636 886.974 26.4994 886.974C19.2352 886.974 13.3395 881.083 13.3395 873.814V856.268C13.3395 848.999 19.2352 843.108 26.4994 843.108C33.7636 843.108 39.6592 848.999 39.6592 856.268V873.814ZM26.4994 829.948C11.9665 829.948 0.179688 841.73 0.179688 856.268V873.814C0.179688 888.351 11.9665 900.134 26.4994 900.134C41.0366 900.134 52.8191 888.351 52.8191 873.814V856.268C52.8191 841.73 41.0366 829.948 26.4994 829.948Z" fill="#C6D5DB"/>
<mask id="mask25_1660_489" style="mask-type:luminance" maskUnits="userSpaceOnUse" x="0" y="829" width="53" height="72">
<path d="M0.179688 856.268V873.814C0.179688 888.351 11.9621 900.134 26.4994 900.134C41.0366 900.134 52.8191 888.351 52.8191 873.814V856.268C52.8191 841.73 41.0366 829.948 26.4994 829.948C11.9621 829.948 0.179688 841.73 0.179688 856.268ZM13.3395 873.814V856.268C13.3395 848.999 19.2352 843.108 26.4994 843.108C33.7636 843.108 39.6592 848.999 39.6592 856.268V873.814C39.6592 881.087 33.7636 886.974 26.4994 886.974C19.2352 886.974 13.3395 881.087 13.3395 873.814Z" fill="white"/>
</mask>
<g mask="url(#mask25_1660_489)">
<path d="M26.4992 904.521H-8.59375V829.948H26.4992V904.521Z" fill="#E1E8ED"/>
<path d="M44.0462 876.007C44.0462 884.487 37.1723 891.36 28.693 891.36C20.2137 891.36 13.3398 884.487 13.3398 876.007V854.074C13.3398 845.595 20.2137 838.721 28.693 838.721C37.1723 838.721 44.0462 845.595 44.0462 854.074V876.007Z" fill="#E1E8ED"/>
<path d="M35.2728 876.007C35.2728 884.487 29.3772 891.36 22.113 891.36C14.8487 891.36 8.95312 884.487 8.95312 876.007V854.074C8.95312 845.595 14.8487 838.721 22.113 838.721C29.3772 838.721 35.2728 845.595 35.2728 854.074V876.007Z" fill="#C6D5DB"/>
<path d="M39.6599 856.268H26.5V834.334H39.6599V856.268Z" fill="#C6D5DB"/>
<path d="M39.6599 856.268H26.5V834.334H39.6599V856.268Z" fill="#C6D5DB"/>
</g>
<path d="M39.6592 786.082V794.855C39.6592 802.124 33.7636 808.015 26.4994 808.015C19.2352 808.015 13.3395 802.124 13.3395 794.855V786.082H0.179688V794.855C0.179688 809.388 11.9665 821.175 26.4994 821.175C41.0366 821.175 52.8191 809.388 52.8191 794.855V786.082H39.6592Z" fill="#C6D5DB"/>
<mask id="mask26_1660_489" style="mask-type:luminance" maskUnits="userSpaceOnUse" x="0" y="786" width="53" height="36">
<path d="M39.6592 786.082V794.855C39.6592 802.128 33.7636 808.015 26.4994 808.015C19.2352 808.015 13.3395 802.128 13.3395 794.855V786.082H0.179688V794.855C0.179688 809.392 11.9621 821.175 26.4994 821.175C41.0366 821.175 52.8191 809.392 52.8191 794.855V786.082H39.6592Z" fill="white"/>
</mask>
<g mask="url(#mask26_1660_489)">
<path d="M26.4999 825.562H-4.39062V781.695H26.4999V825.562Z" fill="#E1E8ED"/>
<path d="M35.2728 797.048C35.2728 805.528 29.3772 812.401 22.113 812.401C14.8487 812.401 8.95312 805.528 8.95312 797.048V775.115C8.95312 766.636 14.8487 759.762 22.113 759.762C29.3772 759.762 35.2728 766.636 35.2728 775.115V797.048Z" fill="#C6D5DB"/>
<path d="M28.6933 759.762C27.9432 759.762 27.2238 759.88 26.5 759.981V812.182C27.2238 812.287 27.9432 812.401 28.6933 812.401C37.1726 812.401 44.0465 805.528 44.0465 797.048V775.115C44.0465 766.636 37.1726 759.762 28.6933 759.762Z" fill="#E1E8ED"/>
</g>
<path d="M39.6592 944V935.227C39.6592 927.958 33.7636 922.067 26.4994 922.067C19.2352 922.067 13.3395 927.958 13.3395 935.227V944H0.179688V935.227C0.179688 920.694 11.9665 908.907 26.4994 908.907C41.0366 908.907 52.8191 920.694 52.8191 935.227V944H39.6592Z" fill="#C6D5DB"/>
<mask id="mask27_1660_489" style="mask-type:luminance" maskUnits="userSpaceOnUse" x="0" y="908" width="53" height="36">
<path d="M0.179688 935.227V944H13.3395V935.227C13.3395 927.954 19.2352 922.067 26.4994 922.067C33.7636 922.067 39.6592 927.954 39.6592 935.227V944H52.8191V935.227C52.8191 920.69 41.0366 908.907 26.4994 908.907C11.9621 908.907 0.179688 920.69 0.179688 935.227Z" fill="white"/>
</mask>
<g mask="url(#mask27_1660_489)">
<path d="M26.4999 904.521H-4.39062V948.387H26.4999V904.521Z" fill="#E1E8ED"/>
<path d="M35.2728 933.033C35.2728 924.554 29.3772 917.68 22.113 917.68C14.8487 917.68 8.95312 924.554 8.95312 933.033V954.966C8.95312 963.45 14.8487 970.319 22.113 970.319C29.3772 970.319 35.2728 963.45 35.2728 954.966V933.033Z" fill="#C6D5DB"/>
<path d="M28.6933 970.319C27.9432 970.319 27.2238 970.201 26.5 970.096V917.904C27.2238 917.794 27.9432 917.68 28.6933 917.68C37.1726 917.68 44.0465 924.554 44.0465 933.033V954.966C44.0465 963.45 37.1726 970.319 28.6933 970.319Z" fill="#E1E8ED"/>
</g>
<path d="M35.273 930.84C35.273 935.683 31.347 939.613 26.4998 939.613C21.657 939.613 17.7266 935.683 17.7266 930.84V878.201C17.7266 873.353 21.657 869.427 26.4998 869.427C31.347 869.427 35.273 873.353 35.273 878.201V930.84Z" fill="#C6D5DB"/>
<mask id="mask28_1660_489" style="mask-type:luminance" maskUnits="userSpaceOnUse" x="17" y="869" width="19" height="71">
<path d="M17.7266 878.201V930.84C17.7266 935.687 21.657 939.613 26.4998 939.613C31.3426 939.613 35.273 935.687 35.273 930.84V878.201C35.273 873.353 31.3426 869.427 26.4998 869.427C21.657 869.427 17.7266 873.353 17.7266 878.201Z" fill="white"/>
</mask>
<g mask="url(#mask28_1660_489)">
<path d="M12.793 944H26.5011V860.654H12.793V944Z" fill="#EDF1F4"/>
</g>
<path d="M35.273 851.881C35.273 856.724 31.347 860.654 26.4998 860.654C21.657 860.654 17.7266 856.724 17.7266 851.881V799.242C17.7266 794.394 21.657 790.468 26.4998 790.468C31.347 790.468 35.273 794.394 35.273 799.242V851.881Z" fill="#C6D5DB"/>
<mask id="mask29_1660_489" style="mask-type:luminance" maskUnits="userSpaceOnUse" x="17" y="790" width="19" height="71">
<path d="M17.7266 799.242V851.881C17.7266 856.728 21.657 860.654 26.4998 860.654C31.3426 860.654 35.273 856.728 35.273 851.881V799.242C35.273 794.394 31.3426 790.468 26.4998 790.468C21.657 790.468 17.7266 794.394 17.7266 799.242Z" fill="white"/>
</mask>
<g mask="url(#mask29_1660_489)">
<path d="M12.793 865.041H26.5011V781.695H12.793V865.041Z" fill="#EDF1F4"/>
</g>
</svg>
