<svg width="46" height="46" viewBox="0 0 46 46" fill="none" xmlns="http://www.w3.org/2000/svg">
<path d="M23 30.5L30.5 23M30.5 23L23 15.5M30.5 23H3M3 11.1201V11.0005C3 8.20023 3 6.79905 3.54497 5.7295C4.02432 4.78868 4.78868 4.02432 5.7295 3.54497C6.79905 3 8.20023 3 11.0005 3H35.0005C37.8007 3 39.199 3 40.2685 3.54497C41.2093 4.02432 41.9762 4.78868 42.4555 5.7295C43 6.798 43 8.19747 43 10.9923V35.009C43 37.8038 43 39.2012 42.4555 40.2697C41.9762 41.2105 41.2093 41.9762 40.2685 42.4555C39.2 43 37.8025 43 35.0078 43H10.9923C8.19747 43 6.798 43 5.7295 42.4555C4.78868 41.9762 4.02432 41.2098 3.54497 40.269C3 39.1995 3 37.8002 3 35V34.875" stroke="white" stroke-width="5" stroke-linecap="round" stroke-linejoin="round"/>
</svg>
