<svg width="45" height="53" viewBox="0 0 45 53" fill="none" xmlns="http://www.w3.org/2000/svg">
<path fill-rule="evenodd" clip-rule="evenodd" d="M26.7677 0.732227C27.744 1.70855 27.744 3.29145 26.7677 4.26778L23.5133 7.5224C35.4693 8.05223 45 17.9131 45 30C45 42.4265 34.9265 52.5 22.5 52.5C10.0736 52.5 0 42.4265 0 30C0 28.6193 1.1193 27.5 2.5 27.5C3.8807 27.5 5 28.6193 5 30C5 39.665 12.835 47.5 22.5 47.5C32.165 47.5 40 39.665 40 30C40 20.6935 32.7355 13.0837 23.5675 12.532L26.7677 15.7322C27.744 16.7086 27.744 18.2915 26.7677 19.2678C25.7915 20.2441 24.2085 20.2441 23.2323 19.2678L15.7322 11.7678C15.2634 11.2989 15 10.6631 15 10C15 9.33695 15.2634 8.70108 15.7322 8.23223L23.2323 0.732227C24.2085 -0.244076 25.7915 -0.244076 26.7677 0.732227Z" fill="white"/>
</svg>
