<svg width="268" height="200" viewBox="0 0 268 200" fill="none" xmlns="http://www.w3.org/2000/svg">
<g clip-path="url(#clip0_267_354)">
<mask id="mask0_267_354" style="mask-type:luminance" maskUnits="userSpaceOnUse" x="0" y="0" width="268" height="200">
<path d="M0 0L0 200L268 200V0L0 0Z" fill="white"/>
</mask>
<g mask="url(#mask0_267_354)">
<path d="M1.39453 8.39146L1.39454 191.609C1.39454 195.471 4.51922 198.602 8.37371 198.602H259.624C263.478 198.602 266.603 195.471 266.603 191.609V8.39145C266.603 4.52931 263.478 1.39844 259.624 1.39844L8.3737 1.39845C4.51921 1.39845 1.39453 4.52932 1.39453 8.39146Z" fill="#1F1D19"/>
<path fill-rule="evenodd" clip-rule="evenodd" d="M8.3737 1.39845C4.51921 1.39845 1.39453 4.52922 1.39453 8.39146L1.39454 191.609C1.39454 195.471 4.51923 198.602 8.37371 198.602H259.624C263.478 198.602 266.603 195.471 266.603 191.609V8.39145C266.603 4.52921 263.478 1.39844 259.624 1.39844L8.3737 1.39845ZM25.4416 13.9859C21.5871 13.9859 18.4624 17.1166 18.4624 20.9789V179.021C18.4624 182.883 21.5871 186.014 25.4416 186.014H242.556C246.41 186.014 249.535 182.883 249.535 179.021V20.9789C249.535 17.1166 246.41 13.9859 242.556 13.9859H25.4416Z" fill="url(#paint0_linear_267_354)"/>
<mask id="mask1_267_354" style="mask-type:luminance" maskUnits="userSpaceOnUse" x="0" y="0" width="268" height="200">
<path d="M0 1.17147e-05L8.74228e-06 200H268V0L0 1.17147e-05Z" fill="white"/>
<path fill-rule="evenodd" clip-rule="evenodd" d="M8.3737 1.39845C4.51921 1.39845 1.39453 4.52922 1.39453 8.39146L1.39454 191.608C1.39454 195.47 4.51923 198.601 8.37371 198.601H259.624C263.478 198.601 266.603 195.47 266.603 191.608V8.39144C266.603 4.52921 263.478 1.39844 259.624 1.39844L8.3737 1.39845ZM25.4416 13.9858C21.5871 13.9858 18.4624 17.1166 18.4624 20.9788V179.021C18.4624 182.883 21.5871 186.014 25.4416 186.014H242.556C246.41 186.014 249.535 182.883 249.535 179.021V20.9788C249.535 17.1166 246.41 13.9858 242.556 13.9858H25.4416Z" fill="black"/>
</mask>
<g mask="url(#mask1_267_354)">
<path d="M2.44142 191.608L2.44141 8.39158H0.347656L0.347664 191.608H2.44142ZM259.624 197.552H8.37371V199.65H259.624V197.552ZM265.556 8.39157V191.608H267.65V8.39157H265.556ZM8.3737 2.44752L259.624 2.44751V0.349609L8.3737 0.34962V2.44752ZM19.5093 179.021V20.979H17.4155L17.4156 179.021H19.5093ZM242.556 184.965H25.4416V187.063H242.556V184.965ZM248.488 20.9789V179.021H250.582V20.9789H248.488ZM25.4416 15.0349H242.556V12.937H25.4416V15.0349ZM250.582 20.9789C250.582 16.5377 246.989 12.937 242.556 12.937V15.0349C245.832 15.0349 248.488 17.6964 248.488 20.9789H250.582ZM242.556 187.063C246.989 187.063 250.582 183.462 250.582 179.021H248.488C248.488 182.304 245.832 184.965 242.556 184.965V187.063ZM19.5093 20.979C19.5093 17.6964 22.1653 15.0349 25.4416 15.0349V12.937C21.0089 12.937 17.4155 16.5377 17.4155 20.979H19.5093ZM17.4156 179.021C17.4156 183.462 21.0089 187.063 25.4416 187.063V184.965C22.1653 184.965 19.5093 182.304 19.5093 179.021H17.4156ZM267.65 8.39157C267.65 3.95031 264.056 0.349609 259.624 0.349609V2.44751C262.9 2.44751 265.556 5.10905 265.556 8.39157H267.65ZM259.624 199.65C264.056 199.65 267.65 196.05 267.65 191.608H265.556C265.556 194.891 262.9 197.552 259.624 197.552V199.65ZM2.44141 8.39158C2.44141 5.10906 5.09739 2.44752 8.3737 2.44752V0.34962C3.94103 0.34962 0.347656 3.95032 0.347656 8.39158H2.44141ZM0.347664 191.608C0.347664 196.05 3.94105 199.65 8.37371 199.65V197.552C5.0974 197.552 2.44142 194.891 2.44142 191.608H0.347664Z" fill="#C9C9C9"/>
</g>
<path d="M8.37371 198.602C4.51922 198.602 1.39454 195.471 1.39454 191.609L1.39453 8.39145C1.39453 4.52921 4.51921 1.39844 8.3737 1.39844H19.5404V198.602H8.37371Z" fill="url(#paint1_linear_267_354)"/>
<path d="M259.624 198.601C263.478 198.601 266.603 195.47 266.603 191.608V8.39145C266.603 4.52921 263.478 1.39844 259.624 1.39844H248.457V198.601H259.624Z" fill="url(#paint2_linear_267_354)"/>
<path fill-rule="evenodd" clip-rule="evenodd" d="M54.1602 184.615L56.6715 190.427L59.4488 184.965L59.5999 184.615H54.1602Z" fill="#C9C9C9"/>
<path fill-rule="evenodd" clip-rule="evenodd" d="M54.1602 184.615L56.6715 190.427L59.4488 184.965L59.5999 184.615H54.1602Z" fill="#1F1D19"/>
<path d="M56.6719 190.427L56.8805 190.909C58.3181 189.281 58.7757 187.64 59.4492 184.965L56.6719 190.427Z" fill="#C9C9C9"/>
<path fill-rule="evenodd" clip-rule="evenodd" d="M95.2083 15.3843L97.0103 2.09766L86.104 14.9417L85.8438 15.3843H95.2083Z" fill="#C9C9C9"/>
<path fill-rule="evenodd" clip-rule="evenodd" d="M95.2083 15.3843L97.0103 2.09766L86.104 14.9417L85.8438 15.3843H95.2083Z" fill="#1F1D19"/>
<path d="M97.0118 2.09766C94.3444 4.27459 91.7202 4.76411 89.803 6.9697C87.3282 9.03194 87.2647 11.5536 86.1055 14.9417L97.0118 2.09766Z" fill="#C9C9C9"/>
<path fill-rule="evenodd" clip-rule="evenodd" d="M235.365 15.3836L237.167 8.39062L226.26 15.1507L226 15.3836H235.365Z" fill="#1F1D19"/>
<path d="M237.168 8.39258C234.501 9.53873 231.876 9.79607 229.959 10.957C227.484 12.0423 227.421 13.3695 226.262 15.1528L237.168 8.39258Z" fill="#C9C9C9"/>
<path fill-rule="evenodd" clip-rule="evenodd" d="M235.78 184.615L239.384 196.503L217.571 185.011L217.051 184.615H235.78Z" fill="#C9C9C9"/>
<path fill-rule="evenodd" clip-rule="evenodd" d="M235.78 184.615L239.384 196.503L217.571 185.011L217.051 184.615H235.78Z" fill="#1F1D19"/>
<path d="M239.384 196.504C234.049 194.556 228.8 194.118 224.966 192.145C220.017 190.3 219.889 188.043 217.57 185.012L239.384 196.504Z" fill="#C9C9C9"/>
</g>
</g>
<defs>
<linearGradient id="paint0_linear_267_354" x1="105.771" y1="198.602" x2="108.378" y2="1.40277" gradientUnits="userSpaceOnUse">
<stop stop-color="#6C6C6C"/>
<stop offset="0.0409998" stop-color="#A3A3A3"/>
<stop offset="0.96" stop-color="#9D9D9D"/>
</linearGradient>
<linearGradient id="paint1_linear_267_354" x1="1.39454" y1="99.9997" x2="19.5404" y2="99.9997" gradientUnits="userSpaceOnUse">
<stop stop-color="#6B6B6B"/>
<stop offset="0.99" stop-color="#A3A3A3" stop-opacity="0"/>
</linearGradient>
<linearGradient id="paint2_linear_267_354" x1="266.603" y1="99.9998" x2="248.457" y2="99.9998" gradientUnits="userSpaceOnUse">
<stop stop-color="#272624"/>
<stop offset="0.99" stop-color="#A7A7A7" stop-opacity="0"/>
</linearGradient>
<clipPath id="clip0_267_354">
<rect width="268" height="200" fill="white"/>
</clipPath>
</defs>
</svg>
