<svg width="361" height="91" viewBox="0 0 361 91" fill="none" xmlns="http://www.w3.org/2000/svg">
<path d="M52.2 3.3C56.5333 3.3 58.7 4.03333 58.7 5.49999C58.7 6.09999 58.4 6.93333 57.8 8C49.6 22.3333 44.4333 38.3333 42.3 56C41.5667 61.7333 41.2 65.7333 41.2 68C41.2 69.1333 41.6 69.7 42.4 69.7C42.6667 69.7 42.9 69.3667 43.1 68.7C43.3 68.0333 43.5 67.7 43.7 67.7C44.1667 67.7 44.8 68.4667 45.6 70C46.4667 71.4667 46.9 72.5667 46.9 73.3C46.9 75.2333 45.3333 79.6333 42.2 86.5C41.0667 89.1 39.8333 90.4 38.5 90.4C38.2333 90.4 37.8333 90.2667 37.3 90C34.5 88.3333 33.1 83.8667 33.1 76.6C33.1 69.2667 34.1 59.4 36.1 47C35.5667 47.6667 34.6333 48.9667 33.3 50.9C31.9667 52.7667 30.8333 54.2667 29.9 55.4C29.0333 56.4667 27.9 57.6667 26.5 59C23.7667 61.7333 20.9 63.1 17.9 63.1C14.9 63.1 12.4 62.0333 10.4 59.9C9.8 59.2333 8.86667 57.6333 7.6 55.1C6.4 52.5 5.8 49.7333 5.8 46.8C5.8 43.8 6.46667 40.6667 7.8 37.4C9.2 34.1333 10.6 31.2667 12 28.8C13.4 26.2667 14.6 24.2 15.6 22.6C17.4667 19.8667 20.3667 15.6333 24.3 9.9C24.7 9.23333 24.9 8.7 24.9 8.29999C24.9 7.36666 24.1 6.89999 22.5 6.89999C20.9667 6.89999 19.5333 7.19999 18.2 7.79999C16.8667 8.39999 16.1 8.83333 15.9 9.1C15.7 9.36666 15.5333 9.83333 15.4 10.5L15.5 11.8C15.5 13.3333 14.9 14.7 13.7 15.9C12.5667 17.0333 11.3333 18.1 10 19.1C8.66667 20.0333 7.16667 20.5 5.5 20.5C3.83333 20.5 2.66667 20.3667 2 20.1C1.4 19.7667 0.933333 19.2667 0.6 18.6C0.2 17.6667 0 16.2 0 14.2C0 12.2 0.766667 10.6667 2.3 9.6C2.5 9.46666 3.43333 8.86666 5.1 7.79999C6.76667 6.66666 7.83333 5.93333 8.3 5.6C8.83333 5.26666 9.83333 4.69999 11.3 3.9C12.8333 3.03333 14.0333 2.46666 14.9 2.2C17.7 1.2 20.2333 0.699997 22.5 0.699997C24.8333 0.699997 27.0333 1.56666 29.1 3.3C31.1667 4.96666 32.2 7.2 32.2 10C32.2 11.8 31.6 14.0333 30.4 16.7C29.2667 19.3 26.9667 23.1667 23.5 28.3C20.1 33.3667 17.9 36.7333 16.9 38.4C14.3 43.1333 13 46.8 13 49.4C13 52 13.6 53.3 14.8 53.3C15.9333 53.3 17.5667 52.3667 19.7 50.5C21.8333 48.5667 23.4667 46.9667 24.6 45.7C25.7333 44.4333 27.0667 42.7 28.6 40.5C30.2 38.3 31.3333 36.6333 32 35.5C32.7333 34.3667 33.8667 32.5333 35.4 30C36.9333 27.4667 38.1333 25.5 39 24.1C42.6667 17.9 45.6333 12.6667 47.9 8.4C47.7667 7.73333 47.7 7.16666 47.7 6.7C47.7 4.43333 49.2 3.3 52.2 3.3ZM94.3602 36.2C94.3602 41.6 92.3602 46.1667 88.3602 49.9C85.7602 59.6333 82.5935 67.3667 78.8602 73.1C76.6602 76.3667 74.0935 78 71.1602 78C69.6268 78 67.8268 77.4 65.7602 76.2C60.2268 72.8 56.9935 68.8667 56.0602 64.4C55.1268 59.9333 54.6602 55.2667 54.6602 50.4C54.6602 37.7333 57.8602 24.7333 64.2602 11.4C65.0602 9.86666 65.8935 9.1 66.7602 9.1C66.8935 9.1 68.4602 9.7 71.4602 10.9C73.1268 7.03333 76.5268 5.09999 81.6602 5.09999C84.3268 5.09999 86.2935 5.6 87.5602 6.6C90.4268 8.86666 91.8602 14.6 91.8602 23.8C91.8602 26.8667 91.6268 30.4333 91.1602 34.5L93.5602 29.7C94.0935 31.9667 94.3602 34.1333 94.3602 36.2ZM83.7602 16.6C83.7602 15.4667 83.4935 14.3667 82.9602 13.3C82.4935 12.2333 81.8268 11.7 80.9602 11.7C80.0935 11.7 79.3268 12.0667 78.6602 12.8C78.0602 13.5333 77.3602 14.5667 76.5602 15.9C72.7602 22.0333 70.8602 29.4667 70.8602 38.2C70.8602 40.4 71.4602 42.7 72.6602 45.1C73.9268 47.4333 75.5602 48.6 77.5602 48.6C77.8935 48.6 78.3268 48.5333 78.8602 48.4C82.1268 38.6 83.7602 28 83.7602 16.6ZM77.0602 53.2C74.9935 52.6667 73.0935 51.7333 71.3602 50.4C69.6268 49 68.3602 47.3667 67.5602 45.5C66.0935 41.6333 65.3602 38.2 65.3602 35.2C65.3602 32.2 65.5602 29.7 65.9602 27.7C63.0935 33.6333 61.6602 40.3333 61.6602 47.8C61.6602 55.2 62.4935 61.6333 64.1602 67.1C64.7602 69.1 65.6935 70.1 66.9602 70.1C67.8268 70.1 68.6268 69.5 69.3602 68.3C72.2268 64.3 74.7935 59.2667 77.0602 53.2ZM142.936 11.2C139.203 22.6 137.336 34.4 137.336 46.6C137.336 58.8 138.269 64.9 140.136 64.9C140.536 64.9 140.903 64.7333 141.236 64.4C145.103 60.4 147.236 55.8667 147.636 50.8C147.636 49.4667 147.803 48.8 148.136 48.8C148.469 48.8 148.969 49.3667 149.636 50.5C150.303 51.5667 150.636 53.5333 150.636 56.4C150.636 59.2667 149.469 62.9667 147.136 67.5C144.869 72.0333 142.303 74.3 139.436 74.3C137.836 74.3 136.369 73.6667 135.036 72.4C133.703 71.1333 132.803 69.5 132.336 67.5C131.869 65.4333 131.436 63.0667 131.036 60.4C130.703 57.6667 130.369 54.6333 130.036 51.3C129.703 47.9667 129.403 45.4 129.136 43.6C128.669 45.4 127.803 49.0333 126.536 54.5C125.269 59.9667 124.269 64.0333 123.536 66.7C121.736 72.8333 118.903 75.9 115.036 75.9C113.169 75.9 111.536 75.3667 110.136 74.3C108.736 73.1667 107.869 71.7 107.536 69.9C106.736 66.1667 106.336 61.7 106.336 56.5C106.336 51.2333 106.936 45.8 108.136 40.2C109.403 34.6 110.669 29.7667 111.936 25.7C113.269 21.5667 113.936 19.1333 113.936 18.4C113.936 17.6667 113.769 17.3 113.436 17.3C113.103 17.3 112.569 17.7 111.836 18.5C111.103 19.3 110.236 20.4667 109.236 22C108.303 23.4667 107.569 24.7333 107.036 25.8C106.569 26.8 105.869 28.3667 104.936 30.5C104.003 32.6333 103.336 34.1 102.936 34.9C102.003 36.8333 100.769 37.8 99.2359 37.8C97.7693 37.8 96.5693 36.9 95.6359 35.1C94.7693 33.3 94.3359 31.6333 94.3359 30.1C94.3359 28.5667 94.9026 27.1667 96.0359 25.9C100.303 21.1 104.736 14.6667 109.336 6.6L110.736 7.7C112.269 7.23333 113.203 7 113.536 7C113.936 7 114.369 7.1 114.836 7.3C115.303 7.43333 116.136 7.66667 117.336 8C118.536 8.33333 119.336 8.6 119.736 8.79999C120.203 8.93333 120.836 9.23333 121.636 9.69999C122.436 10.1 122.969 10.5333 123.236 11C124.036 12.5333 124.436 14.2 124.436 16C124.436 17.8 124.236 19.5333 123.836 21.2C123.436 22.8 121.903 28.4 119.236 38C116.569 47.5333 114.936 54.9 114.336 60.1V61C114.336 62.1333 114.536 62.7 114.936 62.7C115.336 62.7 115.736 62.1667 116.136 61.1C121.069 49.1 126.369 34.4333 132.036 17.1C132.436 15.7667 132.636 14.7667 132.636 14.1L131.936 11.1C131.936 10.3667 132.303 9.8 133.036 9.4C134.103 8.66666 135.569 7.9 137.436 7.1C139.369 6.3 140.869 5.9 141.936 5.9C143.003 5.9 143.536 6.46666 143.536 7.6C143.536 8.66666 143.336 9.86666 142.936 11.2ZM213.713 6.3C213.713 6.03333 213.813 5.9 214.013 5.9C214.213 5.9 214.813 6.23333 215.813 6.89999C216.813 7.56666 217.98 8.33333 219.313 9.19999C220.713 10.0667 221.613 11.4 222.013 13.2C222.413 15 222.613 17.6667 222.613 21.2C222.613 24.6667 221.58 27.7 219.513 30.3C218.78 31.2333 218.213 31.7 217.813 31.7C217.013 31.7 216.513 30.9333 216.313 29.4C216.18 27.8667 215.78 27.1 215.113 27.1C214.647 27.1 214.38 27.6 214.313 28.6C214.113 30.2 214.013 33.1667 214.013 37.5C213.48 48.9 211.547 58.1667 208.213 65.3C210.08 65.6333 211.813 65.8 213.413 65.8C219.747 65.8 224.413 64.0667 227.413 60.6C228.013 59.8 228.513 59.4 228.913 59.4C229.38 59.4 229.613 60 229.613 61.2C229.613 64.6 229.28 67.7333 228.613 70.6C227.613 74.8 224.847 76.9 220.313 76.9C215.78 76.9 210.38 75.2667 204.113 72C201.78 75.2 199.58 76.8 197.513 76.8C195.513 76.8 192.947 75.2333 189.813 72.1C186.68 68.9 185.113 66.3333 185.113 64.4C185.113 63.3333 185.713 62.5 186.913 61.9C188.047 61.3 189.28 61 190.613 61C191.947 61 194.88 61.7333 199.413 63.2C201.613 59.0667 202.98 54.3667 203.513 49.1C204.047 43.8333 205.047 36.1667 206.513 26.1C207.98 15.9667 208.847 9.9 209.113 7.9C209.38 5.83333 209.813 4.8 210.413 4.8C211.013 4.8 212.247 6.33333 214.113 9.4V8.79999L213.713 6.3ZM194.413 66.9C194.213 66.9 194.113 67.2667 194.113 68C194.113 68.6667 194.38 69 194.913 69C195.18 69 195.613 68.5667 196.213 67.7L194.413 66.9ZM273.462 36.2C273.462 41.6 271.462 46.1667 267.462 49.9C264.862 59.6333 261.695 67.3667 257.962 73.1C255.762 76.3667 253.195 78 250.262 78C248.728 78 246.928 77.4 244.862 76.2C239.328 72.8 236.095 68.8667 235.162 64.4C234.228 59.9333 233.762 55.2667 233.762 50.4C233.762 37.7333 236.962 24.7333 243.362 11.4C244.162 9.86666 244.995 9.1 245.862 9.1C245.995 9.1 247.562 9.7 250.562 10.9C252.228 7.03333 255.628 5.09999 260.762 5.09999C263.428 5.09999 265.395 5.6 266.662 6.6C269.528 8.86666 270.962 14.6 270.962 23.8C270.962 26.8667 270.728 30.4333 270.262 34.5L272.662 29.7C273.195 31.9667 273.462 34.1333 273.462 36.2ZM262.862 16.6C262.862 15.4667 262.595 14.3667 262.062 13.3C261.595 12.2333 260.928 11.7 260.062 11.7C259.195 11.7 258.428 12.0667 257.762 12.8C257.162 13.5333 256.462 14.5667 255.662 15.9C251.862 22.0333 249.962 29.4667 249.962 38.2C249.962 40.4 250.562 42.7 251.762 45.1C253.028 47.4333 254.662 48.6 256.662 48.6C256.995 48.6 257.428 48.5333 257.962 48.4C261.228 38.6 262.862 28 262.862 16.6ZM256.162 53.2C254.095 52.6667 252.195 51.7333 250.462 50.4C248.728 49 247.462 47.3667 246.662 45.5C245.195 41.6333 244.462 38.2 244.462 35.2C244.462 32.2 244.662 29.7 245.062 27.7C242.195 33.6333 240.762 40.3333 240.762 47.8C240.762 55.2 241.595 61.6333 243.262 67.1C243.862 69.1 244.795 70.1 246.062 70.1C246.928 70.1 247.728 69.5 248.462 68.3C251.328 64.3 253.895 59.2667 256.162 53.2ZM313.438 7C316.371 10.4667 317.838 12.5333 317.838 13.2C317.838 13.8667 317.504 14.6 316.838 15.4C313.704 18.9333 310.038 22.5 305.838 26.1C304.904 26.9 304.204 27.3 303.738 27.3C303.071 27.3 302.738 26.8 302.738 25.8C302.738 24.7333 303.171 23.3333 304.038 21.6C304.971 19.8667 305.438 18.8667 305.438 18.6C305.438 18.3333 305.304 18.2 305.038 18.2C304.838 18.2 304.538 18.2667 304.138 18.4C296.471 21.1333 291.138 25.4333 288.137 31.3C287.471 32.6333 287.138 33.7333 287.138 34.6C287.138 36.3333 288.471 37.9667 291.138 39.5C291.538 39.7667 293.338 40.7333 296.538 42.4C303.004 45.8667 307.071 48.6667 308.738 50.8C311.404 54.1333 312.738 57.4 312.738 60.6C312.738 61.8667 312.371 63.2 311.638 64.6C310.971 65.9333 310.104 66.9333 309.038 67.6C297.771 74.6 287.738 78.1 278.938 78.1C274.271 78.1 271.937 75.9667 271.937 71.7C271.937 70.3 272.404 68.9667 273.337 67.7C271.737 66.5667 270.937 65.3667 270.937 64.1C270.937 62.7667 271.837 61.4333 273.638 60.1C277.904 56.9 284.771 55.3 294.238 55.3C295.238 55.3 296.438 55.6667 297.838 56.4C299.238 57.0667 300.371 57.8 301.238 58.6C302.904 57.6667 303.738 56.8333 303.738 56.1C303.738 55.3667 303.304 54.6333 302.438 53.9C301.171 52.9667 298.804 51.7333 295.338 50.2C291.938 48.6667 289.771 47.6333 288.838 47.1C286.038 45.5 283.871 43.2 282.338 40.2C280.871 37.2 280.138 34.0333 280.138 30.7C280.138 27.3 280.971 24.2333 282.638 21.5C284.371 18.7 286.771 16.2667 289.838 14.2C294.504 11.0667 300.338 8.2 307.338 5.6C308.271 5.33333 309.004 5.2 309.538 5.2C311.071 5.2 312.371 5.8 313.438 7ZM294.438 62.4C293.771 62.2667 293.004 62.2 292.138 62.2C291.271 62.2 289.571 62.6 287.038 63.4C284.571 64.2 283.338 65.1 283.338 66.1C283.338 66.5 283.571 66.7 284.038 66.7C285.838 66.7 289.304 65.2667 294.438 62.4ZM329.832 31.7C329.832 33.9667 334.465 35.1 343.732 35.1H345.432C347.232 34.1 348.365 33.6 348.832 33.6C349.965 33.6 351.365 34.5333 353.032 36.4C354.765 38.2 355.632 40.3 355.632 42.7C355.632 43.5 355.199 43.9 354.332 43.9C354.065 43.9 352.832 43.7 350.632 43.3C349.965 43.5 348.699 43.8667 346.832 44.4C345.032 44.9333 343.799 45.3 343.132 45.5C342.465 45.7 341.365 46.0667 339.832 46.6C338.299 47.1333 337.165 47.6 336.432 48C335.765 48.3333 334.799 48.8333 333.532 49.5C332.332 50.1667 331.332 50.8667 330.532 51.6C327.999 54.0667 326.265 56 325.332 57.4C323.599 59.8 322.732 62.3 322.732 64.9C322.732 67.4333 323.332 69.3667 324.532 70.7C325.732 71.9667 327.699 72.6 330.432 72.6C333.232 72.6 336.532 71.9333 340.332 70.6C344.199 69.2 346.132 67.2 346.132 64.6C346.132 63.7333 345.932 62.9 345.532 62.1C345.132 61.2333 344.465 60.8 343.532 60.8C342.665 60.8 339.932 62.1667 335.332 64.9C330.799 67.5667 328.399 68.9 328.132 68.9C327.865 68.9 327.732 68.6333 327.732 68.1C327.732 67.5 327.965 66.8 328.432 66C330.365 62.7333 332.899 60.1333 336.032 58.2C339.165 56.2667 342.432 55.3 345.832 55.3C349.232 55.3 352.099 56.3 354.432 58.3C356.832 60.3 358.032 62.6 358.032 65.2C358.032 67.7333 357.365 69.8667 356.032 71.6C351.965 76.9333 344.232 79.6 332.832 79.6C325.765 79.6 320.532 76.8667 317.132 71.4C315.265 68.5333 314.332 65.7667 314.332 63.1C314.332 60.4333 315.165 57.2 316.832 53.4C318.499 49.5333 320.699 46.6333 323.432 44.7C326.232 42.7667 329.799 41.0333 334.132 39.5C327.665 37.4333 324.432 33.3333 324.432 27.2C324.432 23.5333 325.965 20.4 329.032 17.8C331.632 15.5333 335.032 13.2 339.232 10.8C343.499 8.33333 346.165 6.76666 347.232 6.1C348.299 5.36666 349.432 4.99999 350.632 4.99999C351.832 4.99999 353.199 5.9 354.732 7.7C355.532 7.56666 356.099 7.5 356.432 7.5C357.965 7.5 359.065 8.16666 359.732 9.5C360.265 10.7667 360.532 11.6 360.532 12C360.532 14.4 355.432 17.6333 345.232 21.7C344.832 21.8333 344.565 21.9 344.432 21.9C344.032 21.9 343.832 21.6333 343.832 21.1C343.832 20.5 344.165 19.2 344.832 17.2L341.532 18.8C337.665 20.8 335.299 22.2667 334.432 23.2C332.832 25.1333 331.665 26.9333 330.932 28.6C330.199 30.2667 329.832 31.3 329.832 31.7Z" fill="#FF0000"/>
</svg>
