<svg width="341" height="91" viewBox="0 0 341 91" fill="none" xmlns="http://www.w3.org/2000/svg">
<path d="M52.2 3.3C56.5333 3.3 58.7 4.03333 58.7 5.49999C58.7 6.09999 58.4 6.93333 57.8 8C49.6 22.3333 44.4333 38.3333 42.3 56C41.5667 61.7333 41.2 65.7333 41.2 68C41.2 69.1333 41.6 69.7 42.4 69.7C42.6667 69.7 42.9 69.3667 43.1 68.7C43.3 68.0333 43.5 67.7 43.7 67.7C44.1667 67.7 44.8 68.4667 45.6 70C46.4667 71.4667 46.9 72.5667 46.9 73.3C46.9 75.2333 45.3333 79.6333 42.2 86.5C41.0667 89.1 39.8333 90.4 38.5 90.4C38.2333 90.4 37.8333 90.2667 37.3 90C34.5 88.3333 33.1 83.8667 33.1 76.6C33.1 69.2667 34.1 59.4 36.1 47C35.5667 47.6667 34.6333 48.9667 33.3 50.9C31.9667 52.7667 30.8333 54.2667 29.9 55.4C29.0333 56.4667 27.9 57.6667 26.5 59C23.7667 61.7333 20.9 63.1 17.9 63.1C14.9 63.1 12.4 62.0333 10.4 59.9C9.8 59.2333 8.86667 57.6333 7.6 55.1C6.4 52.5 5.8 49.7333 5.8 46.8C5.8 43.8 6.46667 40.6667 7.8 37.4C9.2 34.1333 10.6 31.2667 12 28.8C13.4 26.2667 14.6 24.2 15.6 22.6C17.4667 19.8667 20.3667 15.6333 24.3 9.9C24.7 9.23333 24.9 8.7 24.9 8.29999C24.9 7.36666 24.1 6.89999 22.5 6.89999C20.9667 6.89999 19.5333 7.19999 18.2 7.79999C16.8667 8.39999 16.1 8.83333 15.9 9.1C15.7 9.36666 15.5333 9.83333 15.4 10.5L15.5 11.8C15.5 13.3333 14.9 14.7 13.7 15.9C12.5667 17.0333 11.3333 18.1 10 19.1C8.66667 20.0333 7.16667 20.5 5.5 20.5C3.83333 20.5 2.66667 20.3667 2 20.1C1.4 19.7667 0.933333 19.2667 0.6 18.6C0.2 17.6667 0 16.2 0 14.2C0 12.2 0.766667 10.6667 2.3 9.6C2.5 9.46666 3.43333 8.86666 5.1 7.79999C6.76667 6.66666 7.83333 5.93333 8.3 5.6C8.83333 5.26666 9.83333 4.69999 11.3 3.9C12.8333 3.03333 14.0333 2.46666 14.9 2.2C17.7 1.2 20.2333 0.699997 22.5 0.699997C24.8333 0.699997 27.0333 1.56666 29.1 3.3C31.1667 4.96666 32.2 7.2 32.2 10C32.2 11.8 31.6 14.0333 30.4 16.7C29.2667 19.3 26.9667 23.1667 23.5 28.3C20.1 33.3667 17.9 36.7333 16.9 38.4C14.3 43.1333 13 46.8 13 49.4C13 52 13.6 53.3 14.8 53.3C15.9333 53.3 17.5667 52.3667 19.7 50.5C21.8333 48.5667 23.4667 46.9667 24.6 45.7C25.7333 44.4333 27.0667 42.7 28.6 40.5C30.2 38.3 31.3333 36.6333 32 35.5C32.7333 34.3667 33.8667 32.5333 35.4 30C36.9333 27.4667 38.1333 25.5 39 24.1C42.6667 17.9 45.6333 12.6667 47.9 8.4C47.7667 7.73333 47.7 7.16666 47.7 6.7C47.7 4.43333 49.2 3.3 52.2 3.3ZM94.3602 36.2C94.3602 41.6 92.3602 46.1667 88.3602 49.9C85.7602 59.6333 82.5935 67.3667 78.8602 73.1C76.6602 76.3667 74.0935 78 71.1602 78C69.6268 78 67.8268 77.4 65.7602 76.2C60.2268 72.8 56.9935 68.8667 56.0602 64.4C55.1268 59.9333 54.6602 55.2667 54.6602 50.4C54.6602 37.7333 57.8602 24.7333 64.2602 11.4C65.0602 9.86666 65.8935 9.1 66.7602 9.1C66.8935 9.1 68.4602 9.7 71.4602 10.9C73.1268 7.03333 76.5268 5.09999 81.6602 5.09999C84.3268 5.09999 86.2935 5.6 87.5602 6.6C90.4268 8.86666 91.8602 14.6 91.8602 23.8C91.8602 26.8667 91.6268 30.4333 91.1602 34.5L93.5602 29.7C94.0935 31.9667 94.3602 34.1333 94.3602 36.2ZM83.7602 16.6C83.7602 15.4667 83.4935 14.3667 82.9602 13.3C82.4935 12.2333 81.8268 11.7 80.9602 11.7C80.0935 11.7 79.3268 12.0667 78.6602 12.8C78.0602 13.5333 77.3602 14.5667 76.5602 15.9C72.7602 22.0333 70.8602 29.4667 70.8602 38.2C70.8602 40.4 71.4602 42.7 72.6602 45.1C73.9268 47.4333 75.5602 48.6 77.5602 48.6C77.8935 48.6 78.3268 48.5333 78.8602 48.4C82.1268 38.6 83.7602 28 83.7602 16.6ZM77.0602 53.2C74.9935 52.6667 73.0935 51.7333 71.3602 50.4C69.6268 49 68.3602 47.3667 67.5602 45.5C66.0935 41.6333 65.3602 38.2 65.3602 35.2C65.3602 32.2 65.5602 29.7 65.9602 27.7C63.0935 33.6333 61.6602 40.3333 61.6602 47.8C61.6602 55.2 62.4935 61.6333 64.1602 67.1C64.7602 69.1 65.6935 70.1 66.9602 70.1C67.8268 70.1 68.6268 69.5 69.3602 68.3C72.2268 64.3 74.7935 59.2667 77.0602 53.2ZM142.936 11.2C139.203 22.6 137.336 34.4 137.336 46.6C137.336 58.8 138.269 64.9 140.136 64.9C140.536 64.9 140.903 64.7333 141.236 64.4C145.103 60.4 147.236 55.8667 147.636 50.8C147.636 49.4667 147.803 48.8 148.136 48.8C148.469 48.8 148.969 49.3667 149.636 50.5C150.303 51.5667 150.636 53.5333 150.636 56.4C150.636 59.2667 149.469 62.9667 147.136 67.5C144.869 72.0333 142.303 74.3 139.436 74.3C137.836 74.3 136.369 73.6667 135.036 72.4C133.703 71.1333 132.803 69.5 132.336 67.5C131.869 65.4333 131.436 63.0667 131.036 60.4C130.703 57.6667 130.369 54.6333 130.036 51.3C129.703 47.9667 129.403 45.4 129.136 43.6C128.669 45.4 127.803 49.0333 126.536 54.5C125.269 59.9667 124.269 64.0333 123.536 66.7C121.736 72.8333 118.903 75.9 115.036 75.9C113.169 75.9 111.536 75.3667 110.136 74.3C108.736 73.1667 107.869 71.7 107.536 69.9C106.736 66.1667 106.336 61.7 106.336 56.5C106.336 51.2333 106.936 45.8 108.136 40.2C109.403 34.6 110.669 29.7667 111.936 25.7C113.269 21.5667 113.936 19.1333 113.936 18.4C113.936 17.6667 113.769 17.3 113.436 17.3C113.103 17.3 112.569 17.7 111.836 18.5C111.103 19.3 110.236 20.4667 109.236 22C108.303 23.4667 107.569 24.7333 107.036 25.8C106.569 26.8 105.869 28.3667 104.936 30.5C104.003 32.6333 103.336 34.1 102.936 34.9C102.003 36.8333 100.769 37.8 99.2359 37.8C97.7693 37.8 96.5693 36.9 95.6359 35.1C94.7693 33.3 94.3359 31.6333 94.3359 30.1C94.3359 28.5667 94.9026 27.1667 96.0359 25.9C100.303 21.1 104.736 14.6667 109.336 6.6L110.736 7.7C112.269 7.23333 113.203 7 113.536 7C113.936 7 114.369 7.1 114.836 7.3C115.303 7.43333 116.136 7.66667 117.336 8C118.536 8.33333 119.336 8.6 119.736 8.79999C120.203 8.93333 120.836 9.23333 121.636 9.69999C122.436 10.1 122.969 10.5333 123.236 11C124.036 12.5333 124.436 14.2 124.436 16C124.436 17.8 124.236 19.5333 123.836 21.2C123.436 22.8 121.903 28.4 119.236 38C116.569 47.5333 114.936 54.9 114.336 60.1V61C114.336 62.1333 114.536 62.7 114.936 62.7C115.336 62.7 115.736 62.1667 116.136 61.1C121.069 49.1 126.369 34.4333 132.036 17.1C132.436 15.7667 132.636 14.7667 132.636 14.1L131.936 11.1C131.936 10.3667 132.303 9.8 133.036 9.4C134.103 8.66666 135.569 7.9 137.436 7.1C139.369 6.3 140.869 5.9 141.936 5.9C143.003 5.9 143.536 6.46666 143.536 7.6C143.536 8.66666 143.336 9.86666 142.936 11.2ZM241.613 5.8C247.013 15.5333 249.713 25.9667 249.713 37.1C249.713 48.2333 246.647 59.0333 240.513 69.5C238.38 73.1667 235.38 75 231.513 75C227.313 75 224.413 72.5667 222.813 67.7C222.08 65.5 221.48 63.1 221.013 60.5C220.613 57.8333 220.347 56.1667 220.213 55.5C219.68 56.5667 218.713 58.8 217.313 62.2C215.98 65.5333 214.847 68.0667 213.913 69.8C212.513 72.6 210.513 74 207.913 74C205.98 74 204.247 73.2667 202.713 71.8C201.447 70.4667 200.647 67.8667 200.313 64C200.247 62.7333 200.147 61.5667 200.013 60.5C199.947 59.4333 199.913 58.4333 199.913 57.5C199.913 56.5667 200.013 55.4333 200.213 54.1C200.413 52.7667 200.613 51.5 200.813 50.3C201.08 49.1 201.48 47.6667 202.013 46C202.547 44.3333 203.013 42.9333 203.413 41.8C203.813 40.6 204.38 39.0667 205.113 37.2C205.913 35.3333 206.513 33.9333 206.913 33C207.313 32 207.947 30.5333 208.813 28.6C209.747 26.6667 210.38 25.3333 210.713 24.6C211.58 22.5333 212.68 20.1667 214.013 17.5C209.68 22.1 205.047 25.2667 200.113 27C198.713 27.4667 197.28 27.7 195.813 27.7C194.413 27.7 193.28 27.1333 192.413 26C191.547 24.8667 191.113 23.2667 191.113 21.2C191.113 19.1333 192.38 16.9 194.913 14.5C197.513 12.1 200.413 10.2 203.613 8.79999C206.813 7.4 209.68 6.7 212.213 6.7C214.813 6.7 217.213 7.53333 219.413 9.19999C221.68 10.8667 222.813 13.0667 222.813 15.8C222.813 16.8 222.413 18.3333 221.613 20.4C220.88 22.4667 219.413 26.2 217.213 31.6C212.413 43.5333 209.213 52.9333 207.613 59.8C207.48 60.3333 207.413 60.8667 207.413 61.4C207.413 61.8667 207.647 62.1 208.113 62.1C210.113 62.1 214.113 53.0667 220.113 35C219.647 34.4 219.413 33.8 219.413 33.2C219.413 32.3333 220.213 31.9 221.813 31.9C225.08 31.9 227.28 31.9667 228.413 32.1C229.547 32.2333 230.113 32.6 230.113 33.2C230.113 33.8 229.88 34.2667 229.413 34.6C228.68 42.4 228.313 47.6333 228.313 50.3C228.313 52.9667 228.58 56.4 229.113 60.6C229.647 64.8 230.48 66.9 231.613 66.9C232.613 66.9 233.613 65.6667 234.613 63.2C239.08 53.4 241.313 43.8 241.313 34.4C241.313 24.9333 238.847 16.2 233.913 8.2C233.18 7.13333 232.813 6.1 232.813 5.09999C232.813 3.49999 233.98 2.69999 236.313 2.69999C238.647 2.69999 240.413 3.73333 241.613 5.8ZM207.613 11.5C203.147 12.2333 199.813 13.7 197.613 15.9C196.88 16.6333 196.513 17.3 196.513 17.9C196.513 18.5 196.913 18.8 197.713 18.8C199.913 18.8 203.213 16.3667 207.613 11.5ZM272.946 12.6C272.946 10.3333 272.479 9.19999 271.546 9.19999C270.613 9.19999 269.646 9.9 268.646 11.3C267.713 12.7 267.246 13.6667 267.246 14.2C267.246 14.7333 267.413 15.7333 267.746 17.2C268.079 18.6667 268.246 20.2 268.246 21.8C268.246 23.3333 267.679 26.6 266.546 31.6C265.413 36.5333 264.479 39.8333 263.746 41.5C263.079 43.1 262.279 43.9 261.346 43.9C260.613 43.9 259.946 43.6 259.346 43C258.813 42.3333 258.146 41.3667 257.346 40.1C256.613 38.8333 255.913 37.7667 255.246 36.9C254.579 35.9667 254.246 34.9333 254.246 33.8C254.246 32.6667 255.279 29.8 257.346 25.2C259.413 20.5333 261.146 16.8333 262.546 14.1C261.613 12.9667 261.146 12.2 261.146 11.8C261.146 11 261.713 10.6 262.846 10.6C263.179 10.6 263.613 10.7333 264.146 11C264.279 10.8 264.579 10.2667 265.046 9.4C265.513 8.46666 265.846 7.83333 266.046 7.5C266.246 7.16667 266.579 6.66666 267.046 5.99999C267.579 5.26666 268.046 4.73333 268.446 4.4C269.713 3.6 270.913 3.19999 272.046 3.19999C277.046 3.19999 279.513 10.4667 279.446 25C279.446 25.4 279.446 25.7 279.446 25.9C279.446 41.3 277.646 58.9333 274.046 78.8C273.713 80.2667 272.979 81 271.846 81C270.579 81 269.113 80.2 267.446 78.6C265.779 77 264.513 75.7667 263.646 74.9C261.313 72.5667 259.746 70.8667 258.946 69.8C257.946 68.6667 257.446 67.6 257.446 66.6C257.446 65.6 257.813 64.3667 258.546 62.9C259.346 61.3667 260.179 60.6 261.046 60.6C261.913 60.6 262.746 61.3 263.546 62.7C264.413 64.1 265.113 64.8 265.646 64.8C266.179 64.8 266.513 64.3 266.646 63.3C266.846 62.2333 267.046 60.7667 267.246 58.9C267.779 54.9667 268.846 48 270.446 38C272.113 28 272.946 20.5667 272.946 15.7V12.6ZM312.543 75.6C312.543 77 311.976 78.2333 310.843 79.3C309.776 80.3 308.51 80.8 307.043 80.8C305.576 80.8 304.043 79.8333 302.443 77.9C300.91 75.9 300.143 74.2 300.143 72.8C300.143 71.1333 300.576 69.4333 301.443 67.7C301.51 67.2333 301.743 64.9 302.143 60.7C302.543 56.5 303.576 49.4333 305.243 39.5C306.976 29.5 308.076 22.7 308.543 19.1V18.1C308.543 16.5 307.943 15.7 306.743 15.7C305.61 15.7 304.443 16.3 303.243 17.5C303.376 17.7667 303.443 18.3 303.443 19.1C303.443 19.9 302.543 22.4667 300.743 26.8C298.943 31.0667 296.376 37.5667 293.043 46.3C292.043 48.7 290.71 49.9 289.043 49.9C287.376 49.9 285.876 48.9 284.543 46.9C283.21 44.9 282.543 43.2 282.543 41.8C282.543 40.3333 282.776 38.9667 283.243 37.7C284.91 33.7 286.81 29.7333 288.943 25.8C291.076 21.8 292.743 18.6333 293.943 16.3C295.21 13.9667 296.143 12.2667 296.743 11.2C297.41 10.1333 298.076 9.6 298.743 9.6C299.41 9.6 300.01 9.66666 300.543 9.8C301.81 8.26667 303.51 7.5 305.643 7.5C307.776 7.5 309.91 8.16666 312.043 9.5C314.243 10.8333 315.343 14.1667 315.343 19.5C315.343 21.3667 315.176 24.0667 314.843 27.6C314.51 31.0667 314.31 33.2667 314.243 34.2C319.643 18.8 324.443 9.16666 328.643 5.3C329.376 4.56667 330.41 4.2 331.743 4.2C334.743 4.2 336.61 4.8 337.343 5.99999C338.143 7.13333 338.543 9.26666 338.543 12.4C338.543 15.4667 338.243 18.8 337.643 22.4C337.043 26 336.11 30.5667 334.843 36.1C333.576 41.5667 332.743 45.2 332.343 47C332.01 48.7333 331.843 50.4333 331.843 52.1C331.843 53.7667 331.943 54.6 332.143 54.6C332.676 54.6 334.01 52.8333 336.143 49.3C338.343 45.7 339.643 43.9 340.043 43.9C340.443 43.9 340.643 44.5333 340.643 45.8C340.643 50.2667 340.11 55 339.043 60C338.043 65 336.576 68.8 334.643 71.4C332.776 74 331.076 75.3 329.543 75.3C328.876 75.3 328.043 74.9333 327.043 74.2C326.043 73.4 325.443 72.9 325.243 72.7C323.043 70.3 321.943 66.8 321.943 62.2C321.943 58.1333 324.01 46.0667 328.143 26C329.41 19.6 330.276 15.1667 330.743 12.7C325.743 21.1 321.843 30 319.043 39.4C316.31 48.7333 314.176 59.3667 312.643 71.3L312.343 73.8L312.543 75.6Z" fill="#4DB832"/>
</svg>
