<svg width="295" height="292" viewBox="0 0 295 292" fill="none" xmlns="http://www.w3.org/2000/svg">
<path d="M153.08 188.741C99.9035 179.37 40.9613 244.117 104.351 291.716L92.3846 291.687C28.8261 264.573 16.4731 190.415 43.3487 142.181C47.014 167.165 59.06 192.555 75.8412 207.523C99.6459 170.979 132.901 150.493 185.583 133.88C114.773 243.621 207.822 283.246 200.026 235.32C239.076 252.111 231.3 284.029 218.075 289.834C216.064 290.716 214.014 291.419 211.913 291.954L189.377 291.934C146.978 282.395 106.125 224.235 153.08 188.741Z" fill="#F8AE00"/>
<path fill-rule="evenodd" clip-rule="evenodd" d="M76.6909 49.0437C76.6887 48.7443 76.6865 48.4478 76.6931 48.1514C-18.2087 140.339 -27.7584 270.24 67.9063 291.736C68.9068 291.667 78.3277 291.657 92.3846 291.687C28.8261 264.573 16.4731 190.415 43.3487 142.181C47.014 167.165 59.06 192.555 75.8412 207.523C99.6459 170.979 132.901 150.493 185.583 133.88C114.773 243.621 207.822 283.246 200.026 235.32C239.076 252.111 231.3 284.029 218.075 289.834C216.064 290.716 214.014 291.419 211.913 291.954C232.419 291.944 247.041 291.845 248.101 291.588C288.291 261.294 310.699 205.433 279.92 127.312C283.417 188.176 234.678 242.344 212.993 205.69C197.131 178.877 212.644 150.427 228.349 121.622C250.702 80.6281 273.445 38.9168 206.693 0.185303C232.538 55.274 176.162 118.704 150.396 56.6014C161.035 166.402 27.885 164.391 76.6931 49.4986C76.6931 49.346 76.692 49.1945 76.6909 49.0437Z" fill="#F8C600"/>
<path d="M189.377 291.934C161.372 291.895 128.75 291.776 104.351 291.716C40.9613 244.117 99.9035 179.37 153.08 188.741C106.125 224.235 146.978 282.395 189.377 291.934Z" fill="#F89900"/>
</svg>
