<svg width="567" height="567" viewBox="0 0 567 567" fill="none" xmlns="http://www.w3.org/2000/svg">
<g clip-path="url(#clip0_292_9)">
<path d="M517.605 567C517.605 450.152 474.417 387.177 407.373 356.877V567H517.605Z" fill="url(#paint0_linear_292_9)"/>
<path d="M49.3965 567H156.437V357.758C93.224 388.405 49.3965 452.068 49.3965 567Z" fill="url(#paint1_linear_292_9)"/>
<path d="M282.863 392.698C247.784 392.698 215.819 382.792 187.086 365.643V567H376.724V366.8C349.907 383.235 317.143 392.698 282.863 392.698Z" fill="url(#paint2_linear_292_9)"/>
<path d="M283.5 157.074C359.907 157.074 426.238 172.801 463.511 183.89C463.513 180.457 463.515 177.142 463.517 174.115C463.521 165.507 463.524 159.206 463.526 159.009C462.756 71.0493 397.867 0 315.976 0H254.384C172.496 0 104.284 71.0493 103.478 159.011C103.479 159.208 103.483 165.505 103.487 174.103C103.489 177.132 103.491 180.452 103.493 183.888C140.765 172.801 207.095 157.074 283.5 157.074Z" fill="url(#paint3_linear_292_9)"/>
<path d="M108.001 243.661C116.337 241.1 124.752 238.755 133.213 236.562C146.082 307.908 208.448 362.049 283.501 362.049C358.732 362.049 421.219 307.651 433.88 236.05C442.307 238.244 450.682 240.592 458.978 243.153C460.529 243.634 462.096 243.849 463.636 243.835C470.13 243.781 476.126 239.569 478.143 233.033C479.528 228.553 478.748 223.927 476.407 220.261C474.524 217.311 471.312 214.981 467.707 213.868C446.806 207.413 426.53 202.103 403.544 197.899V218.607C403.544 249.114 378.659 273.846 348.15 273.846C323.465 273.846 302.281 257.773 295.565 235.322C289.799 216.056 296.078 193.767 283.744 193.225C271.408 193.765 277.649 216.056 271.883 235.322C265.163 257.774 243.204 273.846 218.518 273.846C188.007 273.846 162.188 249.114 162.188 218.607V198.421C141.117 202.641 119.6 207.942 98.6876 214.363C95.345 215.389 92.78 217.464 90.8952 220.105C88.2172 223.858 87.3188 228.764 88.7766 233.51C90.7975 240.092 96.887 244.324 103.427 244.335C103.438 244.335 103.469 244.339 103.48 244.339C104.967 244.341 106.503 244.121 108.001 243.661Z" fill="url(#paint4_linear_292_9)"/>
</g>
<defs>
<linearGradient id="paint0_linear_292_9" x1="462.489" y1="356.877" x2="462.489" y2="567" gradientUnits="userSpaceOnUse">
<stop stop-color="#FF9211"/>
<stop offset="1" stop-color="#FFAC4A"/>
</linearGradient>
<linearGradient id="paint1_linear_292_9" x1="102.917" y1="357.758" x2="102.917" y2="567" gradientUnits="userSpaceOnUse">
<stop stop-color="#FF9211"/>
<stop offset="1" stop-color="#FFAC4A"/>
</linearGradient>
<linearGradient id="paint2_linear_292_9" x1="281.905" y1="365.643" x2="281.905" y2="567" gradientUnits="userSpaceOnUse">
<stop stop-color="#FF9211"/>
<stop offset="1" stop-color="#FFAC4A"/>
</linearGradient>
<linearGradient id="paint3_linear_292_9" x1="283.502" y1="0" x2="283.502" y2="183.89" gradientUnits="userSpaceOnUse">
<stop stop-color="#FF9211"/>
<stop offset="1" stop-color="#FFAC4A"/>
</linearGradient>
<linearGradient id="paint4_linear_292_9" x1="283.455" y1="193.225" x2="283.455" y2="362.049" gradientUnits="userSpaceOnUse">
<stop stop-color="#FF9211"/>
<stop offset="1" stop-color="#FFAC4A"/>
</linearGradient>
<clipPath id="clip0_292_9">
<rect width="567" height="567" fill="white"/>
</clipPath>
</defs>
</svg>
