<svg width="82" height="73" viewBox="0 0 82 73" fill="none" xmlns="http://www.w3.org/2000/svg">
<g clip-path="url(#clip0_772_4014)">
<path d="M41 29.8C41 20.4191 41 15.7287 39.1591 12.1457C37.5399 8.99395 34.9563 6.43153 31.7785 4.82562C28.1658 3 23.4364 3 13.9778 3H9.75556C7.3909 3 6.20855 3 5.30538 3.4564C4.51092 3.85789 3.86501 4.4985 3.46018 5.28642C3 6.18217 3 7.35479 3 9.7V54.925C3 57.2704 3 58.4429 3.46018 59.3386C3.86501 60.1267 4.51092 60.767 5.30538 61.1686C6.20855 61.625 7.3909 61.625 9.75556 61.625H22.1971C24.4779 61.625 25.6183 61.625 26.721 61.8201C27.6998 61.9931 28.6546 62.2795 29.5658 62.6744C30.5924 63.1187 31.5413 63.746 33.4388 65.001L41 70M41 29.8C41 20.4191 41 15.7287 42.8409 12.1457C44.4601 8.99395 47.0437 6.43153 50.2213 4.82562C53.8343 3 58.5636 3 68.0222 3H72.2444C74.6093 3 75.7915 3 76.6947 3.4564C77.4893 3.85789 78.1349 4.4985 78.5398 5.28642C79 6.18217 79 7.35479 79 9.7V54.925C79 57.2704 79 58.4429 78.5398 59.3386C78.1349 60.1267 77.4893 60.767 76.6947 61.1686C75.7915 61.625 74.6093 61.625 72.2444 61.625H59.8028C57.522 61.625 56.3816 61.625 55.2791 61.8201C54.3 61.9931 53.3454 62.2795 52.4342 62.6744C51.4078 63.1187 50.4586 63.746 48.5612 65.001L41 70" fill="url(#paint0_linear_772_4014)"/>
<path d="M41 29.8V70M41 29.8C41 20.4191 41 15.7287 39.1591 12.1457C37.5399 8.99395 34.9563 6.43153 31.7785 4.82562C28.1658 3 23.4364 3 13.9778 3H9.75556C7.3909 3 6.20855 3 5.30538 3.4564C4.51092 3.85789 3.86501 4.4985 3.46018 5.28642C3 6.18217 3 7.35479 3 9.7V54.925C3 57.2704 3 58.4429 3.46018 59.3386C3.86501 60.1267 4.51092 60.767 5.30538 61.1686C6.20855 61.625 7.3909 61.625 9.75556 61.625H22.1971C24.4779 61.625 25.6183 61.625 26.721 61.8201C27.6998 61.9931 28.6546 62.2795 29.5658 62.6744C30.5924 63.1187 31.5413 63.746 33.4388 65.001L41 70M41 29.8C41 20.4191 41 15.7287 42.8409 12.1457C44.4601 8.99395 47.0437 6.43153 50.2213 4.82562C53.8343 3 58.5636 3 68.0222 3H72.2444C74.6093 3 75.7915 3 76.6947 3.4564C77.4893 3.85789 78.1349 4.4985 78.5398 5.28642C79 6.18217 79 7.35479 79 9.7V54.925C79 57.2704 79 58.4429 78.5398 59.3386C78.1349 60.1267 77.4893 60.767 76.6947 61.1686C75.7915 61.625 74.6093 61.625 72.2444 61.625H59.8028C57.522 61.625 56.3816 61.625 55.2791 61.8201C54.3 61.9931 53.3454 62.2795 52.4342 62.6744C51.4078 63.1187 50.4586 63.746 48.5612 65.001L41 70" stroke="url(#paint1_linear_772_4014)" stroke-width="5" stroke-linecap="round" stroke-linejoin="round"/>
</g>
<defs>
<linearGradient id="paint0_linear_772_4014" x1="41" y1="3" x2="41" y2="70" gradientUnits="userSpaceOnUse">
<stop stop-color="#E4E4E4"/>
<stop offset="1" stop-color="#C8A75B"/>
</linearGradient>
<linearGradient id="paint1_linear_772_4014" x1="41" y1="2.99994" x2="41" y2="70" gradientUnits="userSpaceOnUse">
<stop stop-color="#F89B19"/>
<stop offset="1" stop-color="#DC9E2B"/>
</linearGradient>
<clipPath id="clip0_772_4014">
<rect width="82" height="73" fill="white"/>
</clipPath>
</defs>
</svg>
