<svg width="127" height="125" viewBox="0 0 127 125" fill="none" xmlns="http://www.w3.org/2000/svg">
<g clip-path="url(#clip0_274_978)">
<mask id="mask0_274_978" style="mask-type:luminance" maskUnits="userSpaceOnUse" x="0" y="0" width="127" height="125">
<path d="M126.5 0H0.5V125H126.5V0Z" fill="white"/>
</mask>
<g mask="url(#mask0_274_978)">
<path d="M116.488 9.57129H10.4883V117.571H116.488V9.57129Z" fill="#110000"/>
<path fill-rule="evenodd" clip-rule="evenodd" d="M62.6008 90.7C62.6008 94.15 59.8008 96.95 56.3508 96.95C52.9008 96.95 50.1008 94.15 50.1008 90.7C50.1008 87.25 52.9008 84.45 56.3508 84.45C59.8008 84.45 62.6008 87.25 62.6008 90.7ZM37.6007 31.25C37.6007 27.8 40.4008 25 43.8508 25H79.5383C84.757 25 88.9883 29.2312 88.9883 34.45V50C88.9883 56.875 83.3633 62.5 76.4883 62.5H67.1696C65.4133 62.5 63.9883 63.925 63.9883 65.6813V71.95C63.9883 75.4 61.1945 78.2 57.7383 78.2C54.2883 78.2 51.4883 75.4 51.4883 71.95V61.1126C51.4883 54.9751 56.4633 50 62.6008 50H68.8508C72.3008 50 75.1008 47.2 75.1008 43.75C75.1008 40.3 72.3008 37.5 68.8508 37.5H43.8508C40.4008 37.5 37.6007 34.7 37.6007 31.25ZM107.738 112.5H20.2382C16.7882 112.5 13.9883 109.7 13.9883 106.25V18.75C13.9883 15.3 16.7882 12.5 20.2382 12.5H107.738C111.195 12.5 113.988 15.3 113.988 18.75V106.25C113.988 109.7 111.195 112.5 107.738 112.5ZM1.48828 12.5V112.5C1.48828 119.406 7.08832 125 13.9883 125H113.988C120.895 125 126.488 119.406 126.488 112.5V12.5C126.488 5.6 120.895 0 113.988 0H13.9883C7.08832 0 1.48828 5.6 1.48828 12.5Z" fill="#FF9211"/>
</g>
</g>
<defs>
<clipPath id="clip0_274_978">
<rect width="126" height="125" fill="white" transform="translate(0.5)"/>
</clipPath>
</defs>
</svg>
