<svg width="52" height="37" viewBox="0 0 52 37" fill="none" xmlns="http://www.w3.org/2000/svg">
<g clip-path="url(#clip0_274_985)">
<mask id="mask0_274_985" style="mask-type:luminance" maskUnits="userSpaceOnUse" x="0" y="0" width="52" height="37">
<path d="M51.5 0H0.5V37H51.5V0Z" fill="white"/>
</mask>
<g mask="url(#mask0_274_985)">
<path d="M46.2504 0H41.5176L11.543 22.8037L17.8534 27.8711L46.2504 3.80061V0Z" fill="#CCC9C4"/>
<path d="M46.2515 0L14.6992 25.3374L17.8544 27.8711L46.2515 3.80061V0Z" fill="#AFAAA3"/>
<path d="M8.38672 22.8048L17.852 30.4057L19.4293 29.139L9.96408 21.5381L8.38672 22.8048Z" fill="#CCC9C4"/>
<path d="M0.5 29.1388L9.96526 36.7397L11.5426 35.473L2.07736 27.8721L0.5 29.1388Z" fill="#CCC9C4"/>
<path d="M10.7559 24.7031L4.44531 29.7707L9.1785 33.5716L15.4891 28.504L10.7559 24.7031Z" fill="#AFAAA3"/>
<path d="M5.23438 0V3.80061L33.6314 27.8711L39.9418 22.8037L9.96721 0H5.23438Z" fill="#E5E4E1"/>
<path d="M33.6282 30.4047L43.0935 22.8038L41.5161 21.5371L32.0508 29.138L33.6282 30.4047Z" fill="#E5E4E1"/>
<path d="M41.5188 36.7387L50.9841 29.1378L49.4067 27.8711L39.9414 35.472L41.5188 36.7387Z" fill="#E5E4E1"/>
<path d="M5.23438 0L36.7866 25.3374L39.9418 22.8037L9.96721 0H5.23438Z" fill="#FBAB4C"/>
<path d="M35.9941 28.505L42.3047 33.5726L47.0379 29.7717L40.7273 24.7041L35.9941 28.505Z" fill="#CCC9C4"/>
<path d="M15.4867 28.5047L10.7539 24.7041V32.3053L15.4867 28.5047Z" fill="#99948D"/>
<path d="M40.7289 24.7041L35.9961 28.5047L40.7289 32.3053V24.7041Z" fill="#AFAAA3"/>
<path d="M20.0312 26.0241L25.7407 21.1847L22.8836 18.7637L20.0312 21.0542V26.0241Z" fill="#99948D"/>
<path d="M22.8836 18.7642L20.0312 16.3457V21.0547L22.8836 18.7642Z" fill="#AFAAA3"/>
<path d="M22.8836 18.7642L20.0312 16.3457V21.0547L22.8836 18.7642Z" fill="#AFAAA3"/>
</g>
</g>
<defs>
<clipPath id="clip0_274_985">
<rect width="51" height="37" fill="white" transform="translate(0.5)"/>
</clipPath>
</defs>
</svg>
