<svg width="35" height="34" viewBox="0 0 35 34" fill="none" xmlns="http://www.w3.org/2000/svg">
<g clip-path="url(#clip0_274_1005)">
<mask id="mask0_274_1005" style="mask-type:luminance" maskUnits="userSpaceOnUse" x="0" y="0" width="35" height="34">
<path d="M34.5 0H0.5V34H34.5V0Z" fill="white"/>
</mask>
<g mask="url(#mask0_274_1005)">
<path fill-rule="evenodd" clip-rule="evenodd" d="M30.25 12.75H21.75V4.25C21.75 1.90188 19.8471 0 17.5 0C15.1529 0 13.25 1.90188 13.25 4.25V12.75H4.75C2.40294 12.75 0.5 14.6519 0.5 17C0.5 19.3481 2.40294 21.25 4.75 21.25H13.25V29.75C13.25 32.0981 15.1529 34 17.5 34C19.8471 34 21.75 32.0981 21.75 29.75V21.25H30.25C32.5971 21.25 34.5 19.3481 34.5 17C34.5 14.6519 32.5971 12.75 30.25 12.75Z" fill="#E59121"/>
</g>
</g>
<defs>
<clipPath id="clip0_274_1005">
<rect width="34" height="34" fill="white" transform="translate(0.5)"/>
</clipPath>
</defs>
</svg>
