<svg width="28" height="35" viewBox="0 0 28 35" fill="none" xmlns="http://www.w3.org/2000/svg">
<g clip-path="url(#clip0_274_1119)">
<mask id="mask0_274_1119" style="mask-type:luminance" maskUnits="userSpaceOnUse" x="0" y="0" width="28" height="35">
<path d="M27.5 0H0.5V35H27.5V0Z" fill="white"/>
</mask>
<g mask="url(#mask0_274_1119)">
<path fill-rule="evenodd" clip-rule="evenodd" d="M16.1939 1.37841C15.0045 0.0977796 12.9952 0.0978304 11.806 1.37851C10.3511 2.94519 7.66592 5.98465 5.33492 9.4508C3.00899 12.9094 0.849241 16.8485 0.887212 21.1271C0.890558 21.5055 0.910692 22.0366 0.97666 22.6703C1.10769 23.9289 1.42416 25.637 2.18136 27.368C2.9419 29.1066 4.16251 30.9008 6.10972 32.2553C8.06577 33.6161 10.6481 34.4585 13.9999 34.4585C17.3518 34.4585 19.9341 33.6161 21.8903 32.2553C23.8374 30.9008 25.0583 29.1067 25.819 27.3682C26.5762 25.6372 26.8929 23.9289 27.0239 22.6703C27.0899 22.0368 27.1101 21.5057 27.1135 21.1272C27.1517 16.8486 24.9914 12.9092 22.6655 9.4507C20.3342 5.98454 17.6489 2.94509 16.1939 1.37841ZM7.89349 11.1715C10.0626 7.94602 12.5816 5.07895 13.9999 3.54715C15.4184 5.07894 17.9376 7.94601 20.1069 11.1715C22.0712 14.092 24.0627 17.4701 24.0303 21.0996C24.0277 21.3956 24.0117 21.8282 23.9572 22.3508C23.8475 23.4047 23.5858 24.7799 22.9942 26.1322C22.4057 27.477 21.5066 28.7663 20.1294 29.7242C18.7614 30.676 16.8148 31.3751 13.9999 31.3751C11.185 31.3751 9.23862 30.676 7.87052 29.7242C6.49356 28.7663 5.59451 27.477 5.00624 26.1322C4.41462 24.7799 4.15312 23.4049 4.0434 22.351C3.989 21.8282 3.97304 21.3958 3.97042 21.0998C3.93823 17.4702 5.92928 14.0922 7.89349 11.1715Z" fill="#E59121"/>
</g>
</g>
<defs>
<clipPath id="clip0_274_1119">
<rect width="27" height="35" fill="white" transform="translate(0.5)"/>
</clipPath>
</defs>
</svg>
