<svg width="83" height="82" viewBox="0 0 83 82" fill="none" xmlns="http://www.w3.org/2000/svg">
<g clip-path="url(#clip0_274_1133)">
<mask id="mask0_274_1133" style="mask-type:luminance" maskUnits="userSpaceOnUse" x="0" y="0" width="83" height="82">
<path d="M82.5 0H0.5V82H82.5V0Z" fill="white"/>
</mask>
<g mask="url(#mask0_274_1133)">
<path d="M41.1758 81.3516C63.6404 81.3516 81.8516 63.1404 81.8516 40.6758C81.8516 18.2112 63.6404 0 41.1758 0C18.7112 0 0.5 18.2112 0.5 40.6758C0.5 63.1404 18.7112 81.3516 41.1758 81.3516Z" fill="url(#paint0_radial_274_1133)"/>
<path d="M66.5206 17.5225H60.5972L23.082 46.0627L30.98 52.4049L66.5206 22.2792V17.5225Z" fill="#CCC9C4"/>
<path d="M66.5248 17.5225L27.0352 49.2338L30.9841 52.4049L66.5248 22.2792V17.5225Z" fill="#AFAAA3"/>
<path d="M19.1338 46.0639L30.9802 55.5768L32.9543 53.9915L21.108 44.4785L19.1338 46.0639Z" fill="#CCC9C4"/>
<path d="M9.2627 53.9906L21.1091 63.5036L23.0832 61.9183L11.2369 52.4053L9.2627 53.9906Z" fill="#CCC9C4"/>
<path d="M22.0973 48.4395L14.1992 54.7818L20.1231 59.5389L28.0212 53.1965L22.0973 48.4395Z" fill="#AFAAA3"/>
<path d="M15.1875 17.5225V22.2792L50.7281 52.4049L58.6261 46.0627L21.1109 17.5225H15.1875Z" fill="#E5E4E1"/>
<path d="M50.7241 55.5758L62.5705 46.0628L60.5963 44.4775L48.75 53.9905L50.7241 55.5758Z" fill="#E5E4E1"/>
<path d="M60.603 63.5027L72.4494 53.9897L70.4753 52.4043L58.6289 61.9173L60.603 63.5027Z" fill="#E5E4E1"/>
<path d="M15.1875 17.5225L54.6771 49.2338L58.6261 46.0627L21.1109 17.5225H15.1875Z" fill="#FDF3C0"/>
<path d="M53.6836 53.1984L61.5816 59.5408L67.5055 54.7838L59.6075 48.4414L53.6836 53.1984Z" fill="#CCC9C4"/>
<path d="M28.0211 53.1971L22.0977 48.4404V57.9538L28.0211 53.1971Z" fill="#99948D"/>
<path d="M59.6109 48.4404L53.6875 53.1971L59.6109 57.9538V48.4404Z" fill="#AFAAA3"/>
<path d="M33.707 50.0937L40.8527 44.0369L37.2769 41.0068L33.707 43.8735V50.0937Z" fill="#99948D"/>
<path d="M37.2691 41.0063L33.6992 37.9795V43.873L37.2691 41.0063Z" fill="#AFAAA3"/>
<path d="M37.2691 41.0063L33.6992 37.9795V43.873L37.2691 41.0063Z" fill="#AFAAA3"/>
</g>
</g>
<defs>
<radialGradient id="paint0_radial_274_1133" cx="0" cy="0" r="1" gradientUnits="userSpaceOnUse" gradientTransform="translate(41.1758 40.6758) rotate(90) scale(40.6758)">
<stop stop-color="#72490F"/>
<stop offset="1" stop-color="#FF9211"/>
</radialGradient>
<clipPath id="clip0_274_1133">
<rect width="82" height="82" fill="white" transform="translate(0.5)"/>
</clipPath>
</defs>
</svg>
