<svg width="153" height="153" viewBox="0 0 153 153" fill="none" xmlns="http://www.w3.org/2000/svg">
<path d="M23.1133 16.1438H52.6804V36.2137H23.1133V16.1438Z" fill="#A86B07"/>
<path d="M141.002 153C147.628 153 152.999 145.462 152.999 136.164C152.999 126.866 147.628 119.328 141.002 119.328C134.375 119.328 129.004 126.866 129.004 136.164C129.004 145.462 134.375 153 141.002 153Z" fill="url(#paint0_linear_684_62)"/>
<path d="M140.999 119.328H134.395C134.395 119.328 134.446 34.9361 134.446 20.6955C134.446 6.45485 124.743 0 121.16 0H23.1133C23.1133 0 35.9907 1.61038 36.1565 20.6955C36.2712 34.2839 36.1565 104.276 36.1565 126.648C36.1565 149.021 44.2782 152.987 44.2782 152.987H140.387C140.476 152.987 140.566 152.973 140.655 152.96C140.77 152.96 140.884 152.987 140.999 152.987C147.629 152.987 152.997 145.454 152.997 136.151C152.997 126.874 147.629 119.328 140.999 119.328Z" fill="#FAAC2E"/>
<path d="M140.999 119.328H134.395C134.395 119.328 134.446 34.9361 134.446 20.6955C134.446 6.45485 124.743 0 121.16 0H23.1133C23.1133 0 35.9907 1.61038 36.1565 20.6955C36.2712 34.2839 36.1565 104.276 36.1565 126.648C36.1565 149.021 44.2782 152.987 44.2782 152.987H140.387C140.476 152.987 140.566 152.973 140.655 152.96C140.77 152.96 140.884 152.987 140.999 152.987C147.629 152.987 152.997 145.454 152.997 136.151C152.997 126.874 147.629 119.328 140.999 119.328Z" fill="url(#paint1_linear_684_62)"/>
<path d="M36.0312 125.411L36.146 113.299C36.146 113.299 112.046 121.897 134.371 94.5071V125.104L36.0312 125.411Z" fill="#C89749"/>
<g opacity="0.6">
<path opacity="0.77" d="M52.9375 31.3823C54.4292 31.3823 55.9337 31.3557 57.4255 31.3823C58.5602 31.409 59.6185 31.5687 60.7787 31.4489C62.0282 31.3158 63.2777 31.0629 64.5527 31.1029C66.1082 31.1561 67.5999 31.6485 69.1682 31.6485C69.9331 31.6485 70.6216 31.4223 71.3739 31.3823C72.2409 31.3424 73.1079 31.3823 73.9749 31.3823H79.4573" stroke="white" stroke-width="1.40859" stroke-miterlimit="10" stroke-linecap="round"/>
<path opacity="0.77" d="M95.6406 31.3826C96.5714 31.3826 97.5404 31.4624 98.4584 31.316C99.8863 31.0898 101.251 30.4776 102.742 30.6107C104.336 30.7571 105.688 31.7286 107.256 31.9815C109.793 32.3674 112.177 30.7837 114.74 30.5308C115.556 30.451 116.372 30.5042 117.188 30.5707C119.037 30.7304 120.86 30.97 122.683 31.2761" stroke="white" stroke-width="1.40859" stroke-miterlimit="10" stroke-linecap="round"/>
<path opacity="0.77" d="M52.9375 62.5388C54.2125 62.5388 55.5385 62.6719 56.8007 62.5388C58.573 62.3525 60.2815 61.7003 62.1047 61.7935C63.9407 61.8866 65.6237 62.7251 67.4214 63.0578C69.8949 63.497 72.3811 62.9514 74.8291 62.6186C77.4429 62.2593 79.9291 62.5521 82.5556 62.5521H92.373" stroke="white" stroke-width="1.40859" stroke-miterlimit="10" stroke-linecap="round"/>
<path opacity="0.77" d="M105.531 62.5388C106.475 62.5388 107.418 62.5255 108.362 62.5388C109.955 62.5654 111.141 62.033 112.658 61.7269C114.813 61.2877 116.968 61.9798 119.097 62.2061C120.665 62.3658 122.31 62.5521 123.878 62.5388" stroke="white" stroke-width="1.40859" stroke-miterlimit="10" stroke-linecap="round"/>
<path opacity="0.77" d="M82.3125 93.7485C84.021 93.7485 85.806 93.6287 87.4762 93.8683C90.3705 94.2942 92.8057 93.3493 95.6489 93.0431C98.3137 92.7503 100.978 93.3093 103.656 93.5356C106.435 93.7751 109.228 93.6687 112.02 93.5622C114.914 93.4557 117.808 93.7352 120.728 93.7352" stroke="white" stroke-width="1.40859" stroke-miterlimit="10" stroke-linecap="round"/>
<path opacity="0.77" d="M51.7422 93.7483C54.2412 93.7483 56.7019 94.2407 59.2009 94.0544C60.0424 93.9879 60.8839 93.8681 61.7381 93.8281C63.4339 93.735 65.1424 94.1343 66.8126 93.9346C67.9218 93.8015 68.9801 93.7483 70.1021 93.7483" stroke="white" stroke-width="1.40859" stroke-miterlimit="10" stroke-linecap="round"/>
<path opacity="0.77" d="M82.3125 15.9175C84.021 15.9175 85.806 15.7977 87.4762 16.0372C90.3705 16.4631 92.8057 15.5182 95.6489 15.2121C98.3137 14.9193 100.978 15.4783 103.656 15.7045C106.435 15.9441 109.228 15.8376 112.02 15.7311C114.914 15.6247 117.808 15.9042 120.728 15.9042" stroke="white" stroke-width="1.40859" stroke-miterlimit="10" stroke-linecap="round"/>
<path opacity="0.77" d="M51.7422 15.9175C54.2412 15.9175 56.7019 16.4099 59.2009 16.2236C60.0424 16.157 60.8839 16.0373 61.7381 15.9973C63.4339 15.9042 65.1424 16.3034 66.8126 16.1038C67.9218 15.9707 68.9801 15.9175 70.1021 15.9175" stroke="white" stroke-width="1.40859" stroke-miterlimit="10" stroke-linecap="round"/>
<path opacity="0.77" d="M52.9375 47.0471C54.1615 47.0471 55.3472 47.1003 56.5457 47.1935C58.6877 47.3532 60.6767 46.3417 62.7549 46.1154C65.3687 45.836 67.9442 46.7143 70.5324 47.1136C73.0951 47.5129 75.6961 47.2733 78.2716 47.1136C79.4446 47.0338 80.6686 46.9273 81.8416 46.9539C83.1038 46.9805 84.3023 47.3931 85.5646 47.3798C87.1838 47.3665 88.6755 46.6212 90.2693 46.3683C93.8138 45.796 97.3455 47.6593 100.928 47.4064C102.101 47.3266 103.236 47.0205 104.396 46.9007C105.824 46.7543 107.265 46.8874 108.693 47.0205L115.042 47.6194" stroke="white" stroke-width="1.40859" stroke-miterlimit="10" stroke-linecap="round"/>
<path opacity="0.77" d="M52.9375 78.177C54.1615 78.177 55.3472 78.2302 56.5457 78.3234C58.6877 78.4831 60.6767 77.4716 62.7549 77.2453C65.3687 76.9658 67.9442 77.8442 70.5324 78.2435C73.0951 78.6428 75.6961 78.4032 78.2716 78.2435C79.4446 78.1636 80.6686 78.0572 81.8416 78.0838C83.1038 78.1104 84.3023 78.523 85.5646 78.5097C87.1838 78.4964 88.6755 77.7511 90.2693 77.4982C93.8138 76.9259 97.3455 78.7892 100.928 78.5363C102.101 78.4564 103.236 78.1503 104.396 78.0306C105.824 77.8842 107.265 78.0172 108.693 78.1503L115.042 78.7492" stroke="white" stroke-width="1.40859" stroke-miterlimit="10" stroke-linecap="round"/>
<path opacity="0.77" d="M69.3477 109.267C70.0107 109.28 70.6099 109.12 71.2601 109.094C72.2036 109.04 73.1344 109.32 74.0651 109.466C76.2964 109.812 78.6296 109.985 80.8481 109.48C82.0976 109.187 83.2833 108.694 84.5583 108.508C87.7585 108.029 90.9205 109.52 94.1718 109.506C96.9767 109.48 99.9857 108.149 102.752 108.921C104.563 109.413 106.424 109.293 108.337 109.293" stroke="white" stroke-width="1.40859" stroke-miterlimit="10" stroke-linecap="round"/>
</g>
<path d="M43.668 119.328V127.54H151.29C149.199 122.629 145.374 119.328 141.001 119.328H43.668Z" fill="#BF8F40"/>
<path d="M44.2789 153C50.9051 153 56.2766 145.462 56.2766 136.164C56.2766 126.866 50.9051 119.328 44.2789 119.328C37.6528 119.328 32.2812 126.866 32.2812 136.164C32.2812 145.462 37.6528 153 44.2789 153Z" fill="url(#paint2_linear_684_62)"/>
<path d="M53.1799 135.286C53.1799 142.379 48.9214 146.399 44.357 147.703C38.4792 149.38 36.0312 147.916 36.0312 147.916V122.655C36.0312 122.655 40.175 121.564 44.5992 122.868C49.1127 124.186 53.1799 128.192 53.1799 135.286Z" fill="#2B292F"/>
<path d="M37.5875 148.129C42.3194 148.129 46.1554 142.379 46.1554 135.286C46.1554 128.193 42.3194 122.443 37.5875 122.443C32.8555 122.443 29.0195 128.193 29.0195 135.286C29.0195 142.379 32.8555 148.129 37.5875 148.129Z" fill="#2B292F"/>
<path d="M37.5875 148.142C42.3194 148.142 46.1554 142.392 46.1554 135.299C46.1554 128.206 42.3194 122.456 37.5875 122.456C32.8555 122.456 29.0195 128.206 29.0195 135.299C29.0195 142.392 32.8555 148.142 37.5875 148.142Z" fill="#2B292F"/>
<path d="M26.5966 141.288C29.7372 141.288 32.2831 138.607 32.2831 135.299C32.2831 131.991 29.7372 129.31 26.5966 129.31C23.4561 129.31 20.9102 131.991 20.9102 135.299C20.9102 138.607 23.4561 141.288 26.5966 141.288Z" fill="url(#paint3_linear_684_62)"/>
<path d="M36.9985 131.652C38.6178 132.171 40.594 135.752 37.228 139.185C36.3738 140.05 37.2535 141.967 37.84 143.577C38.5795 145.627 39.115 146.731 40.8235 145.507C43.1185 143.883 45.2987 139.238 45.2987 135.299C45.2987 128.924 41.8435 123.747 37.585 123.747C35.392 123.747 33.6835 124.479 32.2428 127.58C31.6053 128.964 31.5416 130.734 33.5688 130.947C33.5688 130.96 35.8383 131.293 36.9985 131.652Z" fill="url(#paint4_linear_684_62)"/>
<path d="M23.3842 36.1206C30.4892 36.1206 36.2489 28.0347 36.2489 18.0603C36.2489 8.08586 30.4892 0 23.3842 0C16.2792 0 10.5195 8.08586 10.5195 18.0603C10.5195 28.0347 16.2792 36.1206 23.3842 36.1206Z" fill="url(#paint5_linear_684_62)"/>
<path d="M32.2854 17.1821C32.2854 24.2758 28.0269 28.2951 23.4624 29.5994C17.5847 31.2763 15.1367 29.8123 15.1367 29.8123V4.55187C15.1367 4.55187 19.2804 3.46054 23.7047 4.76482C28.2054 6.0691 32.2854 10.0884 32.2854 17.1821Z" fill="#2B292F"/>
<path d="M16.689 30.0252C21.421 30.0252 25.257 24.2751 25.257 17.182C25.257 10.0889 21.421 4.33887 16.689 4.33887C11.9571 4.33887 8.12109 10.0889 8.12109 17.182C8.12109 24.2751 11.9571 30.0252 16.689 30.0252Z" fill="#2B292F"/>
<path d="M16.689 30.0386C21.421 30.0386 25.257 24.2885 25.257 17.1955C25.257 10.1024 21.421 4.35229 16.689 4.35229C11.9571 4.35229 8.12109 10.1024 8.12109 17.1955C8.12109 24.2885 11.9571 30.0386 16.689 30.0386Z" fill="#2B292F"/>
<path d="M5.68647 23.1844C8.82701 23.1844 11.3729 20.503 11.3729 17.1953C11.3729 13.8877 8.82701 11.2063 5.68647 11.2063C2.54592 11.2063 0 13.8877 0 17.1953C0 20.503 2.54592 23.1844 5.68647 23.1844Z" fill="url(#paint6_linear_684_62)"/>
<path d="M16.0923 13.5488C17.7115 14.0679 19.6878 17.648 16.3218 21.0817C15.4675 21.9468 16.3473 23.8633 16.9338 25.4737C17.6733 27.5233 18.2088 28.6279 19.9173 27.4035C22.2122 25.7798 24.3925 21.135 24.3925 17.1955C24.3925 10.8205 20.9372 5.64331 16.6788 5.64331C14.4858 5.64331 12.7773 6.3753 11.3366 9.4763C10.6991 10.8604 10.6353 12.6305 12.6625 12.8435C12.6625 12.8568 14.9448 13.1762 16.0923 13.5488Z" fill="url(#paint7_linear_684_62)"/>
<defs>
<linearGradient id="paint0_linear_684_62" x1="141.002" y1="119.328" x2="141.002" y2="153" gradientUnits="userSpaceOnUse">
<stop stop-color="#F6C57F"/>
<stop offset="1" stop-color="#F9A42B"/>
</linearGradient>
<linearGradient id="paint1_linear_684_62" x1="88.055" y1="0" x2="88.055" y2="152.987" gradientUnits="userSpaceOnUse">
<stop stop-color="#FAAC2E"/>
<stop offset="1" stop-color="#B36F01"/>
</linearGradient>
<linearGradient id="paint2_linear_684_62" x1="44.2789" y1="119.328" x2="44.2789" y2="153" gradientUnits="userSpaceOnUse">
<stop stop-color="#F6C57F"/>
<stop offset="1" stop-color="#F9A42B"/>
</linearGradient>
<linearGradient id="paint3_linear_684_62" x1="26.5966" y1="129.31" x2="26.5966" y2="141.288" gradientUnits="userSpaceOnUse">
<stop stop-color="#EE5501"/>
<stop offset="1" stop-color="#883101"/>
</linearGradient>
<linearGradient id="paint4_linear_684_62" x1="38.5732" y1="123.747" x2="38.5732" y2="146.018" gradientUnits="userSpaceOnUse">
<stop stop-color="#EE5501"/>
<stop offset="1" stop-color="#883101"/>
</linearGradient>
<linearGradient id="paint5_linear_684_62" x1="23.3842" y1="0" x2="23.3842" y2="36.1206" gradientUnits="userSpaceOnUse">
<stop stop-color="#F6C57F"/>
<stop offset="1" stop-color="#F9A42B"/>
</linearGradient>
<linearGradient id="paint6_linear_684_62" x1="5.68647" y1="11.2063" x2="5.68647" y2="23.1844" gradientUnits="userSpaceOnUse">
<stop stop-color="#EE5501"/>
<stop offset="1" stop-color="#883101"/>
</linearGradient>
<linearGradient id="paint7_linear_684_62" x1="17.6669" y1="5.64331" x2="17.6669" y2="27.9149" gradientUnits="userSpaceOnUse">
<stop stop-color="#EE5501"/>
<stop offset="1" stop-color="#883101"/>
</linearGradient>
</defs>
</svg>
