<svg width="854" height="955" viewBox="0 0 854 955" fill="none" xmlns="http://www.w3.org/2000/svg">
<path d="M644.9 238.328C630.359 228.09 618.152 215.916 608.711 200.766C590.872 172.047 585.202 137.407 592.953 104.499C601.175 70.1159 622.921 40.5046 653.267 22.3691C683.958 3.62295 722.153 -4.84315 757.46 3.76365C790.687 11.7762 819.361 32.681 837.152 61.8649C851.198 85.3438 858.223 117.146 851.337 144.06C849.058 152.964 842.892 166.89 834.484 171.52C833.182 172.237 831.54 172.713 830.089 172.124C828.81 171.605 827.588 170.165 827.219 168.86C826.065 164.781 826.33 159.908 826.157 155.672C825.673 143.827 824.784 132.832 820.433 121.656C811.974 99.8919 795.193 82.3949 773.801 73.0359C754.444 64.5156 732.465 64.19 712.865 72.1331C693.58 79.8568 678.47 95.6328 670.405 114.653C663.623 130.65 662.076 150.037 668.856 166.295C675.501 182.229 687.363 190.935 702.898 197.218C703.144 197.329 703.392 197.436 703.637 197.549C708.421 199.75 712.698 203.469 717.375 205.985C733.865 214.855 750.918 213.383 768.402 208.617C773.567 214.531 776.225 220.831 775.736 228.829C775.126 238.81 770.177 248.31 762.668 254.843C754.175 262.233 743.203 264.689 732.367 266.158C729.748 277.359 723.364 284.458 714.222 291.129C717.348 297.85 717.98 304.261 715.439 311.333C712.825 318.607 707.549 324.124 700.515 327.288C697.89 328.469 695.041 329.174 692.245 329.811C690.418 333.856 688.657 337.899 687.039 342.033C709.585 353.753 734.042 370.277 742.129 395.691C747.244 411.767 744.08 428.328 736.368 443.056C729.104 456.927 718.651 466.653 705.902 475.417C714.248 482.696 717.138 488.818 719.273 499.612C725.533 504.57 731.101 510.402 736.71 516.073C757.857 537.458 778.25 561.865 789.758 589.973C791.413 594.016 793.582 598.977 794.091 603.351C794.108 603.498 794.111 603.647 794.12 603.794C806.328 606.664 816.148 613.149 822.835 623.923C830.171 635.743 833.128 650.686 829.751 664.29C828.563 669.054 826.597 673.59 823.932 677.715C821.758 680.302 819.649 682.696 817.102 684.921L816.521 685.436L816.168 685.741C806.738 693.595 795.38 698.075 782.963 696.907C781.066 696.73 779.18 696.45 777.313 696.068C776.288 694.869 774.477 694.09 773.024 693.563C771.389 692.97 770.194 692.645 768.642 693.413L762.657 690.051C771.85 718.281 774.531 748.396 768.828 777.641C763.612 804.392 750.254 833.185 729.655 851.541C722.835 857.619 714.221 862.117 707.779 868.402C704.59 871.514 702.187 875.601 699.244 878.982C690.556 888.929 680.611 897.704 669.66 905.087C612.925 943.441 536.307 947.323 471.008 934.679C462.376 937.906 453.779 941.089 444.878 943.504C401.991 955.143 355.185 956.055 311.193 951.532C265.579 946.842 218.816 935.934 178.413 913.601C171.991 910.051 165.39 906.173 159.434 901.892C154.791 898.555 150.373 893.858 145.236 891.365C139.268 888.469 131.334 887.623 124.9 885.651C102 878.633 80.8714 866.057 65.7094 847.261C48.8934 826.415 37.6364 797.871 40.5964 770.819C22.1774 741.855 15.9454 715.258 19.8174 681.149C26.0894 625.903 54.0694 594.73 92.6544 558.244C103.594 547.898 114.345 536.688 126.12 527.312C126.045 526.983 125.967 526.655 125.895 526.325C123.607 515.8 125.446 508.269 131.293 499.261C118.464 487.518 108.885 475.526 105.256 458.247C104.095 457.602 103.003 456.907 101.934 456.116C87.8094 445.658 76.4544 416.222 73.8974 399.206C73.3894 395.822 72.9044 391.284 75.3164 388.468C76.6344 386.929 78.3934 386.352 80.3244 385.911C84.4534 384.969 89.0104 384.952 93.2334 384.622C101.838 383.95 110.531 383.438 119.081 382.266C121.619 379.653 124.189 377.072 126.792 374.524C128.173 376.762 129.289 379.086 130.418 381.456C134.317 381.672 139.153 380.243 143.047 379.53C145.05 379.256 147.087 379.121 149.101 378.93L161.688 355.925L164.416 351.761C167.786 349.784 170.37 350.098 174.093 351.067C183.39 353.487 195.946 360.638 205.277 360.142L205.813 359.902C208.847 357.389 211.703 356.965 215.542 356.964L215.664 353.946C214.936 350.772 214.144 347.676 213.146 344.575C211.941 340.158 209.41 335.393 208.951 330.899C211.381 329.556 213.875 328.377 216.383 327.189L222.876 323.99C223.56 285.086 240.187 244.813 264.395 214.692C295.862 175.653 341.559 150.725 391.418 145.401C438.632 140.251 485.848 151.339 523.172 181.437C569.789 219.03 594.719 256.363 601.2 316.698C602.652 316.983 603.917 317.35 605.305 317.861C610.875 319.03 616.255 321.204 621.555 323.239C623.8 318.178 625.937 313.043 628.659 308.214C625.56 303.928 623.107 299.216 621.878 294.048C619.942 285.906 621.069 276.603 625.677 269.518C629.782 263.205 635.621 260.228 642.795 258.821C642.085 251.372 642.75 245.482 644.9 238.328Z" fill="#3E200B"/>
<path d="M364.132 193.114C369.119 191.796 374.784 190.979 379.918 190.46C383.446 190.103 386.969 190.483 390.499 190.316C397.532 189.982 412.066 187.726 418.331 189.824L415.255 190.106C438.108 192.032 458.818 196.659 478.235 209.654C482.601 212.576 486.468 216.148 490.72 219.212C514.756 241.722 528.721 272.958 529.466 305.88C530.425 342.761 514.352 379.865 488.981 406.342C463.557 432.873 429.457 449.654 392.353 450.462C359.78 451.171 328.172 440.202 304.605 417.394C295.51 408.428 287.785 398.171 281.678 386.955C281.083 376.672 274.419 355.981 271.139 345.675C270.294 341.143 268.296 336.561 265.424 332.953C264.258 331.835 262.848 331.014 261.5 330.134C260.127 327.024 260.801 323.106 261.054 319.8C262.101 306.104 265.354 291.736 270.327 278.888C271.014 277.112 271.807 274.176 273.269 272.918L275.752 267.083C289.658 238.437 311.727 214.874 340.884 201.461C346.985 198.654 358.91 196.068 363.536 193.462C363.737 193.35 363.933 193.23 364.132 193.114Z" fill="#E09328"/>
<path d="M364.129 193.114C369.116 191.796 374.781 190.979 379.915 190.46C383.443 190.103 386.966 190.483 390.496 190.316C397.529 189.982 412.063 187.726 418.328 189.824L415.252 190.106C375.068 188.993 338.346 203.565 309.17 231.234C295.936 243.784 286.448 258.273 278.528 274.579L277.906 274.266C278.129 273.839 278.54 273.086 278.686 272.659C279.636 269.89 284.835 261.645 284.691 260.048C283.659 259.394 283.349 259.222 282.075 259.656C278.575 260.849 278.32 264.06 276.736 266.86C275.742 268.619 275.229 270.797 273.862 272.299C273.669 272.511 273.465 272.712 273.266 272.918L275.749 267.083C289.655 238.437 311.724 214.874 340.881 201.461C346.982 198.654 358.907 196.068 363.533 193.462C363.734 193.35 363.93 193.23 364.129 193.114Z" fill="url(#paint0_linear_759_4001)"/>
<path d="M273.269 272.918C273.468 272.712 273.672 272.511 273.865 272.299C275.232 270.797 275.745 268.619 276.739 266.86C278.323 264.06 278.578 260.849 282.078 259.656C283.352 259.222 283.662 259.394 284.694 260.048C284.838 261.645 279.639 269.89 278.689 272.659C278.543 273.086 278.132 273.839 277.909 274.266L278.531 274.579C273.19 287.338 268.827 300.258 267.058 314.054C266.41 319.109 266.941 328.644 265.424 332.953C264.258 331.835 262.848 331.014 261.5 330.134C260.127 327.024 260.801 323.106 261.054 319.8C262.101 306.104 265.354 291.736 270.327 278.888C271.014 277.112 271.807 274.176 273.269 272.918Z" fill="#FFEA60"/>
<path d="M290.242 378.101C286.03 371.714 281.635 354.833 280.45 347.358C275.53 316.329 284.868 283.994 303.181 258.774C324.162 229.68 355.897 210.175 391.33 204.595C408.586 201.939 443.539 202.083 458.009 212.655C483.786 223.497 503.466 242.091 514.191 268.208C526.365 297.852 524.477 331.784 512.23 361.066C498.395 394.187 472.039 420.502 438.897 434.286C409.713 446.225 375.897 446.632 346.842 434.234C321.885 423.584 300.778 404.177 290.505 378.79C290.413 378.562 290.329 378.331 290.242 378.101Z" fill="url(#paint1_linear_759_4001)"/>
<path d="M290.242 378.101C286.03 371.714 281.635 354.833 280.45 347.358C275.53 316.329 284.868 283.994 303.181 258.774C324.162 229.68 355.897 210.175 391.33 204.595C408.586 201.939 443.539 202.083 458.009 212.655C447.32 210.06 437.091 206.775 426.087 205.525C400.947 202.671 369.564 211.612 348.115 224.647C318.148 242.858 295.402 271.164 287.275 305.604C283.223 322.777 282.116 342.778 285.711 360.201C286.906 365.99 289.824 372.267 290.242 378.101Z" fill="#C46811"/>
<path d="M337.198 333.344C329.559 320.862 317.081 310.656 309.801 298.523C307.187 294.167 306.066 289.843 307.491 284.854C308.584 281.029 310.55 278.19 313.917 276.056C320.858 271.658 345.43 268.065 354.501 266.975C358.338 266.514 363.711 266.63 367.156 264.923C376.241 260.422 389.776 227.728 404.222 219.935C407.073 218.397 410.191 217.864 413.319 218.846C431.119 224.435 433.429 258.071 441.2 272.736C441.283 272.892 441.37 273.045 441.455 273.199C455.855 277.323 471.725 279.651 485.471 285.56C492.715 288.674 497.347 293.364 500.291 300.679C501.639 306.382 501.371 310.948 498.168 316.101C492.164 325.758 480.562 334.062 471.813 341.265C467.677 344.67 463.303 347.783 460.352 352.333L460.053 352.784L460.012 353.63C459.391 367.397 462.648 393.823 459.529 405.883C458.954 408.109 457.937 410.07 456.283 411.685C453.066 414.824 447.347 416.404 442.881 416.149C440.062 415.988 438.119 414.932 436.141 413.003C422.979 408.721 406.116 395.051 394.508 386.987C382.714 391.325 346.649 410.973 335.417 405.46C333.127 404.335 331.247 402.664 329.497 400.84C328.889 400.258 328.306 399.649 327.751 399.017C315.408 384.689 335.683 350.299 337.198 333.344Z" fill="#E09328"/>
<path d="M500.291 300.679C501.639 306.382 501.371 310.948 498.168 316.101C492.164 325.758 480.562 334.062 471.813 341.265C467.677 344.67 463.303 347.783 460.352 352.333L460.053 352.784L460.012 353.63C459.391 367.397 462.648 393.823 459.529 405.883C458.954 408.109 457.937 410.07 456.283 411.685C453.066 414.824 447.347 416.404 442.881 416.149C440.062 415.988 438.119 414.932 436.141 413.003C436.62 413.035 437.099 413.063 437.578 413.088C441.897 413.308 444.98 412.383 448.21 409.3C460.222 397.832 454.42 365.238 455.033 349.427L455.071 348.54C458.088 344.455 462.125 341.494 465.995 338.282C474.766 331.004 492.543 317.345 497.862 307.927C499.131 305.679 499.681 303.163 500.291 300.679Z" fill="#E09328"/>
<path d="M390.529 382.98C391.902 384.262 393.192 385.646 394.507 386.987C382.713 391.325 346.648 410.973 335.416 405.46C333.126 404.335 331.246 402.664 329.496 400.84C333.086 401.275 336.49 401.604 340.09 401.138C354.642 399.255 375.731 387.85 390.529 382.98Z" fill="#E09328"/>
<path d="M375.069 275.735C378.397 271.567 381.034 266.559 383.856 262.027C388.295 254.825 392.926 247.744 397.745 240.79C399.931 237.651 402.293 233.749 405.317 231.393C407.303 229.847 409.476 230.358 411.796 230.633C416.652 234.735 418.871 242.911 420.664 248.905C422.918 253.354 430.058 275.804 429.989 280.371C438.161 285.289 461.692 287.224 473.1 291.785C477.315 292.887 484.659 295.321 487.039 299.201C487.76 300.377 488.038 301.341 487.725 302.706C485.595 311.999 451.138 331.919 443.799 339.983L443.578 340.222C442.878 350.053 447.779 396.664 441.562 401.052C439.93 402.204 437.566 401.746 435.802 401.21C425.85 398.186 409.795 384.878 401.334 378.119C397.72 375.233 394.188 371.873 390.102 369.685C380.401 373.213 343.326 392.674 335.891 389.164C334.538 388.525 333.691 387.204 333.311 385.798C333.058 384.865 333.14 383.866 333.203 382.912C336.683 365.539 345.054 349.78 349.77 332.825C346.672 322.164 321.156 300.706 317.109 288.674C317.549 287.691 317.969 286.737 318.69 285.921C325.857 277.81 364.163 276.486 375.069 275.735Z" fill="url(#paint2_linear_759_4001)"/>
<path d="M458.21 294.581C457.132 293.425 456.122 293.464 454.604 293.12L454.38 292.66C455.182 292.359 458.325 291.212 459.033 291.781C459.593 292.231 459.966 292.707 460.578 293.157L462.509 292.414L461.346 291.756L461.398 290.883C464.381 288.489 469.755 292.591 473.102 291.785C477.317 292.887 484.661 295.321 487.041 299.201C487.762 300.377 488.04 301.341 487.727 302.706C485.597 311.999 451.14 331.919 443.801 339.983L443.58 340.222C442.88 350.053 447.781 396.664 441.564 401.052C439.932 402.204 437.568 401.746 435.804 401.21C425.852 398.186 409.797 384.878 401.336 378.119C397.722 375.233 394.19 371.873 390.104 369.685C380.403 373.213 343.328 392.674 335.893 389.164C334.54 388.525 333.693 387.204 333.313 385.798C333.06 384.865 333.142 383.866 333.205 382.912C334.234 383.485 335.267 384.051 336.304 384.611C337.143 384.314 337.486 384.073 338.066 383.398C339.013 383.744 339.782 383.942 340.783 383.778C344.519 383.165 348.485 381.142 351.96 379.681C360.717 376.002 378.035 367.568 386.451 366.115C395.652 364.527 408.494 376.399 415.517 381.286C419.04 383.738 433.394 394.524 437.477 393.383C442.478 391.985 436.02 347.935 438.232 339.76C439.519 335.007 475.632 313.426 481.557 303.59C478.608 300.972 474.62 300.69 471.593 297.911C467.32 297.3 462.218 296.167 458.21 294.581Z" fill="#FFCD1F"/>
<path d="M471.594 297.911C474.329 298.321 478.851 298.409 480.794 300.586C481.322 301.178 481.637 302.802 481.558 303.59C478.609 300.972 474.621 300.69 471.594 297.911Z" fill="#FFCD1F"/>
<path d="M349.77 332.825L350.472 332.355C350.692 332.494 350.906 332.641 351.131 332.772C352.344 333.48 353.858 333.337 355.215 333.333C354.622 339.568 346.174 360.27 343.703 367.283C341.843 372.562 340.456 378.369 338.064 383.398C337.484 384.073 337.141 384.314 336.302 384.611C335.265 384.051 334.232 383.485 333.203 382.912C336.683 365.539 345.054 349.78 349.77 332.825Z" fill="#FFEA60"/>
<path d="M429.991 280.371C438.163 285.289 461.694 287.224 473.102 291.785C469.755 292.591 464.381 288.489 461.398 290.883L461.346 291.756L462.509 292.414L460.578 293.157C459.966 292.707 459.593 292.231 459.033 291.781C458.325 291.212 455.182 292.359 454.38 292.66L454.604 293.12C456.122 293.464 457.132 293.425 458.21 294.581C449.497 293.38 440.065 291.137 431.577 288.791C430.626 286.183 429.315 283.165 429.991 280.371Z" fill="#FFEA60"/>
<path d="M411.797 230.633C416.653 234.735 418.872 242.911 420.665 248.905L420.322 249.054C416.799 245.392 417.089 237.212 413.46 233.498C411.111 236.995 413.906 244.374 414.499 248.27C413.299 244.669 412.163 240.895 409.916 237.795C409.81 237.648 409.699 237.504 409.59 237.359C410.652 235.09 411.276 233.076 411.797 230.633Z" fill="#FFEA60"/>
<path d="M364.131 193.114C360.245 191.5 350.303 197.981 345.935 197.961L345.349 197.244C345.347 196.61 348.626 183.157 348.932 182.482C349.252 181.776 349.565 181.337 349.529 180.537C349.498 179.849 348.017 179.084 347.456 178.679C347.548 178.553 347.627 178.417 347.732 178.302C349.82 176.015 355.019 174.863 357.914 173.901C377.519 167.387 399.32 162.418 420.088 163.672C426.863 164.08 433.734 164.906 440.437 165.964C444.016 166.529 448.834 168.181 452.267 167.995C452.418 167.987 452.568 167.954 452.718 167.934C458.224 169.847 464.53 172.166 470.302 172.974L473.206 172.841C471.816 170.633 462.872 171.129 460.295 167.378C460.277 166.022 460.418 165.931 461.202 164.801C465.679 165.374 470.55 168.978 474.916 168.846C475.126 168.839 475.333 168.787 475.541 168.757C490.84 173.895 516.787 190.503 526.886 202.762L528.51 204.127C531.067 207.422 533.744 210.674 536.133 214.091C541.536 222.158 546.595 230.139 550.698 238.976C563.834 267.262 567.47 300.339 563.076 331.088C562.323 334.932 561.732 338.903 560.69 342.676C557.578 357.381 552.662 371.645 546.053 385.145L543.627 389.98C522.374 432.526 483.267 463.991 438.521 478.998C398.281 492.607 354.272 489.57 316.283 470.563C297.225 460.993 280.478 447.39 267.205 430.698C262.116 426.602 254.094 412.29 250.574 406.195C252.232 405.993 253.852 405.707 255.486 405.361C265.158 403.311 274.168 401.902 279.945 393.012C280.768 391.087 281.176 388.983 281.677 386.955C287.784 398.171 295.509 408.428 304.604 417.394C328.171 440.202 359.779 451.171 392.352 450.462C429.456 449.654 463.556 432.873 488.98 406.342C514.351 379.865 530.424 342.761 529.465 305.88C528.72 272.958 514.755 241.722 490.719 219.212C486.467 216.148 482.6 212.576 478.234 209.654C458.817 196.659 438.107 192.032 415.254 190.106L418.33 189.824C412.065 187.726 397.531 189.982 390.498 190.316C386.968 190.483 383.445 190.103 379.917 190.46C374.783 190.979 369.118 191.796 364.131 193.114Z" fill="#EB990B"/>
<path d="M490.719 219.212L491.54 218.944C497.394 223.529 505.278 232.28 508.723 238.839C510.364 241.962 512.525 244.836 514.273 247.91C518.471 255.228 521.905 262.958 524.522 270.979C525.323 273.497 525.449 279.159 527.845 280.407C528.952 279.904 529.371 279.777 530.13 278.787C530.054 278.614 529.974 278.443 529.901 278.269C528.161 274.132 527.227 269.752 525.628 265.575C523.151 259.103 519.213 251.666 515.645 245.743C514.016 243.041 512.122 240.031 510.186 237.542C508.015 234.753 500.896 227.922 500.075 225.233C520.427 242.85 533.337 278.889 535.295 305.002C537.994 340.998 523.659 378.618 500.235 405.707C475.742 434.031 440.39 453.873 402.699 456.396C367.229 458.77 331.875 447.977 304.985 424.421C300.393 420.399 289.502 410.518 287.947 404.417C285.805 400.272 282.876 396.618 279.945 393.012C280.768 391.087 281.176 388.983 281.677 386.955C287.784 398.171 295.509 408.428 304.604 417.394C328.171 440.202 359.779 451.171 392.352 450.462C429.456 449.654 463.556 432.873 488.98 406.342C514.351 379.865 530.424 342.761 529.465 305.88C528.72 272.958 514.755 241.722 490.719 219.212Z" fill="url(#paint3_linear_759_4001)"/>
<path d="M279.945 393.012C282.876 396.618 285.805 400.272 287.947 404.417C285.59 410.712 283.204 416.667 276.674 419.712C274.893 420.542 270.216 420.99 269.136 421.705C268.758 421.955 268.724 422.512 268.518 422.916C268.719 425.482 269.157 427.474 268.514 430.022L267.205 430.698C262.116 426.602 254.094 412.29 250.574 406.195C252.232 405.993 253.852 405.707 255.486 405.361C265.158 403.311 274.168 401.902 279.945 393.012Z" fill="#C46811"/>
<path d="M470.301 172.974L473.205 172.841C471.815 170.633 462.871 171.129 460.294 167.378C460.276 166.022 460.417 165.931 461.201 164.801C465.678 165.374 470.549 168.978 474.915 168.846C475.125 168.839 475.332 168.787 475.54 168.757C490.839 173.895 516.786 190.503 526.885 202.762C524.131 202.154 519.333 196.237 517.007 194.251C515.833 194.58 515.911 194.528 515.304 195.588C515.454 197.394 516.416 198.547 517.441 199.97C517.58 200.162 517.724 200.35 517.865 200.541L517.362 200.804C504.626 187.958 487.048 179.269 470.301 172.974Z" fill="#FFEA60"/>
<path d="M222.876 323.99C223.56 285.086 240.187 244.813 264.395 214.692C295.862 175.653 341.559 150.725 391.418 145.401C438.632 140.251 485.848 151.339 523.172 181.437C569.789 219.03 594.719 256.363 601.2 316.698C602.652 316.983 603.917 317.35 605.305 317.861C605.477 318.044 605.643 318.233 605.822 318.409C608.769 321.314 618.899 320.937 620.594 324.583C619.554 328.461 618.174 332.505 616.245 336.034C613.536 335.925 610.796 333.754 608.067 333.072C606.771 332.748 604.181 331.425 603.04 331.812C607.425 333.735 612.216 334.911 616.388 337.266C609.78 355.193 570.126 451.671 557.354 457.721C551.488 460.5 522.646 471.692 517.88 471.288C521.252 467.962 524.672 464.68 527.786 461.106C524.161 456.923 520.736 452.591 517.299 448.254C520.633 449.434 524.822 457.515 528.196 460.14C530.677 458.464 532.952 455.602 535.064 453.442C532.5 450.863 529.847 448.327 527.482 445.563L527.917 444.906C530.147 448.122 533.49 450.711 536.529 453.122C546.061 444.116 555.263 431.136 561.453 419.511C555.949 412.909 551.53 404.855 546.437 397.834C544.573 395.106 543.613 393.341 543.627 389.98L546.053 385.145C552.662 371.645 557.578 357.381 560.69 342.676C561.732 338.903 562.323 334.932 563.076 331.088C567.47 300.339 563.834 267.262 550.698 238.976C546.595 230.139 541.536 222.158 536.133 214.091C533.744 210.674 531.067 207.422 528.51 204.127L526.886 202.762C516.787 190.503 490.84 173.895 475.541 168.757C475.333 168.787 475.126 168.839 474.916 168.846C470.55 168.978 465.679 165.374 461.202 164.801C460.418 165.931 460.277 166.022 460.295 167.378C462.872 171.129 471.816 170.633 473.206 172.841L470.302 172.974C464.53 172.166 458.224 169.847 452.718 167.934C452.568 167.954 452.418 167.987 452.267 167.995C448.834 168.181 444.016 166.529 440.437 165.964C433.734 164.906 426.863 164.08 420.088 163.672C399.32 162.418 377.519 167.387 357.914 173.901C355.019 174.863 349.82 176.015 347.732 178.302C347.627 178.417 347.548 178.553 347.456 178.679C348.017 179.084 349.498 179.849 349.529 180.537C349.565 181.337 349.252 181.776 348.932 182.482C348.626 183.157 345.347 196.61 345.349 197.244L345.935 197.961C350.303 197.981 360.245 191.5 364.131 193.114C363.932 193.23 363.736 193.35 363.535 193.462C358.909 196.068 346.984 198.654 340.883 201.461C311.726 214.874 289.657 238.437 275.751 267.083L273.268 272.918C271.806 274.176 271.013 277.112 270.326 278.888C265.353 291.736 262.1 306.104 261.053 319.8C260.8 323.106 260.126 327.024 261.499 330.134C262.847 331.014 264.257 331.835 265.423 332.953C268.295 336.561 270.293 341.143 271.138 345.675C268.697 343.546 267.29 336.645 264.676 333.563C255.154 322.34 238.43 340.31 234.35 340.051C232.702 337.024 234.002 330.486 234.18 327.05C235.131 308.647 237.8 290.214 244.247 272.845C246.672 266.313 250.673 259.941 252.603 253.341L251.986 253.228L251.013 254.538C250.621 253.079 250.924 251.781 251.106 250.298C251.902 243.829 253.526 245.182 255.127 240.727C256.242 237.624 256.123 234.68 257.832 231.537C259.072 229.256 261.515 227.563 262.515 225.275C266.33 216.547 273.057 211.562 279.114 204.658C281.066 202.432 282.787 199.868 284.56 197.493C285.832 195.79 287.487 193.993 288.096 191.942L287.809 191.647C286.765 192.257 287.079 191.894 286.521 192.823C283.777 197.392 277.988 200.444 274.219 204.671C259.925 220.698 247.851 238.236 239.295 258.007C234.9 268.163 231.832 277.759 229.114 288.457C228.368 291.394 227.309 294.181 226.752 297.176C225.892 301.798 225.13 306.598 224.67 311.275C224.369 314.339 224.583 317.573 224.013 320.592C223.675 322.383 222.988 324.306 221.958 325.804C220.214 326.707 218.299 326.885 216.383 327.189L222.876 323.99Z" fill="url(#paint4_linear_759_4001)"/>
<path d="M536.133 214.091L538.88 213.253C544.558 218.592 555.745 228.696 558.834 235.47C570.427 251.166 580.396 270.536 583.703 289.856C585.164 294.673 585.546 299.842 586.031 304.831C588.187 321.21 587.952 337.816 585.333 354.127C580.849 348.534 575.043 343.714 571.351 337.525C569.597 335.28 567.482 334.155 565.27 332.501C564.546 331.959 563.885 331.5 563.076 331.088C567.47 300.339 563.834 267.262 550.698 238.976C546.595 230.139 541.536 222.158 536.133 214.091Z" fill="url(#paint5_linear_759_4001)"/>
<path d="M571.352 337.525C573.245 326.544 573.38 303.916 571.933 292.9C575.437 296.137 581.814 303.379 586.032 304.831C588.188 321.21 587.953 337.816 585.334 354.127C580.85 348.534 575.044 343.714 571.352 337.525Z" fill="#E09328"/>
<path d="M583.701 289.856L583.563 289.972C582.747 289.914 577.601 285.008 576.308 284.068C574.172 282.51 572.49 280.411 571.436 277.986C568.694 271.79 567.876 262.437 565.504 255.524C563.52 249.742 558.815 244.184 558.098 238.06C557.956 236.846 557.997 236.414 558.832 235.47C570.425 251.166 580.394 270.536 583.701 289.856Z" fill="#E09328"/>
<path d="M563.074 331.088C563.883 331.5 564.544 331.959 565.268 332.501C567.48 334.155 569.595 335.28 571.349 337.525C575.041 343.714 580.847 348.534 585.331 354.127C584.98 359.328 584.23 364.495 583.086 369.581C579.356 382.568 575.264 395.485 568.853 407.439C567.094 412.465 563.923 415.099 561.451 419.511C555.947 412.909 551.528 404.855 546.435 397.834C544.571 395.106 543.611 393.341 543.625 389.98L546.051 385.145C552.66 371.645 557.576 357.381 560.688 342.676C561.73 338.903 562.321 334.932 563.074 331.088Z" fill="#E09328"/>
<path d="M563.073 331.088C563.882 331.5 564.543 331.959 565.267 332.501C567.479 334.155 569.594 335.28 571.348 337.525C575.04 343.714 580.846 348.534 585.33 354.127C584.979 359.328 584.229 364.495 583.085 369.581C577.631 363.181 572.758 356.28 567.172 349.957C564.739 347.775 562.749 345.2 560.688 342.676C561.73 338.903 562.32 334.932 563.073 331.088Z" fill="#F15C00"/>
<path d="M546.051 385.145C548.659 387.255 550.902 389.494 553.167 391.966C556.248 395.804 564.366 406.147 568.853 407.439C567.094 412.465 563.923 415.099 561.451 419.511C555.947 412.909 551.528 404.855 546.435 397.834C544.571 395.106 543.611 393.341 543.625 389.98L546.051 385.145Z" fill="#F15C00"/>
<path d="M266.566 246.887C268.884 245.24 277.284 232.254 279.995 228.932C290.336 216.261 301.736 204.817 315.071 195.288C341.286 176.558 373.544 164.688 405.769 162.909C411.221 162.608 417.424 162.066 422.778 163.006C428.522 164.014 449.555 164.493 452.718 167.934C452.568 167.954 452.418 167.987 452.267 167.995C448.834 168.181 444.016 166.529 440.437 165.964C433.734 164.906 426.863 164.08 420.088 163.672C399.32 162.418 377.519 167.387 357.914 173.901C355.019 174.863 349.82 176.015 347.732 178.302C347.627 178.417 347.548 178.553 347.456 178.679C348.017 179.084 349.498 179.849 349.529 180.537C349.565 181.337 349.252 181.776 348.932 182.482C348.626 183.157 345.347 196.61 345.349 197.244L345.935 197.961C350.303 197.981 360.245 191.5 364.131 193.114C363.932 193.23 363.736 193.35 363.535 193.462C358.909 196.068 346.984 198.654 340.883 201.461C311.726 214.874 289.657 238.437 275.751 267.083C276.121 264.756 276.904 262.695 277.719 260.499C276.495 258.49 273.674 258.045 271.909 256.592C270.433 255.375 267.641 250.853 267.527 248.994C267.516 248.818 267.554 248.642 267.568 248.465L266.88 247.665L266.566 246.887Z" fill="#FFEA60"/>
<path d="M267.661 230.89C286.53 203.421 314.981 181.539 345.858 169.228C379.541 155.862 416.508 153.129 451.79 161.394C459.856 163.259 467.933 165.463 475.541 168.757C475.333 168.787 475.126 168.839 474.916 168.846C470.55 168.978 465.679 165.374 461.202 164.801C460.418 165.931 460.277 166.022 460.295 167.378C462.872 171.129 471.816 170.633 473.206 172.841L470.302 172.974C464.53 172.166 458.224 169.847 452.718 167.934C449.555 164.493 428.522 164.014 422.778 163.006C417.424 162.066 411.221 162.608 405.769 162.909C373.544 164.688 341.286 176.558 315.071 195.288C301.736 204.817 290.336 216.261 279.995 228.932C277.284 232.254 268.884 245.24 266.566 246.887C266.728 246.162 266.62 246.398 266.934 245.818C272.953 234.699 266.578 237.065 267.661 230.89Z" fill="url(#paint6_linear_759_4001)"/>
<path d="M266.881 247.665L267.569 248.465C267.555 248.642 267.517 248.818 267.528 248.994C267.642 250.853 270.434 255.375 271.91 256.592C273.675 258.045 276.496 258.49 277.72 260.499C276.905 262.695 276.122 264.756 275.752 267.083L273.269 272.918C271.807 274.176 271.014 277.112 270.327 278.888C265.354 291.736 262.101 306.104 261.054 319.8C260.801 323.106 260.127 327.024 261.5 330.134C254.536 328.198 248.501 330.926 242.378 334.015C241.622 329.325 242.414 316.3 242.731 310.994C242.829 309.362 243.474 307.526 243.19 305.939L241.129 311.974C242.145 309.689 244.342 298.088 245.42 294.354C250.064 278.267 257.396 261.494 266.881 247.665Z" fill="url(#paint7_linear_759_4001)"/>
<path d="M234.958 339.412C234.324 300.637 244.311 262.328 267.659 230.89C266.576 237.065 272.951 234.699 266.932 245.818C266.618 246.398 266.726 246.162 266.564 246.887L266.878 247.665C257.393 261.494 250.061 278.267 245.417 294.354C244.339 298.088 242.142 309.689 241.126 311.974L243.187 305.939C243.471 307.526 242.826 309.362 242.728 310.994C242.411 316.3 241.619 329.325 242.375 334.015C239.794 335.647 237.394 337.571 234.958 339.412Z" fill="url(#paint8_linear_759_4001)"/>
<path d="M528.508 204.127C531.995 204.386 534.539 207.052 536.761 209.637C537.774 210.815 538.323 211.815 538.878 213.253L536.131 214.091C533.742 210.674 531.065 207.422 528.508 204.127Z" fill="#F15C00"/>
<path d="M543.624 389.98C543.61 393.341 544.57 395.106 546.434 397.834C551.527 404.855 555.946 412.909 561.45 419.511C555.26 431.136 546.058 444.116 536.526 453.122C533.487 450.711 530.144 448.122 527.914 444.906L527.479 445.563C529.844 448.327 532.497 450.863 535.061 453.442C532.949 455.602 530.674 458.464 528.193 460.14C524.819 457.515 520.63 449.434 517.296 448.254C520.733 452.591 524.158 456.923 527.783 461.106C524.669 464.68 521.249 467.962 517.877 471.288C507.424 476.144 495.986 479.842 484.865 482.825C483.06 480.142 480.614 477.97 478.314 475.72C478.802 478.576 483.036 479.905 483.487 482.758C477.923 482.867 472.334 485.752 466.974 487.144C459.706 489.031 452.268 490.559 444.918 492.102C416.781 498.01 387.864 497.676 359.283 497.192C352.93 497.084 346.088 497.733 339.811 496.748C335.896 496.134 331.857 494.131 328.131 492.745C329.991 493.711 331.843 494.692 333.686 495.689C332.811 495.89 332.171 495.904 331.296 495.637C323.942 493.388 301.618 493.088 297.623 491.202C292.485 488.777 284.991 488.97 279.304 488.094C277.131 487.76 275.616 486.673 273.567 486.141C268.612 484.853 262.965 484.819 258.343 482.478C255.996 474.819 252.385 467.584 249.362 460.178C242.814 443.876 235.979 427.691 228.859 411.63C236.001 410.214 243.452 406.992 250.571 406.195C254.091 412.29 262.113 426.602 267.202 430.698C280.475 447.39 297.222 460.993 316.28 470.563C354.269 489.57 398.278 492.607 438.518 478.998C483.264 463.991 522.371 432.526 543.624 389.98Z" fill="url(#paint9_linear_759_4001)"/>
<path d="M546.438 397.834C551.53 404.855 555.95 412.909 561.454 419.511C555.264 431.136 546.062 444.116 536.53 453.122C533.491 450.711 530.148 448.122 527.918 444.906C525.933 442.12 523.997 439.294 521.77 436.693C527.002 428.215 533.575 420.823 538.951 412.498C541.91 407.916 542.996 402.041 546.438 397.834Z" fill="#E09328"/>
<path d="M475.801 472.188C479.621 469.019 483.985 467.347 487.935 464.495C497.127 457.859 505.293 450.74 513.669 443.146C514.791 444.968 515.838 446.673 517.3 448.254C520.737 452.591 524.162 456.923 527.787 461.106C524.673 464.68 521.253 467.962 517.881 471.288C507.428 476.144 495.99 479.842 484.869 482.825C483.064 480.142 480.618 477.97 478.318 475.72L475.801 472.188Z" fill="#F15C00"/>
<path d="M794.121 603.794C806.329 606.664 816.149 613.149 822.836 623.923C830.172 635.743 833.129 650.686 829.752 664.29C828.564 669.054 826.598 673.59 823.933 677.715C821.759 680.302 819.65 682.696 817.103 684.921L816.522 685.436L816.169 685.741C806.739 693.595 795.381 698.075 782.964 696.907C781.067 696.73 779.181 696.45 777.314 696.068C776.289 694.869 774.478 694.09 773.025 693.563C771.39 692.97 770.195 692.645 768.643 693.413L762.658 690.051C761.823 688.689 760.412 687.627 759.229 686.555C742.486 671.391 743.618 658.387 742.59 637.758C745.124 629.342 748.272 623.111 754.153 616.557C756.746 619.209 757.213 622.788 759.479 625.384C761.333 627.037 763.213 628.416 765.531 629.359C770.828 631.495 776.77 631.36 781.965 628.986C787.292 626.512 791.604 621.418 793.546 615.902C793.426 611.903 793.955 607.803 794.121 603.794Z" fill="#E09328"/>
<path d="M794.121 603.794C806.329 606.664 816.149 613.149 822.836 623.923C830.172 635.743 833.129 650.686 829.752 664.29C828.564 669.054 826.598 673.59 823.933 677.715C821.759 680.302 819.65 682.696 817.103 684.921L816.522 685.436L816.169 685.741C806.739 693.595 795.381 698.075 782.964 696.907C781.067 696.73 779.181 696.45 777.314 696.068C776.289 694.869 774.478 694.09 773.025 693.563C771.39 692.97 770.195 692.645 768.643 693.413L762.658 690.051C761.823 688.689 760.412 687.627 759.229 686.555C742.486 671.391 743.618 658.387 742.59 637.758C745.124 629.342 748.272 623.111 754.153 616.557C756.746 619.209 757.213 622.788 759.479 625.384C757.466 628.703 755.784 632.155 754.679 635.885C751.674 646.029 752.616 657.919 757.71 667.247C761.785 674.709 768.623 680.762 776.852 683.158C785.506 685.609 794.779 684.526 802.635 680.147C809.854 676.093 815.169 669.339 817.412 661.369C820.204 651.692 818.432 641.132 813.472 632.462C809.378 625.306 801.643 618.086 793.546 615.902C793.426 611.903 793.955 607.803 794.121 603.794Z" fill="#3E200B"/>
<path d="M772.973 638.289C777.446 637.963 781.341 641.313 781.69 645.784C782.04 650.254 778.712 654.167 774.243 654.541C769.74 654.917 765.791 651.558 765.439 647.054C765.087 642.549 768.467 638.617 772.973 638.289Z" fill="#FFEA60"/>
<path d="M213.145 344.575C215.767 343.068 219.144 340.446 222.274 340.972C223.248 341.829 223.705 342.351 223.817 343.703C223.918 344.932 223.743 346.272 223.637 347.501C220.963 349.558 218.082 351.595 215.663 353.946C214.935 350.772 214.143 347.676 213.145 344.575Z" fill="#F15C00"/>
<path d="M126.789 374.524C128.17 376.762 129.286 379.086 130.415 381.456C126.8 381.901 122.679 382.786 119.078 382.266C121.616 379.653 124.186 377.072 126.789 374.524Z" fill="#F15C00"/>
<path d="M215.541 356.964C214.428 358.16 213.534 359.328 212.68 360.721C210.398 360.473 208.069 360.312 205.812 359.902C208.846 357.389 211.702 356.965 215.541 356.964Z" fill="#3E200B"/>
<path d="M640.001 545.731C646.129 542.697 663.562 537.584 667.442 534.412C671.86 537.06 677.623 546.115 680.802 550.463C707.78 587.369 729.674 633.749 744.852 676.923C748.1 686.164 751.458 695.421 753.827 704.934C762.919 741.437 759.964 781.31 740.152 813.974C734.153 823.865 727.235 832.295 718.904 840.302C724.47 821.134 726.09 802.084 726.098 782.207C720.907 794.972 717.72 808.302 712.905 821.157C697.69 861.781 672.317 890.657 632 907.637C598.461 921.763 562.115 925.105 526.053 924.958C515.429 924.915 503.961 924.973 493.441 923.321C510.263 912.215 525.809 899.096 535.284 881.031C536.478 878.755 537.916 876.528 538.817 874.119C537.671 874.102 533.51 878.081 532.404 878.975C510.03 896.914 485.047 911.329 458.319 921.722C433.058 931.421 404.858 935.029 377.982 936.794C352.455 938.471 326.493 938.643 301.036 935.87C250.176 930.331 187.958 912.559 151.258 875.013C135.523 858.916 110.943 823.473 106.633 801.567C106.065 798.679 104.492 796.278 103.686 793.466C100.568 782.587 97.5202 765.4 99.6992 754.341C100.735 749.088 100.341 742.671 100.113 737.309C97.6782 741.978 96.5602 747.098 94.6152 751.951C92.8762 756.29 92.8132 762.951 92.4632 767.692C90.7012 791.561 92.1972 810.834 102.633 832.724C108.922 845.918 117.625 860.297 127.585 871.09C102.951 863.776 81.0722 848.169 68.7482 825.32C57.7332 804.899 55.2722 782.721 57.9682 759.971C58.5652 754.932 59.0972 749.25 60.7532 744.45C60.8782 744.086 61.0962 743.462 61.3632 743.137C64.7662 725.851 70.4392 708.832 75.3802 691.93C78.6262 680.827 80.7692 669.443 83.8192 658.293C86.0792 650.031 89.2992 642.012 91.5582 633.789C91.9292 632.44 92.2092 631.444 91.8162 630.092L90.8382 630.253C86.0392 634.501 83.0732 642.112 80.0462 647.718C75.9752 655.256 71.6382 662.812 68.1022 670.612C57.0252 695.047 49.5752 721.796 44.5302 748.09C42.4532 741.946 39.9482 735.959 38.0272 729.757C33.0642 713.735 32.1672 697.218 34.1062 680.618C35.3832 669.679 38.2022 659.359 41.7242 648.966C55.5452 608.19 79.5662 586.069 112.215 560.233C116.056 554.972 129.796 546.375 135.641 541.824C155.444 562.777 181.645 575.116 208.465 584.491C216.17 587.185 224.442 588.823 231.852 592.263C229.092 595.117 226.719 599.002 223.843 601.535C211.528 618.177 197.845 644.01 200.862 665.264L201.346 664.486C204.81 658.838 206.269 652.34 209.22 646.436C217.89 629.091 232.179 608.919 249.728 600.182C251.99 599.057 254.617 597.508 257.085 596.946C263.391 595.51 269.621 599.738 275.609 601.009C282.85 602.546 290.898 604.179 298.254 604.847C306.059 605.555 313.913 605.615 321.729 606.155C333.519 606.969 345.765 608.262 357.565 608.244C364.791 608.233 372.053 607.423 379.281 607.167C422.795 605.63 460.279 601.412 502.238 588.499C506.343 587.235 524.575 582.257 528.108 584.387C531.025 586.145 533.517 590.673 535.682 593.364C537.748 595.933 540.211 598.141 542.265 600.74C549.432 609.809 556.127 620.233 561.843 630.264C566.513 638.457 570.07 647.174 575.069 655.193C574.605 648.79 574.04 642.401 572.59 636.132C569.13 621.172 559.479 599.008 550.379 586.603C549.426 585.304 544.596 579.49 545.368 578.146C553.715 573.094 569.843 570.906 578.712 566.153C580.352 565.274 590.121 561.989 591.64 562.176C596.839 567.357 608.105 595.13 611.076 603.324C612.54 607.363 614.332 615.06 616.712 618.402C619.471 623.344 627.863 657.149 629.21 664.139C630.162 669.078 630.191 674.333 631.392 679.188C632.395 683.242 635.512 687.299 636.064 691.286C637.437 692.672 638.966 693.819 640.654 694.801C646.409 698.148 653.743 699.191 660.134 697.214C665.873 695.439 669.599 691.793 672.429 686.627C673.733 682.982 674.068 679.59 674.398 675.76C674.92 663.935 674.617 652.68 672.97 640.962C669.264 614.585 654.985 567.509 640.001 545.731Z" fill="#E09328"/>
<path d="M640.001 545.731C646.129 542.697 663.562 537.584 667.442 534.412C671.86 537.06 677.623 546.115 680.802 550.463C707.78 587.369 729.674 633.749 744.852 676.923C748.1 686.164 751.458 695.421 753.827 704.934C762.919 741.437 759.964 781.31 740.152 813.974C734.153 823.865 727.235 832.295 718.904 840.302C724.47 821.134 726.09 802.084 726.098 782.207C720.907 794.972 717.72 808.302 712.905 821.157C697.69 861.781 672.317 890.657 632 907.637C598.461 921.763 562.115 925.105 526.053 924.958C515.429 924.915 503.961 924.973 493.441 923.321C510.263 912.215 525.809 899.096 535.284 881.031C536.478 878.755 537.916 876.528 538.817 874.119C537.671 874.102 533.51 878.081 532.404 878.975C510.03 896.914 485.047 911.329 458.319 921.722C433.058 931.421 404.858 935.029 377.982 936.794C352.455 938.471 326.493 938.643 301.036 935.87C250.176 930.331 187.958 912.559 151.258 875.013C135.523 858.916 110.943 823.473 106.633 801.567C106.065 798.679 104.492 796.278 103.686 793.466C100.568 782.587 97.52 765.4 99.699 754.341C100.735 749.088 100.341 742.671 100.113 737.309C97.678 741.978 96.56 747.098 94.615 751.951C92.876 756.29 92.8129 762.951 92.4629 767.692C90.7009 791.561 92.1969 810.834 102.633 832.724C108.922 845.918 117.625 860.297 127.585 871.09C102.951 863.776 81.072 848.169 68.748 825.32C57.733 804.899 55.272 782.721 57.968 759.971C58.565 754.932 59.097 749.25 60.753 744.45C60.878 744.086 61.096 743.462 61.363 743.137L61.9479 743.595C61.5169 747.222 60.4569 750.784 59.8459 754.4C58.9629 759.629 58.5079 764.836 57.9579 770.102C57.8889 770.76 57.726 771.482 57.843 772.147C58.204 774.196 60.052 776.931 61.07 778.78C68.761 792.748 80.4509 804.602 93.5169 813.67C94.3519 811.872 92.4179 807.418 92.0169 805.407C88.7539 789.02 89.2339 763.374 94.1009 747.625C95.7849 742.173 98.292 737.542 101.464 732.82C102.317 745.805 100.28 758.998 101.295 771.972C101.599 775.855 102.798 779.712 103.519 783.54C108.596 810.47 119.673 833.217 135.881 855.225C137.003 856.748 138.224 858.612 139.737 859.765C141.63 861.207 144.142 861.9 146.179 863.187C149.443 865.25 152.52 867.633 155.775 869.729C160.994 873.091 165.999 877.143 171.396 880.158C205.518 899.215 249.873 908.592 288.426 913.83C298.629 915.216 309.626 914.851 319.942 914.888C329.151 914.921 338.488 915.14 347.673 914.506C382.346 912.113 415.934 904.187 448.874 893.361C459.024 890.026 469.25 886.727 479.039 882.418C494.573 875.581 509.144 867.361 523.371 858.183C528.756 854.709 534.581 851.397 539.658 847.509C545.127 843.32 549.817 837.751 554.754 832.931C566.701 821.266 579.833 807.215 587.987 792.557C591.318 786.569 593.758 780.251 596.376 773.937C601.763 760.947 605.346 748.309 607.138 734.368C607.711 731.321 606.883 727.475 606.933 724.317C607.117 712.476 612.17 697.393 620.343 688.641C623.068 685.722 626.95 683.704 629.517 680.695C629.64 680.55 630.31 679.65 630.383 679.315C631.65 673.529 621.599 637.8 619.646 630.561C618.708 627.083 616.926 622.716 616.739 619.156C616.725 618.905 616.721 618.654 616.712 618.402C619.471 623.344 627.863 657.149 629.21 664.139C630.162 669.078 630.191 674.333 631.392 679.188C632.395 683.242 635.512 687.299 636.064 691.286C637.437 692.672 638.966 693.819 640.654 694.801C646.409 698.148 653.743 699.191 660.134 697.214C665.873 695.439 669.599 691.793 672.429 686.627C673.733 682.982 674.068 679.59 674.398 675.76C674.92 663.935 674.617 652.68 672.97 640.962C669.264 614.585 654.985 567.509 640.001 545.731Z" fill="#F15C00"/>
<path d="M616.711 618.402C619.47 623.344 627.862 657.149 629.209 664.139C630.161 669.078 630.19 674.333 631.391 679.188C632.394 683.242 635.511 687.299 636.063 691.286C637.436 692.672 638.965 693.819 640.653 694.801C646.408 698.148 653.742 699.191 660.133 697.214C665.872 695.439 669.598 691.793 672.428 686.627C673.732 682.982 674.067 679.59 674.397 675.76C687.217 681.764 697.983 691.28 702.856 704.943C707.671 718.442 707.824 733.849 701.552 746.902C698.79 752.649 693.333 760.812 687.612 763.906C694.862 774.607 697.206 786.414 694.711 799.16C693.314 806.298 689.833 814.097 683.598 818.262C683.117 818.583 682.635 818.824 682.114 819.073C680.517 819.428 671.974 823.298 671.022 824.444C670.927 824.559 670.865 824.698 670.786 824.825C660.813 827.027 647.502 827.006 638.445 821.592C638.396 821.454 638.387 821.295 638.297 821.18C636.852 819.318 631.97 814.817 629.878 813.982C627.008 807.21 622.564 805.989 620.889 796.615C618.955 785.8 621.393 776.21 627.665 767.312C625.42 765.217 622.791 763.564 620.565 761.432C613.063 754.246 610.409 743.866 607.137 734.368C607.71 731.321 606.882 727.475 606.932 724.317C607.116 712.476 612.169 697.393 620.342 688.641C623.067 685.722 626.949 683.704 629.516 680.695C629.639 680.55 630.309 679.65 630.382 679.315C631.649 673.529 621.598 637.8 619.645 630.561C618.707 627.083 616.925 622.716 616.738 619.156C616.724 618.905 616.72 618.654 616.711 618.402Z" fill="#3E200B"/>
<path d="M672.429 686.627C683.802 694.281 691.315 704.028 694.044 717.672C695.993 727.415 693.526 737.567 688.025 745.752C681.964 754.773 672.818 760.649 662.151 762.597C652.285 764.399 642.55 762.393 634.298 756.644C626.142 750.989 620.63 742.265 619.024 732.471C617.215 721.834 619.744 709.832 626.021 701.014C628.683 697.274 632.164 693.722 636.064 691.286C637.437 692.672 638.966 693.819 640.654 694.801C646.409 698.148 653.743 699.191 660.134 697.214C665.873 695.439 669.599 691.793 672.429 686.627Z" fill="#E09328"/>
<path d="M638.35 705.482C639.479 705.417 640.637 705.333 641.766 705.407C644.36 705.576 646.97 707.219 648.53 709.246C649.934 711.072 650.497 713.312 650.192 715.585C649.742 718.942 647.721 720.806 645.142 722.749C643.768 723.05 642.475 723.3 641.068 723.057C638.568 722.625 636.352 721.099 634.946 719.006C633.492 716.842 632.963 714.187 633.477 711.632C634.092 708.597 635.831 707.057 638.35 705.482Z" fill="#FFEA60"/>
<path d="M675.971 769.565C681.101 773.695 683.741 779.184 684.491 785.697C685.303 792.743 683.9 799.938 679.451 805.613C675.122 811.134 668.715 814.373 661.795 815.163C654.016 816.051 645.875 813.815 639.895 808.698C634.693 804.247 631.137 797.715 630.685 790.849C630.304 785.072 632.015 778.725 635.938 774.383C636.643 773.604 636.959 773.381 637.927 773.073C639.849 774.495 642.568 775.018 644.896 775.458C654.437 777.262 667.928 775.091 675.971 769.565Z" fill="#E09328"/>
<path d="M646.721 779.634C650.619 778.903 654.386 781.419 655.205 785.299C656.024 789.178 653.594 793.002 649.734 793.908C647.158 794.513 644.456 793.676 642.674 791.72C640.891 789.765 640.307 786.997 641.147 784.488C641.988 781.979 644.121 780.122 646.721 779.634Z" fill="#FFEA60"/>
<path d="M635.061 827.983C636.205 825.83 636.978 823.569 638.446 821.592C647.503 827.006 660.814 827.027 670.787 824.825C675.276 834.709 676.066 845.467 672.267 855.75C669.453 863.368 664.34 869.243 657.905 874.065C660.204 865.635 661.8 857.108 662.22 848.374C654.605 861.948 649.498 876.707 632.815 881.379C624.085 883.824 613.621 882.798 605.742 878.22C600.131 874.958 596.587 870.205 594.352 864.203C597.322 862.728 600.249 861.35 603.36 860.193C616.725 851.414 626.846 841.878 635.061 827.983Z" fill="#F15C00"/>
<path d="M635.06 827.983C639.921 827.442 645.299 827.586 649.272 830.857C651.753 832.9 652.855 835.767 653.031 838.92C653.553 848.243 647.876 859.071 641.678 865.714C635.276 872.576 629.365 872.983 620.637 874.217C630.844 868.527 634.254 865.188 640.264 855.226C631.527 860.87 618.179 871.797 607.337 869.537C604.95 869.04 603.436 867.733 602.176 865.709C602.309 863.51 603.776 862.383 603.359 860.193C616.724 851.414 626.845 841.878 635.06 827.983Z" fill="#C46811"/>
<path d="M629.88 813.982C631.972 814.817 636.854 819.318 638.299 821.18C638.389 821.295 638.398 821.454 638.447 821.592C636.979 823.569 636.206 825.83 635.062 827.983C626.847 841.878 616.726 851.414 603.361 860.193C600.25 861.35 597.323 862.728 594.353 864.203C596.588 870.205 600.132 874.958 605.743 878.22C613.622 882.798 624.086 883.824 632.816 881.379C649.499 876.707 654.606 861.948 662.221 848.374C661.801 857.108 660.205 865.635 657.906 874.065C664.341 869.243 669.454 863.368 672.268 855.75C676.067 845.467 675.277 834.709 670.788 824.825C670.867 824.698 670.929 824.559 671.024 824.444C671.976 823.298 680.519 819.428 682.116 819.073C686.408 828.336 687.08 839.456 685.754 849.465C684.272 860.651 677.998 873.455 668.806 880.282C661.842 885.455 656.365 886.419 647.938 885.17C645.946 886.837 643.803 888.342 641.467 889.488C630.906 894.673 618.528 894.808 607.515 890.974C598.795 887.938 590.272 881.792 586.337 873.225C584.298 868.786 583.908 863.811 585.736 859.229C588.165 853.141 593.215 852.552 598.635 850.092C613.066 843.541 624.261 828.403 629.88 813.982Z" fill="#3E200B"/>
<path d="M135.641 541.824C155.444 562.777 181.645 575.116 208.465 584.491C216.17 587.185 224.442 588.823 231.852 592.263C229.092 595.117 226.719 599.002 223.843 601.535C220.312 599.742 216.109 598.651 212.381 597.269C207.399 595.42 202.548 593.25 197.678 591.128C191.299 588.35 184.807 585.657 178.59 582.536C173.259 579.86 168.165 576.704 162.754 574.195L162.181 573.934C153.969 580 145.375 585.887 138.087 593.07C131.588 599.474 125.97 607.202 119.021 613.057C120.053 605.78 122.928 599.932 125.222 593.043C128.937 588.378 130.765 584.04 132.306 578.325C139.513 567.199 134.394 565.047 137.491 555.858C137.777 555.009 138.05 554.148 138.213 553.264C138.462 551.911 138.246 550.802 137.465 549.696C131.775 547.878 117.333 562.366 111.867 563.345C111.358 561.968 111.736 561.586 112.215 560.233C116.056 554.972 129.796 546.375 135.641 541.824Z" fill="#F15C00"/>
<path d="M125.223 593.043C125.504 587.914 128.806 581.933 132.307 578.325C130.766 584.04 128.938 588.378 125.223 593.043Z" fill="#F15C00"/>
<path d="M246.613 611.999C249.812 610.091 254.696 608.508 258.393 609.923C258.949 610.136 259.004 610.225 259.402 610.554L259.332 611.89C255.101 612.151 250.85 612.036 246.613 611.999Z" fill="#E09328"/>
<path d="M682.609 353.068C701.553 363.603 722.142 380.233 728.403 401.868C731.989 414.26 729.971 425.013 723.689 436.155C708.27 463.502 681.336 475.233 652.757 484.255C643.668 487.124 634.634 489.979 625.436 492.496C600.089 499.433 575.018 506.575 549.955 514.473C528.323 521.29 506.821 528.911 484.85 534.561C473.366 537.515 461.707 539.623 450.041 541.711C386.425 553.727 321.055 552.984 257.729 539.524C226.756 532.747 195.063 524.835 167.272 508.975C163.973 507.092 160.57 505.112 157.534 502.818C139.045 491.279 126.204 481.448 119.457 459.795C123.729 453.865 150.473 441.02 157.692 437.986C161.49 448.336 167.49 457.026 175.911 464.173C213.274 495.887 316.343 508.043 364.157 509.382C382.948 509.908 402.092 508.895 420.816 507.334C448.108 505.059 475.396 498.908 501.528 490.775C513.221 487.136 524.681 482.684 536.281 478.75C545.386 475.662 554.695 473.019 563.902 470.246C592.57 461.613 623.056 455.188 650.29 442.644C662.064 437.221 673.258 430.489 681.664 420.439C687.201 413.819 691.686 406.004 690.899 397.122C687.637 386.789 682.089 380.867 673.742 374.136C676.639 367.109 680.08 360.23 682.609 353.068Z" fill="#E09328"/>
<path d="M682.61 353.068C701.554 363.603 722.143 380.233 728.404 401.868C731.99 414.26 729.972 425.013 723.69 436.155C708.271 463.502 681.337 475.233 652.758 484.255C643.669 487.124 634.635 489.979 625.437 492.496C600.09 499.433 575.019 506.575 549.956 514.473C528.324 521.29 506.822 528.911 484.851 534.561C473.367 537.515 461.708 539.623 450.042 541.711C386.426 553.727 321.056 552.984 257.73 539.524C226.757 532.747 195.064 524.835 167.273 508.975C163.974 507.092 160.571 505.112 157.535 502.818C161.503 502.536 178.29 511.185 183.26 513.27C202.002 521.13 222.3 526.259 242.124 530.518C318.082 546.836 402.148 540.012 476.806 520.165C494.243 515.529 511.342 509.574 528.511 504.044L584.865 486.385C608.902 478.768 633.121 472.138 656.61 462.848C665.057 459.508 674.048 455.94 681.654 450.947C690.767 444.965 699.496 434.865 701.722 423.948C703.076 417.312 702.865 408.037 698.911 402.362C696.906 399.485 694.327 397.769 690.9 397.122C687.638 386.789 682.09 380.867 673.743 374.136C676.64 367.109 680.081 360.23 682.61 353.068Z" fill="#F15C00"/>
<path d="M669.856 28.783C673.759 26.1425 678.661 24.3058 683.082 22.6402C703.444 14.9694 726.383 11.4953 747.92 15.6295C777.027 21.2169 805.487 38.74 822.119 63.4017C837.017 85.4938 844.232 114.522 839.031 140.898C838.797 142.062 838.529 143.218 838.23 144.367C837.93 134.142 835.371 125.412 831.393 116.021C828.249 110.061 825.14 103.999 821.338 98.4278C808.773 79.7458 790.3 65.8222 768.88 58.889C746.556 51.907 721.047 54.4261 700.382 65.362C679.39 76.4638 663.693 95.4788 656.77 118.194C651.083 137.062 651.547 158.766 661.151 176.314C672.432 196.927 692.37 207.986 714.42 214.198C720.673 215.959 727.602 216.428 733.665 218.509C738.125 218.695 742.852 218.802 747.301 218.313C751.706 217.887 755.825 217.289 760.063 215.97C762.957 221.225 764.719 226.728 762.983 232.714C760.857 240.051 755.499 246.074 748.807 249.609C732.113 258.427 709.17 252.491 692.19 247.099C689.259 246.168 686.216 245.168 683.606 243.513C670.102 239.908 651.15 227.528 641.037 218.235C618.246 197.291 604.141 168.355 603.06 137.315C602.104 109.879 611.817 79.6298 630.773 59.3585C640.011 47.2046 656.007 35.4461 669.856 28.783Z" fill="url(#paint10_linear_759_4001)"/>
<path d="M733.663 218.509C730.099 218.858 726.51 219.24 722.928 219.329C702.253 219.84 680.805 212.409 665.81 197.968C650.081 182.82 641.612 161.975 641.268 140.221C640.768 115.032 650.491 90.7138 668.219 72.8122C687.474 53.133 713.744 41.8868 741.274 41.5367C763.507 41.2497 784.918 49.9297 800.674 65.6173C810.406 75.3008 831.339 102.094 831.391 116.021C828.247 110.061 825.138 103.999 821.336 98.4278C808.771 79.7458 790.298 65.8222 768.878 58.889C746.554 51.907 721.045 54.4261 700.38 65.362C679.388 76.4638 663.691 95.4788 656.768 118.194C651.081 137.062 651.545 158.766 661.149 176.314C672.43 196.927 692.368 207.986 714.418 214.198C720.671 215.959 727.6 216.428 733.663 218.509Z" fill="#E09328"/>
<path d="M747.3 218.313C751.705 217.887 755.824 217.289 760.062 215.97C762.956 221.225 764.718 226.728 762.982 232.714C760.856 240.051 755.498 246.074 748.806 249.609C732.112 258.427 709.169 252.491 692.189 247.099C689.258 246.168 686.215 245.168 683.605 243.513C694.156 243.63 703.937 244.189 714.453 242.366C726.658 240.25 737.392 236.377 747.62 229.403C749.439 228.161 751.419 227.272 752.71 225.425C752.92 223.399 753.666 220.956 752.583 219.217C750.764 218.377 749.286 218.351 747.3 218.313Z" fill="#E09328"/>
<path d="M632.555 64.8756C636.676 60.2197 640.766 55.6709 645.524 51.6499C645.734 53.1481 645.763 53.4378 646.693 54.61C648.32 55.2556 650.394 55.1987 651.643 56.3411L651.225 57.8655C642.676 66.8513 633.456 75.6099 627.436 86.6069C626.241 88.7899 621.587 100.292 620.795 100.99C620.614 101.149 620.319 101.106 620.078 101.088C619.821 101.069 619.581 100.951 619.332 100.883L619.504 102.667C619.514 102.206 618.967 101.595 618.717 101.203C617.242 101.249 615.294 101.942 614.037 101.258C613.544 92.5079 626.792 72.3941 632.555 64.8756Z" fill="#FFEA60"/>
<path d="M680.47 29.1862C683.159 28.4769 685.909 27.857 688.527 26.9175C690.131 28.6847 691.696 30.6456 693.5 32.2061C677.516 38.547 664.538 47.0961 651.224 57.8658L651.642 56.3414C650.393 55.199 648.319 55.2559 646.692 54.6103C645.762 53.4381 645.733 53.1484 645.523 51.6502C656.259 42.3942 667.259 34.5396 680.47 29.1862Z" fill="url(#paint11_linear_759_4001)"/>
<path d="M681.173 28.0246C684.696 26.8504 701.795 21.0033 704.77 22.3806L704.852 22.653C703.883 23.1362 703.209 23.2538 702.141 23.4002C700.107 23.6792 697.893 23.8475 696.096 24.8846L696.043 25.7195C696.795 26.3082 697.527 26.8474 698.308 27.3935C699.023 27.8929 699.412 28.4059 699.917 29.101C703.983 29.6564 708.306 26.2663 712.395 27.0749C712.1 27.1261 711.805 27.1743 711.51 27.2285C705.566 28.325 699.208 30.2376 693.501 32.2061C691.697 30.6456 690.132 28.6847 688.528 26.9175C685.91 27.857 683.16 28.4769 680.471 29.1862C667.26 34.5396 656.26 42.3942 645.524 51.6502C640.766 55.6712 636.676 60.22 632.555 64.8759C635.729 56.114 649.062 50.3818 652.53 43.2562L652.249 42.4783C651.94 42.4479 651.632 42.3626 651.322 42.387C646.458 42.7705 635.439 56.0138 631.635 59.5392L630.773 59.3589C640.011 47.205 656.007 35.4465 669.856 28.7834L670.03 29.4643C664.196 32.9225 658.123 36.2982 653.084 40.8835C653.037 42.075 653.647 42.3639 654.399 43.2278C659.718 38.774 673.948 29.2777 680.454 28.1349C680.693 28.093 680.934 28.0614 681.173 28.0246Z" fill="#FFCD1F"/>
<path d="M202.75 371.291C211.131 367.368 219.293 362.993 227.2 358.187C233.263 354.421 248.322 343.275 253.938 341.568C255.585 341.871 256.352 342.63 257.545 343.709C260.603 349.025 269.58 380.004 269.593 385.609C270.134 387.405 270.53 389.086 269.652 390.856C269.152 391.862 268.341 392.196 267.299 392.477C253.727 396.135 239.712 397.519 225.938 401.705C217.311 395.006 215.697 398.673 207.92 395.663C207.814 395.622 207.698 395.62 207.587 395.598C198.394 398.735 172.051 408.142 164.995 413.112C163.366 417.172 159.806 418.954 158.254 423.818L157.64 425.683C141.538 432.658 127.419 442.015 112.189 450.546C109.928 449.29 107.523 448.271 106.514 445.742C106.923 444.683 106.895 444.805 107.676 444.158C102.7 441.548 100.242 435.566 98.1843 430.621C94.2823 424.949 88.7753 409.431 86.9223 402.534C86.4743 400.869 85.9913 399.406 86.8853 397.862C88.7603 396.966 90.5673 396.985 92.5953 396.905C104.926 395.705 117.192 394.898 129.452 392.973C138.506 391.551 147.399 389.259 156.415 387.623L157.667 386.872C162.386 380.957 165.367 372.984 169.331 366.46C170.143 365.25 171.372 364.401 172.492 363.489C177.47 362.825 185.128 366.656 190.088 368.042C194.201 368.623 199.409 368.643 202.75 371.291Z" fill="#E28403"/>
<path d="M202.752 371.291C211.133 367.368 219.295 362.993 227.202 358.187C233.265 354.421 248.324 343.275 253.94 341.568C255.587 341.871 256.354 342.63 257.547 343.709C256.069 349.222 249.72 352.899 245.028 355.588C231.281 363.452 217.172 370.667 202.749 377.21C199.517 378.665 195.94 380.715 192.551 381.669C170.722 394.596 123.412 405.801 98.1866 404.073C97.3846 404.085 96.5116 404.119 95.7246 403.955C94.5216 403.705 93.2876 402.828 92.6726 401.787C91.7046 400.148 92.0856 398.609 92.5966 396.905C104.928 395.705 117.194 394.898 129.454 392.973C138.508 391.551 147.401 389.259 156.417 387.623L157.669 386.872C162.388 380.957 165.369 372.984 169.333 366.46C170.145 365.25 171.374 364.401 172.494 363.489C177.472 362.825 185.13 366.656 190.09 368.042C194.203 368.623 199.411 368.643 202.752 371.291Z" fill="#FFEA60"/>
<path d="M172.493 363.489C177.471 362.825 185.129 366.656 190.089 368.042C194.202 368.623 199.41 368.643 202.751 371.291C195.089 374.911 186.746 378.893 178.444 380.661C176.97 378.687 175.876 376.534 174.717 374.368L174.053 372.898L171.263 370.892C170.702 369.371 170.023 367.926 169.332 366.46C170.144 365.25 171.373 364.401 172.493 363.489Z" fill="#E09328"/>
<path d="M172.493 363.489C177.471 362.825 185.129 366.656 190.089 368.042C185.448 371.125 179.968 372.668 174.717 374.368L174.053 372.898L171.263 370.892C170.702 369.371 170.023 367.926 169.332 366.46C170.144 365.25 171.373 364.401 172.493 363.489Z" fill="#E09328"/>
<path d="M172.493 363.489C173.736 366.245 173.445 369.899 174.053 372.898L171.263 370.892C170.702 369.371 170.023 367.926 169.332 366.46C170.144 365.25 171.373 364.401 172.493 363.489Z" fill="#E28403"/>
<path d="M169.332 366.46C170.023 367.926 170.702 369.371 171.263 370.892L174.053 372.898L174.717 374.368C175.876 376.534 176.97 378.687 178.444 380.661C174.184 381.987 169.871 383.116 165.561 384.268C163.06 385.377 160.338 386.261 157.668 386.872C162.387 380.957 165.368 372.984 169.332 366.46Z" fill="#FFCD1F"/>
<path d="M171.261 370.892L174.051 372.898L174.715 374.368C175.874 376.534 176.968 378.687 178.442 380.661C174.182 381.987 169.869 383.116 165.559 384.268C165.854 381.108 170.204 375.034 171.261 370.892Z" fill="#E28403"/>
<path d="M269.592 385.609C270.133 387.405 270.529 389.086 269.651 390.856C269.151 391.862 268.34 392.196 267.298 392.477C253.726 396.135 239.711 397.519 225.937 401.705C217.31 395.006 215.696 398.673 207.919 395.663C207.813 395.622 207.697 395.62 207.586 395.598C220.41 392.067 233.45 388.289 246.705 386.749C253.372 385.974 263.99 387.113 269.592 385.609Z" fill="#F15C00"/>
<path d="M107.678 444.158C113.63 443.973 121.482 435.856 126.139 432.486C137.697 424.122 151.7 418.138 164.997 413.112C163.368 417.172 159.808 418.954 158.256 423.818L157.642 425.683C141.54 432.658 127.421 442.015 112.191 450.546C109.93 449.29 107.525 448.271 106.516 445.742C106.925 444.683 106.897 444.805 107.678 444.158Z" fill="#F15C00"/>
<path d="M98.1843 430.621C94.2823 424.949 88.7753 409.431 86.9223 402.534C86.4743 400.869 85.9913 399.406 86.8853 397.862C88.7603 396.966 90.5673 396.985 92.5953 396.905C92.0843 398.609 91.7033 400.148 92.6713 401.787C93.2863 402.828 94.5203 403.705 95.7233 403.955C96.5103 404.119 97.3833 404.085 98.1853 404.073C96.9773 404.669 96.0963 405.059 95.6173 406.442C94.1483 410.68 100.492 423.155 102.122 427.531C101.163 425.535 100.31 423.042 98.1043 422.178L97.0483 422.469C96.4713 423.668 96.1493 424.437 96.6183 425.77C97.1223 427.201 98.1333 428.578 98.7623 429.998L98.1843 430.621Z" fill="#FFCD1F"/>
<path d="M636.448 315.684C645.203 321.603 653.571 326.254 663.848 328.945C669.068 330.032 674.301 331.293 679.625 331.709C676.126 341.006 671.684 349.913 667.667 358.991C662.837 369.907 658.43 380.981 653.186 391.717C645.966 406.497 638.082 421.151 632.026 436.446C626.783 439.258 620.249 441.476 614.437 442.693C603.536 446.773 591.687 450.833 580.352 453.447C586.425 435.187 594.696 417.426 602.187 399.717C609.162 383.229 615.606 366.518 622.504 350.001C627.258 338.617 632.52 327.391 636.448 315.684Z" fill="#F15C00"/>
<path d="M663.849 328.945C669.069 330.032 674.301 331.293 679.625 331.709C676.126 341.006 671.684 349.913 667.667 358.991C662.837 369.907 658.43 380.981 653.186 391.717C645.966 406.497 638.082 421.151 632.026 436.446C626.783 439.258 620.249 441.476 614.438 442.693C618.039 433.642 623.249 425.446 627.444 416.7C634.746 401.476 641.311 385.908 648.815 370.763C652.63 363.063 656.361 355.292 660.376 347.696C662.992 342.744 666.014 337.89 668.367 332.817C668.097 331.935 668.028 331.484 668.008 330.594L668.72 331.532C668.691 331.018 668.235 330.801 667.871 330.458C666.409 330.339 665.553 329.91 664.307 329.208L663.849 328.945Z" fill="#3E200B"/>
<path d="M651.245 327.878L652.728 329.291C652.973 330.619 653.306 331.652 653.871 332.886C653.951 333.062 654.447 334.093 654.506 334.317C655.102 336.569 651.82 342.342 650.81 344.434C644.227 358.066 635.249 370.196 627.814 383.323C622.523 392.664 618.462 403.363 612.978 412.342C612.113 413.76 611.028 415.525 609.449 416.08C609.946 408.173 614.633 394.852 617.395 387.159C621.32 376.225 636.585 338.947 642.458 330.896C643.329 329.702 644.611 328.638 646.168 328.644C648.203 328.651 649.882 330.138 651.351 331.354C652.004 331.894 651.633 331.762 652.369 331.834C651.831 330.785 651.455 330.003 651.331 328.817C651.298 328.504 651.274 328.191 651.245 327.878Z" fill="#E09328"/>
<path d="M174.014 440.231C173.762 440.117 173.492 440.037 173.259 439.888C170.66 438.231 169.064 431.537 168.569 428.643C168.329 427.245 168.43 426.078 169.33 424.937C174.584 418.279 204.953 406.913 213.532 405.829C216.104 408.716 218.221 412.58 219.687 416.144C220.95 419.213 221.829 421.075 220.48 424.238L222.078 423.653C223.055 425.683 222.979 427.653 224.126 429.651C228.621 440.197 232.081 445.657 227.398 457.105C225.388 462.017 221.596 468.618 216.49 470.641C212.858 472.08 208.883 469.927 205.623 468.381C195.807 463.728 183.073 458.006 176.668 449.02C175.679 447.607 173.95 441.994 174.185 440.473L175.954 440.38L174.014 440.231Z" fill="#F15C00"/>
<path d="M174.014 440.231C173.762 440.117 173.492 440.037 173.259 439.888C170.66 438.231 169.064 431.537 168.569 428.643C168.329 427.245 168.43 426.078 169.33 424.937C174.584 418.279 204.953 406.913 213.532 405.829C216.104 408.716 218.221 412.58 219.687 416.144C220.95 419.213 221.829 421.075 220.48 424.238C217.096 426.288 214.078 428.66 210.464 430.337C201.751 434.327 193.391 437.257 184.045 439.371C180.734 439.727 177.186 439.207 174.014 440.231Z" fill="#F15C00"/>
<path d="M184.042 439.371C183.342 439.179 182.716 438.955 182.043 438.69L182.517 438.319C182.822 435.991 184.449 434.634 186.063 433.09C187.613 431.606 189.348 429.687 191.243 428.661C195.45 426.384 202.827 428.087 205.424 425.913C205.623 425.747 205.812 425.569 206.006 425.397C207.823 426.267 209.247 428.743 210.461 430.337C201.748 434.327 193.388 437.257 184.042 439.371Z" fill="#E09328"/>
<path d="M220.478 424.238L222.076 423.653C223.053 425.683 222.977 427.653 224.124 429.651C222.104 434.636 217.098 435.869 212.869 438.465C204.925 442.346 196.965 444.511 188.652 447.261L187.668 447.57C184.414 448.186 179.485 447.855 176.666 449.02C175.677 447.607 173.948 441.994 174.183 440.473L175.952 440.38L174.012 440.231C177.184 439.207 180.732 439.727 184.043 439.371C193.389 437.257 201.749 434.327 210.462 430.337C214.076 428.66 217.094 426.288 220.478 424.238Z" fill="#3E200B"/>
<path d="M212.869 438.465L214.014 441.731C213.738 441.846 213.459 441.954 213.187 442.077C206.92 444.893 202.894 453.095 194.718 450.602C192.618 449.961 190.23 448.798 188.652 447.261C196.965 444.511 204.925 442.346 212.869 438.465Z" fill="#E09328"/>
<path d="M188.652 447.261C190.23 448.798 192.618 449.961 194.718 450.602C202.894 453.095 206.92 444.893 213.187 442.077C213.459 441.954 213.738 441.846 214.014 441.731C213.262 442.589 210.815 444.508 210.468 445.317C210.264 445.792 210.719 446.932 210.569 447.471C209.751 450.403 203.137 451.496 200.71 451.692C196.414 452.037 191.796 451.341 188.437 448.418C188.008 448.044 187.969 447.962 187.668 447.57L188.652 447.261Z" fill="#F15C00"/>
<path d="M649.244 310.919C642.242 306.981 636.183 301.521 633.382 293.801C631.595 288.874 631.166 282.811 633.478 277.975C636.016 272.666 640.911 270.592 646.133 268.773C647.924 271.697 649.808 274.311 652.079 276.879C658.997 283.623 667.307 289.113 676.666 291.843C681.03 292.862 685.401 293.999 689.811 294.795C693.8 294.93 697.571 294.821 701.537 294.377C703.323 297.427 704.951 300.139 704.625 303.832C703.893 308.58 702.265 311.634 698.267 314.454C691.592 319.161 680.145 320.6 672.206 319.222C671.035 319.019 669.856 318.723 668.721 318.368C665.537 318.356 661.265 316.473 658.398 315.18C655.128 314.068 652.248 312.601 649.244 310.919Z" fill="url(#paint12_linear_759_4001)"/>
<path d="M666.112 307.27C663.052 306.334 660.054 305.203 657.138 303.885C651.85 301.512 646.641 298.1 644.607 292.394C643.497 289.283 642.746 282.719 644.635 279.743C646.105 277.428 649.653 277.278 652.079 276.879C658.997 283.623 667.307 289.113 676.666 291.843C677.984 293.695 679.759 297.036 679.35 299.362C678.948 301.653 677.268 303.168 675.336 304.282C672.516 305.909 669.25 306.534 666.112 307.27Z" fill="#E28403"/>
<path d="M676.663 291.843C681.027 292.862 685.398 293.999 689.808 294.795C690.997 297.689 691.727 299.815 690.382 302.809C689.485 304.803 688.067 306.458 686.599 308.049C679.169 310.973 673.375 309.987 666.109 307.27C669.247 306.534 672.513 305.909 675.333 304.282C677.265 303.168 678.945 301.653 679.347 299.362C679.756 297.036 677.981 293.695 676.663 291.843Z" fill="url(#paint13_linear_759_4001)"/>
<path d="M668.719 318.368C672.316 317.26 676.729 318.523 680.558 318.221C690.551 317.433 698.246 311.114 704.623 303.832C703.891 308.58 702.263 311.634 698.265 314.454C691.59 319.161 680.143 320.6 672.204 319.222C671.033 319.019 669.854 318.723 668.719 318.368Z" fill="#E09328"/>
<path d="M649.243 310.919C648.797 309.026 648.387 308.608 649.584 306.867C650.08 306.144 650.429 305.805 651.227 305.494C652.598 305.846 653.125 306.226 653.885 307.508C654.2 308.041 654.488 308.594 654.777 309.141C657.79 311.042 660.535 309.621 663.745 310.399C660.75 311.228 657.588 310.327 654.657 311.326L654.441 311.959C655.992 313.082 657.716 313.371 658.397 315.18C655.127 314.068 652.247 312.601 649.243 310.919Z" fill="#E09328"/>
<path d="M300.24 566.422C306.613 560.561 313.791 558.782 322.235 559.122C329.172 559.401 346.124 559.428 351.9 562.63C352.183 564.652 351.426 565.903 350.196 567.531C349.491 568.466 348.807 569.41 347.887 570.144C333.956 583.023 321.599 593.66 301.5 592.915C291.428 592.542 281.341 590.297 272.367 585.686C277.01 581.919 282.226 578.913 287.006 575.32C291.334 572.203 295.601 569.069 300.24 566.422Z" fill="#C46811"/>
<path d="M340.428 569.509C343.078 569.425 345.285 569.505 347.887 570.144C333.956 583.023 321.599 593.66 301.5 592.915C291.428 592.542 281.341 590.297 272.367 585.686C277.01 581.919 282.226 578.913 287.006 575.32C290.962 579.385 297.094 582.757 302.701 583.441C309.467 584.266 322.176 580.062 328.351 577.328C329.895 576.644 331.195 575.569 332.756 574.935C335.858 573.675 340.157 572.719 342.754 570.667L342.694 570.11L340.428 569.509Z" fill="#E09328"/>
<path d="M300.238 566.422C306.611 560.561 313.789 558.782 322.233 559.122C329.17 559.401 346.122 559.428 351.898 562.63C352.181 564.652 351.424 565.903 350.194 567.531C349.489 568.466 348.805 569.41 347.885 570.144C345.283 569.505 343.076 569.425 340.426 569.509C327.08 569.953 313.528 565.195 300.238 566.422Z" fill="#F15C00"/>
<path d="M474.576 557.381C475.37 555.678 476.726 554.093 477.99 552.699C479.872 550.623 481.962 548.575 484.462 547.265C489.47 544.641 515.87 536.723 521.314 536.435C522.217 536.995 522.496 537.048 522.708 538.167C523.168 540.595 521.858 542.746 520.549 544.637C506.698 567.37 498.664 578.434 471.513 585.007C464.819 586.628 457.681 587.926 450.781 587.211C453.805 582.183 457.752 576.652 462.04 572.636C465.92 567.213 469.516 561.792 474.576 557.381Z" fill="#E09328"/>
<path d="M511.032 545.985C514.125 544.866 517.302 544.777 520.549 544.637C506.698 567.37 498.664 578.434 471.513 585.007C464.819 586.628 457.681 587.926 450.781 587.211C453.805 582.183 457.752 576.652 462.04 572.636C462.525 572.768 463.013 572.893 463.497 573.032C468.326 574.411 472.547 574.638 477.437 573.446C484.777 571.657 511.447 552.413 515.097 546.45C513.751 546.225 512.39 546.117 511.032 545.985Z" fill="#F15C00"/>
<path d="M474.574 557.381C475.368 555.678 476.724 554.093 477.988 552.699C479.87 550.623 481.96 548.575 484.46 547.265C489.468 544.641 515.868 536.723 521.312 536.435C522.215 536.995 522.494 537.048 522.706 538.167C523.166 540.595 521.856 542.746 520.547 544.637C517.3 544.777 514.123 544.866 511.03 545.985C504.359 548.173 497.497 549.763 490.815 551.924C485.425 553.667 480.091 556.117 474.574 557.381Z" fill="#F15C00"/>
<path d="M244.875 555.741C255.267 549.777 264.589 551.459 275.734 553.351C280.191 554.108 284.772 554.757 289.141 555.931C291.174 556.477 293.085 557.295 295.048 558.036C293.441 560.062 291.093 563.677 288.507 564.313C274.253 574.836 261.149 585.953 242.288 583.011C232.183 581.435 220.377 577.93 211.867 572.186C215.89 570.262 220.368 567.486 224.543 566.098C231.172 562.309 237.846 558.736 244.875 555.741Z" fill="url(#paint14_linear_759_4001)"/>
<path d="M281.002 563.154C283.524 563.447 286.045 563.671 288.507 564.313C274.253 574.836 261.149 585.953 242.288 583.011C232.183 581.435 220.377 577.93 211.867 572.186C215.89 570.262 220.368 567.486 224.543 566.098C226.772 567.902 229.137 569.221 231.763 570.341C244.619 575.826 261.173 573.499 273.767 568.349C275.831 567.505 280.106 565.345 281.002 563.154Z" fill="#E09328"/>
<path d="M244.875 555.741C255.267 549.777 264.589 551.459 275.734 553.351C280.191 554.108 284.772 554.757 289.141 555.931C291.174 556.477 293.085 557.295 295.048 558.036C293.441 560.062 291.093 563.677 288.507 564.313C286.045 563.671 283.524 563.447 281.002 563.154C268.907 561.515 256.825 558.266 244.875 555.741Z" fill="#F15C00"/>
<path d="M359.606 571.338C363.285 566.438 368.204 563.714 373.946 561.894C378.361 560.494 405.73 557.899 409.049 559.589C409.484 560.226 409.883 560.553 409.903 561.358C409.968 564.024 407.325 566.404 405.564 568.144C391.67 583.723 382.142 594.479 360.078 595.855C351.523 596.388 341.27 595.851 333.008 593.563C336.909 589.832 341.886 586.015 346.5 583.208C350.839 579.205 355.136 575.199 359.606 571.338Z" fill="#C46811"/>
<path d="M388.938 569.384C394.092 568.18 400.251 568.473 405.564 568.144C391.67 583.723 382.142 594.479 360.078 595.855C351.523 596.388 341.27 595.851 333.008 593.563C336.909 589.832 341.886 586.015 346.5 583.208C347.22 584.013 347.952 584.803 348.782 585.498C352.331 588.47 357.908 588.863 362.322 588.372C368.379 587.698 391.183 577.701 394.716 573.258C394.535 573.226 394.354 573.195 394.174 573.161C391.59 572.666 390.675 571.985 389.22 569.814L388.938 569.384Z" fill="#E09328"/>
<path d="M359.605 571.338C363.284 566.438 368.203 563.714 373.945 561.894C378.36 560.494 405.729 557.899 409.048 559.589C409.483 560.226 409.882 560.553 409.902 561.358C409.967 564.024 407.324 566.404 405.563 568.144C400.25 568.473 394.091 568.18 388.937 569.384C379.302 569.669 369.035 569.246 359.605 571.338Z" fill="#F15C00"/>
<path d="M420.376 566.354C422.83 562.889 427.127 559.606 430.844 557.644C435.669 555.098 458.331 550.329 462.443 552.089C463.8 552.67 463.944 552.907 464.541 554.164C464.367 556.413 462.293 558.434 460.896 560.115C450.469 575.683 441.602 588.223 422.197 592.082C413.692 593.773 402.149 595.386 393.723 593.188C400.94 585.961 412.231 570.438 420.376 566.354Z" fill="url(#paint15_linear_759_4001)"/>
<path d="M420.375 566.354C422.829 562.889 427.126 559.606 430.843 557.644C435.668 555.098 458.33 550.329 462.442 552.089C463.799 552.67 463.943 552.907 464.54 554.164C464.366 556.413 462.292 558.434 460.895 560.115C458.22 559.194 425.506 565.659 420.375 566.354Z" fill="#F15C00"/>
<path d="M747.922 553.545C747.991 550.802 748.32 548.152 748.685 545.437C761.153 559.002 783.486 589.536 782.893 608.401C782.798 611.41 782.115 614.703 779.728 616.761C777.837 618.39 774.849 619.284 772.374 618.985C768.46 618.512 765.561 615.638 763.335 612.603C759.174 606.933 754.58 598.684 752.098 592.103C744.621 581.579 747.28 565.756 747.922 553.545Z" fill="#E09328"/>
<path d="M747.922 553.545C748.261 553.548 748.601 553.557 748.94 553.556C750.176 553.555 750.974 553.274 752.104 552.811C758.755 557.128 763.293 568.162 764.908 575.628C766.264 581.892 766.152 587.622 764.517 593.823C762.248 594.149 759.95 594.573 757.661 594.712C755.802 593.853 753.947 592.984 752.098 592.103C744.621 581.579 747.28 565.756 747.922 553.545Z" fill="#E28403"/>
<path d="M187.319 540.004C199.867 534.723 209.521 537.648 222.002 541.158C226.345 542.38 231.151 543.352 235.322 545.054C236.403 545.495 236.825 545.501 237.297 546.58C236.303 549.76 232.72 551.976 230.034 553.734C220.222 559.521 210.046 567.289 198.012 566.578C185.374 565.83 170.073 556.794 161.762 547.561C169.13 545.262 176.366 542.406 183.919 540.781C185.059 540.574 186.19 540.269 187.319 540.004Z" fill="#E09328"/>
<path d="M187.316 540.004C199.864 534.723 209.518 537.648 221.999 541.158C226.342 542.38 231.148 543.352 235.319 545.054C236.4 545.495 236.822 545.501 237.294 546.58C236.3 549.76 232.717 551.976 230.031 553.734C228.436 551.771 225.02 551.025 222.669 550.232L222.683 550.885C223.307 551.675 222.978 551.414 223.568 551.785L222.911 551.631C223.572 551.869 224.477 552.011 225.081 552.268C225.358 552.385 225.582 552.601 225.833 552.768C217.597 551.773 218.803 553.803 211.967 555.171C210.813 554.009 209.526 552.77 208.562 551.449C207.448 549.923 207.887 549.013 208.222 547.31C207.549 546.776 206.596 546.747 205.777 546.495C204.442 546.084 203.72 546.053 203.089 544.771C197.905 542.647 192.81 541.112 187.316 540.004Z" fill="#F15C00"/>
<path d="M203.09 544.771C209.435 546.398 216.55 548.02 222.67 550.232L222.684 550.885C223.308 551.675 222.979 551.414 223.569 551.785L222.912 551.631C223.573 551.869 224.478 552.011 225.082 552.268C225.359 552.385 225.583 552.601 225.834 552.768C217.598 551.773 218.804 553.803 211.968 555.171C210.814 554.009 209.527 552.77 208.563 551.449C207.449 549.923 207.888 549.013 208.223 547.31C207.55 546.776 206.597 546.747 205.778 546.495C204.443 546.084 203.721 546.053 203.09 544.771Z" fill="url(#paint16_linear_759_4001)"/>
<path d="M187.319 540.004C192.813 541.112 197.908 542.647 203.092 544.771C203.723 546.053 204.445 546.084 205.78 546.495C206.599 546.747 207.552 546.776 208.225 547.31C207.89 549.013 207.451 549.923 208.565 551.449C209.529 552.77 210.816 554.009 211.97 555.171C205.51 557.818 198.334 558.685 191.734 555.871C187.932 554.249 184.291 551.559 182.771 547.578C181.79 545.008 182.921 543.121 183.919 540.781C185.059 540.574 186.19 540.269 187.319 540.004Z" fill="#E28403"/>
<path d="M530.344 544.557C530.425 544.415 530.504 544.273 530.586 544.132C539.117 529.49 552.689 525.874 568.113 521.986C569.461 521.646 570.767 521.271 572.142 521.632C573.254 524.503 571.628 527.526 570.446 530.193C565.647 541.025 558.703 555.237 548.825 562.307C545.924 564.383 542.334 565.926 539.014 567.194C534.343 568.977 517.118 574.726 513.37 573.159C513.24 573.105 513.126 573.021 513.004 572.951C513.897 569.464 517.612 563.233 520.032 560.712C523.552 555.17 525.819 549.491 530.344 544.557Z" fill="#F15C00"/>
<path d="M530.343 544.557C541.002 541.475 550.919 536.37 561.677 533.761C561.334 534.69 561.63 534.323 560.921 534.809C558.631 536.379 557.587 538.669 555.689 540.683C549.702 547.035 533.988 563.526 524.934 562.009C523.911 561.838 522.921 561.447 521.941 561.118C521.285 560.897 520.719 560.776 520.031 560.712C523.551 555.17 525.818 549.491 530.343 544.557Z" fill="#E09328"/>
<path d="M683.218 486.579C687.907 484.123 691.06 483.547 696.383 483.698C701.633 487.15 704.622 491.467 705.971 497.663C707.845 506.269 707.097 523.611 705.985 532.441C698.436 524.92 691.769 517.743 689.422 506.942C688.824 504.193 689.388 500.321 688.188 497.936C683.288 500.814 680.367 510.534 675.854 514.801C670.253 520.093 662.031 523.208 655.074 526.241C657.216 522.887 658.739 519.461 660.328 515.828C662.643 509.071 663.884 502.011 666.16 495.241C670.868 491.146 677.512 488.989 683.218 486.579Z" fill="#F15C00"/>
<path d="M666.16 495.241C670.868 491.146 677.512 488.989 683.218 486.579C682.572 494.016 671.072 508.518 665.261 513.295C663.958 514.366 662.059 515.69 660.328 515.828C662.643 509.071 663.884 502.011 666.16 495.241Z" fill="url(#paint17_linear_759_4001)"/>
<path d="M654.274 251.003C654.416 248.844 654.525 246.896 655.216 244.824L655.909 244.261C673.325 251.806 691.847 259.849 710.333 264.254C710.512 265.851 710.726 267.061 709.727 268.452C708.902 269.599 707.613 270.683 706.603 271.678C703.758 275.599 697.311 278.872 696.344 283.615C694.163 283.737 691.924 283.749 689.743 283.622C679.306 283.013 667.982 277.833 661.04 269.958C656.31 264.591 653.771 258.167 654.274 251.003Z" fill="#E09328"/>
<path d="M654.273 251.003C654.415 248.844 654.524 246.896 655.215 244.824L655.908 244.261C673.324 251.806 691.846 259.849 710.332 264.254C710.511 265.851 710.725 267.061 709.726 268.452C708.901 269.599 707.612 270.683 706.602 271.678L706.354 271.013C700.024 267.234 681.34 261.208 674.063 259.341C672.566 258.852 671.067 258.089 669.616 257.462C664.384 255.793 659.477 252.848 654.273 251.003Z" fill="#F15C00"/>
<path d="M664.543 263.464L665.463 262.454C668.586 262.037 671.068 262.383 674.116 263.165C681.258 266.737 688.754 270.101 695.626 274.168C685.908 274.976 675.087 273.146 667.322 266.789C666.141 265.822 665.336 264.754 664.543 263.464Z" fill="#C46811"/>
<path d="M664.544 263.464L664.512 262.263C665.724 259.954 667.351 258.68 669.62 257.462C671.071 258.089 672.57 258.852 674.067 259.341L673.217 259.582L671.306 259.071L670.728 259.565C671.074 261.253 672.784 262.104 674.117 263.165C671.069 262.383 668.587 262.037 665.464 262.454L664.544 263.464Z" fill="#E09328"/>
<path d="M650.579 629.964C651.996 625.531 654.525 620.965 656.761 616.885C661.236 632.479 670.51 666.018 662.648 680.224C661.103 683.016 658.742 685.227 655.64 686.142C652.662 687.019 649.392 686.45 646.75 684.867C642.593 682.377 640.161 677.929 639.15 673.3C638.556 670.581 638.333 667.64 638.59 664.87L639.138 662.118C641.342 650.704 645.994 640.552 650.579 629.964Z" fill="#E09328"/>
<path d="M650.578 629.964C655.647 637.791 657.273 643.846 655.309 653.059C655.003 654.519 654.646 655.967 654.238 657.402C651.772 659.993 648.968 663.379 645.034 663.343C643.366 663.328 640.59 662.87 639.137 662.118C641.341 650.704 645.993 640.552 650.578 629.964Z" fill="#E28403"/>
<path d="M639.138 662.118C640.591 662.87 643.367 663.328 645.035 663.343C648.969 663.379 651.773 659.993 654.239 657.402C653.426 660.908 652.734 664.882 650.591 667.86C648.475 667.202 645.185 665.595 643.07 666.045L641.191 667.958C640.11 667.03 639.005 666.295 638.59 664.87L639.138 662.118Z" fill="#C46811"/>
<path d="M637.66 568.406C643.991 574.825 650.011 591.613 649.967 600.588C649.916 611.325 643.823 626.555 640.352 637.033C639.202 640.507 637.648 643.898 637.06 647.507C636.932 648.296 637 648.004 636.523 648.782C635.768 648.063 636.002 648.496 635.801 647.615C634.05 639.934 630.893 632.657 629.194 624.901C628.615 621.919 627.674 619.036 627.27 616.016C625.7 604.267 629.658 593.218 633.733 582.398C634.883 577.695 636.308 573.054 637.66 568.406Z" fill="#E09328"/>
<path d="M633.733 582.398C636.693 583.308 638.041 583.693 639.577 586.575C644.68 596.151 642.124 613.582 639.021 623.347C638.471 625.075 637.868 627.107 636.202 628.053C633.849 627.041 631.512 625.991 629.194 624.901C628.615 621.919 627.674 619.036 627.27 616.016C625.7 604.267 629.658 593.218 633.733 582.398Z" fill="#E28403"/>
<path d="M649.636 497.679C650.857 497.582 652.022 497.462 653.243 497.65C654.151 497.789 653.825 497.671 654.392 498.509C653.774 506.036 649.693 514.745 645.727 521.131C638.607 532.596 627.216 538.654 614.372 541.73C612.356 542.153 610.307 542.377 608.266 542.642C610.945 537.062 613.457 531.473 615.605 525.664C617.564 520.364 618.934 513.82 622.014 509.083C626.441 502.276 641.957 499.37 649.636 497.679Z" fill="url(#paint18_linear_759_4001)"/>
<path d="M714.809 509.955C726.851 520.418 739.972 531.342 741.193 548.204C741.831 556.999 741.236 565.973 741.081 574.787C739.5 572.849 737.282 570.642 736.076 568.491C730.523 562.207 725.369 555.464 720.401 548.709C713.842 542.32 713.6 533.202 713.493 524.559C713.432 519.632 713.947 514.801 714.809 509.955Z" fill="#E09328"/>
<path d="M722.968 540.025L726.516 536.891C732.383 542.396 736.166 550 736.493 558.118C736.631 561.546 736.283 565.066 736.077 568.491C730.524 562.207 725.37 555.464 720.402 548.709C721.194 545.787 722.008 542.897 722.968 540.025Z" fill="url(#paint19_linear_759_4001)"/>
<path d="M608.115 509.88L611.856 511.907C609.142 524.994 600.758 541.368 589.359 548.939C582.414 553.552 574.169 555.692 566.109 557.41C567.233 555.092 568.397 551.817 570.131 549.92C573.187 543.604 576.304 537.318 579.483 531.062C583.059 523.139 588.826 516.2 597.136 513.091C600.708 511.755 604.425 510.825 608.115 509.88Z" fill="#F15C00"/>
<path d="M579.485 531.062L579.922 530.926C585.85 529.031 596.496 523.003 602.456 524.634C602.476 529.515 592.629 540.141 589.191 543.612C583.529 549.327 577.51 549.302 570.133 549.92C573.189 543.604 576.306 537.318 579.485 531.062Z" fill="#E09328"/>
<path d="M143.122 506.318C149.478 509.28 155.379 513.913 161.565 517.311C170.451 522.193 180.325 526.228 189.636 530.261C185.574 531.699 181.292 532.543 177.369 534.36C169.296 537.425 161.437 539.963 153.006 541.863C151.16 540.816 149.462 539.526 147.959 538.027C142.78 532.939 137.404 524.999 137.521 517.474C137.595 512.679 139.805 509.553 143.122 506.318Z" fill="url(#paint20_linear_759_4001)"/>
<path d="M156.506 526.197C163.233 526.455 167.129 527.761 172.374 531.929C170.129 532.837 167.828 533.633 165.558 534.476C163.075 535.599 160.672 536.165 157.981 535.325C156.178 534.762 153.438 533.153 152.78 531.248C152.286 529.818 152.483 529.372 152.95 528.016C154.128 526.849 154.9 526.562 156.506 526.197Z" fill="#E28403"/>
<path d="M616.575 584.563C613.208 577.592 607.724 564.814 610.236 557.03C610.79 555.314 611.66 554.069 613.335 553.338C616.221 552.076 626.478 548.884 629.207 550.4C630.374 551.049 630.944 552.308 631.173 553.565C632.058 558.421 623.895 589.559 622.189 596.294C621.517 594.673 620.496 592.823 620.192 591.109C618.799 589.032 617.714 586.786 616.575 584.563Z" fill="url(#paint21_linear_759_4001)"/>
<path d="M616.574 584.563C617.85 584.412 619.103 584.255 620.391 584.257C620.969 584.827 621.431 584.979 621.45 585.85C621.485 587.441 620.833 589.664 620.191 591.109C618.798 589.032 617.713 586.786 616.574 584.563Z" fill="#E09328"/>
<path d="M668.833 385.897C670.72 388.121 672.772 390.378 674.212 392.918C676.364 396.715 677.281 400.928 675.908 405.157C673.069 413.901 663.23 422.02 655.21 425.918C653.206 427.219 651.029 428.286 648.922 429.412C656.426 415.38 661.358 399.933 668.833 385.897Z" fill="#3E200B"/>
<path d="M234.876 456.831C237.891 459.6 243.027 476.046 245.744 481.082L236.308 478.182C232.148 476.907 227.86 475.965 223.637 474.915C229.78 469.784 232.217 464.199 234.876 456.831Z" fill="#3E200B"/>
<path d="M710.333 264.254L719.51 265.803C716.972 272.433 713.574 278.023 706.853 281.141C703.498 282.698 699.98 283.233 696.344 283.615C697.311 278.872 703.758 275.599 706.603 271.678C707.613 270.683 708.902 269.599 709.727 268.452C710.726 267.061 710.512 265.851 710.333 264.254Z" fill="#F15C00"/>
<path d="M126.792 374.524C118.991 358.832 108.958 343.109 100.164 327.862C77.8524 289.243 54.9964 250.941 31.6014 212.969C25.8664 203.5 19.8134 194.168 13.7574 184.901C10.3314 179.658 6.26743 174.406 3.57643 168.764C-2.49877 156.025 2.93943 45.5959 8.62543 30.6657C9.43643 28.5373 10.7444 26.2071 12.9874 25.3512C18.6114 23.2046 31.2724 29.8508 36.2744 32.3432C63.2034 45.7623 93.2134 68.0849 116.606 86.9208C121.426 90.8028 127.565 94.9709 131.306 99.9269C135.251 105.153 145.017 139.125 147.68 147.328L170.498 217.148L208.951 330.899C209.41 335.393 211.941 340.158 213.146 344.575C214.144 347.676 214.936 350.772 215.664 353.946L215.542 356.964C211.703 356.965 208.847 357.389 205.813 359.902L205.277 360.142C195.946 360.638 183.39 353.487 174.093 351.067C170.37 350.098 167.786 349.784 164.416 351.761L161.688 355.925L149.101 378.93C147.087 379.121 145.05 379.256 143.047 379.53C139.153 380.243 134.317 381.672 130.418 381.456C129.289 379.086 128.173 376.762 126.792 374.524Z" fill="#3E200B"/>
<path d="M20.6199 42.0405C22.7979 45.6992 24.0679 49.7798 26.1309 53.4711C33.0829 68.8094 40.7259 83.8189 48.0729 98.9689C55.8149 115.017 63.4049 131.139 70.8409 147.332C74.9329 156.172 79.5679 165.006 83.2339 174.013C89.5029 187.213 96.1529 200.213 102.33 213.463C104.685 218.516 107.501 223.686 109.273 228.95L108.821 229.765C110.346 233.052 112.406 236.491 113.314 239.976C113.539 240.841 114.05 241.533 114.534 242.271C113.99 243.076 113.758 243.238 112.963 243.733L112.438 243.6L113.031 243.622C112.965 244.135 112.894 244.644 112.859 245.16C111.647 243.229 109.98 238.627 108.277 237.508C114.563 255.109 124.569 274.196 132.252 291.549C138.788 306.376 145.467 321.139 152.289 335.837C155.271 342.338 157.972 349.848 161.688 355.925L149.101 378.93C147.087 379.121 145.05 379.256 143.047 379.53C139.566 371.481 134.589 363.601 130.343 355.919C121.809 340.493 113.19 325.115 104.485 309.785C76.2159 260.088 47.9059 209.699 15.9659 162.272C13.8769 158.831 14.8749 149.061 14.8469 144.869C14.5679 120.422 15.4479 95.9759 17.4859 71.6127C18.2859 61.7806 18.8469 51.7473 20.6199 42.0405Z" fill="url(#paint22_linear_759_4001)"/>
<path d="M83.2344 174.013L83.3844 173.574C83.7994 172.326 84.0464 171.2 84.2214 169.897C85.4564 160.699 111.276 122.424 117.502 111.113C119.482 120.128 123.028 128.616 125.832 137.384C131.13 154.497 136.535 171.575 142.047 188.62C147.744 206.463 153.553 224.271 159.474 242.041C161.818 248.997 163.625 256.564 166.683 263.213L169.334 259.082C172.388 268.476 175.011 278.439 178.733 287.566L179.254 287.431C188.427 311.445 196.639 335.925 205.277 360.142C195.946 360.638 183.39 353.487 174.093 351.067C170.37 350.098 167.786 349.784 164.416 351.761L161.688 355.925C157.972 349.848 155.271 342.338 152.289 335.837C145.467 321.139 138.788 306.376 132.252 291.549C124.569 274.196 114.563 255.109 108.277 237.508C109.98 238.627 111.647 243.229 112.859 245.16C112.894 244.644 112.965 244.135 113.031 243.622L112.438 243.6L112.963 243.733C113.758 243.238 113.99 243.076 114.534 242.271C114.05 241.533 113.539 240.841 113.314 239.976C112.406 236.491 110.346 233.052 108.821 229.765L109.273 228.95C107.501 223.686 104.685 218.516 102.33 213.463C96.1534 200.213 89.5034 187.213 83.2344 174.013Z" fill="url(#paint23_linear_759_4001)"/>
<path d="M109.273 228.95C111.734 232.633 113.356 237.276 115.183 241.337L126.031 265.675L164.416 351.761L161.688 355.925C157.972 349.848 155.271 342.338 152.289 335.837C145.467 321.139 138.788 306.376 132.252 291.549C124.569 274.196 114.563 255.109 108.277 237.508C109.98 238.627 111.647 243.229 112.859 245.16C112.894 244.644 112.965 244.135 113.031 243.622L112.438 243.6L112.963 243.733C113.758 243.238 113.99 243.076 114.534 242.271C114.05 241.533 113.539 240.841 113.314 239.976C112.406 236.491 110.346 233.052 108.821 229.765L109.273 228.95Z" fill="url(#paint24_linear_759_4001)"/>
<path d="M26.1289 53.4713C26.2689 52.4486 26.0599 51.6395 26.9429 50.9889C28.3039 49.9851 29.7579 49.8464 31.3609 50.2123C36.2409 51.3252 41.6129 55.6147 45.8209 58.2918C63.1259 69.3011 79.7369 81.2371 96.1599 93.5221C102.143 97.9971 107.783 103.016 113.852 107.353C115.291 108.382 116.912 109.958 118.707 108.758C119.009 108.556 119.386 108.096 119.633 107.816C120.175 108.292 120.581 108.727 120.839 109.419C125.304 121.361 128.829 133.909 132.818 146.047L156.501 217.941L171.264 262.493C173.987 270.682 177.231 279.059 179.252 287.431L178.731 287.566C175.009 278.439 172.386 268.476 169.332 259.082L166.681 263.213C163.623 256.564 161.816 248.997 159.472 242.041C153.551 224.271 147.742 206.463 142.045 188.62C136.533 171.575 131.128 154.497 125.83 137.384C123.026 128.616 119.48 120.128 117.5 111.113C111.274 122.424 85.4539 160.699 84.2189 169.897C84.0439 171.2 83.7969 172.326 83.3819 173.574L83.2319 174.013C79.5659 165.006 74.9309 156.172 70.8389 147.332C63.4029 131.139 55.8129 115.017 48.0709 98.9691C40.7239 83.8191 33.0809 68.8096 26.1289 53.4713Z" fill="url(#paint25_linear_759_4001)"/>
<path d="M20.6172 42.0404L21.0242 41.0604C24.2192 40.8268 29.6542 44.7116 32.4102 46.2229C61.6692 62.2692 93.6902 84.8878 118.64 106.901C118.978 107.199 119.306 107.505 119.632 107.816C119.385 108.096 119.008 108.556 118.706 108.758C116.911 109.958 115.29 108.382 113.851 107.353C107.782 103.016 102.142 97.9968 96.1592 93.5218C79.7362 81.2368 63.1252 69.3008 45.8202 58.2915C41.6122 55.6144 36.2402 51.3249 31.3602 50.212C29.7572 49.8461 28.3032 49.9848 26.9422 50.9886C26.0592 51.6392 26.2682 52.4483 26.1282 53.471C24.0652 49.7797 22.7952 45.6991 20.6172 42.0404Z" fill="#C3CEDD"/>
<path d="M702.898 197.218C702.831 197.053 702.776 196.882 702.696 196.723C700.792 192.923 695.969 188.658 693.362 184.847C683.128 169.662 680.126 150.732 685.159 133.126C689.503 117.602 699.844 104.445 713.902 96.5572C728.332 88.5732 745.966 87.1042 761.699 91.7212C777.923 96.4822 792.227 107.319 800.334 122.268C807.858 136.142 810.222 153.425 805.684 168.636C800.939 184.543 789.255 198.125 774.615 205.817C772.599 206.876 770.543 207.84 768.402 208.617C750.918 213.383 733.865 214.855 717.375 205.985C712.698 203.469 708.421 199.75 703.637 197.549C703.392 197.436 703.144 197.329 702.898 197.218Z" fill="#485769"/>
<path d="M697.275 163.072C693.294 147.109 697.604 130.214 708.746 118.11C719.888 106.005 736.368 100.313 752.606 102.96C776.75 106.897 794.272 128.066 793.629 152.521C792.986 176.975 774.375 197.194 750.058 199.857C725.74 202.52 703.195 186.807 697.275 163.072Z" fill="url(#paint26_linear_759_4001)"/>
<path d="M823.929 677.715C835.14 687.411 842.76 699.862 843.924 714.884C844.424 721.348 843.468 734.754 838.886 739.776C836.838 742.022 834.204 742.037 831.978 743.622C829.646 745.283 828.044 752.727 826.337 755.494C820.147 765.529 805.598 776.104 793.463 776.245C789.852 776.287 786.625 775.125 784.042 772.568C780.094 768.659 779.837 762.886 779.927 757.626C780.138 745.401 781.355 734.167 779.266 721.922C772.496 714.351 767.624 706.785 768.315 696.183C768.383 695.256 768.491 694.331 768.639 693.413C770.191 692.645 771.386 692.97 773.021 693.563C774.474 694.09 776.285 694.869 777.31 696.068C779.177 696.45 781.063 696.73 782.96 696.907C795.377 698.075 806.735 693.595 816.165 685.741L816.518 685.436L817.099 684.921C819.646 682.696 821.755 680.302 823.929 677.715Z" fill="#F15C00"/>
<path d="M823.929 677.715C835.14 687.411 842.76 699.862 843.924 714.884C844.424 721.348 843.468 734.754 838.886 739.776C836.838 742.022 834.204 742.037 831.978 743.622C829.646 745.283 828.044 752.727 826.337 755.494C820.147 765.529 805.598 776.104 793.463 776.245C789.852 776.287 786.625 775.125 784.042 772.568C780.094 768.659 779.837 762.886 779.927 757.626C780.138 745.401 781.355 734.167 779.266 721.922C772.496 714.351 767.624 706.785 768.315 696.183C768.383 695.256 768.491 694.331 768.639 693.413C770.191 692.645 771.386 692.97 773.021 693.563C774.474 694.09 776.285 694.869 777.31 696.068C778.15 700.668 778.844 705.444 781.12 709.6C782.8 712.666 784.872 715.529 786.302 718.728C789.769 726.486 790.292 735.806 790.126 744.189C790.043 748.354 788.512 761.708 791.126 764.755C791.976 765.199 792.61 765.394 793.564 765.334C800.058 764.926 809.322 757.981 813.553 753.272C824.396 741.204 821.487 722.576 820.908 707.652C825.267 714.015 828.945 722.43 831.524 729.666C831.888 726.594 832.334 723.47 832.36 720.374C832.475 706.195 825.748 695.571 816.165 685.741L816.518 685.436L817.099 684.921C819.646 682.696 821.755 680.302 823.929 677.715Z" fill="#3E200B"/>
<path d="M782.246 710.634C789.011 710.746 798.357 707.653 804.703 709.465C806.619 710.012 807.391 711.609 808.324 713.203C811.851 722.053 815.511 734.834 811.315 744.081C809.701 747.639 806.821 750.267 803.15 751.561C802.058 751.94 800.959 752.296 799.852 752.629C799.823 752.425 799.792 752.221 799.766 752.017C798.804 744.464 801.562 721 795.229 716.361C794.255 715.647 793.15 715.504 792.008 715.257L791.073 715.045L790.43 714.908C787.916 714.859 784.465 711.991 782.246 710.634Z" fill="url(#paint27_linear_759_4001)"/>
<path d="M782.246 710.634C789.011 710.746 798.357 707.653 804.703 709.465C806.619 710.012 807.391 711.609 808.324 713.203C803.128 713.064 794.98 712.171 790.43 714.908C787.916 714.859 784.465 711.991 782.246 710.634Z" fill="#E09328"/>
<defs>
<linearGradient id="paint0_linear_759_4001" x1="334.002" y1="232.492" x2="317.225" y2="215.075" gradientUnits="userSpaceOnUse">
<stop stop-color="#FFEA60"/>
<stop offset="1" stop-color="#FEFEFE"/>
</linearGradient>
<linearGradient id="paint1_linear_759_4001" x1="452.17" y1="426.827" x2="353.2" y2="222.01" gradientUnits="userSpaceOnUse">
<stop stop-color="#E28403"/>
<stop offset="1" stop-color="#FFCD1F"/>
</linearGradient>
<linearGradient id="paint2_linear_759_4001" x1="435.409" y1="393.318" x2="365.461" y2="257.478" gradientUnits="userSpaceOnUse">
<stop stop-color="#E28403"/>
<stop offset="1" stop-color="#FFCD1F"/>
</linearGradient>
<linearGradient id="paint3_linear_759_4001" x1="307.889" y1="316.974" x2="514.807" y2="391.13" gradientUnits="userSpaceOnUse">
<stop stop-color="#FFCD1F"/>
<stop offset="1" stop-color="#FFEA60"/>
</linearGradient>
<linearGradient id="paint4_linear_759_4001" x1="604.622" y1="401.125" x2="315.825" y2="158.396" gradientUnits="userSpaceOnUse">
<stop stop-color="#3E200B"/>
<stop offset="1" stop-color="#6B3215"/>
</linearGradient>
<linearGradient id="paint5_linear_759_4001" x1="580.559" y1="270.538" x2="545.57" y2="275.383" gradientUnits="userSpaceOnUse">
<stop stop-color="#6B3215"/>
<stop offset="1" stop-color="#8E441E"/>
</linearGradient>
<linearGradient id="paint6_linear_759_4001" x1="394.163" y1="232.701" x2="329.236" y2="167.134" gradientUnits="userSpaceOnUse">
<stop stop-color="#FFEA60"/>
<stop offset="1" stop-color="#FEFEFE"/>
</linearGradient>
<linearGradient id="paint7_linear_759_4001" x1="245.387" y1="332.966" x2="273.203" y2="249.909" gradientUnits="userSpaceOnUse">
<stop stop-color="#FFCD1F"/>
<stop offset="1" stop-color="#FFEA60"/>
</linearGradient>
<linearGradient id="paint8_linear_759_4001" x1="266.846" y1="296.046" x2="237.181" y2="275.178" gradientUnits="userSpaceOnUse">
<stop stop-color="#FFCD1F"/>
<stop offset="1" stop-color="#FEFEFE"/>
</linearGradient>
<linearGradient id="paint9_linear_759_4001" x1="270.937" y1="351.225" x2="499.736" y2="505.348" gradientUnits="userSpaceOnUse">
<stop stop-color="#3E200B"/>
<stop offset="1" stop-color="#6B3215"/>
</linearGradient>
<linearGradient id="paint10_linear_759_4001" x1="787.212" y1="191.958" x2="639.081" y2="51.1553" gradientUnits="userSpaceOnUse">
<stop stop-color="#C46811"/>
<stop offset="1" stop-color="#E28403"/>
</linearGradient>
<linearGradient id="paint11_linear_759_4001" x1="684.073" y1="48.4042" x2="654.026" y2="34.3154" gradientUnits="userSpaceOnUse">
<stop stop-color="#FFEA60"/>
<stop offset="1" stop-color="#FEFEFE"/>
</linearGradient>
<linearGradient id="paint12_linear_759_4001" x1="696.615" y1="314.907" x2="633.583" y2="278.453" gradientUnits="userSpaceOnUse">
<stop stop-color="#6B3215"/>
<stop offset="1" stop-color="#C46811"/>
</linearGradient>
<linearGradient id="paint13_linear_759_4001" x1="690.235" y1="299.144" x2="668.692" y2="303.592" gradientUnits="userSpaceOnUse">
<stop stop-color="#8E441E"/>
<stop offset="1" stop-color="#C46811"/>
</linearGradient>
<linearGradient id="paint14_linear_759_4001" x1="277.113" y1="572.99" x2="230.714" y2="558.87" gradientUnits="userSpaceOnUse">
<stop stop-color="#C46811"/>
<stop offset="1" stop-color="#E28403"/>
</linearGradient>
<linearGradient id="paint15_linear_759_4001" x1="432.248" y1="587.891" x2="422.666" y2="566.05" gradientUnits="userSpaceOnUse">
<stop stop-color="#6B3215"/>
<stop offset="1" stop-color="#C46811"/>
</linearGradient>
<linearGradient id="paint16_linear_759_4001" x1="222.898" y1="549.382" x2="209.108" y2="550.243" gradientUnits="userSpaceOnUse">
<stop stop-color="#8E441E"/>
<stop offset="1" stop-color="#C46811"/>
</linearGradient>
<linearGradient id="paint17_linear_759_4001" x1="672.421" y1="487.408" x2="670.614" y2="515.095" gradientUnits="userSpaceOnUse">
<stop stop-color="#6B3215"/>
<stop offset="1" stop-color="#8E441E"/>
</linearGradient>
<linearGradient id="paint18_linear_759_4001" x1="622.316" y1="508.346" x2="639.002" y2="528.075" gradientUnits="userSpaceOnUse">
<stop stop-color="#3E200B"/>
<stop offset="1" stop-color="#6B3215"/>
</linearGradient>
<linearGradient id="paint19_linear_759_4001" x1="725.28" y1="559.949" x2="734.448" y2="543.898" gradientUnits="userSpaceOnUse">
<stop stop-color="#E28403"/>
<stop offset="1" stop-color="#C46811"/>
</linearGradient>
<linearGradient id="paint20_linear_759_4001" x1="163.725" y1="509.35" x2="160.811" y2="541.214" gradientUnits="userSpaceOnUse">
<stop stop-color="#6B3215"/>
<stop offset="1" stop-color="#8E441E"/>
</linearGradient>
<linearGradient id="paint21_linear_759_4001" x1="621.17" y1="549.791" x2="617.287" y2="584.472" gradientUnits="userSpaceOnUse">
<stop stop-color="#6B3215"/>
<stop offset="1" stop-color="#8E441E"/>
</linearGradient>
<linearGradient id="paint22_linear_759_4001" x1="164.131" y1="274.698" x2="12.2183" y2="266.98" gradientUnits="userSpaceOnUse">
<stop stop-color="#8094A2"/>
<stop offset="1" stop-color="#C3CEDD"/>
</linearGradient>
<linearGradient id="paint23_linear_759_4001" x1="107.058" y1="307.168" x2="202.879" y2="178.661" gradientUnits="userSpaceOnUse">
<stop stop-color="#485769"/>
<stop offset="1" stop-color="#8094A2"/>
</linearGradient>
<linearGradient id="paint24_linear_759_4001" x1="179.035" y1="332.728" x2="95.5961" y2="262.62" gradientUnits="userSpaceOnUse">
<stop stop-color="#C3CEDD"/>
<stop offset="1" stop-color="#FEFEFE"/>
</linearGradient>
<linearGradient id="paint25_linear_759_4001" x1="192.417" y1="236.99" x2="19.2913" y2="57.4502" gradientUnits="userSpaceOnUse">
<stop stop-color="#8094A2"/>
<stop offset="1" stop-color="#C3CEDD"/>
</linearGradient>
<linearGradient id="paint26_linear_759_4001" x1="744.733" y1="102.322" x2="744.733" y2="200.15" gradientUnits="userSpaceOnUse">
<stop stop-color="#FFC999"/>
<stop offset="1" stop-color="#ECA137"/>
</linearGradient>
<linearGradient id="paint27_linear_759_4001" x1="793.009" y1="734.544" x2="812.804" y2="726.136" gradientUnits="userSpaceOnUse">
<stop stop-color="#8E441E"/>
<stop offset="1" stop-color="#C46811"/>
</linearGradient>
</defs>
</svg>
