<svg width="85" height="86" viewBox="0 0 85 86" fill="none" xmlns="http://www.w3.org/2000/svg">
<path d="M64.2382 12.21L46.3771 51.354L14.3369 69.1633L22.2561 77.8735L64.2688 72.9632C68.5438 72.4947 71.7935 68.8313 71.8199 64.5083L72.1831 24.8061C72.2012 22.3471 71.3085 19.9629 69.6319 18.1272L64.2382 12.21Z" fill="url(#paint0_linear_274_1162)"/>
<path d="M64.2382 12.21L46.3771 51.354L14.3369 69.1633L22.2561 77.8735L64.2688 72.9632C68.5438 72.4947 71.7935 68.8313 71.8199 64.5083L72.1831 24.8061C72.2012 22.3471 71.3085 19.9629 69.6319 18.1272L64.2382 12.21Z" fill="url(#paint1_linear_274_1162)"/>
<path d="M70.1397 18.7527C69.9972 18.537 69.7758 18.3424 69.6334 18.1267L62.7845 10.5684L59.7865 22.1192L46.3787 51.3534L30.0138 60.3928L24.1729 67.9663L28.2244 74.2432L62.3455 70.5165C66.5416 70.0692 69.7334 66.5059 69.7809 62.2618L70.1397 18.7527Z" fill="#EAE0DA"/>
<path d="M58.7307 9.96222L27.3844 13.6224L17.5499 14.8189L16.0867 68.1021L14.3398 69.1625L15.6738 70.6669L59.308 65.4913C62.909 65.0342 65.5962 62.1139 65.7129 58.4437L66.8063 17.3611C66.8905 12.9379 63.0847 9.47258 58.7307 9.96222Z" fill="url(#paint2_linear_274_1162)"/>
<path d="M15.8173 13.4212L14.3359 69.1635L24.1704 67.967L25.6729 12.3037L15.8173 13.4212Z" fill="url(#paint3_linear_274_1162)"/>
<path d="M57.5922 8.57354L25.6622 12.8979L24.6855 67.9971L58.0904 64.1239C61.6915 63.6667 64.3786 60.7464 64.4953 57.0762L65.5889 15.9936C65.7521 11.5493 61.9461 8.0839 57.5922 8.57354Z" fill="url(#paint4_linear_274_1162)"/>
<path d="M57.5922 8.57354L25.6622 12.8979L24.6855 67.9971L58.0904 64.1239C61.6915 63.6667 64.3786 60.7464 64.4953 57.0762L65.5889 15.9936C65.7521 11.5493 61.9461 8.0839 57.5922 8.57354Z" fill="url(#paint5_linear_274_1162)"/>
<path d="M56.9979 8.56386L25.6727 12.303L25.5885 16.7261L57.5665 12.8967C58.7142 12.7584 59.5363 13.2997 59.8789 13.6311C60.2216 13.9624 60.8491 14.7251 60.8294 15.9151L59.7148 56.9188C59.6374 58.209 58.7647 59.3737 57.5014 59.7122C57.3435 59.7545 57.1856 59.7968 57.1066 59.818L24.3179 63.78L24.1914 68.0452L57.5963 64.1719C61.1973 63.7148 63.8845 60.7945 64.0012 57.1243L65.0946 16.0417C65.1789 11.6186 61.3519 8.07422 56.9979 8.56386Z" fill="url(#paint6_linear_274_1162)"/>
<path d="M25.1713 69.4768L15.6738 70.6676L14.3398 69.1633L24.1743 67.9668L25.1713 69.4768Z" fill="#87550F"/>
<defs>
<linearGradient id="paint0_linear_274_1162" x1="3.22572" y1="21.8022" x2="72.0556" y2="61.7627" gradientUnits="userSpaceOnUse">
<stop stop-color="#996113"/>
<stop offset="1" stop-color="#B47B20"/>
</linearGradient>
<linearGradient id="paint1_linear_274_1162" x1="-15.2861" y1="29.5555" x2="22.8481" y2="96.8568" gradientUnits="userSpaceOnUse">
<stop stop-color="#694410"/>
<stop offset="1" stop-color="#815522"/>
</linearGradient>
<linearGradient id="paint2_linear_274_1162" x1="8.70525" y1="48.1337" x2="70.906" y2="31.467" gradientUnits="userSpaceOnUse">
<stop stop-color="#997813"/>
<stop offset="1" stop-color="#B46A20"/>
</linearGradient>
<linearGradient id="paint3_linear_274_1162" x1="12.8958" y1="14.204" x2="27.0918" y2="67.1842" gradientUnits="userSpaceOnUse">
<stop stop-color="#F89019"/>
<stop offset="1" stop-color="#DC2B2B"/>
</linearGradient>
<linearGradient id="paint4_linear_274_1162" x1="64.8028" y1="69.5626" x2="28.364" y2="16.0801" gradientUnits="userSpaceOnUse">
<stop stop-color="#996613"/>
<stop offset="1" stop-color="#B4A020"/>
</linearGradient>
<linearGradient id="paint5_linear_274_1162" x1="-3.96019" y1="16.9291" x2="36.829" y2="79.7643" gradientUnits="userSpaceOnUse">
<stop stop-color="#694D10"/>
<stop offset="1" stop-color="#812222"/>
</linearGradient>
<linearGradient id="paint6_linear_274_1162" x1="36.0777" y1="9.515" x2="51.2015" y2="65.9579" gradientUnits="userSpaceOnUse">
<stop stop-color="#F8B119"/>
<stop offset="1" stop-color="#DCA42B"/>
</linearGradient>
</defs>
</svg>
