<svg width="26" height="36" viewBox="0 0 26 36" fill="none" xmlns="http://www.w3.org/2000/svg">
<g clip-path="url(#clip0_274_1172)">
<mask id="mask0_274_1172" style="mask-type:luminance" maskUnits="userSpaceOnUse" x="0" y="0" width="26" height="36">
<path d="M25.5 0H0.5V36H25.5V0Z" fill="white"/>
</mask>
<g mask="url(#mask0_274_1172)">
<path d="M25.1685 12.9246C24.8869 12.293 24.4305 11.7567 23.854 11.38C23.2776 11.0032 22.6056 10.8021 21.9187 10.8007H18.6866L21.0615 4.93286C21.2737 4.39407 21.3537 3.81161 21.2946 3.235C21.2355 2.65839 21.0392 2.10469 20.7223 1.62097C20.3835 1.11986 19.928 0.710135 19.3957 0.42771C18.8633 0.145286 18.2704 -0.0012216 17.6688 0.00102707H9.91911C9.18665 -0.0166097 8.46654 0.193265 7.85643 0.602186C7.24632 1.01111 6.77574 1.59929 6.50853 2.28695L0.740892 16.6865C0.534356 17.2242 0.458991 17.8041 0.52114 18.3773C0.583289 18.9505 0.781133 19.5003 1.09802 19.9803C1.43677 20.4815 1.89227 20.8912 2.42462 21.1736C2.95697 21.456 3.5499 21.6025 4.15148 21.6003H9.07986L5.84784 33.7319C5.74016 34.1278 5.76999 34.5489 5.93239 34.9254C6.09478 35.3019 6.37997 35.6111 6.74066 35.8018C7.01912 35.9364 7.32471 36.0042 7.63349 35.9998C7.89141 35.9998 8.14627 35.9435 8.38054 35.8348C8.61481 35.726 8.82293 35.5674 8.99058 35.3698L24.7043 16.7045C25.1246 16.1812 25.3909 15.5496 25.4729 14.8815C25.555 14.2133 25.4495 13.5354 25.1685 12.9246Z" fill="#74480D"/>
</g>
</g>
<defs>
<clipPath id="clip0_274_1172">
<rect width="25" height="36" fill="white" transform="translate(0.5)"/>
</clipPath>
</defs>
</svg>
