<svg width="94" height="67" viewBox="0 0 94 67" fill="none" xmlns="http://www.w3.org/2000/svg">
<g clip-path="url(#clip0_274_1178)">
<mask id="mask0_274_1178" style="mask-type:luminance" maskUnits="userSpaceOnUse" x="0" y="0" width="94" height="67">
<path d="M93.5 0H0.5V67H93.5V0Z" fill="white"/>
</mask>
<g mask="url(#mask0_274_1178)">
<path d="M79.688 41.4323C85.5931 41.4323 90.3812 36.6473 90.3812 30.7422C90.3812 24.8371 85.593 20.0488 79.688 20.0488C73.7843 20.0488 68.9961 24.8371 68.9961 30.7422C68.9963 36.6473 73.7843 41.4323 79.688 41.4323Z" fill="url(#paint0_linear_274_1178)"/>
<path d="M93.3765 51.737C92.9 48.8739 90.5334 44.8669 88.7421 43.0769C88.5061 42.8397 87.4515 42.7848 87.1667 42.9614C84.9888 44.3008 82.4306 45.0891 79.6849 45.0891C76.9423 45.0891 74.3839 44.3008 72.2059 42.9614C71.9198 42.7848 70.8666 42.8397 70.6307 43.0769C70.1299 43.5777 69.5835 44.2443 69.0508 45.0173C70.4921 47.7311 71.6352 50.6137 72.0477 53.096C72.46 55.5845 72.3261 57.9403 71.6593 60.0881C74.0276 60.9449 76.8675 61.3209 79.6848 61.3209C87.033 61.3209 94.5529 58.773 93.3765 51.737Z" fill="url(#paint1_linear_274_1178)"/>
<path d="M46.7269 34.7154C56.297 34.7154 64.0559 26.9564 64.0559 17.3865C64.0559 7.81951 56.297 0.0605469 46.7269 0.0605469C37.1584 0.0605469 29.4023 7.81951 29.4023 17.3865C29.4023 26.9564 37.1582 34.7154 46.7269 34.7154Z" fill="url(#paint2_linear_274_1178)"/>
<path d="M61.3975 37.37C61.0215 36.9956 59.3141 36.8999 58.8498 37.1873C55.3173 39.3608 51.1715 40.6332 46.7242 40.6332C42.2802 40.6332 38.1326 39.3608 34.6019 37.1873C34.1378 36.8997 32.4302 36.9956 32.0542 37.37C29.1441 40.277 25.3088 46.7757 24.5371 51.4086C22.6346 62.8204 34.8242 66.9404 46.7242 66.9404C58.6275 66.9404 70.8168 62.8204 68.9143 51.4086C68.1427 46.7757 64.3074 40.277 61.3975 37.37Z" fill="url(#paint3_linear_274_1178)"/>
<path d="M14.3145 39.2262C20.2181 39.2262 25.0062 34.4413 25.0062 28.5361C25.0062 22.631 20.2181 17.8428 14.3145 17.8428C8.40914 17.8428 3.62109 22.631 3.62109 28.5361C3.62109 34.4413 8.40914 39.2262 14.3145 39.2262Z" fill="black"/>
<path d="M14.3145 39.2262C20.2181 39.2262 25.0062 34.4413 25.0062 28.5361C25.0062 22.631 20.2181 17.8428 14.3145 17.8428C8.40914 17.8428 3.62109 22.631 3.62109 28.5361C3.62109 34.4413 8.40914 39.2262 14.3145 39.2262Z" fill="url(#paint4_linear_274_1178)"/>
<path d="M21.4058 50.889C21.8443 48.2819 23.0815 45.2121 24.6325 42.3736C24.2002 41.7831 23.7681 41.2687 23.3692 40.8698C23.1332 40.6326 22.0801 40.5778 21.794 40.7543C19.6159 42.0937 17.0575 42.8821 14.3137 42.8821C11.5694 42.8821 9.00941 42.0937 6.83317 40.7543C6.54836 40.5778 5.4923 40.6326 5.25635 40.8698C3.46047 42.6597 1.10005 46.6669 0.621967 49.5299C-0.55288 56.566 6.96558 59.1136 14.3137 59.1136C16.936 59.1136 19.5842 58.7909 21.8443 58.0529C21.1321 55.8614 20.9813 53.4505 21.4058 50.889Z" fill="black"/>
<path d="M21.4058 50.889C21.8443 48.2819 23.0815 45.2121 24.6325 42.3736C24.2002 41.7831 23.7681 41.2687 23.3692 40.8698C23.1332 40.6326 22.0801 40.5778 21.794 40.7543C19.6159 42.0937 17.0575 42.8821 14.3137 42.8821C11.5694 42.8821 9.00941 42.0937 6.83317 40.7543C6.54836 40.5778 5.4923 40.6326 5.25635 40.8698C3.46047 42.6597 1.10005 46.6669 0.621967 49.5299C-0.55288 56.566 6.96558 59.1136 14.3137 59.1136C16.936 59.1136 19.5842 58.7909 21.8443 58.0529C21.1321 55.8614 20.9813 53.4505 21.4058 50.889Z" fill="url(#paint5_linear_274_1178)"/>
</g>
</g>
<defs>
<linearGradient id="paint0_linear_274_1178" x1="79.6886" y1="20.0488" x2="79.6886" y2="41.4323" gradientUnits="userSpaceOnUse">
<stop stop-color="#72530F"/>
<stop offset="1" stop-color="#D8651D"/>
</linearGradient>
<linearGradient id="paint1_linear_274_1178" x1="81.2748" y1="42.8574" x2="81.2748" y2="61.3209" gradientUnits="userSpaceOnUse">
<stop stop-color="#72240F"/>
<stop offset="1" stop-color="#D8AC1D"/>
</linearGradient>
<linearGradient id="paint2_linear_274_1178" x1="46.7291" y1="0.0605469" x2="46.7291" y2="34.7154" gradientUnits="userSpaceOnUse">
<stop stop-color="#F89B19"/>
<stop offset="1" stop-color="#DC982B"/>
</linearGradient>
<linearGradient id="paint3_linear_274_1178" x1="46.7257" y1="37.0195" x2="46.7257" y2="66.9404" gradientUnits="userSpaceOnUse">
<stop stop-color="#F89B19"/>
<stop offset="1" stop-color="#DC9E2B"/>
</linearGradient>
<linearGradient id="paint4_linear_274_1178" x1="14.3136" y1="17.8428" x2="14.3136" y2="39.2262" gradientUnits="userSpaceOnUse">
<stop stop-color="#72490F"/>
<stop offset="1" stop-color="#D8521D"/>
</linearGradient>
<linearGradient id="paint5_linear_274_1178" x1="12.5662" y1="40.6504" x2="12.5662" y2="59.1136" gradientUnits="userSpaceOnUse">
<stop stop-color="#724F0F"/>
<stop offset="1" stop-color="#D8421D"/>
</linearGradient>
<clipPath id="clip0_274_1178">
<rect width="93" height="67" fill="white" transform="translate(0.5)"/>
</clipPath>
</defs>
</svg>
