<svg width="32" height="35" viewBox="0 0 32 35" fill="none" xmlns="http://www.w3.org/2000/svg">
<mask id="mask0_954_8" style="mask-type:luminance" maskUnits="userSpaceOnUse" x="0" y="0" width="32" height="35">
<path d="M31.5 0H0.5V35H31.5V0Z" fill="white"/>
</mask>
<g mask="url(#mask0_954_8)">
<mask id="mask1_954_8" style="mask-type:luminance" maskUnits="userSpaceOnUse" x="0" y="0" width="32" height="35">
<path d="M31.5 0H0.5V35H31.5V0Z" fill="white"/>
</mask>
<g mask="url(#mask1_954_8)">
<path d="M30.7894 18.1855C30.5563 9.96811 23.4462 3.79046 15.2287 5.30573C8.23515 6.58788 3.98074 14.1059 7.12784 20.5167C8.64311 23.6638 12.4313 25.0625 15.7532 24.3049C19.25 23.5473 21.115 19.3511 19.7745 16.204C19.0169 14.4556 16.1029 15.2133 16.8605 17.0199C18.2593 20.3419 14.7625 22.3234 11.9068 21.0995C9.75043 20.167 9.05107 17.661 9.05107 15.5047C9.10935 10.2012 15.287 7.34553 19.9494 8.16145C25.8939 9.26876 28.4582 16.0875 27.5257 21.4492C26.535 27.2189 21.2315 31.0653 15.695 32.0561C13.7717 32.4058 14.5876 35.3198 16.5109 34.9701C24.7283 33.4548 31.0225 26.6944 30.7894 18.1855Z" fill="#E59121"/>
<path d="M24.1448 13.6991C20.4149 7.17174 9.22518 10.8434 11.906 18.478C12.5471 20.2847 15.4611 19.527 14.82 17.6621C13.8293 14.8064 15.8108 12.8249 18.8413 13.2328C21.1725 13.5825 22.3381 16.2051 22.5712 18.2449C23.4454 25.0636 15.5194 28.6187 10.0994 26.2292C4.97077 23.9563 2.69786 18.1283 3.92173 12.8831C5.20388 7.63798 10.1577 3.44184 15.5194 3.03388C17.4426 2.85904 17.4426 -0.11322 15.5194 0.00333951C7.47679 0.644416 1.12431 7.23002 0.54151 15.1561C-0.099567 23.0821 6.77744 30.3671 14.7618 30.0757C22.9209 29.7843 28.1661 20.6926 24.1448 13.6991Z" fill="#E59121"/>
</g>
</g>
</svg>
