<svg width="32" height="35" viewBox="0 0 32 35" fill="none" xmlns="http://www.w3.org/2000/svg">
<g clip-path="url(#clip0_274_1191)">
<mask id="mask0_274_1191" style="mask-type:luminance" maskUnits="userSpaceOnUse" x="0" y="0" width="32" height="35">
<path d="M31.5 0H0.5V35H31.5V0Z" fill="white"/>
</mask>
<g mask="url(#mask0_274_1191)">
<path d="M30.7894 18.1865C30.5563 9.96909 23.4462 3.79144 15.2287 5.30671C8.23515 6.58886 3.98074 14.1069 7.12784 20.5177C8.64311 23.6648 12.4313 25.0635 15.7532 24.3059C19.25 23.5483 21.115 19.3521 19.7745 16.205C19.0169 14.4566 16.1029 15.2143 16.8605 17.0209C18.2593 20.3429 14.7625 22.3244 11.9068 21.1005C9.75043 20.168 9.05107 17.662 9.05107 15.5057C9.10935 10.2022 15.287 7.3465 19.9494 8.16242C25.8939 9.26973 28.4582 16.0885 27.5257 21.4502C26.535 27.2199 21.2315 31.0663 15.695 32.0571C13.7717 32.4068 14.5876 35.3208 16.5109 34.9711C24.7283 33.4558 31.0225 26.6954 30.7894 18.1865Z" fill="#74480D"/>
<path d="M24.1448 13.6991C20.4149 7.17174 9.22518 10.8434 11.906 18.478C12.5471 20.2847 15.4611 19.527 14.82 17.6621C13.8293 14.8064 15.8108 12.8249 18.8413 13.2328C21.1725 13.5825 22.3381 16.2051 22.5712 18.2449C23.4454 25.0636 15.5194 28.6187 10.0994 26.2292C4.97077 23.9563 2.69786 18.1283 3.92173 12.8831C5.20388 7.63798 10.1577 3.44184 15.5194 3.03388C17.4426 2.85904 17.4426 -0.11322 15.5194 0.00333951C7.47679 0.644416 1.12431 7.23002 0.54151 15.1561C-0.099567 23.0821 6.77744 30.3671 14.7618 30.0757C22.9209 29.7843 28.1661 20.6926 24.1448 13.6991Z" fill="#74480D"/>
</g>
</g>
<defs>
<clipPath id="clip0_274_1191">
<rect width="31" height="35" fill="white" transform="translate(0.5)"/>
</clipPath>
</defs>
</svg>
